<svg width="21" height="20" viewBox="0 0 21 20" fill="none" xmlns="http://www.w3.org/2000/svg">
<path fill-rule="evenodd" clip-rule="evenodd" d="M9.30393 0C14.4397 0 18.6079 3.96968 18.6079 8.86088C18.6079 13.7521 14.4397 17.7218 9.30393 17.7218C4.16816 17.7218 0 13.7521 0 8.86088C0 3.96968 4.16816 0 9.30393 0ZM16.5403 8.86088C16.5403 12.6681 13.3015 15.7527 9.30393 15.7527C5.30531 15.7527 2.06754 12.6681 2.06754 8.86088C2.06754 5.05267 5.30531 1.96909 9.30393 1.96909C13.3015 1.96909 16.5403 5.05267 16.5403 8.86088Z" fill="#A1A1A6"/>
<path d="M18.0755 15.8226L21 18.6069L19.5372 20L16.6137 17.2147L18.0755 15.8226Z" fill="#A1A1A6"/>
</svg>
