<svg width="13" height="13" viewBox="0 0 13 13" fill="none" xmlns="http://www.w3.org/2000/svg">
<path d="M8.05178 10.0157L4.64511 8.1577C4.31811 8.4823 3.90232 8.70282 3.45017 8.79145C2.99802 8.88009 2.52975 8.83288 2.10439 8.65577C1.67904 8.47866 1.31564 8.17958 1.06001 7.79624C0.804382 7.4129 0.667969 6.96246 0.667969 6.5017C0.667969 6.04095 0.804382 5.5905 1.06001 5.20716C1.31564 4.82382 1.67904 4.52474 2.10439 4.34764C2.52975 4.17053 2.99802 4.12331 3.45017 4.21195C3.90232 4.30059 4.31811 4.5211 4.64511 4.8457L8.05178 2.9877C7.93494 2.43953 8.01933 1.86761 8.28951 1.37654C8.55968 0.885466 8.9976 0.508056 9.52318 0.313324C10.0487 0.118592 10.6269 0.119551 11.1518 0.316025C11.6767 0.5125 12.1134 0.891361 12.3819 1.38333C12.6505 1.87529 12.733 2.44749 12.6143 2.99527C12.4956 3.54306 12.1838 4.02983 11.7357 4.36657C11.2877 4.70331 10.7334 4.86752 10.1742 4.82917C9.61501 4.79081 9.08833 4.55246 8.69044 4.1577L5.28378 6.0157C5.35173 6.33614 5.35173 6.66727 5.28378 6.9877L8.69044 8.8457C9.08833 8.45094 9.61501 8.21259 10.1742 8.17424C10.7334 8.13588 11.2877 8.30009 11.7357 8.63684C12.1838 8.97358 12.4956 9.46035 12.6143 10.0081C12.733 10.5559 12.6505 11.1281 12.3819 11.6201C12.1134 12.112 11.6767 12.4909 11.1518 12.6874C10.6269 12.8839 10.0487 12.8848 9.52318 12.6901C8.9976 12.4953 8.55968 12.1179 8.28951 11.6269C8.01933 11.1358 7.93494 10.5639 8.05178 10.0157Z" fill="#1254FF"/>
</svg>
