<svg width="13" height="14" viewBox="0 0 13 14" fill="none" xmlns="http://www.w3.org/2000/svg">
<path d="M0.825521 0.894531H12.1589C12.3467 0.894531 12.5269 0.969159 12.6597 1.102C12.7926 1.23484 12.8672 1.415 12.8672 1.60286V12.9362C12.8672 13.1241 12.7926 13.3042 12.6597 13.4371C12.5269 13.5699 12.3467 13.6445 12.1589 13.6445H0.825521C0.637659 13.6445 0.457492 13.5699 0.324653 13.4371C0.191815 13.3042 0.117188 13.1241 0.117188 12.9362V1.60286C0.117188 1.415 0.191815 1.23484 0.324653 1.102C0.457492 0.969159 0.637659 0.894531 0.825521 0.894531ZM5.78385 6.5612H2.95052V7.97786H5.78385V10.8112H7.20052V7.97786H10.0339V6.5612H7.20052V3.72786H5.78385V6.5612Z" fill="white"/>
</svg>
