<svg width="27" height="20" viewBox="0 0 27 20" fill="none" xmlns="http://www.w3.org/2000/svg">
<path d="M2.7 20H0C0 15.5817 3.62649 12 8.1 12C12.5735 12 16.2 15.5817 16.2 20H13.5C13.5 17.0545 11.0823 14.6667 8.1 14.6667C5.11766 14.6667 2.7 17.0545 2.7 20ZM22.95 16H20.25V12H16.2V9.33333H20.25V5.33333H22.95V9.33333H27V12H22.95V16ZM8.1 10.6667C5.11766 10.6667 2.7 8.27885 2.7 5.33333C2.7 2.38781 5.11766 0 8.1 0C11.0823 0 13.5 2.38781 13.5 5.33333C13.4963 8.27733 11.0808 10.663 8.1 10.6667ZM8.1 2.66667C6.62498 2.66814 5.42415 3.83846 5.40301 5.29512C5.38188 6.75178 6.54826 7.9556 8.02263 7.99883C9.497 8.04205 10.7336 6.90866 10.8 5.45333V5.98667V5.33333C10.8 3.86057 9.59117 2.66667 8.1 2.66667Z" fill="#2E3A59"/>
</svg>
