<svg width="9" height="12" viewBox="0 0 9 12" fill="none" xmlns="http://www.w3.org/2000/svg">
<path d="M4.49998 12C3.68801 11.2819 2.93539 10.4947 2.24999 9.64649C1.22142 8.37275 5.68066e-07 6.47581 5.68066e-07 4.66818C-0.000911103 2.78027 1.09558 1.07785 2.77782 0.355333C4.46005 -0.36718 6.39644 0.0326284 7.68339 1.36819C8.52968 2.24175 9.00376 3.43003 8.99998 4.66818C8.99998 6.47581 7.77853 8.37275 6.74997 9.64649C6.06457 10.4947 5.31195 11.2819 4.49998 12ZM4.49998 2.66859C3.81097 2.66859 3.1743 3.04971 2.82979 3.66839C2.48529 4.28706 2.48529 5.0493 2.82979 5.66797C3.1743 6.28665 3.81097 6.66777 4.49998 6.66777C5.56509 6.66777 6.42854 5.77252 6.42854 4.66818C6.42854 3.56384 5.56509 2.66859 4.49998 2.66859Z" fill="#586795"/>
</svg>
