<svg width="16" height="14" viewBox="0 0 16 14" fill="none" xmlns="http://www.w3.org/2000/svg">
<path d="M15.2231 2.43017C14.6639 2.68369 14.0709 2.85019 13.4637 2.92416C14.1037 2.53185 14.5827 1.91442 14.8115 1.18694C14.2108 1.55331 13.5523 1.81006 12.866 1.94895C12.405 1.44338 11.7939 1.10809 11.1278 0.995193C10.4617 0.882297 9.77781 0.998125 9.18254 1.32467C8.58727 1.65121 8.11394 2.17018 7.83613 2.80088C7.55832 3.43159 7.4916 4.1387 7.64634 4.81228C6.4283 4.74971 5.23672 4.42529 4.14895 3.86009C3.06119 3.29488 2.10156 2.50153 1.33236 1.53153C1.06009 2.01085 0.917009 2.55572 0.917774 3.11035C0.917774 4.19892 1.45834 5.16062 2.28019 5.72368C1.79383 5.70799 1.31817 5.57337 0.89287 5.33104V5.37008C0.893017 6.09507 1.13779 6.79771 1.58568 7.35884C2.03358 7.91998 2.65704 8.30509 3.35034 8.44888C2.89885 8.57428 2.42544 8.59276 1.96595 8.50293C2.16143 9.12697 2.54242 9.67274 3.05558 10.0638C3.56875 10.4549 4.18839 10.6717 4.82775 10.6838C4.19231 11.1953 3.46474 11.5735 2.68663 11.7966C1.90852 12.0197 1.09513 12.0834 0.292969 11.9841C1.69325 12.9071 3.32331 13.3971 4.98817 13.3955C10.6231 13.3955 13.7047 8.61104 13.7047 4.46168C13.7047 4.32655 13.701 4.18991 13.6952 4.05628C14.295 3.61197 14.8126 3.06156 15.2238 2.43092L15.2231 2.43017Z" fill="white"/>
</svg>
