<svg width="16" height="18" viewBox="0 0 16 18" fill="none" xmlns="http://www.w3.org/2000/svg">
<path d="M1.61202 0.339977L15.4859 8.43349C15.5853 8.4917 15.6678 8.57491 15.7251 8.67485C15.7824 8.7748 15.8125 8.888 15.8125 9.00321C15.8125 9.11842 15.7824 9.23162 15.7251 9.33156C15.6678 9.43151 15.5853 9.51472 15.4859 9.57292L1.61202 17.6664C1.5115 17.7251 1.39726 17.7561 1.28088 17.7564C1.1645 17.7567 1.05011 17.7262 0.949314 17.668C0.848515 17.6099 0.764886 17.5261 0.706904 17.4252C0.648921 17.3242 0.618646 17.2098 0.619147 17.0934V0.910351C0.619112 0.794194 0.649727 0.680085 0.7079 0.579544C0.766072 0.479004 0.849743 0.395592 0.950463 0.337731C1.05118 0.27987 1.16539 0.249609 1.28154 0.250004C1.3977 0.250398 1.5117 0.281434 1.61202 0.339977Z" fill="#1254FF"/>
</svg>
