<svg width="15" height="14" viewBox="0 0 15 14" fill="none" xmlns="http://www.w3.org/2000/svg">
<path d="M3.25624 1.77218C3.25605 2.16327 3.09996 2.53825 2.82233 2.81465C2.5447 3.09105 2.16826 3.24622 1.77582 3.24602C1.38338 3.24582 1.0071 3.09028 0.729741 2.81361C0.452385 2.53693 0.296679 2.16179 0.296875 1.77071C0.297071 1.37963 0.453154 1.00464 0.730788 0.728246C1.00842 0.451848 1.38486 0.29668 1.7773 0.296875C2.16973 0.297071 2.54602 0.452615 2.82338 0.729289C3.10073 1.00596 3.25644 1.3811 3.25624 1.77218ZM3.30063 4.33794H0.341266V13.5688H3.30063V4.33794ZM7.97643 4.33794H5.03186V13.5688H7.94684V8.7248C7.94684 6.02633 11.4759 5.77565 11.4759 8.7248V13.5688H14.3983V7.72208C14.3983 3.17303 9.17498 3.3426 7.94684 5.57658L7.97643 4.33794Z" fill="white"/>
</svg>
