<svg width="14" height="13" viewBox="0 0 14 13" fill="none" xmlns="http://www.w3.org/2000/svg">
<path d="M0.788594 0.953125H12.7333C12.9093 0.953125 13.0781 1.0211 13.2025 1.14209C13.327 1.26308 13.3969 1.42718 13.3969 1.59829V11.9209C13.3969 12.092 13.327 12.2561 13.2025 12.3771C13.0781 12.4981 12.9093 12.566 12.7333 12.566H0.788594C0.612598 12.566 0.44381 12.4981 0.319362 12.3771C0.194914 12.2561 0.125 12.092 0.125 11.9209V1.59829C0.125 1.42718 0.194914 1.26308 0.319362 1.14209C0.44381 1.0211 0.612598 0.953125 0.788594 0.953125ZM7.4385 6.01858C7.06908 6.32935 6.53038 6.33183 6.1581 6.02448L3.03512 3.44615C2.76268 3.22122 2.36071 3.25392 2.12821 3.51994C1.88626 3.79675 1.9206 4.21869 2.20413 4.45274L6.16671 7.72388C6.539 8.03121 7.07769 8.0287 7.4471 7.71792L11.3266 4.45414C11.6079 4.2175 11.6385 3.7954 11.3942 3.52071C11.1592 3.25647 10.7566 3.22731 10.486 3.45493L7.4385 6.01858Z" fill="white"/>
</svg>
