<svg width="20" height="18" viewBox="0 0 20 18" fill="none" xmlns="http://www.w3.org/2000/svg">
<path d="M1.75065 0.75H18.2507C18.4938 0.75 18.7269 0.846577 18.8988 1.01849C19.0707 1.19039 19.1673 1.42355 19.1673 1.66667V16.3333C19.1673 16.5764 19.0707 16.8096 18.8988 16.9815C18.7269 17.1534 18.4938 17.25 18.2507 17.25H1.75065C1.50754 17.25 1.27438 17.1534 1.10247 16.9815C0.930561 16.8096 0.833984 16.5764 0.833984 16.3333V1.66667C0.833984 1.42355 0.930561 1.19039 1.10247 1.01849C1.27438 0.846577 1.50754 0.75 1.75065 0.75ZM10.7039 8.14854C10.3309 8.47128 9.77824 8.47384 9.40226 8.15457L4.87643 4.31128C4.49065 3.98368 3.91237 4.03075 3.58465 4.41642C3.25677 4.80229 3.30388 5.38092 3.68986 5.70865L9.41416 10.5691C9.79015 10.8884 10.3428 10.8858 10.7158 10.563L16.3239 5.71014C16.7067 5.37897 16.7486 4.8003 16.4176 4.41744C16.0864 4.03433 15.5073 3.99237 15.1243 4.32373L10.7039 8.14854Z" fill="white"/>
</svg>
