<svg width="22" height="18" viewBox="0 0 22 18" fill="none" xmlns="http://www.w3.org/2000/svg">
<path d="M21.1623 2.65495C20.3989 2.99264 19.5893 3.21442 18.7603 3.31295C19.634 2.79038 20.288 1.96796 20.6003 0.99895C19.7803 1.48695 18.8813 1.82895 17.9443 2.01395C17.3149 1.34053 16.4807 0.893913 15.5713 0.743535C14.6618 0.593156 13.7282 0.747441 12.9156 1.1824C12.1029 1.61737 11.4567 2.30863 11.0774 3.14874C10.6981 3.98885 10.607 4.93073 10.8183 5.82795C9.15541 5.7446 7.52863 5.31247 6.04358 4.55961C4.55854 3.80675 3.24842 2.75 2.1983 1.45795C1.82659 2.0964 1.63125 2.82218 1.6323 3.56095C1.6323 5.01095 2.3703 6.29195 3.4923 7.04195C2.82831 7.02105 2.17893 6.84173 1.5983 6.51895V6.57095C1.5985 7.53665 1.93267 8.47257 2.54414 9.22001C3.15562 9.96745 4.00678 10.4804 4.9533 10.672C4.33691 10.839 3.6906 10.8636 3.0633 10.7439C3.33016 11.5752 3.8503 12.3021 4.55089 12.8231C5.25147 13.344 6.09742 13.6327 6.9703 13.6489C6.10278 14.3303 5.10947 14.8339 4.04718 15.1311C2.98488 15.4283 1.87442 15.5132 0.779297 15.3809C2.69099 16.6104 4.91639 17.2631 7.1893 17.2609C14.8823 17.2609 19.0893 10.888 19.0893 5.36095C19.0893 5.18095 19.0843 4.99895 19.0763 4.82095C19.8952 4.22912 20.6019 3.49597 21.1633 2.65595L21.1623 2.65495Z" fill="white"/>
</svg>
