<svg width="14" height="14" viewBox="0 0 14 14" fill="none" xmlns="http://www.w3.org/2000/svg">
<path d="M5.00065 8.66797V10.668H9.00065V8.66797H13.6673V13.3346C13.6673 13.5114 13.5971 13.681 13.4721 13.806C13.347 13.9311 13.1775 14.0013 13.0007 14.0013H1.00065C0.82384 14.0013 0.654271 13.9311 0.529246 13.806C0.404222 13.681 0.333984 13.5114 0.333984 13.3346V8.66797H5.00065ZM6.33398 7.33463H7.66732V9.33463H6.33398V7.33463ZM3.66732 3.33464V1.33464C3.66732 1.15782 3.73756 0.988255 3.86258 0.863231C3.9876 0.738207 4.15717 0.667969 4.33398 0.667969H9.66732C9.84413 0.667969 10.0137 0.738207 10.1387 0.863231C10.2637 0.988255 10.334 1.15782 10.334 1.33464V3.33464H13.0007C13.1775 3.33464 13.347 3.40487 13.4721 3.5299C13.5971 3.65492 13.6673 3.82449 13.6673 4.0013V7.33463H9.00065V6.0013H5.00065V7.33463H0.333984V4.0013C0.333984 3.82449 0.404222 3.65492 0.529246 3.5299C0.654271 3.40487 0.82384 3.33464 1.00065 3.33464H3.66732ZM5.00065 2.0013V3.33464H9.00065V2.0013H5.00065Z" fill="#586795"/>
</svg>
