<svg width="18" height="18" viewBox="0 0 18 18" fill="none" xmlns="http://www.w3.org/2000/svg">
<path d="M6.71428 7.71429C7.26657 7.71429 7.71429 7.26657 7.71429 6.71429V1.28571C7.71429 0.575635 8.28992 0 9 0C9.71008 0 10.2857 0.575634 10.2857 1.28571V6.71428C10.2857 7.26657 10.7334 7.71429 11.2857 7.71429H16.7143C17.4244 7.71429 18 8.28992 18 9C18 9.71008 17.4244 10.2857 16.7143 10.2857H11.2857C10.7334 10.2857 10.2857 10.7334 10.2857 11.2857V16.7143C10.2857 17.4244 9.71008 18 9 18C8.28992 18 7.71429 17.4244 7.71429 16.7143V11.2857C7.71429 10.7334 7.26657 10.2857 6.71429 10.2857H1.28571C0.575635 10.2857 0 9.71008 0 9C0 8.28992 0.575634 7.71429 1.28571 7.71429H6.71428Z" fill="#586795"/>
</svg>
