<svg width="13" height="18" viewBox="0 0 13 18" fill="none" xmlns="http://www.w3.org/2000/svg">
<path d="M0.125 6.41932C0.125 5.72269 0.266464 5.03105 0.550999 4.34603C0.835535 3.66102 1.24224 3.02411 1.77273 2.43861C2.30322 1.85312 2.99929 1.37709 3.86254 1.01219C4.72579 0.647293 5.68228 0.464844 6.73201 0.464844C8.43601 0.464844 9.83457 1.00721 10.9277 2.0903C12.0208 3.17338 12.5674 4.45053 12.5674 5.92173C12.5674 7.81256 12.1044 9.37499 11.1769 10.6074C10.2493 11.8397 9.0517 12.4567 7.58401 12.4567C7.10174 12.4567 6.64842 12.3406 6.22563 12.1084C5.80285 11.8762 5.50545 11.5942 5.33345 11.2625L4.69043 13.8831C4.63738 14.0938 4.56665 14.3061 4.48145 14.5217C4.39625 14.7373 4.3014 14.9447 4.20013 15.1437C4.09885 15.3427 3.99597 15.5302 3.89469 15.7076C3.79342 15.8851 3.69053 16.051 3.58926 16.2052C3.48798 16.3595 3.39957 16.4905 3.32401 16.595C3.24846 16.6995 3.17933 16.7907 3.11503 16.8687L3.01858 17.0014C2.98643 17.0461 2.94303 17.0627 2.88998 17.0511C2.83693 17.0395 2.80478 17.0063 2.79352 16.9516C2.79352 16.94 2.78549 16.8637 2.76941 16.7194C2.75334 16.5751 2.73726 16.4242 2.72118 16.2633C2.70511 16.1024 2.68903 15.8951 2.67296 15.6413C2.65688 15.3875 2.65206 15.1404 2.65688 14.9032C2.66171 14.666 2.67778 14.4023 2.70511 14.1153C2.73244 13.8284 2.77263 13.563 2.82568 13.3192C2.94303 12.8001 3.34009 11.0684 4.01526 8.1277C3.93006 7.95023 3.85933 7.73793 3.80628 7.48913C3.75323 7.24034 3.7259 7.03798 3.7259 6.88373L3.70982 6.63494C3.70982 5.9267 3.88344 5.33789 4.23228 4.8685C4.58111 4.39911 5.00068 4.16358 5.4942 4.16358C5.89126 4.16358 6.1983 4.29959 6.41854 4.56995C6.63877 4.8403 6.74808 5.18032 6.74808 5.59C6.74808 5.84377 6.70307 6.15725 6.61144 6.52713C6.51981 6.897 6.39925 7.32327 6.24975 7.80427C6.10024 8.28527 5.99254 8.67505 5.92824 8.9736C5.82053 9.47119 5.91538 9.90243 6.20956 10.2673C6.50374 10.6322 6.89759 10.8147 7.3911 10.8147C8.23828 10.8147 8.93756 10.3204 9.48895 9.33021C10.0403 8.34001 10.3168 7.14414 10.3168 5.73928C10.3168 4.66615 9.97925 3.79039 9.30408 3.11035C8.62891 2.43032 7.68528 2.0903 6.4748 2.0903C5.12446 2.0903 4.02812 2.53813 3.18737 3.43379C2.34663 4.32945 1.92545 5.40258 1.92545 6.65152C1.92545 7.39293 2.12961 8.01657 2.53632 8.52577C2.67617 8.69164 2.71797 8.86911 2.66492 9.05653C2.64402 9.11127 2.61187 9.23898 2.56847 9.43802C2.52506 9.63705 2.49291 9.76477 2.47202 9.8195C2.45112 9.94058 2.39646 10.0219 2.31126 10.06C2.22606 10.0982 2.12961 10.0965 2.0219 10.0517C1.39014 9.78633 0.915912 9.33021 0.599226 8.68334C0.282539 8.03648 0.125 7.2818 0.125 6.41932Z" fill="white"/>
</svg>
