<svg width="20" height="18" viewBox="0 0 20 18" fill="none" xmlns="http://www.w3.org/2000/svg">
<path d="M1.7487 0.75H18.2487C18.4918 0.75 18.725 0.846577 18.8969 1.01849C19.0688 1.19039 19.1654 1.42355 19.1654 1.66667V16.3333C19.1654 16.5764 19.0688 16.8096 18.8969 16.9815C18.725 17.1534 18.4918 17.25 18.2487 17.25H1.7487C1.50558 17.25 1.27242 17.1534 1.10052 16.9815C0.928608 16.8096 0.832031 16.5764 0.832031 16.3333V1.66667C0.832031 1.42355 0.928608 1.19039 1.10052 1.01849C1.27242 0.846577 1.50558 0.75 1.7487 0.75ZM10.7019 8.14854C10.3289 8.47128 9.77629 8.47384 9.40031 8.15457L4.87448 4.31128C4.4887 3.98368 3.91042 4.03075 3.5827 4.41642C3.25481 4.80229 3.30193 5.38092 3.68791 5.70865L9.41221 10.5691C9.7882 10.8884 10.3408 10.8858 10.7138 10.563L16.322 5.71014C16.7047 5.37897 16.7466 4.8003 16.4156 4.41744C16.0844 4.03433 15.5053 3.99237 15.1224 4.32373L10.7019 8.14854Z" fill="#5F6EA2"/>
</svg>
