<svg width="20" height="20" viewBox="0 0 20 20" fill="none" xmlns="http://www.w3.org/2000/svg">
<path d="M16.8832 16.8872H13.9873V12.3495C13.9873 11.2675 13.9653 9.87495 12.4783 9.87495C10.9684 9.87495 10.7378 11.0524 10.7378 12.2697V16.8872H7.84199V7.55599H10.6238V8.82791H10.6612C11.0499 8.09458 11.9951 7.32051 13.4072 7.32051C16.3413 7.32051 16.884 9.25162 16.884 11.7653V16.8872H16.8832ZM4.57132 6.27917C3.63917 6.27917 2.89036 5.52466 2.89036 4.59658C2.89036 3.66932 3.63999 2.91562 4.57132 2.91562C5.50021 2.91562 6.2531 3.66932 6.2531 4.59658C6.2531 5.52466 5.4994 6.27917 4.57132 6.27917ZM6.02332 16.8872H3.11932V7.55599H6.02332V16.8872ZM18.3319 0.222656H1.66569C0.86799 0.222656 0.222656 0.853323 0.222656 1.63147V18.3694C0.222656 19.1484 0.86799 19.7782 1.66569 19.7782H18.3295C19.1264 19.7782 19.7782 19.1484 19.7782 18.3694V1.63147C19.7782 0.853323 19.1264 0.222656 18.3295 0.222656H18.3319Z" fill="#5F6EA2"/>
</svg>
