<svg width="22" height="17" viewBox="0 0 22 17" fill="none" xmlns="http://www.w3.org/2000/svg">
<path d="M19.0327 5.21097C19.0327 5.03426 19.0327 4.85855 19.0206 4.68383C19.8303 4.10803 20.529 3.39325 21.0846 2.57523C20.3304 2.90482 19.5288 3.12124 18.709 3.21654C19.5721 2.70726 20.2185 1.90711 20.528 0.963007C19.7153 1.43754 18.827 1.77209 17.9003 1.95179C16.3334 0.311765 13.7127 0.232348 12.0459 1.77508C10.9721 2.76981 10.5153 4.25298 10.849 5.66764C7.52255 5.50285 4.42294 3.95614 2.32157 1.41174C1.22349 3.27313 1.78514 5.65374 3.60316 6.84901C2.94472 6.83014 2.30039 6.65542 1.72464 6.33973V6.39135C1.72564 8.33019 3.11412 9.99999 5.04407 10.3842C4.43504 10.548 3.79575 10.5718 3.17664 10.4537C3.71811 12.1135 5.27195 13.2502 7.04158 13.283C5.57647 14.4167 3.76651 15.0322 1.90311 15.0302C1.57439 15.0292 1.24568 15.0104 0.917969 14.9717C2.81061 16.1669 5.0118 16.8013 7.26039 16.7983C14.8703 16.8013 19.0327 10.5936 19.0327 5.21097Z" fill="#5F6EA2"/>
</svg>
