<svg width="19" height="20" viewBox="0 0 19 20" fill="none" xmlns="http://www.w3.org/2000/svg">
<rect y="0.570312" width="18.5712" height="18.5712" rx="4.28561" fill="#DEE7FF"/>
<g clip-path="url(#clip0_2991:19607)">
<path d="M10.9518 5.6875L13.0352 7.77083V13.6075C13.035 13.7172 12.9914 13.8223 12.9138 13.8998C12.8362 13.9773 12.7311 14.0208 12.6214 14.0208H5.94891C5.83948 14.0201 5.73475 13.9763 5.65733 13.899C5.57991 13.8216 5.53603 13.7169 5.53516 13.6075V6.10083C5.53516 5.8725 5.72057 5.6875 5.94891 5.6875H10.9518ZM8.86849 7.77083V8.60417H9.70182V7.77083H8.86849ZM8.86849 9.4375V11.9375H9.70182V9.4375H8.86849Z" fill="#1254FF"/>
</g>
<defs>
<clipPath id="clip0_2991:19607">
<rect width="10" height="10" fill="white" transform="translate(4.28516 4.85547)"/>
</clipPath>
</defs>
</svg>
