<svg width="19" height="20" viewBox="0 0 19 20" fill="none" xmlns="http://www.w3.org/2000/svg">
<rect y="0.714844" width="18.5712" height="18.5712" rx="4.28561" fill="#FFECDE"/>
<path d="M5.53581 6.25H13.0358C13.1463 6.25 13.2523 6.2939 13.3304 6.37204C13.4086 6.45018 13.4525 6.55616 13.4525 6.66667V13.3333C13.4525 13.4438 13.4086 13.5498 13.3304 13.628C13.2523 13.7061 13.1463 13.75 13.0358 13.75H5.53581C5.4253 13.75 5.31932 13.7061 5.24118 13.628C5.16304 13.5498 5.11914 13.4438 5.11914 13.3333V6.66667C5.11914 6.55616 5.16304 6.45018 5.24118 6.37204C5.31932 6.2939 5.4253 6.25 5.53581 6.25ZM7.20247 10.4167V12.0833H8.03581V10.4167H7.20247ZM8.86914 7.91667V12.0833H9.70247V7.91667H8.86914ZM10.5358 9.16667V12.0833H11.3691V9.16667H10.5358Z" fill="#F91C1C"/>
</svg>
