<svg width="16" height="21" viewBox="0 0 16 21" fill="none" xmlns="http://www.w3.org/2000/svg">
<path d="M5.9732 15.999H10.0272C10.1592 14.797 10.7722 13.805 11.7672 12.722C11.8802 12.6 12.5992 11.855 12.6842 11.749C13.3905 10.8666 13.8332 9.80271 13.9613 8.67977C14.0895 7.55683 13.8978 6.42053 13.4085 5.40174C12.9191 4.38294 12.1519 3.52308 11.1953 2.92117C10.2387 2.31927 9.13151 1.9998 8.00128 1.99956C6.87106 1.99932 5.76374 2.31832 4.80686 2.91981C3.84999 3.52131 3.08246 4.38084 2.59267 5.39943C2.10288 6.41802 1.91074 7.55423 2.0384 8.67723C2.16605 9.80022 2.60829 10.8643 3.3142 11.747C3.4002 11.854 4.1212 12.6 4.2322 12.721C5.2282 13.805 5.8412 14.797 5.9732 15.999ZM10.0002 17.999H6.0002V18.999H10.0002V17.999ZM1.7542 12.999C0.812395 11.8223 0.222152 10.4035 0.0514683 8.90597C-0.119215 7.40846 0.136604 5.89321 0.789458 4.53474C1.44231 3.17628 2.46564 2.02987 3.74156 1.22758C5.01748 0.425292 6.49409 -0.000241242 8.00129 1.02603e-07C9.50848 0.000241447 10.985 0.426248 12.2606 1.22895C13.5363 2.03164 14.5592 3.17838 15.2117 4.53705C15.8641 5.89573 16.1194 7.41106 15.9482 8.90851C15.7771 10.406 15.1864 11.8246 14.2442 13.001C13.6242 13.773 12.0002 14.999 12.0002 16.499V18.999C12.0002 19.5294 11.7895 20.0381 11.4144 20.4132C11.0393 20.7883 10.5306 20.999 10.0002 20.999H6.0002C5.46977 20.999 4.96106 20.7883 4.58599 20.4132C4.21092 20.0381 4.0002 19.5294 4.0002 18.999V16.499C4.0002 14.999 2.3752 13.773 1.7542 12.999ZM9.0002 8.003H11.5002L7.0002 14.003V10.003H4.5002L9.0002 3.999V8.004V8.003Z" fill="#13245F"/>
</svg>
