<svg width="17" height="21" viewBox="0 0 17 21" fill="none" xmlns="http://www.w3.org/2000/svg">
<path d="M6.4732 15.999H7.5002V10.999H9.5002V15.999H10.5272C10.6592 14.797 11.2722 13.805 12.2672 12.722C12.3802 12.6 13.0992 11.855 13.1842 11.749C13.8905 10.8666 14.3332 9.80271 14.4613 8.67977C14.5895 7.55683 14.3978 6.42053 13.9085 5.40174C13.4191 4.38294 12.6519 3.52308 11.6953 2.92117C10.7387 2.31927 9.63151 1.9998 8.50128 1.99956C7.37106 1.99932 6.26374 2.31832 5.30686 2.91981C4.34999 3.52131 3.58246 4.38084 3.09267 5.39943C2.60288 6.41802 2.41074 7.55423 2.5384 8.67723C2.66605 9.80022 3.10829 10.8643 3.8142 11.747C3.9002 11.854 4.6212 12.6 4.7322 12.721C5.7282 13.805 6.3412 14.797 6.4732 15.999ZM6.5002 17.999V18.999H10.5002V17.999H6.5002ZM2.2542 12.999C1.31239 11.8223 0.722152 10.4035 0.551468 8.90597C0.380785 7.40846 0.636604 5.89321 1.28946 4.53474C1.94231 3.17628 2.96564 2.02987 4.24156 1.22758C5.51748 0.425292 6.99409 -0.000241242 8.50129 1.02603e-07C10.0085 0.000241447 11.485 0.426248 12.7606 1.22895C14.0363 2.03164 15.0592 3.17838 15.7117 4.53705C16.3641 5.89573 16.6194 7.41106 16.4482 8.90851C16.2771 10.406 15.6864 11.8246 14.7442 13.001C14.1242 13.773 12.5002 14.999 12.5002 16.499V18.999C12.5002 19.5294 12.2895 20.0381 11.9144 20.4132C11.5393 20.7883 11.0306 20.999 10.5002 20.999H6.5002C5.96977 20.999 5.46106 20.7883 5.08599 20.4132C4.71092 20.0381 4.5002 19.5294 4.5002 18.999V16.499C4.5002 14.999 2.8752 13.773 2.2542 12.999Z" fill="white"/>
</svg>
