<svg width="19" height="19" viewBox="0 0 19 19" fill="none" xmlns="http://www.w3.org/2000/svg">
<rect y="0.140625" width="18.5712" height="18.5712" rx="4.28561" fill="#FFEEDE"/>
<path d="M10.9518 5.25781L13.0352 7.34115V13.1778C13.035 13.2875 12.9914 13.3926 12.9138 13.4701C12.8362 13.5476 12.7311 13.5911 12.6214 13.5911H5.94891C5.83948 13.5904 5.73475 13.5466 5.65733 13.4693C5.57991 13.3919 5.53603 13.2872 5.53516 13.1778V5.67115C5.53516 5.44281 5.72057 5.25781 5.94891 5.25781H10.9518ZM9.28516 7.75781C8.95552 7.75781 8.63329 7.85556 8.35921 8.0387C8.08512 8.22183 7.8715 8.48213 7.74536 8.78667C7.61921 9.09122 7.58621 9.42633 7.65051 9.74963C7.71482 10.0729 7.87356 10.3699 8.10664 10.603C8.33973 10.8361 8.6367 10.9948 8.96001 11.0591C9.28331 11.1234 9.61842 11.0904 9.92296 10.9643C10.2275 10.8381 10.4878 10.6245 10.6709 10.3504C10.8541 10.0763 10.9518 9.75412 10.9518 9.42448H9.28516V7.75781Z" fill="#FFC700"/>
</svg>
