<svg width="20" height="20" viewBox="0 0 20 20" fill="none" xmlns="http://www.w3.org/2000/svg">
<path fill-rule="evenodd" clip-rule="evenodd" d="M8.86088 0C13.7521 0 17.7218 3.96968 17.7218 8.86088C17.7218 13.7521 13.7521 17.7218 8.86088 17.7218C3.96968 17.7218 0 13.7521 0 8.86088C0 3.96968 3.96968 0 8.86088 0ZM15.7527 8.86088C15.7527 12.6681 12.6681 15.7527 8.86088 15.7527C5.05267 15.7527 1.96909 12.6681 1.96909 8.86088C1.96909 5.05267 5.05267 1.96909 8.86088 1.96909C12.6681 1.96909 15.7527 5.05267 15.7527 8.86088Z" fill="#C4C4C4"/>
<path d="M17.2147 15.8226L20 18.6069L18.6069 20L15.8226 17.2147L17.2147 15.8226Z" fill="#C4C4C4"/>
</svg>
