<svg width="19" height="19" viewBox="0 0 19 19" fill="none" xmlns="http://www.w3.org/2000/svg">
<rect width="18.5712" height="18.5712" rx="4.28561" fill="#DEFFE5"/>
<path d="M7.20182 6.78385V5.53385C7.20182 5.42335 7.24572 5.31737 7.32386 5.23923C7.402 5.16109 7.50798 5.11719 7.61849 5.11719H12.6185C12.729 5.11719 12.835 5.16109 12.9131 5.23923C12.9913 5.31737 13.0352 5.42335 13.0352 5.53385V11.3672C13.0352 11.4777 12.9913 11.5837 12.9131 11.6618C12.835 11.74 12.729 11.7839 12.6185 11.7839H11.3685V13.0339C11.3685 13.2639 11.181 13.4505 10.9489 13.4505H5.95474C5.89979 13.4509 5.84532 13.4403 5.79446 13.4195C5.74359 13.3987 5.69734 13.3681 5.65835 13.3294C5.61936 13.2907 5.5884 13.2446 5.56726 13.1939C5.54612 13.1432 5.53521 13.0888 5.53516 13.0339L5.53641 7.20052C5.53641 6.97052 5.72391 6.78385 5.95599 6.78385H7.20182ZM8.03516 6.78385H11.3685V10.9505H12.2018V5.95052H8.03516V6.78385Z" fill="#27C089"/>
</svg>
