<svg width="21" height="20" viewBox="0 0 21 20" fill="none" xmlns="http://www.w3.org/2000/svg">
<path opacity="0.5" d="M10.253 19.628C9.0711 19.628 7.90078 19.3952 6.80885 18.9429C5.71692 18.4906 4.72477 17.8277 3.88904 16.992C3.05331 16.1562 2.39038 15.1641 1.93808 14.0722C1.48579 12.9802 1.253 11.8099 1.253 10.628C1.253 9.4461 1.48579 8.27578 1.93808 7.18385C2.39038 6.09192 3.05331 5.09977 3.88904 4.26404C4.72477 3.42831 5.71692 2.76538 6.80885 2.31308C7.90078 1.86079 9.0711 1.628 10.253 1.628C12.6399 1.628 14.9291 2.57621 16.617 4.26404C18.3048 5.95187 19.253 8.24105 19.253 10.628C19.253 13.0149 18.3048 15.3041 16.617 16.992C14.9291 18.6798 12.6399 19.628 10.253 19.628V19.628ZM10.253 17.628C11.1723 17.628 12.0825 17.4469 12.9318 17.0952C13.7811 16.7434 14.5527 16.2278 15.2027 15.5777C15.8528 14.9277 16.3684 14.1561 16.7202 13.3068C17.0719 12.4575 17.253 11.5473 17.253 10.628C17.253 9.70875 17.0719 8.79849 16.7202 7.94922C16.3684 7.09994 15.8528 6.32826 15.2027 5.67825C14.5527 5.02824 13.7811 4.51263 12.9318 4.16084C12.0825 3.80906 11.1723 3.628 10.253 3.628C8.39648 3.628 6.61601 4.3655 5.30325 5.67825C3.9905 6.99101 3.253 8.77148 3.253 10.628C3.253 12.4845 3.9905 14.265 5.30325 15.5777C6.61601 16.8905 8.39648 17.628 10.253 17.628V17.628ZM11.253 10.628H14.253V12.628H9.253V5.628H11.253V10.628ZM0 3.91L3.535 0.375L4.95 1.789L1.413 5.325L0 3.91ZM16.97 0.375L20.506 3.91L19.092 5.325L15.556 1.789L16.971 0.375H16.97Z" fill="#7C8DBF"/>
</svg>
