<svg width="17" height="22" viewBox="0 0 17 22" fill="none" xmlns="http://www.w3.org/2000/svg">
<path d="M13.5 14.244V21.116C13.5 21.2045 13.4766 21.2914 13.432 21.3678C13.3875 21.4442 13.3235 21.5075 13.2465 21.5511C13.1696 21.5947 13.0824 21.6171 12.9939 21.6161C12.9055 21.615 12.8189 21.5905 12.743 21.545L8.5 18.999L4.257 21.545C4.18104 21.5905 4.09436 21.615 4.00581 21.6161C3.91727 21.6171 3.83004 21.5946 3.75304 21.5509C3.67605 21.5071 3.61205 21.4437 3.56759 21.3671C3.52313 21.2906 3.4998 21.2035 3.5 21.115V14.245C2.20615 13.2091 1.26599 11.7969 0.809459 10.2035C0.352926 8.61019 0.402556 6.91439 0.951491 5.35047C1.50043 3.78655 2.52156 2.43175 3.87378 1.47328C5.226 0.514807 6.84254 0 8.5 0C10.1575 0 11.774 0.514807 13.1262 1.47328C14.4784 2.43175 15.4996 3.78655 16.0485 5.35047C16.5974 6.91439 16.6471 8.61019 16.1905 10.2035C15.734 11.7969 14.7939 13.2091 13.5 14.245V14.244ZM8.5 13.999C10.0913 13.999 11.6174 13.3669 12.7426 12.2416C13.8679 11.1164 14.5 9.5903 14.5 7.999C14.5 6.4077 13.8679 4.88158 12.7426 3.75636C11.6174 2.63114 10.0913 1.999 8.5 1.999C6.9087 1.999 5.38258 2.63114 4.25736 3.75636C3.13214 4.88158 2.5 6.4077 2.5 7.999C2.5 9.5903 3.13214 11.1164 4.25736 12.2416C5.38258 13.3669 6.9087 13.999 8.5 13.999ZM8.5 11.999C7.43913 11.999 6.42172 11.5776 5.67157 10.8274C4.92143 10.0773 4.5 9.05986 4.5 7.999C4.5 6.93813 4.92143 5.92072 5.67157 5.17057C6.42172 4.42043 7.43913 3.999 8.5 3.999C9.56087 3.999 10.5783 4.42043 11.3284 5.17057C12.0786 5.92072 12.5 6.93813 12.5 7.999C12.5 9.05986 12.0786 10.0773 11.3284 10.8274C10.5783 11.5776 9.56087 11.999 8.5 11.999Z" fill="#1254FF"/>
</svg>
