<svg width="79" height="14" viewBox="0 0 79 14" fill="none" xmlns="http://www.w3.org/2000/svg">
<g clip-path="url(#clip0)">
<path d="M7.22655 10.6517L3.1123 12.9547L4.03105 8.33008L0.56897 5.12875L5.25139 4.57341L7.22655 0.291748L9.20172 4.57341L13.8841 5.12875L10.4221 8.33008L11.3408 12.9547L7.22655 10.6517Z" fill="#FFC700"/>
</g>
<g clip-path="url(#clip1)">
<path d="M23.2266 10.6517L19.1123 12.9547L20.0311 8.33008L16.569 5.12875L21.2514 4.57341L23.2266 0.291748L25.2017 4.57341L29.8841 5.12875L26.4221 8.33008L27.3408 12.9547L23.2266 10.6517Z" fill="#FFC700"/>
</g>
<g clip-path="url(#clip2)">
<path d="M39.2266 10.6517L35.1123 12.9547L36.0311 8.33008L32.569 5.12875L37.2514 4.57341L39.2266 0.291748L41.2017 4.57341L45.8841 5.12875L42.4221 8.33008L43.3408 12.9547L39.2266 10.6517Z" fill="#FFC700"/>
</g>
<g clip-path="url(#clip3)">
<path d="M55.2266 10.6517L51.1123 12.9547L52.0311 8.33008L48.569 5.12875L53.2514 4.57341L55.2266 0.291748L57.2017 4.57341L61.8841 5.12875L58.4221 8.33008L59.3408 12.9547L55.2266 10.6517Z" fill="#FFC700"/>
</g>
<g clip-path="url(#clip4)">
<path d="M71.2266 10.6517L67.1123 12.9547L68.0311 8.33008L64.569 5.12875L69.2514 4.57341L71.2266 0.291748L73.2017 4.57341L77.8841 5.12875L74.4221 8.33008L75.3408 12.9547L71.2266 10.6517Z" fill="#FFC700"/>
</g>
<defs>
<clipPath id="clip0">
<rect width="14" height="14" fill="white" transform="translate(0.226562)"/>
</clipPath>
<clipPath id="clip1">
<rect width="14" height="14" fill="white" transform="translate(16.2266)"/>
</clipPath>
<clipPath id="clip2">
<rect width="14" height="14" fill="white" transform="translate(32.2266)"/>
</clipPath>
<clipPath id="clip3">
<rect width="14" height="14" fill="white" transform="translate(48.2266)"/>
</clipPath>
<clipPath id="clip4">
<rect width="14" height="14" fill="white" transform="translate(64.2266)"/>
</clipPath>
</defs>
</svg>
