<svg width="22" height="24" viewBox="0 0 22 24" fill="none" xmlns="http://www.w3.org/2000/svg">
<path d="M19.1667 9.66671H20.3333C20.6428 9.66671 20.9395 9.78962 21.1583 10.0084C21.3771 10.2272 21.5 10.524 21.5 10.8334V22.5C21.5 22.8095 21.3771 23.1062 21.1583 23.325C20.9395 23.5438 20.6428 23.6667 20.3333 23.6667H1.66667C1.35725 23.6667 1.0605 23.5438 0.841709 23.325C0.622916 23.1062 0.5 22.8095 0.5 22.5V10.8334C0.5 10.524 0.622916 10.2272 0.841709 10.0084C1.0605 9.78962 1.35725 9.66671 1.66667 9.66671H2.83333V8.50004C2.83333 7.42758 3.04457 6.36562 3.45498 5.37479C3.8654 4.38397 4.46695 3.48368 5.22529 2.72534C5.98364 1.96699 6.88393 1.36544 7.87475 0.955024C8.86558 0.544611 9.92754 0.333374 11 0.333374C12.0725 0.333374 13.1344 0.544611 14.1252 0.955024C15.1161 1.36544 16.0164 1.96699 16.7747 2.72534C17.533 3.48368 18.1346 4.38397 18.545 5.37479C18.9554 6.36562 19.1667 7.42758 19.1667 8.50004V9.66671ZM2.83333 12V21.3334H19.1667V12H2.83333ZM9.83333 14.3334H12.1667V19H9.83333V14.3334ZM16.8333 9.66671V8.50004C16.8333 6.95294 16.2188 5.46921 15.1248 4.37525C14.0308 3.28129 12.5471 2.66671 11 2.66671C9.4529 2.66671 7.96917 3.28129 6.87521 4.37525C5.78125 5.46921 5.16667 6.95294 5.16667 8.50004V9.66671H16.8333Z" fill="white"/>
</svg>
