<svg width="18" height="18" viewBox="0 0 18 18" fill="none" xmlns="http://www.w3.org/2000/svg">
<path d="M3.82552 2.89478H15.1589C15.3467 2.89478 15.5269 2.9694 15.6597 3.10224C15.7926 3.23508 15.8672 3.41525 15.8672 3.60311V14.9364C15.8672 15.1243 15.7926 15.3045 15.6597 15.4373C15.5269 15.5701 15.3467 15.6448 15.1589 15.6448H3.82552C3.63766 15.6448 3.45749 15.5701 3.32465 15.4373C3.19182 15.3045 3.11719 15.1243 3.11719 14.9364V3.60311C3.11719 3.41525 3.19182 3.23508 3.32465 3.10224C3.45749 2.9694 3.63766 2.89478 3.82552 2.89478ZM8.78385 8.56144H5.95052V9.97811H8.78385V12.8114H10.2005V9.97811H13.0339V8.56144H10.2005V5.72811H8.78385V8.56144Z" fill="white"/>
</svg>
