<svg width="16" height="17" viewBox="0 0 16 17" fill="none" xmlns="http://www.w3.org/2000/svg">
<path d="M8.00247 16.8535C3.92761 16.7978 0.637325 13.3846 0.583617 9.15747C0.637325 4.93034 3.92761 1.51711 8.00247 1.4614C12.0773 1.51711 15.3676 4.93034 15.4213 9.15747C15.3676 13.3846 12.0773 16.7978 8.00247 16.8535ZM8.00247 3.17164C4.83311 3.21492 2.27398 5.86968 2.23225 9.15747C2.27398 12.4453 4.83311 15.1 8.00247 15.1433C11.1718 15.1 13.731 12.4453 13.7727 9.15747C13.731 5.86968 11.1718 3.21492 8.00247 3.17164ZM12.1241 10.0126H7.17816V4.88187H8.82679V8.30235H12.1241V10.0126ZM14.8377 3.77706L12.3573 1.2117L13.5188 0L16 2.56536L14.8377 3.77621V3.77706ZM1.16641 3.77706L0 2.56536L2.46553 0L3.63194 1.2117L1.16806 3.77706H1.16641Z" fill="#586795"/>
</svg>
