<svg width="20" height="20" viewBox="0 0 20 20" fill="none" xmlns="http://www.w3.org/2000/svg">
<path d="M10.7199 2.5L18.6582 16.25C18.7313 16.3767 18.7698 16.5204 18.7699 16.6667C18.7699 16.8129 18.7313 16.9566 18.6582 17.0833C18.5851 17.21 18.4799 17.3152 18.3532 17.3884C18.2265 17.4615 18.0828 17.5 17.9365 17.5H2.05987C1.9136 17.5 1.7699 17.4615 1.64322 17.3884C1.51654 17.3152 1.41134 17.21 1.3382 17.0833C1.26506 16.9566 1.22656 16.8129 1.22656 16.6667C1.22656 16.5204 1.26507 16.3767 1.33821 16.25L9.27654 2.5C9.34968 2.37333 9.45488 2.26814 9.58156 2.19501C9.70824 2.12188 9.85193 2.08337 9.99821 2.08337C10.1445 2.08337 10.2882 2.12188 10.4149 2.19501C10.5415 2.26814 10.6467 2.37333 10.7199 2.5ZM9.16487 13.3333V15H10.8315V13.3333H9.16487ZM9.16487 7.5V11.6667H10.8315V7.5H9.16487Z" fill="#FF6275"/>
</svg>
