<svg width="20" height="20" viewBox="0 0 20 20" fill="none" xmlns="http://www.w3.org/2000/svg">
<path d="M11.0612 9.16786C11.9521 9.16786 12.3982 8.09072 11.7683 7.46076L9.59453 5.28703C9.26914 4.96164 9.26914 4.43409 9.59453 4.1087C9.91992 3.78331 10.4475 3.78331 10.7729 4.1087L15.9583 9.29409C16.3488 9.68462 16.3488 10.3178 15.9583 10.7083L10.7729 15.8937C10.4475 16.2191 9.91992 16.2191 9.59453 15.8937C9.26914 15.5683 9.26914 15.0408 9.59453 14.7154L11.7683 12.5416C12.3982 11.9117 11.9521 10.8345 11.0612 10.8345H4.16536C3.70513 10.8345 3.33203 10.4614 3.33203 10.0012C3.33203 9.54096 3.70513 9.16786 4.16536 9.16786H11.0612Z" fill="#7C8DBF"/>
</svg>
