<svg width="20" height="20" viewBox="0 0 20 20" fill="none" xmlns="http://www.w3.org/2000/svg">
<path d="M11.0612 9.16689C11.9521 9.16689 12.3982 8.08975 11.7683 7.45978L9.59453 5.28605C9.26914 4.96067 9.26914 4.43311 9.59453 4.10772C9.91992 3.78233 10.4475 3.78233 10.7729 4.10772L15.9583 9.29312C16.3488 9.68364 16.3488 10.3168 15.9583 10.7073L10.7729 15.8927C10.4475 16.2181 9.91992 16.2181 9.59453 15.8927C9.26914 15.5673 9.26914 15.0398 9.59453 14.7144L11.7683 12.5407C12.3982 11.9107 11.9521 10.8336 11.0612 10.8336H4.16536C3.70513 10.8336 3.33203 10.4605 3.33203 10.0002C3.33203 9.53998 3.70513 9.16689 4.16536 9.16689H11.0612Z" fill="#1254FF"/>
</svg>
