<svg width="16" height="16" viewBox="0 0 16 16" fill="none" xmlns="http://www.w3.org/2000/svg">
<path d="M9.00066 9.75779C9.00066 10.6487 10.0778 11.0949 10.7078 10.4649L13.6577 7.515C14.0481 7.12453 14.6812 7.12453 15.0717 7.515C15.4621 7.90547 15.4621 8.53854 15.0717 8.929L8.70776 15.2929C8.31724 15.6834 7.68407 15.6834 7.29355 15.2929L0.929656 8.929C0.539191 8.53853 0.539191 7.90547 0.929656 7.515C1.32012 7.12453 1.95319 7.12453 2.34366 7.515L5.29355 10.4649C5.92351 11.0949 7.00066 10.6487 7.00066 9.75779V1C7.00066 0.447715 7.44837 0 8.00066 0C8.55294 0 9.00066 0.447715 9.00066 1V9.75779Z" fill="white"/>
</svg>
