<svg width="64" height="66" viewBox="0 0 64 66" fill="none" xmlns="http://www.w3.org/2000/svg">
<g filter="url(#filter0_d)">
<circle cx="32" cy="30" r="30" fill="#1254FF"/>
</g>
<path d="M33.0007 31.7578C33.0007 32.6487 34.0778 33.0949 34.7078 32.4649L37.6577 29.515C38.0481 29.1245 38.6812 29.1245 39.0717 29.515C39.4621 29.9055 39.4621 30.5385 39.0717 30.929L32.7078 37.2929C32.3172 37.6834 31.6841 37.6834 31.2935 37.2929L24.9297 30.929C24.5392 30.5385 24.5392 29.9055 24.9297 29.515C25.3201 29.1245 25.9532 29.1245 26.3437 29.515L29.2936 32.4649C29.9235 33.0949 31.0007 32.6487 31.0007 31.7578V23C31.0007 22.4477 31.4484 22 32.0007 22C32.5529 22 33.0007 22.4477 33.0007 23V31.7578Z" fill="white"/>
<defs>
<filter id="filter0_d" x="0" y="0" width="64" height="66" filterUnits="userSpaceOnUse" color-interpolation-filters="sRGB">
<feFlood flood-opacity="0" result="BackgroundImageFix"/>
<feColorMatrix in="SourceAlpha" type="matrix" values="0 0 0 0 0 0 0 0 0 0 0 0 0 0 0 0 0 0 127 0" result="hardAlpha"/>
<feOffset dy="4"/>
<feGaussianBlur stdDeviation="1"/>
<feColorMatrix type="matrix" values="0 0 0 0 0 0 0 0 0 0 0 0 0 0 0 0 0 0 0.05 0"/>
<feBlend mode="normal" in2="BackgroundImageFix" result="effect1_dropShadow"/>
<feBlend mode="normal" in="SourceGraphic" in2="effect1_dropShadow" result="shape"/>
</filter>
</defs>
</svg>
