<svg width="60" height="60" viewBox="0 0 60 60" fill="none" xmlns="http://www.w3.org/2000/svg">
<g clip-path="url(#clip0)">
<g filter="url(#filter0_d)">
<circle cx="30" cy="30" r="30" fill="#DADFEC"/>
</g>
<path d="M31.0007 31.7578C31.0007 32.6487 32.0778 33.0949 32.7078 32.4649L35.6577 29.515C36.0481 29.1245 36.6812 29.1245 37.0717 29.515V29.515C37.4621 29.9055 37.4621 30.5385 37.0717 30.929L30.7078 37.2929C30.3172 37.6834 29.6841 37.6834 29.2935 37.2929L22.9297 30.929C22.5392 30.5385 22.5392 29.9055 22.9297 29.515V29.515C23.3201 29.1245 23.9532 29.1245 24.3437 29.515L27.2936 32.4649C27.9235 33.0949 29.0007 32.6487 29.0007 31.7578V23C29.0007 22.4477 29.4484 22 30.0007 22V22C30.5529 22 31.0007 22.4477 31.0007 23V31.7578Z" fill="white"/>
</g>
<defs>
<filter id="filter0_d" x="-2" y="0" width="64" height="66" filterUnits="userSpaceOnUse" color-interpolation-filters="sRGB">
<feFlood flood-opacity="0" result="BackgroundImageFix"/>
<feColorMatrix in="SourceAlpha" type="matrix" values="0 0 0 0 0 0 0 0 0 0 0 0 0 0 0 0 0 0 127 0" result="hardAlpha"/>
<feOffset dy="4"/>
<feGaussianBlur stdDeviation="1"/>
<feColorMatrix type="matrix" values="0 0 0 0 0 0 0 0 0 0 0 0 0 0 0 0 0 0 0.05 0"/>
<feBlend mode="normal" in2="BackgroundImageFix" result="effect1_dropShadow"/>
<feBlend mode="normal" in="SourceGraphic" in2="effect1_dropShadow" result="shape"/>
</filter>
<clipPath id="clip0">
<rect width="60" height="60" fill="white"/>
</clipPath>
</defs>
</svg>
