<svg width="17" height="17" viewBox="0 0 17 17" fill="none" xmlns="http://www.w3.org/2000/svg">
<path d="M2.4987 2.5H14.4987C14.6755 2.5 14.8451 2.57024 14.9701 2.69526C15.0951 2.82029 15.1654 2.98986 15.1654 3.16667V13.8333C15.1654 14.0101 15.0951 14.1797 14.9701 14.3047C14.8451 14.4298 14.6755 14.5 14.4987 14.5H2.4987C2.32189 14.5 2.15232 14.4298 2.02729 14.3047C1.90227 14.1797 1.83203 14.0101 1.83203 13.8333V3.16667C1.83203 2.98986 1.90227 2.82029 2.02729 2.69526C2.15232 2.57024 2.32189 2.5 2.4987 2.5ZM5.16536 9.16667V11.8333H6.4987V9.16667H5.16536ZM7.83203 5.16667V11.8333H9.16536V5.16667H7.83203ZM10.4987 7.16667V11.8333H11.832V7.16667H10.4987Z" fill="white"/>
</svg>
