<svg width="17" height="17" viewBox="0 0 17 17" fill="none" xmlns="http://www.w3.org/2000/svg">
<path d="M6.16664 13.5948H10.836C10.3949 14.6497 9.55618 15.4884 8.5013 15.9294C7.44642 15.4884 6.60768 14.6497 6.16664 13.5948ZM12.5013 10.1314L13.8346 11.6434V12.9281H3.16797V11.6434L4.5013 10.1314V6.26145C4.5013 3.93945 6.17064 1.96345 8.5013 1.23145C10.832 1.96345 12.5013 3.93945 12.5013 6.26145V10.1314ZM8.5013 7.59478C8.85492 7.59478 9.19406 7.4543 9.44411 7.20425C9.69416 6.95421 9.83463 6.61507 9.83463 6.26145C9.83463 5.90782 9.69416 5.56868 9.44411 5.31864C9.19406 5.06859 8.85492 4.92811 8.5013 4.92811C8.14768 4.92811 7.80854 5.06859 7.55849 5.31864C7.30844 5.56868 7.16797 5.90782 7.16797 6.26145C7.16797 6.61507 7.30844 6.95421 7.55849 7.20425C7.80854 7.4543 8.14768 7.59478 8.5013 7.59478Z" fill="white"/>
</svg>
