<svg width="32" height="32" viewBox="0 0 32 32" fill="none" xmlns="http://www.w3.org/2000/svg">
<path d="M26.666 22.668H29.3327V25.3346H2.66602V22.668H5.33268V13.3346C5.33268 10.5057 6.45649 7.79255 8.45688 5.79216C10.4573 3.79178 13.1704 2.66797 15.9993 2.66797C18.8283 2.66797 21.5414 3.79178 23.5418 5.79216C25.5422 7.79255 26.666 10.5057 26.666 13.3346V22.668ZM23.9993 22.668V13.3346C23.9993 11.2129 23.1565 9.17807 21.6562 7.67778C20.1559 6.17749 18.1211 5.33464 15.9993 5.33464C13.8776 5.33464 11.8428 6.17749 10.3425 7.67778C8.8422 9.17807 7.99935 11.2129 7.99935 13.3346V22.668H23.9993ZM11.9993 28.0013H19.9993V30.668H11.9993V28.0013Z" fill="#07080A"/>
</svg>
