<svg width="15" height="15" viewBox="0 0 15 15" fill="none" xmlns="http://www.w3.org/2000/svg">
<g clip-path="url(#clip0)">
<path d="M14.5841 7.26983C14.5841 10.696 11.4096 13.4735 7.49421 13.4735C6.792 13.4745 6.0927 13.3833 5.4142 13.2023C4.89664 13.4646 3.70819 13.968 1.70884 14.2959C1.53159 14.3243 1.39688 14.14 1.4669 13.9751C1.78063 13.2342 2.06422 12.247 2.1493 11.3465C1.06366 10.2565 0.404297 8.82961 0.404297 7.26983C0.404297 3.84363 3.5788 1.06616 7.49421 1.06616C11.4096 1.06616 14.5841 3.84363 14.5841 7.26983ZM4.83549 7.26983C4.83549 7.03479 4.74212 6.80937 4.57592 6.64317C4.40972 6.47697 4.1843 6.38359 3.94925 6.38359C3.71421 6.38359 3.48879 6.47697 3.32259 6.64317C3.15638 6.80937 3.06301 7.03479 3.06301 7.26983C3.06301 7.50488 3.15638 7.7303 3.32259 7.8965C3.48879 8.0627 3.71421 8.15607 3.94925 8.15607C4.1843 8.15607 4.40972 8.0627 4.57592 7.8965C4.74212 7.7303 4.83549 7.50488 4.83549 7.26983ZM8.38045 7.26983C8.38045 7.03479 8.28707 6.80937 8.12087 6.64317C7.95467 6.47697 7.72925 6.38359 7.49421 6.38359C7.25916 6.38359 7.03374 6.47697 6.86754 6.64317C6.70134 6.80937 6.60797 7.03479 6.60797 7.26983C6.60797 7.50488 6.70134 7.7303 6.86754 7.8965C7.03374 8.0627 7.25916 8.15607 7.49421 8.15607C7.72925 8.15607 7.95467 8.0627 8.12087 7.8965C8.28707 7.7303 8.38045 7.50488 8.38045 7.26983ZM11.0392 8.15607C11.2742 8.15607 11.4996 8.0627 11.6658 7.8965C11.832 7.7303 11.9254 7.50488 11.9254 7.26983C11.9254 7.03479 11.832 6.80937 11.6658 6.64317C11.4996 6.47697 11.2742 6.38359 11.0392 6.38359C10.8041 6.38359 10.5787 6.47697 10.4125 6.64317C10.2463 6.80937 10.1529 7.03479 10.1529 7.26983C10.1529 7.50488 10.2463 7.7303 10.4125 7.8965C10.5787 8.0627 10.8041 8.15607 11.0392 8.15607Z" fill="white"/>
</g>
<defs>
<clipPath id="clip0">
<rect width="14.1798" height="14.1798" fill="white" transform="translate(0.402344 0.179932)"/>
</clipPath>
</defs>
</svg>
