<svg width="17" height="17" viewBox="0 0 17 17" fill="none" xmlns="http://www.w3.org/2000/svg">
<path d="M3.83464 1.59473H13.168C13.3448 1.59473 13.5143 1.66496 13.6394 1.78999C13.7644 1.91501 13.8346 2.08458 13.8346 2.26139V15.0234C13.8347 15.083 13.8188 15.1415 13.7886 15.1929C13.7583 15.2443 13.7149 15.2866 13.6627 15.3154C13.6106 15.3443 13.5516 15.3587 13.4921 15.357C13.4325 15.3554 13.3744 15.3378 13.324 15.3061L8.5013 12.2814L3.67864 15.3054C3.62821 15.3371 3.57023 15.3547 3.5107 15.3563C3.45118 15.358 3.39229 15.3437 3.34017 15.3149C3.28804 15.2862 3.24457 15.2439 3.21429 15.1927C3.18401 15.1414 3.16801 15.0829 3.16797 15.0234V2.26139C3.16797 2.08458 3.23821 1.91501 3.36323 1.78999C3.48826 1.66496 3.65782 1.59473 3.83464 1.59473Z" fill="white"/>
</svg>
