<svg width="17" height="16" viewBox="0 0 17 16" fill="none" xmlns="http://www.w3.org/2000/svg">
<path d="M11.832 2.0013H14.4987C14.6755 2.0013 14.8451 2.07154 14.9701 2.19656C15.0951 2.32159 15.1654 2.49116 15.1654 2.66797V13.3346C15.1654 13.5114 15.0951 13.681 14.9701 13.806C14.8451 13.9311 14.6755 14.0013 14.4987 14.0013H2.4987C2.32189 14.0013 2.15232 13.9311 2.02729 13.806C1.90227 13.681 1.83203 13.5114 1.83203 13.3346V2.66797C1.83203 2.49116 1.90227 2.32159 2.02729 2.19656C2.15232 2.07154 2.32189 2.0013 2.4987 2.0013H5.16536V0.667969H6.4987V2.0013H10.4987V0.667969H11.832V2.0013ZM3.16536 6.0013V12.668H13.832V6.0013H3.16536ZM4.4987 8.66797H7.83203V11.3346H4.4987V8.66797Z" fill="#13245F"/>
</svg>
