<svg width="20" height="20" viewBox="0 0 20 20" fill="none" xmlns="http://www.w3.org/2000/svg">
<path d="M14.168 2.49967H17.5013C17.7223 2.49967 17.9343 2.58747 18.0906 2.74375C18.2468 2.90003 18.3346 3.11199 18.3346 3.33301V16.6663C18.3346 16.8874 18.2468 17.0993 18.0906 17.2556C17.9343 17.4119 17.7223 17.4997 17.5013 17.4997H2.5013C2.28029 17.4997 2.06833 17.4119 1.91205 17.2556C1.75577 17.0993 1.66797 16.8874 1.66797 16.6663V3.33301C1.66797 3.11199 1.75577 2.90003 1.91205 2.74375C2.06833 2.58747 2.28029 2.49967 2.5013 2.49967H5.83464V0.833008H7.5013V2.49967H12.5013V0.833008H14.168V2.49967ZM3.33464 7.49967V15.833H16.668V7.49967H3.33464ZM5.0013 10.833H9.16797V14.1663H5.0013V10.833Z" fill="#1254FF"/>
</svg>
