<svg width="28" height="28" viewBox="0 0 28 28" fill="none" xmlns="http://www.w3.org/2000/svg">
<path d="M19.832 3.50033H24.4987C24.8081 3.50033 25.1049 3.62324 25.3237 3.84203C25.5424 4.06083 25.6654 4.35757 25.6654 4.66699V23.3337C25.6654 23.6431 25.5424 23.9398 25.3237 24.1586C25.1049 24.3774 24.8081 24.5003 24.4987 24.5003H3.4987C3.18928 24.5003 2.89253 24.3774 2.67374 24.1586C2.45495 23.9398 2.33203 23.6431 2.33203 23.3337V4.66699C2.33203 4.35757 2.45495 4.06083 2.67374 3.84203C2.89253 3.62324 3.18928 3.50033 3.4987 3.50033H8.16537V1.16699H10.4987V3.50033H17.4987V1.16699H19.832V3.50033ZM4.66536 10.5003V22.167H23.332V10.5003H4.66536ZM6.9987 15.167H12.832V19.8337H6.9987V15.167Z" fill="white"/>
</svg>
