<svg width="16" height="16" viewBox="0 0 16 16" fill="none" xmlns="http://www.w3.org/2000/svg">
<path d="M14.2222 16H1.77778C0.795938 16 0 15.2837 0 14.4V3.2C0 2.31634 0.795938 1.6 1.77778 1.6H3.55556V0H5.33333V1.6H10.6667V0H12.4444V1.6H14.2222C15.2041 1.6 16 2.31634 16 3.2V14.4C16 15.2837 15.2041 16 14.2222 16ZM1.77778 6.4V14.4H14.2222V6.4H1.77778ZM1.77778 3.2V4.8H14.2222V3.2H1.77778ZM12.4444 12.8H10.6667V11.2H12.4444V12.8ZM8.88889 12.8H7.11111V11.2H8.88889V12.8ZM5.33333 12.8H3.55556V11.2H5.33333V12.8ZM12.4444 9.6H10.6667V8H12.4444V9.6ZM8.88889 9.6H7.11111V8H8.88889V9.6ZM5.33333 9.6H3.55556V8H5.33333V9.6Z" fill="#586795"/>
</svg>
