<svg width="24" height="24" viewBox="0 0 24 24" fill="none" xmlns="http://www.w3.org/2000/svg">
<path d="M21.3333 24H2.66667C1.19391 24 0 22.9255 0 21.6V4.8C0 3.47452 1.19391 2.4 2.66667 2.4H5.33333V0H8V2.4H16V0H18.6667V2.4H21.3333C22.8061 2.4 24 3.47452 24 4.8V21.6C24 22.9255 22.8061 24 21.3333 24ZM2.66667 9.6V21.6H21.3333V9.6H2.66667ZM2.66667 4.8V7.2H21.3333V4.8H2.66667ZM18.6667 19.2H16V16.8H18.6667V19.2ZM13.3333 19.2H10.6667V16.8H13.3333V19.2ZM8 19.2H5.33333V16.8H8V19.2ZM18.6667 14.4H16V12H18.6667V14.4ZM13.3333 14.4H10.6667V12H13.3333V14.4ZM8 14.4H5.33333V12H8V14.4Z" fill="#586795"/>
</svg>
