<svg width="16" height="16" viewBox="0 0 16 16" fill="none" xmlns="http://www.w3.org/2000/svg">
<path d="M11.332 2.00002H13.9987C14.1755 2.00002 14.3451 2.07026 14.4701 2.19528C14.5951 2.32031 14.6654 2.48988 14.6654 2.66669V13.3334C14.6654 13.5102 14.5951 13.6797 14.4701 13.8048C14.3451 13.9298 14.1755 14 13.9987 14H1.9987C1.82189 14 1.65232 13.9298 1.52729 13.8048C1.40227 13.6797 1.33203 13.5102 1.33203 13.3334V2.66669C1.33203 2.48988 1.40227 2.32031 1.52729 2.19528C1.65232 2.07026 1.82189 2.00002 1.9987 2.00002H4.66536V0.666687H5.9987V2.00002H9.9987V0.666687H11.332V2.00002ZM2.66536 6.00002V12.6667H13.332V6.00002H2.66536ZM3.9987 8.66669H7.33203V11.3334H3.9987V8.66669Z" fill="white"/>
</svg>
