<svg width="14" height="14" viewBox="0 0 14 14" fill="none" xmlns="http://www.w3.org/2000/svg">
<path d="M12.4444 14H1.55556C0.696446 14 0 13.3732 0 12.6V2.8C0 2.0268 0.696446 1.4 1.55556 1.4H3.11111V0H4.66667V1.4H9.33333V0H10.8889V1.4H12.4444C13.3036 1.4 14 2.0268 14 2.8V12.6C14 13.3732 13.3036 14 12.4444 14ZM1.55556 5.6V12.6H12.4444V5.6H1.55556ZM1.55556 2.8V4.2H12.4444V2.8H1.55556ZM10.8889 11.2H9.33333V9.8H10.8889V11.2ZM7.77778 11.2H6.22222V9.8H7.77778V11.2ZM4.66667 11.2H3.11111V9.8H4.66667V11.2ZM10.8889 8.4H9.33333V7H10.8889V8.4ZM7.77778 8.4H6.22222V7H7.77778V8.4ZM4.66667 8.4H3.11111V7H4.66667V8.4Z" fill="#1254FF"/>
</svg>
