<svg width="15" height="15" viewBox="0 0 15 15" fill="none" xmlns="http://www.w3.org/2000/svg">
<path d="M4.35937 13.3814L0.832039 14.1654L1.61604 10.638C1.09973 9.67229 0.83039 8.5938 0.832039 7.4987C0.832039 3.8167 3.81671 0.832031 7.49871 0.832031C11.1807 0.832031 14.1654 3.8167 14.1654 7.4987C14.1654 11.1807 11.1807 14.1654 7.49871 14.1654C6.40361 14.167 5.32512 13.8977 4.35937 13.3814ZM4.55271 11.9727L4.98804 12.206C5.76041 12.6188 6.62297 12.8339 7.49871 12.832C8.55354 12.832 9.58468 12.5192 10.4617 11.9332C11.3388 11.3472 12.0224 10.5142 12.4261 9.53968C12.8297 8.56514 12.9353 7.49278 12.7296 6.45822C12.5238 5.42365 12.0158 4.47334 11.2699 3.72746C10.5241 2.98158 9.57375 2.47363 8.53919 2.26784C7.50462 2.06206 6.43227 2.16767 5.45773 2.57134C4.48319 2.97501 3.65024 3.65859 3.0642 4.53566C2.47817 5.41272 2.16537 6.44386 2.16537 7.4987C2.16537 8.38803 2.38204 9.24403 2.79204 10.0094L3.02471 10.4447L2.58804 12.4094L4.55271 11.9727Z" fill="white"/>
</svg>
