<svg width="17" height="16" viewBox="0 0 17 16" fill="none" xmlns="http://www.w3.org/2000/svg">
<path d="M5.35937 13.8814L1.83204 14.6654L2.61604 11.138C2.09973 10.1723 1.83039 9.0938 1.83204 7.9987C1.83204 4.3167 4.81671 1.33203 8.49871 1.33203C12.1807 1.33203 15.1654 4.3167 15.1654 7.9987C15.1654 11.6807 12.1807 14.6654 8.49871 14.6654C7.40361 14.667 6.32512 14.3977 5.35937 13.8814ZM5.55271 12.4727L5.98804 12.706C6.76041 13.1188 7.62297 13.3339 8.49871 13.332C9.55354 13.332 10.5847 13.0192 11.4617 12.4332C12.3388 11.8472 13.0224 11.0142 13.4261 10.0397C13.8297 9.06514 13.9353 7.99278 13.7296 6.95822C13.5238 5.92365 13.0158 4.97334 12.2699 4.22746C11.5241 3.48158 10.5738 2.97363 9.53919 2.76784C8.50462 2.56206 7.43227 2.66767 6.45773 3.07134C5.48319 3.47501 4.65024 4.15859 4.0642 5.03566C3.47817 5.91272 3.16537 6.94386 3.16537 7.9987C3.16537 8.88803 3.38204 9.74403 3.79204 10.5094L4.02471 10.9447L3.58804 12.9094L5.55271 12.4727Z" fill="#0A4DF8"/>
</svg>
