<svg width="24" height="24" viewBox="0 0 24 24" fill="none" xmlns="http://www.w3.org/2000/svg">
<path fill-rule="evenodd" clip-rule="evenodd" d="M12 22C6.477 22 2 17.523 2 12C2 6.477 6.477 2 12 2C17.523 2 22 6.477 22 12C22 17.523 17.523 22 12 22ZM11.7099 15.2929C11.3194 15.6835 10.6862 15.6835 10.2956 15.293L7.46677 12.4641C7.0763 12.0737 7.0763 11.4406 7.46677 11.0501C7.85723 10.6597 8.4903 10.6597 8.88077 11.0501L10.2956 12.465C10.6861 12.8555 11.3194 12.8555 11.7099 12.4649L15.9518 8.22226C16.3422 7.83173 16.9753 7.83171 17.3658 8.22219C17.7563 8.61264 17.7563 9.24566 17.3659 9.63613L11.7099 15.2929Z" fill="#62DBA1"/>
</svg>
