<svg width="170" height="170" viewBox="0 0 170 170" fill="none" xmlns="http://www.w3.org/2000/svg">
<path d="M85 122C105.435 122 122 105.435 122 85C122 64.5655 105.435 48 85 48C64.5655 48 48 64.5655 48 85C48 105.435 64.5655 122 85 122Z" fill="#ED1212"/>
<g opacity="0.5">
<path opacity="0.5" d="M85 144.5C117.861 144.5 144.5 117.861 144.5 85C144.5 52.1391 117.861 25.5 85 25.5C52.1391 25.5 25.5 52.1391 25.5 85C25.5 117.861 52.1391 144.5 85 144.5Z" stroke="#1254FF" stroke-opacity="0.5"/>
<path opacity="0.5" d="M85 169.5C131.668 169.5 169.5 131.668 169.5 85C169.5 38.3319 131.668 0.5 85 0.5C38.3319 0.5 0.5 38.3319 0.5 85C0.5 131.668 38.3319 169.5 85 169.5Z" stroke="#1254FF" stroke-opacity="0.2"/>
</g>
<path d="M83.8472 81.9907C84.3604 82.5039 85.1925 82.5039 85.7057 81.9907L92.2109 75.4855C92.7241 74.9724 93.556 74.9724 94.0692 75.4855C94.5823 75.9986 94.5823 76.8306 94.0692 77.3437L87.5639 83.8489C87.0507 84.3621 87.0507 85.1942 87.5639 85.7074L94.0692 92.2126C94.5823 92.7258 94.5823 93.5577 94.0692 94.0709C93.556 94.584 92.7241 94.584 92.2109 94.0709L85.7057 87.5656C85.1925 87.0524 84.3604 87.0524 83.8472 87.5656L77.342 94.0709C76.8289 94.584 75.9969 94.584 75.4838 94.0709C74.9707 93.5577 74.9707 92.7258 75.4838 92.2126L81.989 85.7074C82.5022 85.1942 82.5022 84.3621 81.989 83.8489L75.4838 77.3437C74.9707 76.8306 74.9707 75.9986 75.4838 75.4855C75.9969 74.9724 76.8289 74.9724 77.342 75.4855L83.8472 81.9907Z" fill="white"/>
</svg>
