<svg width="12" height="12" viewBox="0 0 12 12" fill="none" xmlns="http://www.w3.org/2000/svg">
<path d="M5.99984 0.5C6.32815 0.5 6.65324 0.564664 6.95655 0.690301C7.25987 0.815938 7.53546 1.00009 7.76761 1.23223C7.99976 1.46438 8.18391 1.73998 8.30954 2.04329C8.43518 2.34661 8.49984 2.6717 8.49984 3V5C8.49984 5.66304 8.23645 6.29893 7.76761 6.76777C7.29877 7.23661 6.66288 7.5 5.99984 7.5C5.3368 7.5 4.70092 7.23661 4.23208 6.76777C3.76324 6.29893 3.49984 5.66304 3.49984 5V3C3.49984 2.33696 3.76324 1.70107 4.23208 1.23223C4.70092 0.763392 5.3368 0.5 5.99984 0.5V0.5ZM1.52734 5.5H2.53484C2.65599 6.33239 3.07278 7.09334 3.70896 7.64363C4.34514 8.19393 5.15818 8.49678 5.99934 8.49678C6.8405 8.49678 7.65355 8.19393 8.28973 7.64363C8.92591 7.09334 9.3427 6.33239 9.46384 5.5H10.4718C10.3582 6.51436 9.90315 7.45997 9.18145 8.18177C8.45975 8.90356 7.51419 9.35869 6.49984 9.4725V11.5H5.49984V9.4725C4.48541 9.35879 3.53974 8.90372 2.81793 8.18191C2.09613 7.46011 1.64105 6.51443 1.52734 5.5V5.5Z" fill="#1254FF"/>
</svg>
