<svg width="12" height="12" viewBox="0 0 12 12" fill="none" xmlns="http://www.w3.org/2000/svg">
<path d="M10 1C10.3978 1 10.7794 1.15804 11.0607 1.43934C11.342 1.72064 11.5 2.10218 11.5 2.5V3.5H10.5V9.5C10.5 9.89782 10.342 10.2794 10.0607 10.5607C9.77936 10.842 9.39782 11 9 11H2C1.60218 11 1.22064 10.842 0.93934 10.5607C0.658035 10.2794 0.5 9.89782 0.5 9.5V8.5H8.5V9.5C8.50002 9.62247 8.54498 9.74067 8.62636 9.83219C8.70774 9.9237 8.81987 9.98217 8.9415 9.9965L9 10C9.12247 9.99998 9.24067 9.95502 9.33219 9.87364C9.4237 9.79226 9.48217 9.68013 9.4965 9.5585L9.5 9.5V7.5H1.5V2.5C1.5 2.10218 1.65804 1.72064 1.93934 1.43934C2.22064 1.15804 2.60218 1 3 1H10Z" fill="#404575"/>
</svg>
