<svg width="12" height="12" viewBox="0 0 12 12" fill="none" xmlns="http://www.w3.org/2000/svg">
<path d="M1.5 1.9965C1.5 1.7225 1.7225 1.5 1.9965 1.5H10.0035C10.2775 1.5 10.5 1.7225 10.5 1.9965V10.0035C10.4999 10.1351 10.4475 10.2613 10.3544 10.3544C10.2613 10.4475 10.1351 10.4999 10.0035 10.5H1.9965C1.86486 10.4999 1.73865 10.4475 1.64557 10.3544C1.55248 10.2613 1.50013 10.1351 1.5 10.0035V1.9965ZM5.311 4.2075C5.28091 4.18742 5.24593 4.17588 5.2098 4.17411C5.17367 4.17234 5.13774 4.1804 5.10582 4.19743C5.07391 4.21446 5.04721 4.23984 5.02858 4.27084C5.00994 4.30185 5.00007 4.33733 5 4.3735V7.6265C5.00007 7.66267 5.00994 7.69815 5.02858 7.72916C5.04721 7.76016 5.07391 7.78554 5.10582 7.80257C5.13774 7.8196 5.17367 7.82766 5.2098 7.82589C5.24593 7.82412 5.28091 7.81258 5.311 7.7925L7.7505 6.1665C7.77793 6.14824 7.80043 6.12349 7.81599 6.09444C7.83155 6.0654 7.83969 6.03295 7.83969 6C7.83969 5.96705 7.83155 5.9346 7.81599 5.90556C7.80043 5.87651 7.77793 5.85176 7.7505 5.8335L5.3105 4.2075H5.311Z" fill="#1254FF"/>
</svg>
