<svg width="12" height="12" viewBox="0 0 12 12" fill="none" xmlns="http://www.w3.org/2000/svg">
<path d="M10 11H2C1.86739 11 1.74021 10.9473 1.64645 10.8536C1.55268 10.7598 1.5 10.6326 1.5 10.5V1.5C1.5 1.36739 1.55268 1.24021 1.64645 1.14645C1.74021 1.05268 1.86739 1 2 1H10C10.1326 1 10.2598 1.05268 10.3536 1.14645C10.4473 1.24021 10.5 1.36739 10.5 1.5V10.5C10.5 10.6326 10.4473 10.7598 10.3536 10.8536C10.2598 10.9473 10.1326 11 10 11ZM3.5 3V5H5.5V3H3.5ZM3.5 6V7H8.5V6H3.5ZM3.5 8V9H8.5V8H3.5ZM6.5 3.5V4.5H8.5V3.5H6.5Z" fill="#404575"/>
</svg>
