<svg width="12" height="12" viewBox="0 0 12 12" fill="none" xmlns="http://www.w3.org/2000/svg">
<path d="M2.5 1H9.5C9.63261 1 9.75979 1.05268 9.85355 1.14645C9.94732 1.24021 10 1.36739 10 1.5V11.0715C10.0001 11.1162 9.98813 11.1601 9.96545 11.1986C9.94277 11.2372 9.91018 11.2689 9.87107 11.2905C9.83196 11.3122 9.78776 11.323 9.74307 11.3217C9.69839 11.3205 9.65485 11.3073 9.617 11.2835L6 9.015L2.383 11.283C2.34518 11.3068 2.30169 11.32 2.25705 11.3212C2.21241 11.3225 2.16824 11.3118 2.12915 11.2902C2.09005 11.2686 2.05745 11.2369 2.03474 11.1985C2.01203 11.16 2.00003 11.1162 2 11.0715V1.5C2 1.36739 2.05268 1.24021 2.14645 1.14645C2.24021 1.05268 2.36739 1 2.5 1Z" fill="#404575"/>
</svg>
