<svg width="12" height="12" viewBox="0 0 12 12" fill="none" xmlns="http://www.w3.org/2000/svg">
<path d="M10.7715 3.249C11 4.14 11 6 11 6C11 6 11 7.86 10.7715 8.751C10.6445 9.2435 10.273 9.631 9.8025 9.762C8.948 10 6 10 6 10C6 10 3.0535 10 2.1975 9.762C1.725 9.629 1.354 9.242 1.2285 8.751C1 7.86 1 6 1 6C1 6 1 4.14 1.2285 3.249C1.3555 2.7565 1.727 2.369 2.1975 2.238C3.0535 2 6 2 6 2C6 2 8.948 2 9.8025 2.238C10.275 2.371 10.646 2.758 10.7715 3.249V3.249ZM5 7.75L8 6L5 4.25V7.75Z" fill="#404575"/>
</svg>
