<svg width="12" height="12" viewBox="0 0 12 12" fill="none" xmlns="http://www.w3.org/2000/svg">
<path d="M6 1C7.3585 1 7.528 1.005 8.061 1.03C8.5935 1.055 8.956 1.1385 9.275 1.2625C9.605 1.3895 9.883 1.5615 10.161 1.839C10.4152 2.08895 10.612 2.39129 10.7375 2.725C10.861 3.0435 10.945 3.4065 10.97 3.939C10.9935 4.472 11 4.6415 11 6C11 7.3585 10.995 7.528 10.97 8.061C10.945 8.5935 10.861 8.956 10.7375 9.275C10.6123 9.60889 10.4156 9.91131 10.161 10.161C9.91098 10.4152 9.60865 10.6119 9.275 10.7375C8.9565 10.861 8.5935 10.945 8.061 10.97C7.528 10.9935 7.3585 11 6 11C4.6415 11 4.472 10.995 3.939 10.97C3.4065 10.945 3.044 10.861 2.725 10.7375C2.39116 10.6122 2.08876 10.4155 1.839 10.161C1.5847 9.91109 1.38797 9.60873 1.2625 9.275C1.1385 8.9565 1.055 8.5935 1.03 8.061C1.0065 7.528 1 7.3585 1 6C1 4.6415 1.005 4.472 1.03 3.939C1.055 3.406 1.1385 3.044 1.2625 2.725C1.38762 2.39109 1.5844 2.08866 1.839 1.839C2.08884 1.58462 2.39121 1.38786 2.725 1.2625C3.044 1.1385 3.406 1.055 3.939 1.03C4.472 1.0065 4.6415 1 6 1ZM6 3.5C5.33696 3.5 4.70107 3.76339 4.23223 4.23223C3.76339 4.70107 3.5 5.33696 3.5 6C3.5 6.66304 3.76339 7.29893 4.23223 7.76777C4.70107 8.23661 5.33696 8.5 6 8.5C6.66304 8.5 7.29893 8.23661 7.76777 7.76777C8.23661 7.29893 8.5 6.66304 8.5 6C8.5 5.33696 8.23661 4.70107 7.76777 4.23223C7.29893 3.76339 6.66304 3.5 6 3.5V3.5ZM9.25 3.375C9.25 3.20924 9.18415 3.05027 9.06694 2.93306C8.94973 2.81585 8.79076 2.75 8.625 2.75C8.45924 2.75 8.30027 2.81585 8.18306 2.93306C8.06585 3.05027 8 3.20924 8 3.375C8 3.54076 8.06585 3.69973 8.18306 3.81694C8.30027 3.93415 8.45924 4 8.625 4C8.79076 4 8.94973 3.93415 9.06694 3.81694C9.18415 3.69973 9.25 3.54076 9.25 3.375ZM6 4.5C6.39782 4.5 6.77936 4.65804 7.06066 4.93934C7.34196 5.22064 7.5 5.60218 7.5 6C7.5 6.39782 7.34196 6.77936 7.06066 7.06066C6.77936 7.34196 6.39782 7.5 6 7.5C5.60218 7.5 5.22064 7.34196 4.93934 7.06066C4.65804 6.77936 4.5 6.39782 4.5 6C4.5 5.60218 4.65804 5.22064 4.93934 4.93934C5.22064 4.65804 5.60218 4.5 6 4.5V4.5Z" fill="#404575"/>
</svg>
