<svg width="12" height="12" viewBox="0 0 12 12" fill="none" xmlns="http://www.w3.org/2000/svg">
<path d="M4.249 10H7.751C7.42022 10.7912 6.79116 11.4203 6 11.751C5.20884 11.4203 4.57978 10.7912 4.249 10V10ZM9 7.40254L10 8.53654V9.50004H2V8.53654L3 7.40254V4.50004C3 2.75854 4.252 1.27654 6 0.727539C7.748 1.27654 9 2.75854 9 4.50004V7.40254ZM6 5.50004C6.26522 5.50004 6.51957 5.39468 6.70711 5.20715C6.89464 5.01961 7 4.76526 7 4.50004C7 4.23482 6.89464 3.98047 6.70711 3.79293C6.51957 3.6054 6.26522 3.50004 6 3.50004C5.73478 3.50004 5.48043 3.6054 5.29289 3.79293C5.10536 3.98047 5 4.23482 5 4.50004C5 4.76526 5.10536 5.01961 5.29289 5.20715C5.48043 5.39468 5.73478 5.50004 6 5.50004Z" fill="#404575"/>
</svg>
