<svg width="12" height="12" viewBox="0 0 12 12" fill="none" xmlns="http://www.w3.org/2000/svg">
<path d="M6.78786 8.6358L4.23286 7.2423C3.9876 7.48575 3.67576 7.65114 3.33665 7.71761C2.99754 7.78409 2.64634 7.74868 2.32732 7.61585C2.0083 7.48302 1.73575 7.25871 1.54403 6.9712C1.35231 6.6837 1.25 6.34587 1.25 6.0003C1.25 5.65473 1.35231 5.3169 1.54403 5.0294C1.73575 4.74189 2.0083 4.51758 2.32732 4.38475C2.64634 4.25192 2.99754 4.21651 3.33665 4.28299C3.67576 4.34946 3.9876 4.51485 4.23286 4.7583L6.78786 3.3648C6.70023 2.95367 6.76352 2.52473 6.96615 2.15643C7.16879 1.78812 7.49722 1.50507 7.8914 1.35902C8.28558 1.21297 8.71917 1.21369 9.11286 1.36104C9.50655 1.5084 9.83405 1.79254 10.0355 2.16152C10.2369 2.53049 10.2987 2.95964 10.2097 3.37048C10.1208 3.78132 9.88685 4.14639 9.55081 4.39895C9.21477 4.65151 8.79905 4.77466 8.37966 4.7459C7.96028 4.71713 7.56527 4.53837 7.26686 4.2423L4.71186 5.6358C4.76282 5.87613 4.76282 6.12447 4.71186 6.3648L7.26686 7.7583C7.56527 7.46223 7.96028 7.28347 8.37966 7.2547C8.79905 7.22594 9.21477 7.34909 9.55081 7.60165C9.88685 7.85421 10.1208 8.21928 10.2097 8.63012C10.2987 9.04096 10.2369 9.47011 10.0355 9.83908C9.83405 10.2081 9.50655 10.4922 9.11286 10.6396C8.71917 10.7869 8.28558 10.7876 7.8914 10.6416C7.49722 10.4955 7.16879 10.2125 6.96615 9.84417C6.76352 9.47587 6.70023 9.04693 6.78786 8.6358V8.6358Z" fill="#1254FF"/>
</svg>
