<svg width="12" height="12" viewBox="0 0 12 12" fill="none" xmlns="http://www.w3.org/2000/svg">
<path d="M1.532 3.755C1.948 2.92662 2.58619 2.23026 3.37522 1.74373C4.16425 1.25721 5.07303 0.999708 6 1C7.3475 1 8.4795 1.495 9.345 2.3025L7.9115 3.7365C7.393 3.241 6.734 2.9885 6 2.9885C4.6975 2.9885 3.595 3.8685 3.2025 5.05C3.1025 5.35 3.0455 5.67 3.0455 6C3.0455 6.33 3.1025 6.65 3.2025 6.95C3.5955 8.132 4.6975 9.0115 6 9.0115C6.6725 9.0115 7.245 8.834 7.693 8.534C7.95272 8.363 8.17507 8.14111 8.3466 7.88175C8.51814 7.62238 8.6353 7.33093 8.691 7.025H6V5.091H10.709C10.768 5.418 10.8 5.759 10.8 6.1135C10.8 7.6365 10.255 8.9185 9.309 9.7885C8.482 10.5525 7.35 11 6 11C5.34332 11.0003 4.69302 10.8711 4.08627 10.6199C3.47953 10.3688 2.92823 10.0005 2.46388 9.53612C1.99953 9.07177 1.63125 8.52047 1.38007 7.91373C1.12889 7.30698 0.999738 6.65668 1 6C1 5.193 1.193 4.43 1.532 3.755Z" fill="#404575"/>
</svg>
