<svg width="375" height="262" viewBox="0 0 375 262" fill="none" xmlns="http://www.w3.org/2000/svg">
<path fill-rule="evenodd" clip-rule="evenodd" d="M31.0612 5.00181C32.4424 5.00181 33.5621 3.88211 33.5621 2.5009C33.5621 1.11969 32.4424 0 31.0612 0C29.68 0 28.5603 1.11969 28.5603 2.5009C28.5603 3.88211 29.68 5.00181 31.0612 5.00181ZM62.1169 2.5009C62.1169 3.88211 60.9972 5.00181 59.616 5.00181C58.2348 5.00181 57.1151 3.88211 57.1151 2.5009C57.1151 1.11969 58.2348 0 59.616 0C60.9972 0 62.1169 1.11969 62.1169 2.5009ZM85.6071 2.5009C85.6071 3.87395 86.7349 5.00181 88.108 5.00181C89.481 5.00181 90.6089 3.87395 90.6089 2.5009C90.6089 1.12786 89.481 0 88.108 0C86.7349 0 85.6071 1.12786 85.6071 2.5009ZM119.169 2.5009C119.169 3.88211 118.049 5.00181 116.668 5.00181C115.287 5.00181 114.167 3.88211 114.167 2.5009C114.167 1.11969 115.287 0 116.668 0C118.049 0 119.169 1.11969 119.169 2.5009ZM145.219 5.00181C146.6 5.00181 147.72 3.88211 147.72 2.5009C147.72 1.11969 146.6 0 145.219 0C143.837 0 142.718 1.11969 142.718 2.5009C142.718 3.88211 143.837 5.00181 145.219 5.00181ZM173.71 5.00181C175.091 5.00181 176.211 3.88211 176.211 2.5009C176.211 1.11969 175.091 0 173.71 0C172.329 0 171.209 1.11969 171.209 2.5009C171.209 3.88211 172.329 5.00181 173.71 5.00181ZM5.00181 2.50872C5.00181 3.88992 3.88207 5.00962 2.50087 5.00962C1.11967 5.00962 0 3.88992 0 2.50872C0 1.12751 1.11967 0.0078125 2.50087 0.0078125C3.88207 0.0078125 5.00181 1.12751 5.00181 2.50872ZM173.715 30.3924C175.096 30.3924 176.216 29.2727 176.216 27.8915C176.216 26.5103 175.096 25.3906 173.715 25.3906C172.334 25.3906 171.214 26.5103 171.214 27.8915C171.214 29.2727 172.334 30.3924 173.715 30.3924ZM147.727 27.8915C147.727 29.2727 146.607 30.3924 145.226 30.3924C143.845 30.3924 142.725 29.2727 142.725 27.8915C142.725 26.5103 143.845 25.3906 145.226 25.3906C146.607 25.3906 147.727 26.5103 147.727 27.8915ZM116.668 30.3924C118.05 30.3924 119.169 29.2727 119.169 27.8915C119.169 26.5103 118.05 25.3906 116.668 25.3906C115.287 25.3906 114.167 26.5103 114.167 27.8915C114.167 29.2727 115.287 30.3924 116.668 30.3924ZM88.1156 30.3924C86.7426 30.3924 85.6147 29.2646 85.6147 27.8915C85.6147 26.5185 86.7426 25.3906 88.1156 25.3906C89.4887 25.3906 90.6166 26.5185 90.6166 27.8915C90.6166 29.2646 89.4887 30.3924 88.1156 30.3924ZM59.6235 30.3924C61.0047 30.3924 62.1244 29.2727 62.1244 27.8915C62.1244 26.5103 61.0047 25.3906 59.6235 25.3906C58.2422 25.3906 57.1226 26.5103 57.1226 27.8915C57.1226 29.2727 58.2422 30.3924 59.6235 30.3924ZM33.5694 27.8915C33.5694 29.2727 32.4498 30.3924 31.0686 30.3924C29.6874 30.3924 28.5676 29.2727 28.5676 27.8915C28.5676 26.5103 29.6874 25.3906 31.0686 25.3906C32.4498 25.3906 33.5694 26.5103 33.5694 27.8915ZM2.5082 30.3885C3.8894 30.3885 5.00913 29.2688 5.00913 27.8876C5.00913 26.5064 3.8894 25.3867 2.5082 25.3867C1.127 25.3867 0.00732422 26.5064 0.00732422 27.8876C0.00732422 29.2688 1.127 30.3885 2.5082 30.3885ZM176.211 53.1103C176.211 54.4915 175.091 55.6112 173.71 55.6112C172.329 55.6112 171.209 54.4915 171.209 53.1103C171.209 51.7291 172.329 50.6094 173.71 50.6094C175.091 50.6094 176.211 51.7291 176.211 53.1103ZM145.219 55.6112C146.6 55.6112 147.72 54.4915 147.72 53.1103C147.72 51.7291 146.6 50.6094 145.219 50.6094C143.837 50.6094 142.718 51.7291 142.718 53.1103C142.718 54.4915 143.837 55.6112 145.219 55.6112ZM119.164 53.1103C119.164 54.4915 118.044 55.6112 116.663 55.6112C115.282 55.6112 114.162 54.4915 114.162 53.1103C114.162 51.7291 115.282 50.6094 116.663 50.6094C118.044 50.6094 119.164 51.7291 119.164 53.1103ZM85.6072 53.1103C85.6072 54.4833 86.735 55.6112 88.1081 55.6112C89.4811 55.6112 90.609 54.4833 90.609 53.1103C90.609 51.7372 89.4811 50.6094 88.1081 50.6094C86.735 50.6094 85.6072 51.6882 85.6072 53.1103ZM62.1168 53.1103C62.1168 54.4915 60.9971 55.6112 59.6159 55.6112C58.2347 55.6112 57.115 54.4915 57.115 53.1103C57.115 51.7291 58.2347 50.6094 59.6159 50.6094C60.9971 50.6094 62.1168 51.7291 62.1168 53.1103ZM31.0585 55.6112C32.4398 55.6112 33.5594 54.4915 33.5594 53.1103C33.5594 51.7291 32.4398 50.6094 31.0585 50.6094C29.6773 50.6094 28.5576 51.7291 28.5576 53.1103C28.5576 54.4915 29.6773 55.6112 31.0585 55.6112ZM5.00669 53.1103C5.00669 54.4915 3.88696 55.6112 2.50576 55.6112C1.12456 55.6112 0.00488281 54.4915 0.00488281 53.1103C0.00488281 51.7291 1.12456 50.6094 2.50576 50.6094C3.88696 50.6094 5.00669 51.7291 5.00669 53.1103ZM173.713 80.9352C175.094 80.9352 176.214 79.8155 176.214 78.4343C176.214 77.0531 175.094 75.9334 173.713 75.9334C172.332 75.9334 171.212 77.0531 171.212 78.4343C171.212 79.8155 172.332 80.9352 173.713 80.9352ZM147.722 78.4343C147.722 79.8155 146.602 80.9352 145.221 80.9352C143.84 80.9352 142.72 79.8155 142.72 78.4343C142.72 77.0531 143.84 75.9334 145.221 75.9334C146.602 75.9334 147.722 77.0531 147.722 78.4343ZM116.666 80.9352C118.047 80.9352 119.167 79.8155 119.167 78.4343C119.167 77.0531 118.047 75.9334 116.666 75.9334C115.285 75.9334 114.165 77.0531 114.165 78.4343C114.165 79.8155 115.285 80.9352 116.666 80.9352ZM88.1101 80.9352C86.737 80.9352 85.6092 79.8073 85.6092 78.4343C85.6092 77.0612 86.737 75.9334 88.1101 75.9334C89.4831 75.9334 90.611 77.0612 90.611 78.4343C90.611 79.8073 89.4831 80.9352 88.1101 80.9352ZM59.616 80.9352C60.9972 80.9352 62.1169 79.8155 62.1169 78.4343C62.1169 77.0531 60.9972 75.9334 59.616 75.9334C58.2348 75.9334 57.1151 77.0531 57.1151 78.4343C57.1151 79.8155 58.2348 80.9352 59.616 80.9352ZM33.5621 78.4343C33.5621 79.8155 32.4424 80.9352 31.0612 80.9352C29.68 80.9352 28.5603 79.8155 28.5603 78.4343C28.5603 77.0531 29.68 75.9334 31.0612 75.9334C32.4424 75.9334 33.5621 77.0531 33.5621 78.4343ZM2.50584 80.9352C3.88704 80.9352 5.00678 79.8155 5.00678 78.4343C5.00678 77.0531 3.88704 75.9334 2.50584 75.9334C1.12464 75.9334 0.00497001 77.0531 0.00497001 78.4343C0.00497001 79.8155 1.12464 80.9352 2.50584 80.9352ZM176.211 103.818C176.211 105.199 175.091 106.319 173.71 106.319C172.329 106.319 171.209 105.199 171.209 103.818C171.209 102.437 172.329 101.317 173.71 101.317C175.091 101.317 176.211 102.437 176.211 103.818ZM145.219 106.319C146.6 106.319 147.72 105.199 147.72 103.818C147.72 102.437 146.6 101.317 145.219 101.317C143.837 101.317 142.718 102.437 142.718 103.818C142.718 105.199 143.837 106.319 145.219 106.319ZM119.164 103.818C119.164 105.199 118.044 106.319 116.663 106.319C115.282 106.319 114.162 105.199 114.162 103.818C114.162 102.437 115.282 101.317 116.663 101.317C118.044 101.317 119.164 102.437 119.164 103.818ZM85.6071 103.818C85.6071 105.191 86.7349 106.319 88.108 106.319C89.481 106.319 90.6089 105.191 90.6089 103.818C90.6089 102.445 89.481 101.317 88.108 101.317C86.7349 101.317 85.6071 102.445 85.6071 103.818ZM62.1169 103.818C62.1169 105.199 60.9972 106.319 59.616 106.319C58.2348 106.319 57.1151 105.199 57.1151 103.818C57.1151 102.437 58.2348 101.317 59.616 101.317C60.9972 101.317 62.1169 102.437 62.1169 103.818ZM31.0586 106.319C32.4398 106.319 33.5595 105.199 33.5595 103.818C33.5595 102.437 32.4398 101.317 31.0586 101.317C29.6774 101.317 28.5577 102.437 28.5577 103.818C28.5577 105.199 29.6774 106.319 31.0586 106.319ZM5.00442 103.818C5.00442 105.199 3.88469 106.319 2.50349 106.319C1.12229 106.319 0.00261579 105.199 0.00261579 103.818C0.00261579 102.437 1.12229 101.317 2.50349 101.317C3.88469 101.317 5.00442 102.437 5.00442 103.818ZM173.71 131.537C175.091 131.537 176.211 130.417 176.211 129.036C176.211 127.655 175.091 126.535 173.71 126.535C172.329 126.535 171.209 127.655 171.209 129.036C171.209 130.417 172.329 131.537 173.71 131.537ZM147.72 129.036C147.72 130.417 146.6 131.537 145.219 131.537C143.837 131.537 142.718 130.417 142.718 129.036C142.718 127.655 143.837 126.535 145.219 126.535C146.6 126.535 147.72 127.655 147.72 129.036ZM116.663 131.537C118.044 131.537 119.164 130.417 119.164 129.036C119.164 127.655 118.044 126.535 116.663 126.535C115.282 126.535 114.162 127.655 114.162 129.036C114.162 130.417 115.282 131.537 116.663 131.537ZM88.1081 131.537C86.735 131.537 85.6072 130.409 85.6072 129.036C85.6072 127.614 86.735 126.535 88.1081 126.535C89.4811 126.535 90.609 127.663 90.609 129.036C90.609 130.409 89.4811 131.537 88.1081 131.537ZM59.6159 131.537C60.9971 131.537 62.1168 130.417 62.1168 129.036C62.1168 127.655 60.9971 126.535 59.6159 126.535C58.2347 126.535 57.115 127.655 57.115 129.036C57.115 130.417 58.2347 131.537 59.6159 131.537ZM33.5594 129.036C33.5594 130.417 32.4398 131.537 31.0585 131.537C29.6773 131.537 28.5576 130.417 28.5576 129.036C28.5576 127.655 29.6773 126.535 31.0585 126.535C32.4398 126.535 33.5594 127.655 33.5594 129.036ZM2.50576 131.537C3.88696 131.537 5.00669 130.417 5.00669 129.036C5.00669 127.655 3.88696 126.535 2.50576 126.535C1.12456 126.535 0.00488281 127.655 0.00488281 129.036C0.00488281 130.417 1.12456 131.537 2.50576 131.537ZM176.214 154.543C176.214 155.925 175.094 157.044 173.713 157.044C172.332 157.044 171.212 155.925 171.212 154.543C171.212 153.162 172.332 152.042 173.713 152.042C175.094 152.042 176.214 153.162 176.214 154.543ZM145.223 157.044C146.604 157.044 147.724 155.925 147.724 154.543C147.724 153.162 146.604 152.042 145.223 152.042C143.842 152.042 142.722 153.162 142.722 154.543C142.722 155.925 143.842 157.044 145.223 157.044ZM119.167 154.543C119.167 155.925 118.047 157.044 116.666 157.044C115.285 157.044 114.165 155.925 114.165 154.543C114.165 153.162 115.285 152.042 116.666 152.042C118.047 152.042 119.167 153.162 119.167 154.543ZM85.6071 154.543C85.6071 155.916 86.7349 157.044 88.108 157.044C89.481 157.044 90.6089 155.916 90.6089 154.543C90.6089 153.17 89.481 152.042 88.108 152.042C86.7349 152.042 85.6071 153.17 85.6071 154.543ZM62.1198 154.543C62.1198 155.925 61.0001 157.044 59.6189 157.044C58.2376 157.044 57.118 155.925 57.118 154.543C57.118 153.162 58.2376 152.042 59.6189 152.042C61.0001 152.042 62.1198 153.162 62.1198 154.543ZM31.0612 157.044C32.4424 157.044 33.5621 155.925 33.5621 154.543C33.5621 153.162 32.4424 152.042 31.0612 152.042C29.68 152.042 28.5603 153.162 28.5603 154.543C28.5603 155.925 29.68 157.044 31.0612 157.044ZM5.00442 154.543C5.00442 155.925 3.88469 157.044 2.50349 157.044C1.12229 157.044 0.00261579 155.925 0.00261579 154.543C0.00261579 153.162 1.12229 152.042 2.50349 152.042C3.88469 152.042 5.00442 153.162 5.00442 154.543Z" fill="#9AADFF" fill-opacity="0.51"/>
<path fill-rule="evenodd" clip-rule="evenodd" d="M229.532 5.00181C230.913 5.00181 232.033 3.88211 232.033 2.5009C232.033 1.11969 230.913 0 229.532 0C228.15 0 227.031 1.11969 227.031 2.5009C227.031 3.88211 228.15 5.00181 229.532 5.00181ZM260.588 2.5009C260.588 3.88211 259.468 5.00181 258.087 5.00181C256.705 5.00181 255.586 3.88211 255.586 2.5009C255.586 1.11969 256.705 0 258.087 0C259.468 0 260.588 1.11969 260.588 2.5009ZM284.078 2.5009C284.078 3.87395 285.206 5.00181 286.579 5.00181C287.952 5.00181 289.08 3.87395 289.08 2.5009C289.08 1.12786 287.952 0 286.579 0C285.206 0 284.078 1.12786 284.078 2.5009ZM317.64 2.5009C317.64 3.88211 316.52 5.00181 315.139 5.00181C313.758 5.00181 312.638 3.88211 312.638 2.5009C312.638 1.11969 313.758 0 315.139 0C316.52 0 317.64 1.11969 317.64 2.5009ZM343.689 5.00181C345.07 5.00181 346.19 3.88211 346.19 2.5009C346.19 1.11969 345.07 0 343.689 0C342.308 0 341.188 1.11969 341.188 2.5009C341.188 3.88211 342.308 5.00181 343.689 5.00181ZM372.181 5.00181C373.562 5.00181 374.681 3.88211 374.681 2.5009C374.681 1.11969 373.562 0 372.181 0C370.799 0 369.68 1.11969 369.68 2.5009C369.68 3.88211 370.799 5.00181 372.181 5.00181ZM203.473 2.50872C203.473 3.88992 202.353 5.00962 200.972 5.00962C199.59 5.00962 198.471 3.88992 198.471 2.50872C198.471 1.12751 199.59 0.0078125 200.972 0.0078125C202.353 0.0078125 203.473 1.12751 203.473 2.50872ZM372.186 30.3924C373.567 30.3924 374.687 29.2727 374.687 27.8915C374.687 26.5103 373.567 25.3906 372.186 25.3906C370.805 25.3906 369.685 26.5103 369.685 27.8915C369.685 29.2727 370.805 30.3924 372.186 30.3924ZM346.197 27.8915C346.197 29.2727 345.077 30.3924 343.696 30.3924C342.315 30.3924 341.195 29.2727 341.195 27.8915C341.195 26.5103 342.315 25.3906 343.696 25.3906C345.077 25.3906 346.197 26.5103 346.197 27.8915ZM315.139 30.3924C316.52 30.3924 317.64 29.2727 317.64 27.8915C317.64 26.5103 316.52 25.3906 315.139 25.3906C313.758 25.3906 312.638 26.5103 312.638 27.8915C312.638 29.2727 313.758 30.3924 315.139 30.3924ZM286.586 30.3924C285.213 30.3924 284.085 29.2646 284.085 27.8915C284.085 26.5185 285.213 25.3906 286.586 25.3906C287.959 25.3906 289.087 26.5185 289.087 27.8915C289.087 29.2646 287.959 30.3924 286.586 30.3924ZM258.094 30.3924C259.475 30.3924 260.595 29.2727 260.595 27.8915C260.595 26.5103 259.475 25.3906 258.094 25.3906C256.713 25.3906 255.593 26.5103 255.593 27.8915C255.593 29.2727 256.713 30.3924 258.094 30.3924ZM232.04 27.8915C232.04 29.2727 230.92 30.3924 229.539 30.3924C228.158 30.3924 227.038 29.2727 227.038 27.8915C227.038 26.5103 228.158 25.3906 229.539 25.3906C230.92 25.3906 232.04 26.5103 232.04 27.8915ZM200.979 30.3885C202.36 30.3885 203.48 29.2688 203.48 27.8876C203.48 26.5064 202.36 25.3867 200.979 25.3867C199.597 25.3867 198.478 26.5064 198.478 27.8876C198.478 29.2688 199.597 30.3885 200.979 30.3885ZM374.681 53.1103C374.681 54.4915 373.562 55.6112 372.181 55.6112C370.799 55.6112 369.68 54.4915 369.68 53.1103C369.68 51.7291 370.799 50.6094 372.181 50.6094C373.562 50.6094 374.681 51.7291 374.681 53.1103ZM343.689 55.6112C345.07 55.6112 346.19 54.4915 346.19 53.1103C346.19 51.7291 345.07 50.6094 343.689 50.6094C342.308 50.6094 341.188 51.7291 341.188 53.1103C341.188 54.4915 342.308 55.6112 343.689 55.6112ZM317.634 53.1103C317.634 54.4915 316.515 55.6112 315.133 55.6112C313.752 55.6112 312.633 54.4915 312.633 53.1103C312.633 51.7291 313.752 50.6094 315.133 50.6094C316.515 50.6094 317.634 51.7291 317.634 53.1103ZM284.078 53.1103C284.078 54.4833 285.206 55.6112 286.579 55.6112C287.952 55.6112 289.08 54.4833 289.08 53.1103C289.08 51.7372 287.952 50.6094 286.579 50.6094C285.206 50.6094 284.078 51.6882 284.078 53.1103ZM260.588 53.1103C260.588 54.4915 259.468 55.6112 258.087 55.6112C256.705 55.6112 255.586 54.4915 255.586 53.1103C255.586 51.7291 256.705 50.6094 258.087 50.6094C259.468 50.6094 260.588 51.7291 260.588 53.1103ZM229.529 55.6112C230.91 55.6112 232.03 54.4915 232.03 53.1103C232.03 51.7291 230.91 50.6094 229.529 50.6094C228.148 50.6094 227.028 51.7291 227.028 53.1103C227.028 54.4915 228.148 55.6112 229.529 55.6112ZM203.477 53.1103C203.477 54.4915 202.357 55.6112 200.976 55.6112C199.595 55.6112 198.475 54.4915 198.475 53.1103C198.475 51.7291 199.595 50.6094 200.976 50.6094C202.357 50.6094 203.477 51.7291 203.477 53.1103ZM372.183 80.9352C373.564 80.9352 374.684 79.8155 374.684 78.4343C374.684 77.0531 373.564 75.9334 372.183 75.9334C370.802 75.9334 369.682 77.0531 369.682 78.4343C369.682 79.8155 370.802 80.9352 372.183 80.9352ZM346.193 78.4343C346.193 79.8155 345.073 80.9352 343.692 80.9352C342.31 80.9352 341.191 79.8155 341.191 78.4343C341.191 77.0531 342.31 75.9334 343.692 75.9334C345.073 75.9334 346.193 77.0531 346.193 78.4343ZM315.136 80.9352C316.518 80.9352 317.637 79.8155 317.637 78.4343C317.637 77.0531 316.518 75.9334 315.136 75.9334C313.755 75.9334 312.635 77.0531 312.635 78.4343C312.635 79.8155 313.755 80.9352 315.136 80.9352ZM286.581 80.9352C285.208 80.9352 284.08 79.8073 284.08 78.4343C284.08 77.0612 285.208 75.9334 286.581 75.9334C287.954 75.9334 289.082 77.0612 289.082 78.4343C289.082 79.8073 287.954 80.9352 286.581 80.9352ZM258.087 80.9352C259.468 80.9352 260.588 79.8155 260.588 78.4343C260.588 77.0531 259.468 75.9334 258.087 75.9334C256.705 75.9334 255.586 77.0531 255.586 78.4343C255.586 79.8155 256.705 80.9352 258.087 80.9352ZM232.033 78.4343C232.033 79.8155 230.913 80.9352 229.532 80.9352C228.15 80.9352 227.031 79.8155 227.031 78.4343C227.031 77.0531 228.15 75.9334 229.532 75.9334C230.913 75.9334 232.033 77.0531 232.033 78.4343ZM200.976 80.9352C202.357 80.9352 203.477 79.8155 203.477 78.4343C203.477 77.0531 202.357 75.9334 200.976 75.9334C199.595 75.9334 198.475 77.0531 198.475 78.4343C198.475 79.8155 199.595 80.9352 200.976 80.9352ZM374.681 103.818C374.681 105.199 373.562 106.319 372.181 106.319C370.799 106.319 369.68 105.199 369.68 103.818C369.68 102.437 370.799 101.317 372.181 101.317C373.562 101.317 374.681 102.437 374.681 103.818ZM343.689 106.319C345.07 106.319 346.19 105.199 346.19 103.818C346.19 102.437 345.07 101.317 343.689 101.317C342.308 101.317 341.188 102.437 341.188 103.818C341.188 105.199 342.308 106.319 343.689 106.319ZM317.634 103.818C317.634 105.199 316.515 106.319 315.133 106.319C313.752 106.319 312.633 105.199 312.633 103.818C312.633 102.437 313.752 101.317 315.133 101.317C316.515 101.317 317.634 102.437 317.634 103.818ZM284.078 103.818C284.078 105.191 285.206 106.319 286.579 106.319C287.952 106.319 289.08 105.191 289.08 103.818C289.08 102.445 287.952 101.317 286.579 101.317C285.206 101.317 284.078 102.445 284.078 103.818ZM260.588 103.818C260.588 105.199 259.468 106.319 258.087 106.319C256.705 106.319 255.586 105.199 255.586 103.818C255.586 102.437 256.705 101.317 258.087 101.317C259.468 101.317 260.588 102.437 260.588 103.818ZM229.529 106.319C230.911 106.319 232.03 105.199 232.03 103.818C232.03 102.437 230.911 101.317 229.529 101.317C228.148 101.317 227.028 102.437 227.028 103.818C227.028 105.199 228.148 106.319 229.529 106.319ZM203.475 103.818C203.475 105.199 202.355 106.319 200.974 106.319C199.593 106.319 198.473 105.199 198.473 103.818C198.473 102.437 199.593 101.317 200.974 101.317C202.355 101.317 203.475 102.437 203.475 103.818ZM372.181 131.537C373.562 131.537 374.681 130.417 374.681 129.036C374.681 127.655 373.562 126.535 372.181 126.535C370.799 126.535 369.68 127.655 369.68 129.036C369.68 130.417 370.799 131.537 372.181 131.537ZM346.19 129.036C346.19 130.417 345.07 131.537 343.689 131.537C342.308 131.537 341.188 130.417 341.188 129.036C341.188 127.655 342.308 126.535 343.689 126.535C345.07 126.535 346.19 127.655 346.19 129.036ZM315.133 131.537C316.515 131.537 317.634 130.417 317.634 129.036C317.634 127.655 316.515 126.535 315.133 126.535C313.752 126.535 312.633 127.655 312.633 129.036C312.633 130.417 313.752 131.537 315.133 131.537ZM286.579 131.537C285.206 131.537 284.078 130.409 284.078 129.036C284.078 127.614 285.206 126.535 286.579 126.535C287.952 126.535 289.08 127.663 289.08 129.036C289.08 130.409 287.952 131.537 286.579 131.537ZM258.087 131.537C259.468 131.537 260.588 130.417 260.588 129.036C260.588 127.655 259.468 126.535 258.087 126.535C256.705 126.535 255.586 127.655 255.586 129.036C255.586 130.417 256.705 131.537 258.087 131.537ZM232.03 129.036C232.03 130.417 230.91 131.537 229.529 131.537C228.148 131.537 227.028 130.417 227.028 129.036C227.028 127.655 228.148 126.535 229.529 126.535C230.91 126.535 232.03 127.655 232.03 129.036ZM200.976 131.537C202.357 131.537 203.477 130.417 203.477 129.036C203.477 127.655 202.357 126.535 200.976 126.535C199.595 126.535 198.475 127.655 198.475 129.036C198.475 130.417 199.595 131.537 200.976 131.537ZM374.684 154.543C374.684 155.925 373.564 157.044 372.183 157.044C370.802 157.044 369.682 155.925 369.682 154.543C369.682 153.162 370.802 152.042 372.183 152.042C373.564 152.042 374.684 153.162 374.684 154.543ZM343.694 157.044C345.075 157.044 346.195 155.925 346.195 154.543C346.195 153.162 345.075 152.042 343.694 152.042C342.313 152.042 341.193 153.162 341.193 154.543C341.193 155.925 342.313 157.044 343.694 157.044ZM317.637 154.543C317.637 155.925 316.518 157.044 315.136 157.044C313.755 157.044 312.635 155.925 312.635 154.543C312.635 153.162 313.755 152.042 315.136 152.042C316.518 152.042 317.637 153.162 317.637 154.543ZM284.078 154.543C284.078 155.916 285.206 157.044 286.579 157.044C287.952 157.044 289.08 155.916 289.08 154.543C289.08 153.17 287.952 152.042 286.579 152.042C285.206 152.042 284.078 153.17 284.078 154.543ZM260.59 154.543C260.59 155.925 259.471 157.044 258.089 157.044C256.708 157.044 255.588 155.925 255.588 154.543C255.588 153.162 256.708 152.042 258.089 152.042C259.471 152.042 260.59 153.162 260.59 154.543ZM229.532 157.044C230.913 157.044 232.033 155.925 232.033 154.543C232.033 153.162 230.913 152.042 229.532 152.042C228.15 152.042 227.031 153.162 227.031 154.543C227.031 155.925 228.15 157.044 229.532 157.044ZM203.475 154.543C203.475 155.925 202.355 157.044 200.974 157.044C199.593 157.044 198.473 155.925 198.473 154.543C198.473 153.162 199.593 152.042 200.974 152.042C202.355 152.042 203.475 153.162 203.475 154.543Z" fill="#9AADFF" fill-opacity="0.51"/>
<path fill-rule="evenodd" clip-rule="evenodd" d="M31.3736 183.041C32.7548 183.041 33.8745 181.921 33.8745 180.54C33.8745 179.159 32.7548 178.039 31.3736 178.039C29.9924 178.039 28.8727 179.159 28.8727 180.54C28.8727 181.921 29.9924 183.041 31.3736 183.041ZM62.4298 180.54C62.4298 181.921 61.3101 183.041 59.9289 183.041C58.5477 183.041 57.428 181.921 57.428 180.54C57.428 179.159 58.5477 178.039 59.9289 178.039C61.3101 178.039 62.4298 179.159 62.4298 180.54ZM85.9195 180.54C85.9195 181.913 87.0473 183.041 88.4204 183.041C89.7934 183.041 90.9213 181.913 90.9213 180.54C90.9213 179.167 89.7934 178.039 88.4204 178.039C87.0473 178.039 85.9195 179.167 85.9195 180.54ZM119.482 180.54C119.482 181.921 118.362 183.041 116.981 183.041C115.599 183.041 114.48 181.921 114.48 180.54C114.48 179.159 115.599 178.039 116.981 178.039C118.362 178.039 119.482 179.159 119.482 180.54ZM145.531 183.041C146.912 183.041 148.032 181.921 148.032 180.54C148.032 179.159 146.912 178.039 145.531 178.039C144.15 178.039 143.03 179.159 143.03 180.54C143.03 181.921 144.15 183.041 145.531 183.041ZM174.023 183.041C175.404 183.041 176.524 181.921 176.524 180.54C176.524 179.159 175.404 178.039 174.023 178.039C172.642 178.039 171.522 179.159 171.522 180.54C171.522 181.921 172.642 183.041 174.023 183.041ZM5.31431 180.547C5.31431 181.929 4.19457 183.048 2.81337 183.048C1.43217 183.048 0.3125 181.929 0.3125 180.547C0.3125 179.166 1.43217 178.046 2.81337 178.046C4.19457 178.046 5.31431 179.166 5.31431 180.547ZM174.028 208.431C175.409 208.431 176.529 207.312 176.529 205.931C176.529 204.549 175.409 203.43 174.028 203.43C172.647 203.43 171.527 204.549 171.527 205.931C171.527 207.312 172.647 208.431 174.028 208.431ZM148.039 205.931C148.039 207.312 146.919 208.431 145.538 208.431C144.157 208.431 143.037 207.312 143.037 205.931C143.037 204.549 144.157 203.43 145.538 203.43C146.919 203.43 148.039 204.549 148.039 205.931ZM116.981 208.431C118.362 208.431 119.482 207.312 119.482 205.931C119.482 204.549 118.362 203.43 116.981 203.43C115.599 203.43 114.48 204.549 114.48 205.931C114.48 207.312 115.599 208.431 116.981 208.431ZM88.4279 208.431C87.0549 208.431 85.927 207.304 85.927 205.931C85.927 204.558 87.0549 203.43 88.4279 203.43C89.801 203.43 90.9288 204.558 90.9288 205.931C90.9288 207.304 89.801 208.431 88.4279 208.431ZM59.9362 208.431C61.3174 208.431 62.4371 207.312 62.4371 205.931C62.4371 204.549 61.3174 203.43 59.9362 203.43C58.555 203.43 57.4353 204.549 57.4353 205.931C57.4353 207.312 58.555 208.431 59.9362 208.431ZM33.8817 205.931C33.8817 207.312 32.762 208.431 31.3808 208.431C29.9996 208.431 28.8799 207.312 28.8799 205.931C28.8799 204.549 29.9996 203.43 31.3808 203.43C32.762 203.43 33.8817 204.549 33.8817 205.931ZM2.8207 208.428C4.2019 208.428 5.32163 207.308 5.32163 205.927C5.32163 204.545 4.2019 203.426 2.8207 203.426C1.4395 203.426 0.319824 204.545 0.319824 205.927C0.319824 207.308 1.4395 208.428 2.8207 208.428ZM176.524 231.149C176.524 232.531 175.404 233.65 174.023 233.65C172.642 233.65 171.522 232.531 171.522 231.149C171.522 229.768 172.642 228.648 174.023 228.648C175.404 228.648 176.524 229.768 176.524 231.149ZM145.531 233.65C146.912 233.65 148.032 232.531 148.032 231.149C148.032 229.768 146.912 228.648 145.531 228.648C144.15 228.648 143.03 229.768 143.03 231.149C143.03 232.531 144.15 233.65 145.531 233.65ZM119.477 231.149C119.477 232.531 118.357 233.65 116.976 233.65C115.595 233.65 114.475 232.531 114.475 231.149C114.475 229.768 115.595 228.648 116.976 228.648C118.357 228.648 119.477 229.768 119.477 231.149ZM85.9194 231.149C85.9194 232.522 87.0473 233.65 88.4203 233.65C89.7934 233.65 90.9212 232.522 90.9212 231.149C90.9212 229.776 89.7934 228.648 88.4203 228.648C87.0473 228.648 85.9194 229.727 85.9194 231.149ZM62.4298 231.149C62.4298 232.531 61.3101 233.65 59.9289 233.65C58.5477 233.65 57.428 232.531 57.428 231.149C57.428 229.768 58.5477 228.648 59.9289 228.648C61.3101 228.648 62.4298 229.768 62.4298 231.149ZM31.3715 233.65C32.7527 233.65 33.8724 232.531 33.8724 231.149C33.8724 229.768 32.7527 228.648 31.3715 228.648C29.9903 228.648 28.8706 229.768 28.8706 231.149C28.8706 232.531 29.9903 233.65 31.3715 233.65ZM5.31943 231.149C5.31943 232.531 4.1997 233.65 2.8185 233.65C1.4373 233.65 0.317627 232.531 0.317627 231.149C0.317627 229.768 1.4373 228.648 2.8185 228.648C4.1997 228.648 5.31943 229.768 5.31943 231.149ZM174.025 258.974C175.407 258.974 176.526 257.855 176.526 256.473C176.526 255.092 175.407 253.972 174.025 253.972C172.644 253.972 171.524 255.092 171.524 256.473C171.524 257.855 172.644 258.974 174.025 258.974ZM148.034 256.473C148.034 257.855 146.915 258.974 145.533 258.974C144.152 258.974 143.032 257.855 143.032 256.473C143.032 255.092 144.152 253.972 145.533 253.972C146.915 253.972 148.034 255.092 148.034 256.473ZM116.979 258.974C118.36 258.974 119.479 257.855 119.479 256.473C119.479 255.092 118.36 253.972 116.979 253.972C115.597 253.972 114.478 255.092 114.478 256.473C114.478 257.855 115.597 258.974 116.979 258.974ZM88.423 258.974C87.0499 258.974 85.9221 257.846 85.9221 256.473C85.9221 255.1 87.0499 253.972 88.423 253.972C89.7961 253.972 90.9239 255.1 90.9239 256.473C90.9239 257.846 89.7961 258.974 88.423 258.974ZM59.9289 258.974C61.3101 258.974 62.4298 257.855 62.4298 256.473C62.4298 255.092 61.3101 253.972 59.9289 253.972C58.5477 253.972 57.428 255.092 57.428 256.473C57.428 257.855 58.5477 258.974 59.9289 258.974ZM33.8745 256.473C33.8745 257.855 32.7548 258.974 31.3736 258.974C29.9924 258.974 28.8727 257.855 28.8727 256.473C28.8727 255.092 29.9924 253.972 31.3736 253.972C32.7548 253.972 33.8745 255.092 33.8745 256.473ZM2.8185 258.974C4.1997 258.974 5.31943 257.855 5.31943 256.473C5.31943 255.092 4.1997 253.972 2.8185 253.972C1.4373 253.972 0.317627 255.092 0.317627 256.473C0.317627 257.855 1.4373 258.974 2.8185 258.974ZM176.524 281.857C176.524 283.238 175.404 284.358 174.023 284.358C172.642 284.358 171.522 283.238 171.522 281.857C171.522 280.476 172.642 279.356 174.023 279.356C175.404 279.356 176.524 280.476 176.524 281.857ZM145.531 284.358C146.912 284.358 148.032 283.238 148.032 281.857C148.032 280.476 146.912 279.356 145.531 279.356C144.15 279.356 143.03 280.476 143.03 281.857C143.03 283.238 144.15 284.358 145.531 284.358ZM119.477 281.857C119.477 283.238 118.357 284.358 116.976 284.358C115.594 284.358 114.475 283.238 114.475 281.857C114.475 280.476 115.594 279.356 116.976 279.356C118.357 279.356 119.477 280.476 119.477 281.857ZM85.9195 281.857C85.9195 283.23 87.0473 284.358 88.4204 284.358C89.7934 284.358 90.9213 283.23 90.9213 281.857C90.9213 280.484 89.7934 279.356 88.4204 279.356C87.0473 279.356 85.9195 280.484 85.9195 281.857ZM62.4298 281.857C62.4298 283.238 61.3101 284.358 59.9289 284.358C58.5477 284.358 57.428 283.238 57.428 281.857C57.428 280.476 58.5477 279.356 59.9289 279.356C61.3101 279.356 62.4298 280.476 62.4298 281.857ZM31.3715 284.358C32.7527 284.358 33.8724 283.238 33.8724 281.857C33.8724 280.476 32.7527 279.356 31.3715 279.356C29.9903 279.356 28.8706 280.476 28.8706 281.857C28.8706 283.238 29.9903 284.358 31.3715 284.358ZM5.31682 281.857C5.31682 283.238 4.19709 284.358 2.81588 284.358C1.43468 284.358 0.315011 283.238 0.315011 281.857C0.315011 280.476 1.43468 279.356 2.81588 279.356C4.19709 279.356 5.31682 280.476 5.31682 281.857ZM174.023 309.576C175.404 309.576 176.524 308.456 176.524 307.075C176.524 305.694 175.404 304.574 174.023 304.574C172.642 304.574 171.522 305.694 171.522 307.075C171.522 308.456 172.642 309.576 174.023 309.576ZM148.032 307.075C148.032 308.456 146.912 309.576 145.531 309.576C144.15 309.576 143.03 308.456 143.03 307.075C143.03 305.694 144.15 304.574 145.531 304.574C146.912 304.574 148.032 305.694 148.032 307.075ZM116.976 309.576C118.357 309.576 119.477 308.456 119.477 307.075C119.477 305.694 118.357 304.574 116.976 304.574C115.595 304.574 114.475 305.694 114.475 307.075C114.475 308.456 115.595 309.576 116.976 309.576ZM88.4203 309.576C87.0473 309.576 85.9194 308.448 85.9194 307.075C85.9194 305.653 87.0473 304.574 88.4203 304.574C89.7934 304.574 90.9212 305.702 90.9212 307.075C90.9212 308.448 89.7934 309.576 88.4203 309.576ZM59.9289 309.576C61.3101 309.576 62.4298 308.456 62.4298 307.075C62.4298 305.694 61.3101 304.574 59.9289 304.574C58.5477 304.574 57.428 305.694 57.428 307.075C57.428 308.456 58.5477 309.576 59.9289 309.576ZM33.8724 307.075C33.8724 308.456 32.7527 309.576 31.3715 309.576C29.9903 309.576 28.8706 308.456 28.8706 307.075C28.8706 305.694 29.9903 304.574 31.3715 304.574C32.7527 304.574 33.8724 305.694 33.8724 307.075ZM2.8185 309.576C4.1997 309.576 5.31943 308.456 5.31943 307.075C5.31943 305.694 4.1997 304.574 2.8185 304.574C1.4373 304.574 0.317627 305.694 0.317627 307.075C0.317627 308.456 1.4373 309.576 2.8185 309.576ZM176.526 332.582C176.526 333.964 175.407 335.083 174.025 335.083C172.644 335.083 171.524 333.964 171.524 332.582C171.524 331.201 172.644 330.082 174.025 330.082C175.407 330.082 176.526 331.201 176.526 332.582ZM145.536 335.083C146.917 335.083 148.037 333.964 148.037 332.582C148.037 331.201 146.917 330.082 145.536 330.082C144.155 330.082 143.035 331.201 143.035 332.582C143.035 333.964 144.155 335.083 145.536 335.083ZM119.479 332.582C119.479 333.964 118.36 335.083 116.979 335.083C115.597 335.083 114.478 333.964 114.478 332.582C114.478 331.201 115.597 330.082 116.979 330.082C118.36 330.082 119.479 331.201 119.479 332.582ZM85.9195 332.582C85.9195 333.956 87.0473 335.083 88.4204 335.083C89.7934 335.083 90.9213 333.956 90.9213 332.582C90.9213 331.209 89.7934 330.082 88.4204 330.082C87.0473 330.082 85.9195 331.209 85.9195 332.582ZM62.4322 332.582C62.4322 333.964 61.3125 335.083 59.9312 335.083C58.55 335.083 57.4303 333.964 57.4303 332.582C57.4303 331.201 58.55 330.082 59.9312 330.082C61.3125 330.082 62.4322 331.201 62.4322 332.582ZM31.3736 335.083C32.7548 335.083 33.8745 333.964 33.8745 332.582C33.8745 331.201 32.7548 330.082 31.3736 330.082C29.9924 330.082 28.8727 331.201 28.8727 332.582C28.8727 333.964 29.9924 335.083 31.3736 335.083ZM5.31682 332.582C5.31682 333.964 4.19709 335.083 2.81588 335.083C1.43468 335.083 0.315011 333.964 0.315011 332.582C0.315011 331.201 1.43468 330.082 2.81588 330.082C4.19709 330.082 5.31682 331.201 5.31682 332.582Z" fill="#9AADFF" fill-opacity="0.51"/>
<path fill-rule="evenodd" clip-rule="evenodd" d="M229.844 183.041C231.226 183.041 232.345 181.921 232.345 180.54C232.345 179.159 231.226 178.039 229.844 178.039C228.463 178.039 227.343 179.159 227.343 180.54C227.343 181.921 228.463 183.041 229.844 183.041ZM260.9 180.54C260.9 181.921 259.781 183.041 258.4 183.041C257.018 183.041 255.899 181.921 255.899 180.54C255.899 179.159 257.018 178.039 258.4 178.039C259.781 178.039 260.9 179.159 260.9 180.54ZM284.39 180.54C284.39 181.913 285.518 183.041 286.891 183.041C288.264 183.041 289.392 181.913 289.392 180.54C289.392 179.167 288.264 178.039 286.891 178.039C285.518 178.039 284.39 179.167 284.39 180.54ZM317.952 180.54C317.952 181.921 316.833 183.041 315.451 183.041C314.07 183.041 312.95 181.921 312.95 180.54C312.95 179.159 314.07 178.039 315.451 178.039C316.833 178.039 317.952 179.159 317.952 180.54ZM344.002 183.041C345.383 183.041 346.503 181.921 346.503 180.54C346.503 179.159 345.383 178.039 344.002 178.039C342.62 178.039 341.501 179.159 341.501 180.54C341.501 181.921 342.62 183.041 344.002 183.041ZM372.493 183.041C373.875 183.041 374.994 181.921 374.994 180.54C374.994 179.159 373.875 178.039 372.493 178.039C371.112 178.039 369.993 179.159 369.993 180.54C369.993 181.921 371.112 183.041 372.493 183.041ZM203.785 180.547C203.785 181.929 202.665 183.048 201.284 183.048C199.903 183.048 198.783 181.929 198.783 180.547C198.783 179.166 199.903 178.046 201.284 178.046C202.665 178.046 203.785 179.166 203.785 180.547ZM372.498 208.431C373.88 208.431 374.999 207.312 374.999 205.931C374.999 204.549 373.88 203.43 372.498 203.43C371.117 203.43 369.998 204.549 369.998 205.931C369.998 207.312 371.117 208.431 372.498 208.431ZM346.51 205.931C346.51 207.312 345.39 208.431 344.009 208.431C342.628 208.431 341.508 207.312 341.508 205.931C341.508 204.549 342.628 203.43 344.009 203.43C345.39 203.43 346.51 204.549 346.51 205.931ZM315.451 208.431C316.833 208.431 317.952 207.312 317.952 205.931C317.952 204.549 316.833 203.43 315.451 203.43C314.07 203.43 312.95 204.549 312.95 205.931C312.95 207.312 314.07 208.431 315.451 208.431ZM286.899 208.431C285.526 208.431 284.398 207.304 284.398 205.931C284.398 204.558 285.526 203.43 286.899 203.43C288.272 203.43 289.4 204.558 289.4 205.931C289.4 207.304 288.272 208.431 286.899 208.431ZM258.407 208.431C259.788 208.431 260.908 207.312 260.908 205.931C260.908 204.549 259.788 203.43 258.407 203.43C257.025 203.43 255.906 204.549 255.906 205.931C255.906 207.312 257.025 208.431 258.407 208.431ZM232.352 205.931C232.352 207.312 231.233 208.431 229.852 208.431C228.47 208.431 227.351 207.312 227.351 205.931C227.351 204.549 228.47 203.43 229.852 203.43C231.233 203.43 232.352 204.549 232.352 205.931ZM201.291 208.428C202.673 208.428 203.792 207.308 203.792 205.927C203.792 204.545 202.673 203.426 201.291 203.426C199.91 203.426 198.791 204.545 198.791 205.927C198.791 207.308 199.91 208.428 201.291 208.428ZM374.994 231.149C374.994 232.531 373.875 233.65 372.494 233.65C371.112 233.65 369.993 232.531 369.993 231.149C369.993 229.768 371.112 228.648 372.494 228.648C373.875 228.648 374.994 229.768 374.994 231.149ZM344.002 233.65C345.383 233.65 346.503 232.531 346.503 231.149C346.503 229.768 345.383 228.648 344.002 228.648C342.62 228.648 341.501 229.768 341.501 231.149C341.501 232.531 342.62 233.65 344.002 233.65ZM317.947 231.149C317.947 232.531 316.828 233.65 315.446 233.65C314.065 233.65 312.946 232.531 312.946 231.149C312.946 229.768 314.065 228.648 315.446 228.648C316.828 228.648 317.947 229.768 317.947 231.149ZM284.39 231.149C284.39 232.522 285.518 233.65 286.891 233.65C288.264 233.65 289.392 232.522 289.392 231.149C289.392 229.776 288.264 228.648 286.891 228.648C285.518 228.648 284.39 229.727 284.39 231.149ZM260.9 231.149C260.9 232.531 259.781 233.65 258.4 233.65C257.018 233.65 255.899 232.531 255.899 231.149C255.899 229.768 257.018 228.648 258.4 228.648C259.781 228.648 260.9 229.768 260.9 231.149ZM229.842 233.65C231.223 233.65 232.343 232.531 232.343 231.149C232.343 229.768 231.223 228.648 229.842 228.648C228.461 228.648 227.341 229.768 227.341 231.149C227.341 232.531 228.461 233.65 229.842 233.65ZM203.79 231.149C203.79 232.531 202.67 233.65 201.289 233.65C199.908 233.65 198.788 232.531 198.788 231.149C198.788 229.768 199.908 228.648 201.289 228.648C202.67 228.648 203.79 229.768 203.79 231.149ZM372.496 258.974C373.877 258.974 374.997 257.855 374.997 256.473C374.997 255.092 373.877 253.972 372.496 253.972C371.115 253.972 369.995 255.092 369.995 256.473C369.995 257.855 371.115 258.974 372.496 258.974ZM346.505 256.473C346.505 257.855 345.385 258.974 344.004 258.974C342.623 258.974 341.503 257.855 341.503 256.473C341.503 255.092 342.623 253.972 344.004 253.972C345.385 253.972 346.505 255.092 346.505 256.473ZM315.449 258.974C316.83 258.974 317.95 257.855 317.95 256.473C317.95 255.092 316.83 253.972 315.449 253.972C314.068 253.972 312.948 255.092 312.948 256.473C312.948 257.855 314.068 258.974 315.449 258.974ZM286.894 258.974C285.521 258.974 284.393 257.846 284.393 256.473C284.393 255.1 285.521 253.972 286.894 253.972C288.267 253.972 289.395 255.1 289.395 256.473C289.395 257.846 288.267 258.974 286.894 258.974ZM258.4 258.974C259.781 258.974 260.9 257.855 260.9 256.473C260.9 255.092 259.781 253.972 258.4 253.972C257.018 253.972 255.899 255.092 255.899 256.473C255.899 257.855 257.018 258.974 258.4 258.974ZM232.345 256.473C232.345 257.855 231.226 258.974 229.844 258.974C228.463 258.974 227.343 257.855 227.343 256.473C227.343 255.092 228.463 253.972 229.844 253.972C231.226 253.972 232.345 255.092 232.345 256.473ZM201.289 258.974C202.67 258.974 203.79 257.855 203.79 256.473C203.79 255.092 202.67 253.972 201.289 253.972C199.908 253.972 198.788 255.092 198.788 256.473C198.788 257.855 199.908 258.974 201.289 258.974ZM374.994 281.857C374.994 283.238 373.875 284.358 372.493 284.358C371.112 284.358 369.993 283.238 369.993 281.857C369.993 280.476 371.112 279.356 372.493 279.356C373.875 279.356 374.994 280.476 374.994 281.857ZM344.002 284.358C345.383 284.358 346.503 283.238 346.503 281.857C346.503 280.476 345.383 279.356 344.002 279.356C342.62 279.356 341.501 280.476 341.501 281.857C341.501 283.238 342.62 284.358 344.002 284.358ZM317.947 281.857C317.947 283.238 316.828 284.358 315.446 284.358C314.065 284.358 312.945 283.238 312.945 281.857C312.945 280.476 314.065 279.356 315.446 279.356C316.828 279.356 317.947 280.476 317.947 281.857ZM284.39 281.857C284.39 283.23 285.518 284.358 286.891 284.358C288.264 284.358 289.392 283.23 289.392 281.857C289.392 280.484 288.264 279.356 286.891 279.356C285.518 279.356 284.39 280.484 284.39 281.857ZM260.9 281.857C260.9 283.238 259.781 284.358 258.4 284.358C257.018 284.358 255.899 283.238 255.899 281.857C255.899 280.476 257.018 279.356 258.4 279.356C259.781 279.356 260.9 280.476 260.9 281.857ZM229.842 284.358C231.223 284.358 232.343 283.238 232.343 281.857C232.343 280.476 231.223 279.356 229.842 279.356C228.46 279.356 227.341 280.476 227.341 281.857C227.341 283.238 228.46 284.358 229.842 284.358ZM203.788 281.857C203.788 283.238 202.668 284.358 201.287 284.358C199.905 284.358 198.786 283.238 198.786 281.857C198.786 280.476 199.905 279.356 201.287 279.356C202.668 279.356 203.788 280.476 203.788 281.857ZM372.494 309.576C373.875 309.576 374.994 308.456 374.994 307.075C374.994 305.694 373.875 304.574 372.494 304.574C371.112 304.574 369.993 305.694 369.993 307.075C369.993 308.456 371.112 309.576 372.494 309.576ZM346.503 307.075C346.503 308.456 345.383 309.576 344.002 309.576C342.62 309.576 341.501 308.456 341.501 307.075C341.501 305.694 342.62 304.574 344.002 304.574C345.383 304.574 346.503 305.694 346.503 307.075ZM315.446 309.576C316.828 309.576 317.947 308.456 317.947 307.075C317.947 305.694 316.828 304.574 315.446 304.574C314.065 304.574 312.946 305.694 312.946 307.075C312.946 308.456 314.065 309.576 315.446 309.576ZM286.891 309.576C285.518 309.576 284.39 308.448 284.39 307.075C284.39 305.653 285.518 304.574 286.891 304.574C288.264 304.574 289.392 305.702 289.392 307.075C289.392 308.448 288.264 309.576 286.891 309.576ZM258.4 309.576C259.781 309.576 260.9 308.456 260.9 307.075C260.9 305.694 259.781 304.574 258.4 304.574C257.018 304.574 255.899 305.694 255.899 307.075C255.899 308.456 257.018 309.576 258.4 309.576ZM232.343 307.075C232.343 308.456 231.223 309.576 229.842 309.576C228.461 309.576 227.341 308.456 227.341 307.075C227.341 305.694 228.461 304.574 229.842 304.574C231.223 304.574 232.343 305.694 232.343 307.075ZM201.289 309.576C202.67 309.576 203.79 308.456 203.79 307.075C203.79 305.694 202.67 304.574 201.289 304.574C199.908 304.574 198.788 305.694 198.788 307.075C198.788 308.456 199.908 309.576 201.289 309.576ZM374.997 332.582C374.997 333.964 373.877 335.083 372.496 335.083C371.115 335.083 369.995 333.964 369.995 332.582C369.995 331.201 371.115 330.082 372.496 330.082C373.877 330.082 374.997 331.201 374.997 332.582ZM344.006 335.083C345.387 335.083 346.507 333.964 346.507 332.582C346.507 331.201 345.387 330.082 344.006 330.082C342.625 330.082 341.505 331.201 341.505 332.582C341.505 333.964 342.625 335.083 344.006 335.083ZM317.95 332.582C317.95 333.964 316.83 335.083 315.449 335.083C314.068 335.083 312.948 333.964 312.948 332.582C312.948 331.201 314.068 330.082 315.449 330.082C316.83 330.082 317.95 331.201 317.95 332.582ZM284.39 332.582C284.39 333.956 285.518 335.083 286.891 335.083C288.264 335.083 289.392 333.956 289.392 332.582C289.392 331.209 288.264 330.082 286.891 330.082C285.518 330.082 284.39 331.209 284.39 332.582ZM260.903 332.582C260.903 333.964 259.783 335.083 258.402 335.083C257.021 335.083 255.901 333.964 255.901 332.582C255.901 331.201 257.021 330.082 258.402 330.082C259.783 330.082 260.903 331.201 260.903 332.582ZM229.844 335.083C231.226 335.083 232.345 333.964 232.345 332.582C232.345 331.201 231.226 330.082 229.844 330.082C228.463 330.082 227.343 331.201 227.343 332.582C227.343 333.964 228.463 335.083 229.844 335.083ZM203.788 332.582C203.788 333.964 202.668 335.083 201.287 335.083C199.905 335.083 198.786 333.964 198.786 332.582C198.786 331.201 199.905 330.082 201.287 330.082C202.668 330.082 203.788 331.201 203.788 332.582Z" fill="#9AADFF" fill-opacity="0.51"/>
</svg>
