<svg width="118" height="118" viewBox="0 0 118 118" fill="none" xmlns="http://www.w3.org/2000/svg">
<path d="M58.9988 84.6824C73.1828 84.6824 84.6812 73.184 84.6812 59C84.6812 44.816 73.1828 33.3176 58.9988 33.3176C44.8148 33.3176 33.3164 44.816 33.3164 59C33.3164 73.184 44.8148 84.6824 58.9988 84.6824Z" fill="#1254FF"/>
<g opacity="0.5">
<path opacity="0.5" d="M58.9986 100.3C81.808 100.3 100.299 81.8095 100.299 59.0001C100.299 36.1907 81.808 17.7001 58.9986 17.7001C36.1892 17.7001 17.6986 36.1907 17.6986 59.0001C17.6986 81.8095 36.1892 100.3 58.9986 100.3Z" stroke="#1254FF" stroke-opacity="0.5" stroke-width="0.694118"/>
<path opacity="0.5" d="M59 117.653C91.3931 117.653 117.653 91.3931 117.653 59C117.653 26.6069 91.3931 0.347099 59 0.347099C26.6069 0.347099 0.347099 26.6069 0.347099 59C0.347099 91.3931 26.6069 117.653 59 117.653Z" stroke="#1254FF" stroke-opacity="0.2" stroke-width="0.694118"/>
</g>
<path d="M58.602 60.76L60.014 62.172L68.48 53.706L69.894 55.12L60.014 65L53.65 58.636L55.064 57.222L57.189 59.347L58.602 60.759V60.76ZM58.604 57.932L63.556 52.979L64.966 54.389L60.014 59.342L58.604 57.932ZM55.777 63.587L54.364 65L48 58.636L49.414 57.222L50.827 58.635L50.826 58.636L55.777 63.587Z" fill="white"/>
</svg>
