<svg width="21" height="20" viewBox="0 0 21 20" fill="none" xmlns="http://www.w3.org/2000/svg">
<path d="M2.83203 16.6665C2.83203 16.2063 3.20513 15.8332 3.66536 15.8332H16.9987C17.4589 15.8332 17.832 16.2063 17.832 16.6665C17.832 17.1267 17.4589 17.4998 16.9987 17.4998H3.66536C3.20513 17.4998 2.83203 17.1267 2.83203 16.6665ZM11.1654 8.56201C11.1654 9.45295 12.2426 9.8991 12.8725 9.26906L15.6354 6.50576C15.9607 6.18033 16.4883 6.18031 16.8137 6.50571C17.1391 6.83108 17.1391 7.35861 16.8138 7.684L11.0391 13.4593C10.6486 13.8499 10.0154 13.8499 9.62488 13.4594L3.85039 7.68486C3.52495 7.35943 3.52486 6.83182 3.85018 6.50627C4.17564 6.18058 4.70353 6.18046 5.02914 6.50601L7.79165 9.26807C8.42164 9.89796 9.4987 9.45177 9.4987 8.5609V2.49984C9.4987 2.0396 9.87179 1.6665 10.332 1.6665C10.7923 1.6665 11.1654 2.0396 11.1654 2.49984V8.56201Z" fill="white"/>
</svg>
