<svg width="24" height="25" viewBox="0 0 24 25" fill="none" xmlns="http://www.w3.org/2000/svg">
<path d="M1.17969 12.5918C2.11969 7.4718 6.60669 3.5918 11.9987 3.5918C17.3907 3.5918 21.8767 7.4718 22.8177 12.5918C21.8777 17.7118 17.3907 21.5918 11.9987 21.5918C6.60669 21.5918 2.12069 17.7118 1.17969 12.5918ZM11.9987 17.5918C13.3248 17.5918 14.5965 17.065 15.5342 16.1273C16.4719 15.1896 16.9987 13.9179 16.9987 12.5918C16.9987 11.2657 16.4719 9.99395 15.5342 9.05626C14.5965 8.11858 13.3248 7.5918 11.9987 7.5918C10.6726 7.5918 9.40084 8.11858 8.46315 9.05626C7.52547 9.99395 6.99869 11.2657 6.99869 12.5918C6.99869 13.9179 7.52547 15.1896 8.46315 16.1273C9.40084 17.065 10.6726 17.5918 11.9987 17.5918ZM11.9987 15.5918C11.203 15.5918 10.44 15.2757 9.87737 14.7131C9.31476 14.1505 8.99869 13.3874 8.99869 12.5918C8.99869 11.7961 9.31476 11.0331 9.87737 10.4705C10.44 9.90787 11.203 9.5918 11.9987 9.5918C12.7943 9.5918 13.5574 9.90787 14.12 10.4705C14.6826 11.0331 14.9987 11.7961 14.9987 12.5918C14.9987 13.3874 14.6826 14.1505 14.12 14.7131C13.5574 15.2757 12.7943 15.5918 11.9987 15.5918Z" fill="#586795"/>
</svg>
