<svg width="26" height="26" viewBox="0 0 26 26" fill="none" xmlns="http://www.w3.org/2000/svg">
<path d="M13 0.40625C5.82012 0.40625 0 6.04449 0 13C0 19.9555 5.82012 25.5938 13 25.5938C20.1799 25.5938 26 19.9555 26 13C26 6.04449 20.1799 0.40625 13 0.40625ZM17.3136 18.5656C17.1092 18.7627 16.8948 18.9693 16.7207 19.1384C16.564 19.2908 16.4534 19.4787 16.3973 19.6823C16.3181 19.9697 16.2542 20.2602 16.1473 20.539L15.2357 22.9181C14.5144 23.0704 13.7679 23.1562 13 23.1562V21.7659C13.0886 21.125 12.5995 19.9245 11.8137 19.1633C11.4992 18.8586 11.3226 18.4453 11.3226 18.0141V16.3886C11.3226 15.7975 10.9939 15.2542 10.4598 14.9683C9.70649 14.5646 8.63504 14.0004 7.90117 13.6424C7.29939 13.3489 6.7427 12.9751 6.2421 12.5379L6.20016 12.5013C5.84217 12.1883 5.52433 11.8347 5.25347 11.4481C4.76177 10.7489 3.96081 9.59867 3.44028 8.85117C4.51331 6.54063 6.44706 4.68508 8.84996 3.67707L10.1085 4.28695C10.6663 4.55711 11.3226 4.16457 11.3226 3.56027V2.98645C11.7414 2.92094 12.1676 2.8793 12.6011 2.86355L14.0846 4.30066C14.4122 4.61805 14.4122 5.13246 14.0846 5.44984L13.8387 5.6875L13.2967 6.21258C13.1331 6.37102 13.1331 6.62848 13.2967 6.78691L13.5425 7.02508C13.7061 7.18352 13.7061 7.44098 13.5425 7.59941L13.1232 8.00566C13.0444 8.08179 12.9377 8.12453 12.8265 8.12449H12.3552C12.2462 8.12449 12.1414 8.16562 12.0627 8.23977L11.5427 8.7298C11.479 8.78994 11.4366 8.86813 11.4217 8.95311C11.4069 9.03808 11.4202 9.12544 11.4599 9.20258L12.2771 10.7864C12.4166 11.0566 12.2137 11.3745 11.9023 11.3745H11.6067C11.5055 11.3745 11.408 11.3389 11.332 11.275L10.8456 10.8657C10.7355 10.7732 10.6024 10.71 10.4595 10.6824C10.3166 10.6548 10.1687 10.6637 10.0304 10.7082L8.39653 11.2359C8.27179 11.2762 8.1633 11.3535 8.08643 11.4568C8.00957 11.5602 7.96823 11.6843 7.96827 11.8117C7.96827 12.0418 8.10246 12.2515 8.31476 12.3546L8.89556 12.6359C9.38883 12.8751 9.93294 12.9995 10.4844 12.9995C11.0358 12.9995 11.6685 14.3853 12.1618 14.6245H15.6608C16.1058 14.6245 16.532 14.7956 16.8471 15.1003L17.5647 15.7955C17.8645 16.086 18.0329 16.4801 18.0328 16.8909C18.0327 17.2021 17.9691 17.5103 17.8457 17.7978C17.7222 18.0852 17.5414 18.3461 17.3136 18.5656V18.5656ZM21.8589 13.9268C21.5554 13.8531 21.2906 13.6729 21.1171 13.4205L20.1746 12.0509C20.0367 11.8508 19.9631 11.6156 19.9631 11.375C19.9631 11.1344 20.0367 10.8992 20.1746 10.6991L21.2015 9.20715C21.3231 9.03094 21.4898 8.88773 21.6859 8.79328L22.3663 8.46371C23.075 9.83074 23.4839 11.3684 23.4839 13C23.4839 13.4403 23.4451 13.8714 23.3885 14.297L21.8589 13.9268Z" fill="black"/>
</svg>
