<svg width="66" height="66" viewBox="0 0 66 66" fill="none" xmlns="http://www.w3.org/2000/svg">
<circle cx="33" cy="33" r="29" fill="white"/>
<circle cx="33" cy="33" r="29" fill="#1254FF" fill-opacity="0.1"/>
<circle cx="33" cy="33" r="29" stroke="white" stroke-width="8"/>
<path d="M33.5006 21.9583C27.6752 21.9583 22.9531 26.6804 22.9531 32.5058C22.9531 37.77 26.8103 42.1335 31.8531 42.9256V35.554H29.174V32.5058H31.8531V30.1821C31.8531 27.5389 33.4268 26.0792 35.8369 26.0792C36.9908 26.0792 38.1974 26.2848 38.1974 26.2848V28.8795H36.8684C35.5574 28.8795 35.1492 29.6927 35.1492 30.527V32.5058H38.074L37.6068 35.554H35.1492V42.9256C40.1909 42.1346 44.0481 37.769 44.0481 32.5058C44.0481 26.6804 39.326 21.9583 33.5006 21.9583Z" fill="#1254FF"/>
</svg>
