<svg width="175" height="35" viewBox="0 0 175 35" fill="none" xmlns="http://www.w3.org/2000/svg">
<g clip-path="url(#clip0_3180:21135)">
<path d="M11.1611 33.9789H4.57352V17.5185H0.0859375V12.1593H4.57335V8.34583C4.57335 3.82689 6.55814 0.585938 13.1279 0.585938C14.5174 0.585938 16.6989 0.866662 16.6989 0.866662V5.84296H14.4076C12.073 5.84296 11.1615 6.55476 11.1615 8.52264V12.1593H16.6115L16.1261 17.5185H11.1613L11.1611 33.9789ZM26.2765 11.731C26.1805 11.731 26.0817 11.7345 25.984 11.737C19.8756 11.737 17.0809 16.3425 17.0809 22.8801C17.0809 31.1157 20.706 34.4119 26.0317 34.4119C29.0788 34.4119 31.0807 33.1264 32.2975 30.7274V33.9812H38.5632V12.1615H32.2975V15.5171C31.3039 13.3582 29.2461 11.7566 26.2765 11.731ZM27.8697 16.8869C30.4352 16.8869 31.9751 18.6806 31.9751 21.7316L31.981 24.8478C31.981 26.9042 30.7092 29.31 27.8697 29.31C23.5043 29.31 23.6209 24.5853 23.6209 23.0117C23.6209 17.7184 25.9468 16.8869 27.8697 16.8869ZM41.0936 23.0725C41.0936 20.421 40.9671 11.7452 52.244 11.7452C56.7707 11.7452 58.6609 13.1879 58.6609 13.1879L57.1417 17.911C57.1417 17.911 55.2539 16.869 52.7942 16.869C49.6436 16.869 47.6333 18.6997 47.6333 21.9207L47.6368 24.2303C47.6368 27.3253 49.5765 29.3913 52.8006 29.3913C55.0415 29.3913 57.1069 28.3395 57.1069 28.3395L58.6223 32.9639C58.6223 32.9639 56.894 34.4157 52.2756 34.4157C41.5382 34.4157 41.0938 26.6319 41.0938 23.0725H41.0936ZM95.3992 11.737C101.508 11.737 104.347 16.3425 104.347 22.8801C104.347 31.1157 100.721 34.4119 95.3955 34.4119C92.3485 34.4119 90.0961 33.1266 88.8793 30.7274V33.9812L82.6924 33.9787V1.24937L89.2613 0.675132V15.2215C90.2094 12.6766 93.3251 11.737 95.3994 11.737H95.3992ZM93.5576 16.8869C90.9921 16.8869 89.2613 18.6806 89.2613 21.7316L89.2552 24.8478C89.2513 26.9042 90.4538 29.31 93.5576 29.31C97.923 29.31 97.8064 24.5853 97.8064 23.0117C97.8064 17.7184 95.4807 16.8869 93.5576 16.8869ZM70.0585 11.755C63.1302 11.755 59.4725 15.5413 59.4725 22.2699V23.52C59.4725 32.2532 64.609 34.5016 70.7328 34.5016C76.6851 34.5016 79.3793 32.8329 79.3793 32.8329L78.1501 28.3889C78.1501 28.3889 74.9809 29.7405 71.5204 29.7405C67.933 29.7405 66.3901 28.824 65.9947 25.3684H79.9045V21.8033C79.9045 14.5044 75.7994 11.7548 70.0583 11.7548L70.0585 11.755ZM70.2254 16.2049C72.6237 16.2049 74.1777 17.679 74.0924 21.0976H66.0067C66.1469 17.4995 67.8228 16.2051 70.2254 16.2051V16.2049ZM117.445 11.725C110.33 11.725 106.584 15.7439 106.584 22.9458C106.584 32.8273 113.041 34.4179 117.457 34.4179C123.921 34.4179 128.222 30.9295 128.222 23.0355C128.222 14.8193 123.386 11.725 117.445 11.725ZM117.355 16.9048C120.484 16.9048 121.723 19.2517 121.723 21.9231V24.2199C121.723 27.4562 119.989 29.328 117.343 29.328C114.869 29.328 113.13 27.5771 113.13 24.2199V21.9231C113.13 18.3428 115.199 16.9048 117.355 16.9048ZM141.308 11.725C134.193 11.725 130.447 15.7439 130.447 22.9458C130.447 32.8273 136.904 34.4179 141.32 34.4179C147.784 34.4179 152.085 30.9295 152.085 23.0355C152.085 14.8193 147.249 11.725 141.308 11.725ZM141.218 16.9048C144.347 16.9048 145.586 19.2517 145.586 21.9231V24.2199C145.586 27.4562 143.852 29.328 141.207 29.328C138.732 29.328 136.994 27.5771 136.994 24.2199V21.9231C136.994 18.3428 139.063 16.9048 141.218 16.9048ZM154.567 33.9789V1.24937L161.155 0.675132V22.6125L167.691 12.1593H174.649L167.83 22.9858L174.911 33.9789H167.934L161.155 23.3047V33.9789H154.567Z" fill="#1877F2"/>
</g>
<defs>
<clipPath id="clip0_3180:21135">
<rect width="175" height="34.0909" fill="white" transform="translate(0 0.5)"/>
</clipPath>
</defs>
</svg>
