<svg width="66" height="66" viewBox="0 0 66 66" fill="none" xmlns="http://www.w3.org/2000/svg">
<circle cx="33" cy="33" r="29" fill="white"/>
<circle cx="33" cy="33" r="29" fill="#1254FF" fill-opacity="0.1"/>
<circle cx="33" cy="33" r="29" stroke="white" stroke-width="8"/>
<path d="M33.5006 21.9585C27.6752 21.9585 22.9531 26.6806 22.9531 32.506C22.9531 37.7703 26.8103 42.1338 31.8531 42.9259V35.5542H29.174V32.506H31.8531V30.1824C31.8531 27.5392 33.4268 26.0794 35.8369 26.0794C36.9908 26.0794 38.1974 26.2851 38.1974 26.2851V28.8798H36.8684C35.5574 28.8798 35.1492 29.693 35.1492 30.5273V32.506H38.074L37.6068 35.5542H35.1492V42.9259C40.1909 42.1348 44.0481 37.7692 44.0481 32.506C44.0481 26.6806 39.326 21.9585 33.5006 21.9585Z" fill="#1254FF"/>
</svg>
