<svg width="12" height="15" viewBox="0 0 12 15" fill="none" xmlns="http://www.w3.org/2000/svg">
<path d="M10.4999 14.9998H1.49998C0.671564 14.9998 0 14.3282 0 13.4998V1.49998C0 0.671564 0.671564 0 1.49998 0H6.74991C6.75809 0.000354235 6.76617 0.0018694 6.77391 0.00449994C6.78124 0.00676284 6.78878 0.00827067 6.79641 0.00899988C6.86255 0.0132397 6.92785 0.0260983 6.99066 0.0472494L7.01166 0.0539993C7.02866 0.0597607 7.0452 0.06678 7.06116 0.074999C7.14287 0.111316 7.21732 0.162136 7.28091 0.224997L11.7809 4.72494C11.8437 4.78853 11.8945 4.86298 11.9308 4.94469C11.9383 4.96119 11.9436 4.97844 11.9496 4.99569L11.9563 5.01519C11.9773 5.07773 11.9896 5.14282 11.9931 5.20868C11.9954 5.22243 12.0004 5.236 11.9999 5.24993V13.4998C11.9999 14.3282 11.3283 14.9998 10.4999 14.9998ZM2.49998 1.49998C1.9477 1.49998 1.49998 1.9477 1.49998 2.49998V12.4998C1.49998 13.0521 1.9477 13.4998 2.49998 13.4998H9.49987C10.0522 13.4998 10.4999 13.0521 10.4999 12.4998V6.99992C10.4999 6.44764 10.0522 5.99992 9.49987 5.99992H6.74991C6.33571 5.99992 5.99992 5.66414 5.99992 5.24993V2.49998C5.99992 1.9477 5.55221 1.49998 4.99992 1.49998H2.49998ZM8.46964 3.5302C8.11178 3.17235 7.4999 3.4258 7.4999 3.93188C7.4999 4.24561 7.75423 4.49994 8.06796 4.49994C8.57405 4.49994 8.8275 3.88806 8.46964 3.5302Z" fill="#27C089"/>
</svg>
