<svg width="18" height="18" viewBox="0 0 18 18" fill="none" xmlns="http://www.w3.org/2000/svg">
<path d="M12 1.5L15.75 5.25V15.756C15.7498 15.9534 15.6712 16.1426 15.5316 16.2821C15.392 16.4216 15.2026 16.5 15.0052 16.5H2.99475C2.79778 16.4986 2.60926 16.4198 2.46991 16.2806C2.33056 16.1414 2.25157 15.953 2.25 15.756V2.244C2.25 1.833 2.58375 1.5 2.99475 1.5H12ZM9 12C9.79565 12 10.5587 11.6839 11.1213 11.1213C11.6839 10.5587 12 9.79565 12 9C12 8.20435 11.6839 7.44129 11.1213 6.87868C10.5587 6.31607 9.79565 6 9 6H6V12H9ZM7.5 7.5H9C9.39782 7.5 9.77935 7.65804 10.0607 7.93934C10.342 8.22064 10.5 8.60218 10.5 9C10.5 9.39782 10.342 9.77936 10.0607 10.0607C9.77935 10.342 9.39782 10.5 9 10.5H7.5V7.5Z" fill="#1254FF"/>
</svg>
