<svg width="25" height="34" viewBox="0 0 25 34" fill="none" xmlns="http://www.w3.org/2000/svg">
<path d="M12.4995 34C9.99462 33.9998 7.5476 33.2856 5.47568 31.9501C3.40376 30.6145 1.80252 28.7191 0.87955 26.5098C-0.0434147 24.3004 -0.245527 21.8789 0.29942 19.5592C0.844366 17.2395 2.11124 15.1287 3.93577 13.5004C6.17253 11.5031 11.6661 7.90698 10.8327 0C20.8332 6.32558 25.8334 12.6512 15.8329 22.1395C17.4997 22.1395 19.9998 22.1395 24.1666 18.2335C24.6166 19.4559 25 20.77 25 22.1395C25 25.2851 23.683 28.3019 21.3387 30.5262C18.9944 32.7504 15.8148 34 12.4995 34Z" fill="#F81E00"/>
</svg>
