<svg width="20" height="34" viewBox="0 0 20 34" fill="none" xmlns="http://www.w3.org/2000/svg">
<path d="M9.99915 33.58C7.99535 33.5798 6.03782 32.8744 4.38036 31.5553C2.72289 30.2363 1.44195 28.3643 0.70361 26.1823C-0.0347303 24.0002 -0.196413 21.6086 0.239526 19.3176C0.675464 17.0266 1.68892 14.9418 3.14848 13.3336C4.93781 11.361 9.33248 7.80929 8.66581 0C16.6658 6.24743 20.6658 12.4949 12.6658 21.866C13.9991 21.866 15.9991 21.866 19.3325 18.0082C19.6925 19.2155 19.9991 20.5134 19.9991 21.866C19.9991 24.9727 18.9456 27.9522 17.0702 30.149C15.1949 32.3458 12.6513 33.58 9.99915 33.58Z" fill="#F81E00"/>
</svg>
