<svg width="24" height="24" viewBox="0 0 24 24" fill="none" xmlns="http://www.w3.org/2000/svg">
<g clip-path="url(#clip0)">
<path d="M21.25 4.5H15.5C15.4337 4.5 15.3701 4.52634 15.3232 4.57322C15.2763 4.62011 15.25 4.6837 15.25 4.75V12.775C15.25 12.9739 15.171 13.1647 15.0303 13.3053C14.8897 13.446 14.6989 13.525 14.5 13.525C14.3011 13.525 14.1103 13.446 13.9697 13.3053C13.829 13.1647 13.75 12.9739 13.75 12.775V3C13.75 2.60218 13.592 2.22064 13.3107 1.93934C13.0294 1.65804 12.6478 1.5 12.25 1.5H6.25C6.11739 1.5 5.99021 1.55268 5.89645 1.64645C5.80268 1.74021 5.75 1.86739 5.75 2V14C5.75 14.1326 5.80268 14.2598 5.89645 14.3536C5.99021 14.4473 6.11739 14.5 6.25 14.5H10.48C9.79722 14.859 9.24943 15.4299 8.919 16.127C8.85795 16.2789 8.83511 16.4434 8.85248 16.6061C8.86984 16.7689 8.92689 16.9248 9.01861 17.0604C9.11032 17.1959 9.23391 17.3069 9.37852 17.3836C9.52312 17.4602 9.68433 17.5002 9.848 17.5H21.248C21.6458 17.5 22.0274 17.342 22.3087 17.0607C22.59 16.7794 22.748 16.3978 22.748 16V6C22.748 5.60252 22.5902 5.22129 22.3094 4.94005C22.0285 4.6588 21.6475 4.50053 21.25 4.5Z" fill="#1254FF"/>
<path d="M2.75 0C2.35218 0 1.97064 0.158035 1.68934 0.43934C1.40804 0.720644 1.25 1.10218 1.25 1.5V22.5C1.25 22.8978 1.40804 23.2794 1.68934 23.5607C1.97064 23.842 2.35218 24 2.75 24C3.14782 24 3.52936 23.842 3.81066 23.5607C4.09196 23.2794 4.25 22.8978 4.25 22.5V1.5C4.25 1.10218 4.09196 0.720644 3.81066 0.43934C3.52936 0.158035 3.14782 0 2.75 0V0Z" fill="#1254FF"/>
</g>
<defs>
<clipPath id="clip0">
<rect width="24" height="24" fill="white"/>
</clipPath>
</defs>
</svg>
