<svg width="17" height="16" viewBox="0 0 17 16" fill="none" xmlns="http://www.w3.org/2000/svg">
<path d="M8.77598 3.33285H14.5C14.6768 3.33285 14.8464 3.40308 14.9714 3.52811C15.0964 3.65313 15.1666 3.8227 15.1666 3.99951V13.3328C15.1666 13.5097 15.0964 13.6792 14.9714 13.8043C14.8464 13.9293 14.6768 13.9995 14.5 13.9995H2.49998C2.32317 13.9995 2.1536 13.9293 2.02858 13.8043C1.90355 13.6792 1.83331 13.5097 1.83331 13.3328V2.66618C1.83331 2.48937 1.90355 2.3198 2.02858 2.19477C2.1536 2.06975 2.32317 1.99951 2.49998 1.99951H7.44265L8.77598 3.33285ZM9.16665 8.66618H11.1666L8.49998 5.99951L5.83331 8.66618H7.83331V11.3328H9.16665V8.66618Z" fill="white"/>
</svg>
