<svg width="16" height="17" viewBox="0 0 16 17" fill="none" xmlns="http://www.w3.org/2000/svg">
<path d="M10.0013 1.83204C10.4695 1.83198 10.9294 1.95519 11.3349 2.18928C11.7404 2.42337 12.0771 2.76008 12.3111 3.16556C12.5452 3.57105 12.6684 4.03101 12.6683 4.4992C12.6682 4.96739 12.5448 5.42731 12.3106 5.8327L15.3346 5.83204V7.16537H14.0013V13.832C14.0013 14.0088 13.9311 14.1784 13.806 14.3034C13.681 14.4285 13.5114 14.4987 13.3346 14.4987H2.66797C2.49116 14.4987 2.32159 14.4285 2.19656 14.3034C2.07154 14.1784 2.0013 14.0088 2.0013 13.832V7.16537H0.667969V5.83204L3.69197 5.8327C3.36121 5.25996 3.25509 4.58474 3.39422 3.93815C3.53335 3.29156 3.9078 2.71975 4.44486 2.33374C4.98192 1.94773 5.64326 1.77507 6.30047 1.84929C6.95768 1.92351 7.56386 2.23931 8.0013 2.73537C8.25103 2.45096 8.55868 2.22322 8.90361 2.06742C9.24855 1.91162 9.62281 1.83137 10.0013 1.83204ZM8.66797 7.16537H7.33463V13.832H8.66797V7.16537ZM6.0013 3.16537C5.65531 3.16382 5.32227 3.29683 5.07253 3.53629C4.8228 3.77575 4.67592 4.10291 4.66294 4.44866C4.64996 4.79441 4.77189 5.13167 5.00296 5.38918C5.23404 5.6467 5.55617 5.8043 5.9013 5.8287L6.0013 5.83204H7.33463V4.4987C7.33465 4.18008 7.22056 3.87198 7.01303 3.63021C6.8055 3.38844 6.51825 3.22897 6.2033 3.1807L6.10064 3.1687L6.0013 3.16537ZM10.0013 3.16537C9.66492 3.16526 9.34092 3.29231 9.09427 3.52103C8.84762 3.74976 8.69653 4.06327 8.6713 4.3987L8.66797 4.4987V5.83204H10.0013C10.3377 5.83214 10.6617 5.7051 10.9083 5.47637C11.155 5.24764 11.3061 4.93414 11.3313 4.5987L11.3346 4.4987C11.3346 4.14508 11.1942 3.80594 10.9441 3.55589C10.6941 3.30584 10.3549 3.16537 10.0013 3.16537Z" fill="#13245F"/>
</svg>
