<svg width="17" height="16" viewBox="0 0 17 16" fill="none" xmlns="http://www.w3.org/2000/svg">
<path d="M10.5013 1.33204C10.9695 1.33198 11.4294 1.45519 11.8349 1.68928C12.2404 1.92337 12.5771 2.26008 12.8111 2.66556C13.0452 3.07105 13.1684 3.53101 13.1683 3.9992C13.1682 4.46739 13.0448 4.92731 12.8106 5.3327L15.8346 5.33204V6.66537H14.5013V13.332C14.5013 13.5088 14.4311 13.6784 14.306 13.8034C14.181 13.9285 14.0114 13.9987 13.8346 13.9987H3.16797C2.99116 13.9987 2.82159 13.9285 2.69656 13.8034C2.57154 13.6784 2.5013 13.5088 2.5013 13.332V6.66537H1.16797V5.33204L4.19197 5.3327C3.86121 4.75996 3.75509 4.08474 3.89422 3.43815C4.03335 2.79156 4.4078 2.21975 4.94486 1.83374C5.48192 1.44773 6.14326 1.27507 6.80047 1.34929C7.45768 1.42351 8.06386 1.73931 8.5013 2.23537C8.75103 1.95096 9.05868 1.72322 9.40361 1.56742C9.74855 1.41162 10.1228 1.33137 10.5013 1.33204ZM9.16797 6.66537H7.83463V13.332H9.16797V6.66537ZM6.5013 2.66537C6.15531 2.66382 5.82227 2.79683 5.57253 3.03629C5.3228 3.27575 5.17592 3.60291 5.16294 3.94866C5.14996 4.29441 5.27189 4.63167 5.50296 4.88918C5.73404 5.1467 6.05617 5.3043 6.4013 5.3287L6.5013 5.33204H7.83463V3.9987C7.83465 3.68008 7.72056 3.37198 7.51303 3.13021C7.3055 2.88844 7.01825 2.72897 6.7033 2.6807L6.60064 2.6687L6.5013 2.66537ZM10.5013 2.66537C10.1649 2.66526 9.84092 2.79231 9.59427 3.02103C9.34762 3.24976 9.19653 3.56327 9.1713 3.8987L9.16797 3.9987V5.33204H10.5013C10.8377 5.33214 11.1617 5.2051 11.4083 4.97637C11.655 4.74764 11.8061 4.43414 11.8313 4.0987L11.8346 3.9987C11.8346 3.64508 11.6942 3.30594 11.4441 3.05589C11.1941 2.80584 10.8549 2.66537 10.5013 2.66537Z" fill="#1254FF"/>
</svg>
