<svg width="18" height="18" viewBox="0 0 18 18" fill="none" xmlns="http://www.w3.org/2000/svg">
<path d="M5.40995 5.34061C4.50685 6.27794 3.95397 7.49759 3.84423 8.79456C3.73449 10.0915 4.07458 11.3867 4.80734 12.4625C5.5401 13.5382 6.62085 14.3289 7.86794 14.7017C9.11503 15.0744 10.4524 15.0065 11.6553 14.5093C11.7368 13.978 11.5583 13.468 11.4853 13.2895C11.3224 12.8929 10.7855 12.215 9.88945 11.275C9.65003 11.0236 9.66562 10.8302 9.75132 10.2572L9.76053 10.1927C9.81861 9.80028 9.91637 9.56794 11.2374 9.35828C11.9089 9.25203 12.0853 9.51978 12.3297 9.89165L12.4118 10.0135C12.6442 10.3535 12.8163 10.4314 13.0762 10.549C13.1931 10.6021 13.3383 10.6694 13.5331 10.7792C13.9949 11.0434 13.9949 11.3416 13.9949 11.9947V12.0691C13.9949 12.346 13.968 12.5897 13.9255 12.8015C14.4691 12.1193 14.8479 11.3209 15.0324 10.4684C15.2169 9.61586 15.2021 8.73227 14.9893 7.88638C14.7765 7.0405 14.3713 6.25514 13.8053 5.59146C13.2393 4.92777 12.5278 4.40367 11.7262 4.05994C11.3344 4.32415 10.7968 4.69886 10.6091 4.95598C10.5135 5.08703 10.3775 5.75782 9.9362 5.81307C9.82145 5.82723 9.66632 5.81732 9.50199 5.80669C9.06141 5.77836 8.45932 5.7394 8.26666 6.26286C8.14411 6.59436 8.12286 7.49536 8.51882 7.96286C8.58257 8.03723 8.59461 8.17536 8.55141 8.33048C8.49474 8.53378 8.3807 8.65773 8.34457 8.68324C8.27657 8.64357 8.14057 8.48561 8.04778 8.37865C7.82607 8.12011 7.54841 7.79782 7.18999 7.69865C7.05966 7.66253 6.91657 7.63278 6.77703 7.60303C6.38816 7.52157 5.94828 7.42878 5.84557 7.21061C5.77049 7.05053 5.7712 6.83023 5.7712 6.5979C5.7712 6.30253 5.7712 5.9689 5.6267 5.64519C5.57646 5.52967 5.50263 5.42592 5.40995 5.34061ZM9.49349 16.3531C5.58136 16.3531 2.41016 13.1819 2.41016 9.26974C2.41016 5.35761 5.58136 2.1864 9.49349 2.1864C13.4056 2.1864 16.5768 5.35761 16.5768 9.26974C16.5768 13.1819 13.4056 16.3531 9.49349 16.3531Z" fill="white"/>
</svg>
