<svg width="66" height="66" viewBox="0 0 66 66" fill="none" xmlns="http://www.w3.org/2000/svg">
<circle cx="33" cy="33" r="29" fill="white"/>
<circle cx="33" cy="33" r="29" fill="#1254FF" fill-opacity="0.1"/>
<circle cx="33" cy="33" r="29" stroke="white" stroke-width="8"/>
<path d="M24.064 28.51C24.896 26.8532 26.1724 25.4605 27.7504 24.4875C29.3285 23.5144 31.1461 22.9994 33 23C35.695 23 37.959 23.99 39.69 25.605L36.823 28.473C35.786 27.482 34.468 26.977 33 26.977C30.395 26.977 28.19 28.737 27.405 31.1C27.205 31.7 27.091 32.34 27.091 33C27.091 33.66 27.205 34.3 27.405 34.9C28.191 37.264 30.395 39.023 33 39.023C34.345 39.023 35.49 38.668 36.386 38.068C36.9054 37.726 37.3501 37.2822 37.6932 36.7635C38.0363 36.2448 38.2706 35.6619 38.382 35.05H33V31.182H42.418C42.536 31.836 42.6 32.518 42.6 33.227C42.6 36.273 41.51 38.837 39.618 40.577C37.964 42.105 35.7 43 33 43C31.6866 43.0005 30.386 42.7422 29.1725 42.2399C27.9591 41.7375 26.8565 41.0009 25.9278 40.0722C24.9991 39.1436 24.2625 38.041 23.7601 36.8275C23.2578 35.614 22.9995 34.3134 23 33C23 31.386 23.386 29.86 24.064 28.51Z" fill="#1254FF"/>
</svg>
