<svg width="32" height="32" viewBox="0 0 32 32" fill="none" xmlns="http://www.w3.org/2000/svg">
<path d="M16 30.6667C13.9962 30.6665 12.0387 30.0643 10.3812 28.9383C8.72375 27.8122 7.44281 26.2142 6.70446 24.3514C5.96612 22.4886 5.80444 20.4469 6.24038 18.4911C6.67632 16.5353 7.68977 14.7556 9.14934 13.3827C10.9387 11.6987 15.3333 8.66667 14.6667 2C22.6667 7.33333 26.6667 12.6667 18.6667 20.6667C20 20.6667 22 20.6667 25.3333 17.3733C25.6933 18.404 26 19.512 26 20.6667C26 23.3188 24.9464 25.8624 23.0711 27.7377C21.1957 29.6131 18.6522 30.6667 16 30.6667Z" fill="#AEBADA"/>
</svg>
