<svg width="24" height="25" viewBox="0 0 24 25" fill="none" xmlns="http://www.w3.org/2000/svg">
<path d="M21.1782 13.3784L21.1912 13.3924L11.9992 22.5844L2.80724 13.3924L2.82024 13.3784C1.7528 12.1339 1.19508 10.5321 1.25883 8.89376C1.32257 7.25546 2.00308 5.70177 3.16399 4.54403C4.32489 3.38629 5.88043 2.71002 7.5189 2.65074C9.15736 2.59146 10.7577 3.15355 11.9992 4.22437C13.2408 3.15355 14.8411 2.59146 16.4796 2.65074C18.118 2.71002 19.6736 3.38629 20.8345 4.54403C21.9954 5.70177 22.6759 7.25546 22.7396 8.89376C22.8034 10.5321 22.2457 12.1339 21.1782 13.3784Z" fill="#586795"/>
</svg>
