<svg width="17" height="16" viewBox="0 0 17 16" fill="none" xmlns="http://www.w3.org/2000/svg">
<path d="M2.02251 1.96247C2.84271 1.09606 3.9284 0.663086 5.01576 0.663086C6.10314 0.663086 7.1888 1.09606 8.00902 1.96247L8.7418 2.7371L9.46839 1.96872C11.1088 0.235871 13.8206 0.235905 15.461 1.96872C17.1016 3.70152 17.1016 6.47668 15.461 8.20952C13.3639 10.4248 11.2675 12.641 9.17031 14.8563C9.11463 14.9151 9.04766 14.9619 8.97348 14.9939C8.89928 15.0259 8.81942 15.0423 8.7387 15.0423C8.658 15.0423 8.57812 15.0259 8.50394 14.9939C8.42975 14.9619 8.36278 14.9151 8.3071 14.8563L6.73595 13.1931L3.59366 9.86647L2.02251 8.20322C0.384165 6.46933 0.382078 3.69525 2.02251 1.96247Z" fill="#DBE4F3"/>
</svg>
