<svg width="66" height="66" viewBox="0 0 66 66" fill="none" xmlns="http://www.w3.org/2000/svg">
<circle cx="33" cy="33" r="29" fill="white"/>
<circle cx="33" cy="33" r="29" fill="#1254FF" fill-opacity="0.1"/>
<circle cx="33" cy="33" r="29" stroke="white" stroke-width="8"/>
<path d="M33 23C35.717 23 36.056 23.01 37.122 23.06C38.187 23.11 38.912 23.277 39.55 23.525C40.21 23.779 40.766 24.123 41.322 24.678C41.8305 25.1779 42.224 25.7826 42.475 26.45C42.722 27.087 42.89 27.813 42.94 28.878C42.987 29.944 43 30.283 43 33C43 35.717 42.99 36.056 42.94 37.122C42.89 38.187 42.722 38.912 42.475 39.55C42.2247 40.2178 41.8311 40.8226 41.322 41.322C40.822 41.8303 40.2173 42.2238 39.55 42.475C38.913 42.722 38.187 42.89 37.122 42.94C36.056 42.987 35.717 43 33 43C30.283 43 29.944 42.99 28.878 42.94C27.813 42.89 27.088 42.722 26.45 42.475C25.7823 42.2245 25.1775 41.8309 24.678 41.322C24.1694 40.8222 23.7759 40.2175 23.525 39.55C23.277 38.913 23.11 38.187 23.06 37.122C23.013 36.056 23 35.717 23 33C23 30.283 23.01 29.944 23.06 28.878C23.11 27.812 23.277 27.088 23.525 26.45C23.7752 25.7822 24.1688 25.1773 24.678 24.678C25.1777 24.1692 25.7824 23.7757 26.45 23.525C27.088 23.277 27.812 23.11 28.878 23.06C29.944 23.013 30.283 23 33 23ZM33 28C31.6739 28 30.4021 28.5268 29.4645 29.4645C28.5268 30.4021 28 31.6739 28 33C28 34.3261 28.5268 35.5979 29.4645 36.5355C30.4021 37.4732 31.6739 38 33 38C34.3261 38 35.5979 37.4732 36.5355 36.5355C37.4732 35.5979 38 34.3261 38 33C38 31.6739 37.4732 30.4021 36.5355 29.4645C35.5979 28.5268 34.3261 28 33 28ZM39.5 27.75C39.5 27.4185 39.3683 27.1005 39.1339 26.8661C38.8995 26.6317 38.5815 26.5 38.25 26.5C37.9185 26.5 37.6005 26.6317 37.3661 26.8661C37.1317 27.1005 37 27.4185 37 27.75C37 28.0815 37.1317 28.3995 37.3661 28.6339C37.6005 28.8683 37.9185 29 38.25 29C38.5815 29 38.8995 28.8683 39.1339 28.6339C39.3683 28.3995 39.5 28.0815 39.5 27.75ZM33 30C33.7956 30 34.5587 30.3161 35.1213 30.8787C35.6839 31.4413 36 32.2044 36 33C36 33.7956 35.6839 34.5587 35.1213 35.1213C34.5587 35.6839 33.7956 36 33 36C32.2044 36 31.4413 35.6839 30.8787 35.1213C30.3161 34.5587 30 33.7956 30 33C30 32.2044 30.3161 31.4413 30.8787 30.8787C31.4413 30.3161 32.2044 30 33 30Z" fill="#1254FF"/>
</svg>
