<svg width="18" height="18" viewBox="0 0 18 18" fill="none" xmlns="http://www.w3.org/2000/svg">
<path d="M9.79592 6.08267L10.8572 7.14392C11.3447 7.63144 11.7315 8.21022 11.9954 8.84721C12.2592 9.48421 12.3951 10.1669 12.3951 10.8564C12.3951 11.5459 12.2592 12.2286 11.9954 12.8656C11.7315 13.5026 11.3447 14.0814 10.8572 14.5689L10.5917 14.8337C9.60706 15.8183 8.27163 16.3714 6.87917 16.3714C5.48672 16.3714 4.15129 15.8183 3.16667 14.8337C2.18206 13.8491 1.62891 12.5136 1.62891 11.1212C1.62891 9.72872 2.18206 8.39329 3.16667 7.40867L4.22792 8.46992C3.8772 8.81759 3.5986 9.2311 3.40812 9.68673C3.21764 10.1424 3.11903 10.6311 3.11795 11.125C3.11686 11.6188 3.21333 12.108 3.40182 12.5644C3.5903 13.0209 3.86709 13.4356 4.21629 13.7848C4.56548 14.134 4.98021 14.4108 5.43667 14.5993C5.89312 14.7878 6.38231 14.8842 6.87615 14.8832C7.36999 14.8821 7.85875 14.7835 8.31437 14.593C8.77 14.4025 9.18351 14.1239 9.53117 13.7732L9.79667 13.5077C10.4997 12.8044 10.8946 11.8508 10.8946 10.8564C10.8946 9.86206 10.4997 8.9084 9.79667 8.20517L8.73542 7.14392L9.79667 6.08342L9.79592 6.08267ZM14.8344 10.5909L13.7739 9.53042C14.1246 9.18276 14.4032 8.76925 14.5937 8.31362C14.7842 7.858 14.8828 7.36924 14.8839 6.8754C14.885 6.38156 14.7885 5.89237 14.6 5.43592C14.4115 4.97946 14.1348 4.56473 13.7856 4.21554C13.4364 3.86634 13.0216 3.58955 12.5652 3.40107C12.1087 3.21258 11.6195 3.11611 11.1257 3.1172C10.6319 3.11828 10.1431 3.21689 9.68748 3.40737C9.23185 3.59785 8.81834 3.87645 8.47067 4.22717L8.20517 4.49267C7.50216 5.1959 7.10722 6.14956 7.10723 7.14392C7.10723 8.13829 7.50216 9.09195 8.20517 9.79517L9.26642 10.8564L8.20517 11.9169L7.14467 10.8564C6.65711 10.3689 6.27035 9.79013 6.00648 9.15314C5.74261 8.51614 5.6068 7.83341 5.6068 7.14392C5.6068 6.45444 5.74261 5.77171 6.00648 5.13471C6.27035 4.49772 6.65711 3.91894 7.14467 3.43142L7.41017 3.16667C8.39479 2.18206 9.73022 1.62891 11.1227 1.62891C12.5151 1.62891 13.8506 2.18206 14.8352 3.16667C15.8198 4.15129 16.3729 5.48672 16.3729 6.87917C16.3729 8.27163 15.8198 9.60706 14.8352 10.5917L14.8344 10.5909Z" fill="#586795"/>
</svg>
