<svg width="17" height="17" viewBox="0 0 17 17" fill="none" xmlns="http://www.w3.org/2000/svg">
<path d="M9.20684 5.90667L10.1502 6.85C10.5836 7.28335 10.9273 7.79782 11.1619 8.36403C11.3965 8.93025 11.5172 9.53713 11.5172 10.15C11.5172 10.7629 11.3965 11.3698 11.1619 11.936C10.9273 12.5022 10.5836 13.0167 10.1502 13.45L9.91417 13.6853C9.03896 14.5605 7.85191 15.0522 6.61417 15.0522C5.37643 15.0522 4.18938 14.5605 3.31417 13.6853C2.43896 12.8101 1.94727 11.6231 1.94727 10.3853C1.94727 9.14759 2.43896 7.96055 3.31417 7.08533L4.2575 8.02867C3.94575 8.3377 3.69811 8.70527 3.52879 9.11027C3.35947 9.51527 3.27182 9.94972 3.27086 10.3887C3.26989 10.8277 3.35565 11.2625 3.52319 11.6682C3.69073 12.074 3.93676 12.4426 4.24716 12.753C4.55756 13.0634 4.92621 13.3094 5.33194 13.477C5.73768 13.6445 6.17251 13.7303 6.61148 13.7293C7.05045 13.7284 7.4849 13.6407 7.8899 13.4714C8.2949 13.3021 8.66247 13.0544 8.9715 12.7427L9.2075 12.5067C9.83241 11.8816 10.1835 11.0339 10.1835 10.15C10.1835 9.26612 9.83241 8.41843 9.2075 7.79333L8.26417 6.85L9.2075 5.90733L9.20684 5.90667ZM13.6855 9.914L12.7428 8.97133C13.0546 8.6623 13.3022 8.29473 13.4716 7.88973C13.6409 7.48473 13.7285 7.05028 13.7295 6.61131C13.7304 6.17234 13.6447 5.73751 13.4772 5.33177C13.3096 4.92603 13.0636 4.55739 12.7532 4.24699C12.4428 3.93659 12.0741 3.69056 11.6684 3.52302C11.2627 3.35548 10.8278 3.26972 10.3889 3.27069C9.94989 3.27165 9.51544 3.3593 9.11044 3.52862C8.70544 3.69794 8.33787 3.94558 8.02884 4.25733L7.79284 4.49333C7.16793 5.11843 6.81688 5.96612 6.81688 6.85C6.81688 7.73388 7.16793 8.58157 7.79284 9.20667L8.73617 10.15L7.79284 11.0927L6.85017 10.15C6.41678 9.71665 6.07299 9.20218 5.83844 8.63597C5.60389 8.06975 5.48317 7.46287 5.48317 6.85C5.48317 6.23712 5.60389 5.63025 5.83844 5.06403C6.07299 4.49782 6.41678 3.98335 6.85017 3.55L7.08617 3.31467C7.96138 2.43945 9.14843 1.94776 10.3862 1.94776C11.6239 1.94776 12.811 2.43945 13.6862 3.31467C14.5614 4.18988 15.0531 5.37693 15.0531 6.61467C15.0531 7.85241 14.5614 9.03945 13.6862 9.91467L13.6855 9.914Z" fill="white"/>
</svg>
