<svg width="24" height="25" viewBox="0 0 24 25" fill="none" xmlns="http://www.w3.org/2000/svg">
<path d="M3 3.875H21C21.2652 3.875 21.5196 3.98036 21.7071 4.16789C21.8946 4.35543 22 4.60978 22 4.875V20.875C22 21.1402 21.8946 21.3946 21.7071 21.5821C21.5196 21.7696 21.2652 21.875 21 21.875H3C2.73478 21.875 2.48043 21.7696 2.29289 21.5821C2.10536 21.3946 2 21.1402 2 20.875V4.875C2 4.60978 2.10536 4.35543 2.29289 4.16789C2.48043 3.98036 2.73478 3.875 3 3.875ZM20 8.113L12.072 15.213L4 8.091V19.875H20V8.113ZM4.511 5.875L12.061 12.537L19.502 5.875H4.511Z" fill="#717899"/>
</svg>
