<svg width="20" height="20" viewBox="0 0 20 20" fill="none" xmlns="http://www.w3.org/2000/svg">
<path d="M9.9987 2.5C9.08203 2.5 8.33203 3.25 8.33203 4.16667C8.33203 5.08333 9.08203 5.83333 9.9987 5.83333C10.9154 5.83333 11.6654 5.08333 11.6654 4.16667C11.6654 3.25 10.9154 2.5 9.9987 2.5ZM9.9987 14.1667C9.08203 14.1667 8.33203 14.9167 8.33203 15.8333C8.33203 16.75 9.08203 17.5 9.9987 17.5C10.9154 17.5 11.6654 16.75 11.6654 15.8333C11.6654 14.9167 10.9154 14.1667 9.9987 14.1667ZM9.9987 8.33333C9.08203 8.33333 8.33203 9.08333 8.33203 10C8.33203 10.9167 9.08203 11.6667 9.9987 11.6667C10.9154 11.6667 11.6654 10.9167 11.6654 10C11.6654 9.08333 10.9154 8.33333 9.9987 8.33333Z" fill="#B7C0D1"/>
</svg>
