<svg width="13" height="13" viewBox="0 0 13 13" fill="none" xmlns="http://www.w3.org/2000/svg">
<path d="M7.54982 10.014L4.14316 8.15599C3.81615 8.48059 3.40037 8.70111 2.94822 8.78975C2.49607 8.87838 2.0278 8.83117 1.60244 8.65406C1.17708 8.47695 0.813685 8.17787 0.558057 7.79453C0.302428 7.41119 0.166016 6.96075 0.166016 6.49999C0.166016 6.03924 0.302428 5.5888 0.558057 5.20545C0.813685 4.82211 1.17708 4.52304 1.60244 4.34593C2.0278 4.16882 2.49607 4.1216 2.94822 4.21024C3.40037 4.29888 3.81615 4.51939 4.14316 4.84399L7.54982 2.98599C7.43299 2.43782 7.51737 1.8659 7.78755 1.37483C8.05773 0.883757 8.49565 0.506347 9.02122 0.311615C9.54679 0.116883 10.1249 0.117842 10.6498 0.314317C11.1748 0.510791 11.6114 0.889652 11.88 1.38162C12.1485 1.87358 12.231 2.44578 12.1123 2.99356C11.9937 3.54135 11.6818 4.02812 11.2338 4.36486C10.7857 4.7016 10.2314 4.86581 9.67223 4.82746C9.11306 4.78911 8.58637 4.55076 8.18849 4.15599L4.78182 6.01399C4.84978 6.33443 4.84978 6.66556 4.78182 6.98599L8.18849 8.84399C8.58637 8.44923 9.11306 8.21088 9.67223 8.17253C10.2314 8.13418 10.7857 8.29838 11.2338 8.63513C11.6818 8.97187 11.9937 9.45864 12.1123 10.0064C12.231 10.5542 12.1485 11.1264 11.88 11.6184C11.6114 12.1103 11.1748 12.4892 10.6498 12.6857C10.1249 12.8821 9.54679 12.8831 9.02122 12.6884C8.49565 12.4936 8.05773 12.1162 7.78755 11.6252C7.51737 11.1341 7.43299 10.5622 7.54982 10.014Z" fill="#1254FF"/>
</svg>
