<svg width="15" height="15" viewBox="0 0 15 15" fill="none" xmlns="http://www.w3.org/2000/svg">
<path d="M9.28157 6.60003C10.1657 6.60003 10.6149 5.53685 9.99855 4.90294L7.55627 2.39095C7.22152 2.04664 7.22152 1.49849 7.55627 1.15418C7.9046 0.795905 8.47999 0.795905 8.82833 1.15418L14.3203 6.80291C14.6977 7.19104 14.6977 7.80897 14.3203 8.19709L8.82833 13.8458C8.47999 14.2041 7.9046 14.2041 7.55626 13.8458C7.22152 13.5015 7.22152 12.9534 7.55627 12.6091L9.99855 10.0971C10.6149 9.46315 10.1657 8.39998 9.28157 8.39998L1.89802 8.39997C1.40098 8.39997 0.998046 7.99704 0.998046 7.5C0.998046 7.00296 1.40098 6.60003 1.89802 6.60003L9.28157 6.60003Z" fill="white"/>
</svg>
