<svg width="95" height="29" viewBox="0 0 95 29" fill="none" xmlns="http://www.w3.org/2000/svg">
<path d="M8.44 0.499998L16.6 23.78H17V0.499998H21.6V28.5H13.68L5.56 5.22H5.16V28.5H0.52V0.499998H8.44ZM30.8928 0.499998V12.38H42.3328V0.499998H46.9328V28.5H42.3328V16.54H30.8928V28.5H26.2528V0.499998H30.8928ZM63.8759 0.499998C66.3293 0.499998 68.3159 1.16666 69.8359 2.5C71.3559 3.83333 72.1159 5.63333 72.1159 7.9C72.1159 9.71333 71.6626 11.1267 70.7559 12.14C69.8493 13.1267 68.7559 13.8067 67.4759 14.18V14.58C68.7559 14.9267 69.8626 15.62 70.7959 16.66C71.7559 17.6733 72.2359 19.1 72.2359 20.94C72.2359 23.26 71.4626 25.1 69.9159 26.46C68.3959 27.82 66.4093 28.5 63.9559 28.5H51.5559V0.499998H63.8759ZM63.3959 12.34C64.7026 12.34 65.7426 11.9933 66.5159 11.3C67.2893 10.6067 67.6759 9.67333 67.6759 8.5C67.6759 7.35333 67.2759 6.43333 66.4759 5.74C65.7026 5.04667 64.6759 4.7 63.3959 4.7H56.1959V12.34H63.3959ZM63.4759 24.3C64.8093 24.3 65.8626 23.9533 66.6359 23.26C67.4093 22.54 67.7959 21.5933 67.7959 20.42C67.7959 19.1933 67.4093 18.2333 66.6359 17.54C65.8626 16.8467 64.7826 16.5 63.3959 16.5H56.1959V24.3H63.4759Z" fill="#182C6B"/>
<path d="M83.6044 12.5V6.14H87.7644V12.5H94.0444V16.5H87.7644V22.86H83.6044V16.5H77.3244V12.5H83.6044Z" fill="#FFB800"/>
</svg>
