<svg width="114" height="124" viewBox="0 0 114 124" fill="none" xmlns="http://www.w3.org/2000/svg">
<g clip-path="url(#clip0)">
<path d="M91.7201 90.1189L90.9055 96.109C91.9116 95.1805 92.585 93.9474 92.8224 92.5991C93.085 91.1313 92.8052 89.6181 92.035 88.3413C90.885 89.2933 90.1111 90.6232 89.8516 92.0934C89.6108 93.4365 89.8238 94.8216 90.4573 96.0302L91.7352 90.128" fill="#101A3E"/>
<path d="M97.2287 96.6115L91.1993 96.445C92.2802 95.6041 93.6063 95.1394 94.9756 95.1216C96.4662 95.1029 97.9131 95.6247 99.0487 96.5903C97.9222 97.5821 96.4765 98.1357 94.9756 98.1499C93.6141 98.1688 92.2851 97.733 91.1993 96.9113L97.2287 96.6115Z" fill="#101A3E"/>
<path d="M95.4083 85.8126L95.3023 91.8692C96.1933 90.8284 96.7188 89.5243 96.7983 88.1565C96.8909 86.659 96.4332 85.1793 95.5113 83.9956C94.4703 85.0752 93.8514 86.4926 93.767 87.99C93.687 89.3494 94.0609 90.6969 94.8299 91.8208L95.4083 85.8126Z" fill="#101A3E"/>
<path d="M101.637 91.6241L95.6322 92.1722C96.6055 91.2085 97.8685 90.5914 99.2268 90.4158C100.704 90.2205 102.203 90.5692 103.442 91.3969C102.439 92.5128 101.069 93.2317 99.5812 93.4229C98.2316 93.5995 96.8617 93.3225 95.6867 92.6355L101.637 91.6301" fill="#101A3E"/>
<path d="M98.5675 81.1218L99.1732 87.124C99.936 85.9875 100.305 84.6322 100.224 83.2659C100.139 81.7776 99.5156 80.371 98.4706 79.3079C97.5628 80.5025 97.1137 81.9832 97.2047 83.4809C97.2862 84.8407 97.8191 86.1345 98.7189 87.1573L98.5675 81.1218Z" fill="#101A3E"/>
<path d="M105.432 86.158L99.542 87.3966C100.396 86.3254 101.578 85.5645 102.906 85.2313C104.352 84.8647 105.882 85.037 107.21 85.7159C106.343 86.9396 105.067 87.8128 103.612 88.1779C102.292 88.511 100.899 88.3959 99.651 87.8509L105.432 86.158Z" fill="#101A3E"/>
<path d="M101.153 76.0856L102.446 81.9757C103.077 80.7596 103.29 79.3698 103.052 78.0207C102.793 76.5528 102.01 75.229 100.847 74.2959C100.086 75.5883 99.8133 77.1107 100.078 78.587C100.317 79.9275 100.994 81.1505 102.004 82.0636L101.168 76.0856" fill="#101A3E"/>
<path d="M108.564 80.2799L102.846 82.2029C103.57 81.0399 104.655 80.1462 105.935 79.6591C107.327 79.1276 108.864 79.119 110.262 79.6349C109.544 80.9523 108.379 81.9695 106.977 82.5027C105.705 82.9868 104.309 83.0358 103.007 82.642L108.564 80.2799Z" fill="#101A3E"/>
<path d="M103.134 70.78L105.108 76.4793C105.585 75.1961 105.628 73.7923 105.233 72.4819C104.803 71.0544 103.868 69.8318 102.604 69.0417C102 70.4147 101.908 71.9583 102.344 73.3935C102.738 74.6965 103.554 75.8318 104.663 76.6216L103.134 70.78Z" fill="#101A3E"/>
<path d="M110.983 74.0809L105.532 76.658C106.114 75.4171 107.088 74.402 108.303 73.769C109.623 73.0781 111.149 72.8898 112.597 73.239C112.04 74.6314 111.002 75.7778 109.672 76.4703C108.464 77.1043 107.078 77.3175 105.735 77.0759L110.977 74.0839" fill="#101A3E"/>
<path d="M104.479 65.2807L107.113 70.7074C107.432 69.3801 107.309 67.9851 106.762 66.7343C106.169 65.3668 105.098 64.2622 103.749 63.6272C103.31 65.0612 103.399 66.6049 104 67.9789C104.544 69.227 105.486 70.2593 106.68 70.9133L104.479 65.2807Z" fill="#101A3E"/>
<path d="M112.661 67.6426L107.546 70.8405C107.982 69.5409 108.833 68.4205 109.968 67.6517C111.198 66.8088 112.692 66.4418 114.172 66.619C113.781 68.0676 112.884 69.3279 111.643 70.1713C110.52 70.9399 109.174 71.3128 107.815 71.2312L112.661 67.6426Z" fill="#101A3E"/>
<path d="M104.569 47.1559L108.906 51.3471C108.753 49.9831 108.157 48.7068 107.21 47.7132C106.179 46.6373 104.794 45.9714 103.31 45.8386C103.391 47.3366 104.007 48.7557 105.045 49.839C105.987 50.8183 107.228 51.4573 108.573 51.656L104.569 47.1559Z" fill="#101A3E"/>
<path d="M113.06 46.5505L109.36 51.3141C109.321 49.9461 109.73 48.6029 110.526 47.4893C111.39 46.2729 112.666 45.4119 114.117 45.0667C114.25 46.5609 113.843 48.0534 112.97 49.273C112.179 50.3824 111.042 51.1983 109.738 51.5927L113.06 46.5505Z" fill="#101A3E"/>
<path d="M103.279 41.6415L108.079 45.2967C107.765 43.9618 107.02 42.7676 105.959 41.8989C104.813 40.9462 103.358 40.4444 101.868 40.4877C102.131 41.9685 102.918 43.3055 104.085 44.2549C105.132 45.1236 106.44 45.6181 107.8 45.6601L103.294 41.6415" fill="#101A3E"/>
<path d="M111.656 40.0457L108.54 45.212C108.341 43.8572 108.591 42.4746 109.251 41.2752C109.966 39.9672 111.133 38.9648 112.534 38.4558C112.84 39.9235 112.61 41.4523 111.886 42.7651C111.23 43.958 110.197 44.8995 108.948 45.4422L111.656 40.0457Z" fill="#101A3E"/>
<path d="M101.359 36.3179L106.553 39.3856C106.087 38.0979 105.211 36.9988 104.06 36.2573C102.804 35.4494 101.297 35.1264 99.8206 35.3488C100.248 36.7868 101.178 38.0236 102.44 38.8344C103.586 39.5708 104.945 39.9044 106.301 39.7823L101.359 36.3179Z" fill="#101A3E"/>
<path d="M109.475 33.7526L106.986 39.246C106.627 37.9247 106.713 36.5221 107.231 35.2547C107.788 33.8718 108.831 32.7393 110.162 32.0688C110.638 33.4914 110.589 35.0374 110.023 36.4266C109.511 37.6884 108.593 38.7441 107.416 39.4277L109.475 33.7526Z" fill="#101A3E"/>
<path d="M98.8218 31.2513L104.339 33.6922C103.726 32.4677 102.729 31.4783 101.499 30.8758C100.161 30.217 98.6295 30.0674 97.1896 30.4549C97.7827 31.8323 98.8494 32.9517 100.197 33.6104C101.417 34.2093 102.802 34.3861 104.134 34.1131L98.8158 31.2513" fill="#101A3E"/>
<path d="M106.586 27.7566L104.769 33.5104C104.259 32.2394 104.18 30.8362 104.545 29.5161C104.938 28.0783 105.84 26.8321 107.083 26.0093C107.721 27.3661 107.852 28.9067 107.452 30.3519C107.093 31.6649 106.306 32.821 105.217 33.6376L106.586 27.7566Z" fill="#101A3E"/>
<path d="M95.7143 26.5182L101.468 28.2958C100.72 27.1533 99.6179 26.2875 98.3308 25.8308C96.9265 25.3338 95.3893 25.3651 94.0063 25.9186C94.7557 27.2167 95.9448 28.2039 97.3587 28.7016C98.6435 29.1537 100.042 29.1664 101.335 28.738L95.7143 26.5182Z" fill="#101A3E"/>
<path d="M103.016 22.1391L101.871 28.0594C101.216 26.8582 100.973 25.4751 101.18 24.1226C101.405 22.6473 102.158 21.304 103.3 20.3433C104.092 21.6176 104.403 23.1331 104.175 24.6162C103.971 25.9613 103.326 27.2003 102.34 28.1382L103.025 22.1421" fill="#101A3E"/>
<path d="M92.0712 22.1843L98.0038 23.2715C97.1219 22.2239 95.9209 21.4941 94.5848 21.1941C93.132 20.8661 91.6096 21.0759 90.2997 21.7846C91.1961 22.9872 92.4941 23.8285 93.9579 24.1558C95.2812 24.4534 96.666 24.3032 97.8947 23.7288L92.0591 22.1843" fill="#101A3E"/>
<path d="M98.8093 16.9757L98.3672 22.993C97.5743 21.8755 97.171 20.5284 97.2194 19.1591C97.2684 17.6695 97.8559 16.2482 98.8729 15.1587C99.8097 16.3306 100.296 17.799 100.245 19.2984C100.198 20.659 99.7018 21.9657 98.8335 23.0142L98.8093 16.9757Z" fill="#101A3E"/>
<path d="M22.0498 90.1189L22.8644 96.109C21.8583 95.1805 21.1848 93.9474 20.9475 92.5991C20.6849 91.1313 20.9647 89.6181 21.7348 88.3413C22.893 89.2939 23.6727 90.6288 23.9334 92.1055C24.1743 93.4486 23.9612 94.8337 23.3278 96.0424L22.0498 90.1401" fill="#101A3E"/>
<path d="M16.5389 96.6115L22.5683 96.445C21.4885 95.6041 20.1635 95.1394 18.795 95.1216C17.3045 95.1029 15.8576 95.6247 14.7219 96.5903C15.8488 97.5817 17.2943 98.1352 18.795 98.1499C20.1556 98.1689 21.4836 97.733 22.5683 96.9113L16.5389 96.6085" fill="#101A3E"/>
<path d="M18.3616 85.8126L18.4737 91.8692C17.5827 90.8284 17.0572 89.5243 16.9777 88.1565C16.8834 86.6598 17.3389 85.1801 18.2587 83.9956C19.2983 85.0762 19.917 86.493 20.003 87.99C20.083 89.3494 19.7091 90.6969 18.9401 91.8208L18.3616 85.8126Z" fill="#101A3E"/>
<path d="M12.1328 91.6241L18.1379 92.1722C17.1647 91.2085 15.9017 90.5914 14.5433 90.4158C13.0657 90.2205 11.5674 90.5692 10.3279 91.3969C11.3308 92.5128 12.7009 93.2316 14.189 93.4229C15.5382 93.5969 16.907 93.3178 18.0804 92.6295L12.1328 91.6241Z" fill="#101A3E"/>
<path d="M15.2035 81.1218L14.5978 87.124C13.8372 85.9866 13.4693 84.6317 13.55 83.2659C13.6352 81.7776 14.2584 80.371 15.3034 79.3079C16.2101 80.503 16.6581 81.9836 16.5662 83.4809C16.4847 84.8407 15.9519 86.1345 15.052 87.1573L15.1823 81.1218" fill="#101A3E"/>
<path d="M8.33512 86.158L14.2404 87.3965C13.3861 86.326 12.2041 85.5653 10.8759 85.2313C9.43026 84.8644 7.90048 85.0366 6.57263 85.7158C7.43906 86.9401 8.71536 87.8135 10.1703 88.1779C11.4942 88.5134 12.8922 88.3984 14.1435 87.8508L8.34723 86.158" fill="#101A3E"/>
<path fill-rule="evenodd" clip-rule="evenodd" d="M56.9999 66.6167L46.6266 77L41 71.3682L56.9999 55.353L73 71.3681L67.3734 77L56.9999 66.6167ZM56.9999 43.2638L46.6266 53.647L41 48.0152L56.9999 32L73 48.0152L67.3734 53.647L56.9999 43.2638Z" stroke="#1254FF" stroke-width="2"/>
<path d="M12.6293 76.0856L11.3362 81.9757C10.7073 80.759 10.4945 79.3698 10.7305 78.0207C10.9921 76.5571 11.7741 75.2374 12.9321 74.3049C13.6934 75.5973 13.9663 77.1197 13.7013 78.5961C13.4628 79.9365 12.7853 81.1595 11.7753 82.0726L12.6293 76.0856Z" fill="#101A3E"/>
<path d="M5.20664 80.2799L10.9241 82.2029C10.2006 81.0399 9.11546 80.1462 7.83523 79.6591C6.4432 79.1276 4.90565 79.119 3.50775 79.6349C4.22571 80.9523 5.39113 81.9695 6.79349 82.5027C8.06507 82.9868 9.46124 83.0358 10.7636 82.642L5.20664 80.2799Z" fill="#101A3E"/>
<path d="M10.637 70.78L8.6625 76.4793C8.18621 75.1961 8.14261 73.7923 8.53833 72.4819C8.96838 71.0544 9.90255 69.8318 11.1669 69.0417C11.7683 70.4167 11.8574 71.9615 11.4183 73.3965C11.0235 74.6996 10.2077 75.8349 9.09857 76.6247L10.637 70.78Z" fill="#101A3E"/>
<path d="M2.7875 74.0809L8.23849 76.658C7.65579 75.4178 6.6824 74.4029 5.46757 73.769C4.14761 73.0781 2.62173 72.8898 1.1734 73.239C1.73062 74.6314 2.76852 75.7778 4.09877 76.4703C5.30709 77.1046 6.69248 77.3177 8.03559 77.0759L2.7875 74.0809Z" fill="#101A3E"/>
<path d="M9.29745 65.2807L6.6628 70.7074C6.34228 69.3808 6.4635 67.9857 7.00803 66.7343C7.60113 65.3676 8.67101 64.2633 10.0182 63.6272C10.4594 65.0607 10.3713 66.6049 9.76987 67.9789C9.22546 69.2264 8.28297 70.2583 7.0898 70.9133L9.29745 65.2807Z" fill="#101A3E"/>
<path d="M1.12159 67.6427L6.23643 70.8406C5.80007 69.541 4.94889 68.4206 3.81377 67.6518C2.5844 66.806 1.08917 66.4368 -0.392578 66.6131C-0.00192711 68.0616 0.895271 69.322 2.13608 70.1653C3.25983 70.9343 4.60768 71.3073 5.96691 71.2252L1.12159 67.6427Z" fill="#101A3E"/>
<path d="M9.20483 47.1559L4.86523 51.3471C5.01845 49.9831 5.61408 48.7068 6.5611 47.7132C7.59191 46.6373 8.97757 45.9714 10.4616 45.8386C10.3798 47.3366 9.76418 48.7557 8.72635 49.839C7.78369 50.8183 6.54295 51.4573 5.19835 51.656L9.20483 47.1378" fill="#101A3E"/>
<path d="M0.709337 46.5505L4.40693 51.3141C4.44892 49.9457 4.03919 48.6016 3.24102 47.4893C2.37786 46.2723 1.10116 45.4111 -0.350578 45.0667C-0.482505 46.5613 -0.074217 48.0537 0.800187 49.273C1.59093 50.3824 2.72734 51.1983 4.03141 51.5927L0.700252 46.5505" fill="#101A3E"/>
<path d="M10.491 41.6414L5.6911 45.2966C6.00572 43.9621 6.75061 42.7681 7.81093 41.8989C8.95879 40.9464 10.4143 40.4447 11.9052 40.4876C11.648 41.965 10.8702 43.3015 9.71272 44.2549C8.66494 45.1236 7.35738 45.6181 5.99696 45.66L10.491 41.6414Z" fill="#101A3E"/>
<path d="M2.12744 40.0457L5.24359 45.212C5.44249 43.8572 5.19255 42.4746 4.53193 41.2752C3.8173 39.9672 2.65012 38.9648 1.24922 38.4558C0.943213 39.9235 1.17312 41.4523 1.89728 42.7651C2.55321 43.958 3.58633 44.8995 4.83476 45.4422L2.12744 40.0457Z" fill="#101A3E"/>
<path d="M12.4143 36.3174L7.2207 39.3851C7.68621 38.0974 8.56188 36.9983 9.71302 36.2569C10.9687 35.4484 12.476 35.1254 13.9527 35.3484C13.526 36.786 12.5976 38.0228 11.3362 38.834C10.1921 39.5693 8.83577 39.9028 7.48114 39.7818L12.4264 36.3205" fill="#101A3E"/>
<path d="M4.29559 33.7526L6.78487 39.246C7.14194 37.9245 7.05577 36.5224 6.53958 35.2547C5.98201 33.8718 4.93994 32.7393 3.60816 32.0688C3.13221 33.4914 3.18163 35.0374 3.74746 36.4266C4.25864 37.6882 5.17483 38.7439 6.35182 39.4277L4.29559 33.7526Z" fill="#101A3E"/>
<path d="M14.9464 31.2513L9.43176 33.6922C10.044 32.4672 11.0421 31.4775 12.2723 30.8758C13.61 30.217 15.1417 30.0674 16.5816 30.4549C15.9865 31.8309 14.9203 32.9497 13.5745 33.6104C12.354 34.2091 10.9694 34.3859 9.63769 34.1131L14.9464 31.2513Z" fill="#101A3E"/>
<path d="M7.17827 27.7566L8.99526 33.5104C9.50511 32.2394 9.58384 30.8361 9.21936 29.516C8.83224 28.0788 7.93705 26.8307 6.69979 26.0032C6.06203 27.3601 5.92993 28.9001 6.32731 30.3458C6.68794 31.6591 7.47527 32.815 8.56524 33.6315L7.17827 27.7566Z" fill="#101A3E"/>
<path d="M18.0563 26.5178L12.3024 28.2954C13.0548 27.1518 14.161 26.286 15.4519 25.8304C16.8582 25.3333 18.3974 25.3645 19.7824 25.9182C19.0285 27.2184 17.8339 28.2057 16.4149 28.7012C15.1311 29.1533 13.7336 29.1661 12.4417 28.7376L18.0563 26.5178Z" fill="#101A3E"/>
<path d="M10.7547 22.1391L11.8994 28.0594C12.5559 26.8587 12.7986 25.4751 12.5898 24.1226C12.3654 22.6473 11.6119 21.304 10.47 20.3433C9.68078 21.6176 9.37256 23.1318 9.60088 24.6132C9.805 25.9582 10.4506 27.1972 11.436 28.1351L10.7516 22.1391" fill="#101A3E"/>
<path d="M21.7145 22.1845L15.7668 23.2716C16.6475 22.224 17.8475 21.4942 19.1828 21.1942C20.6366 20.8661 22.16 21.0759 23.4709 21.7847C22.5745 22.9873 21.2765 23.8286 19.8127 24.1559C18.4893 24.4535 17.1046 24.3034 15.8759 23.7289L21.7145 22.1845Z" fill="#101A3E"/>
<path d="M14.9608 16.9757L15.4029 22.993C16.1997 21.8767 16.6082 20.5299 16.5658 19.1591C16.5168 17.6695 15.9293 16.2482 14.9123 15.1587C13.9732 16.3295 13.4854 17.7984 13.5375 19.2984C13.5841 20.659 14.0804 21.9657 14.9487 23.0142L14.9729 16.9757" fill="#101A3E"/>
<path d="M1.53308 57.4342V57.5493H2.17206V57.4433C2.16715 57.3575 2.18051 57.2718 2.21127 57.1916C2.24204 57.1114 2.28949 57.0387 2.35049 56.9783C2.41148 56.9179 2.48463 56.8711 2.56507 56.8411C2.64552 56.8111 2.73142 56.7986 2.81709 56.8043C2.89196 56.7953 2.96789 56.8028 3.03952 56.8264C3.11115 56.85 3.17672 56.889 3.23161 56.9407C3.2865 56.9924 3.32935 57.0555 3.35715 57.1256C3.38495 57.1957 3.39701 57.2711 3.39247 57.3464C3.39247 57.7431 3.08964 57.9036 2.61722 58.0338C1.99339 58.2034 1.55125 58.5032 1.55125 59.121V59.7024H4.01328V59.121H2.19628V59.0604C2.19628 58.7576 2.44764 58.6455 2.92308 58.5244C3.63474 58.3457 4.03751 58.0338 4.03751 57.3645C4.03534 57.2101 4.00185 57.0577 3.93908 56.9166C3.87631 56.7755 3.78556 56.6485 3.67232 56.5435C3.55907 56.4385 3.4257 56.3575 3.28026 56.3055C3.13482 56.2535 2.98034 56.2316 2.82618 56.241C2.12058 56.2319 1.53308 56.6408 1.53308 57.4342ZM4.78248 57.5977V58.3942C4.78248 59.2845 5.30335 59.7599 6.0786 59.7599C6.85385 59.7599 7.37775 59.2845 7.37775 58.3942V57.5977C7.37775 56.7377 6.85385 56.2319 6.0786 56.2319C5.30335 56.2319 4.78248 56.7407 4.78248 57.5977ZM5.42145 57.5705C5.42145 57.1192 5.66372 56.8043 6.0786 56.8043C6.49348 56.8043 6.73878 57.1071 6.73878 57.5705V58.4214C6.73878 58.8817 6.53588 59.1876 6.0786 59.1876C5.62132 59.1876 5.42145 58.9029 5.42145 58.4214V57.5705Z" fill="#101A3E"/>
<path d="M107.582 56.6043L106.71 58.1185H107.379L107.855 57.2675H107.912V59.993H108.551V56.6013L107.582 56.6043ZM109.475 57.4613C109.474 57.6283 109.526 57.7912 109.623 57.9268C109.72 58.0623 109.858 58.1634 110.017 58.2154V58.276C109.844 58.326 109.692 58.4317 109.585 58.5769C109.479 58.722 109.423 58.8983 109.427 59.0785C109.427 59.669 109.96 60.0627 110.695 60.0627C111.431 60.0627 111.964 59.669 111.964 59.0785C111.968 58.8983 111.912 58.722 111.805 58.5769C111.699 58.4317 111.547 58.326 111.374 58.276V58.2154C111.532 58.163 111.67 58.0618 111.767 57.9264C111.865 57.7909 111.917 57.6281 111.916 57.4613C111.916 56.9283 111.422 56.5347 110.705 56.5347C109.987 56.5347 109.475 56.9283 109.475 57.4613ZM110.114 57.537C110.114 57.2675 110.35 57.107 110.695 57.107C111.041 57.107 111.277 57.2675 111.277 57.537C111.277 57.8066 111.038 57.9701 110.695 57.9701C110.353 57.9701 110.114 57.8096 110.114 57.537ZM110.066 59.0149C110.066 58.7363 110.287 58.5424 110.695 58.5424C111.104 58.5424 111.325 58.7363 111.325 59.0149C111.325 59.2935 111.101 59.4903 110.695 59.4903C110.29 59.4903 110.066 59.2965 110.066 59.0149Z" fill="#101A3E"/>
<path d="M50.4991 4.4L52.1311 9.056H52.2111V4.4H53.1311V10H51.5471L49.9231 5.344H49.8431V10H48.9151V4.4H50.4991ZM55.7097 4.4V6.776H57.9977V4.4H58.9177V10H57.9977V7.608H55.7097V10H54.7817V4.4H55.7097ZM63.0263 4.4C63.5169 4.4 63.9143 4.53333 64.2183 4.8C64.5223 5.06667 64.6743 5.42667 64.6743 5.88C64.6743 6.24267 64.5836 6.52533 64.4023 6.728C64.2209 6.92533 64.0023 7.06133 63.7463 7.136V7.216C64.0023 7.28533 64.2236 7.424 64.4103 7.632C64.6023 7.83467 64.6983 8.12 64.6983 8.488C64.6983 8.952 64.5436 9.32 64.2343 9.592C63.9303 9.864 63.5329 10 63.0423 10H60.5623V4.4H63.0263ZM62.9303 6.768C63.1916 6.768 63.3996 6.69867 63.5543 6.56C63.7089 6.42133 63.7863 6.23467 63.7863 6C63.7863 5.77067 63.7063 5.58667 63.5463 5.448C63.3916 5.30933 63.1863 5.24 62.9303 5.24H61.4903V6.768H62.9303ZM62.9463 9.16C63.2129 9.16 63.4236 9.09067 63.5783 8.952C63.7329 8.808 63.8103 8.61867 63.8103 8.384C63.8103 8.13867 63.7329 7.94667 63.5783 7.808C63.4236 7.66933 63.2076 7.6 62.9303 7.6H61.4903V9.16H62.9463ZM67.692 6.8V5.528H68.524V6.8H69.78V7.6H68.524V8.872H67.692V7.6H66.436V6.8H67.692Z" fill="#101A3E"/>
<path d="M33.1428 107.4L34.7908 113H33.8468L33.4708 111.696H31.3908L31.0148 113H30.0628L31.7108 107.4H33.1428ZM33.2388 110.856L32.4708 108.176H32.3908L31.6148 110.856H33.2388ZM35.654 109.56C35.654 108.84 35.8566 108.283 36.262 107.888C36.6673 107.488 37.222 107.288 37.926 107.288C38.614 107.288 39.1473 107.469 39.526 107.832C39.91 108.195 40.102 108.685 40.102 109.304V109.44H39.182V109.288C39.182 108.947 39.0726 108.667 38.854 108.448C38.6353 108.224 38.326 108.112 37.926 108.112C37.5046 108.112 37.174 108.24 36.934 108.496C36.6993 108.752 36.582 109.101 36.582 109.544V110.856C36.582 111.299 36.702 111.648 36.942 111.904C37.182 112.16 37.51 112.288 37.926 112.288C38.3313 112.288 38.6406 112.179 38.854 111.96C39.0726 111.741 39.182 111.461 39.182 111.12V110.912H40.102V111.104C40.102 111.509 40.014 111.864 39.838 112.168C39.6673 112.467 39.4193 112.699 39.094 112.864C38.7686 113.029 38.3793 113.112 37.926 113.112C37.222 113.112 36.6673 112.915 36.262 112.52C35.8566 112.12 35.654 111.56 35.654 110.84V109.56ZM41.294 109.56C41.294 108.84 41.4966 108.283 41.902 107.888C42.3073 107.488 42.862 107.288 43.566 107.288C44.254 107.288 44.7873 107.469 45.166 107.832C45.55 108.195 45.742 108.685 45.742 109.304V109.44H44.822V109.288C44.822 108.947 44.7126 108.667 44.494 108.448C44.2753 108.224 43.966 108.112 43.566 108.112C43.1446 108.112 42.814 108.24 42.574 108.496C42.3393 108.752 42.222 109.101 42.222 109.544V110.856C42.222 111.299 42.342 111.648 42.582 111.904C42.822 112.16 43.15 112.288 43.566 112.288C43.9713 112.288 44.2806 112.179 44.494 111.96C44.7126 111.741 44.822 111.461 44.822 111.12V110.912H45.742V111.104C45.742 111.509 45.654 111.864 45.478 112.168C45.3073 112.467 45.0593 112.699 44.734 112.864C44.4086 113.029 44.0193 113.112 43.566 113.112C42.862 113.112 42.3073 112.915 41.902 112.52C41.4966 112.12 41.294 111.56 41.294 110.84V109.56ZM50.766 107.4V108.24H48.07V109.76H50.542V110.6H48.07V112.16H50.814V113H47.142V107.4H50.766ZM53.1397 107.4V112.16H55.8277V113H52.2117V107.4H53.1397ZM60.71 107.4V108.24H58.014V109.76H60.486V110.6H58.014V112.16H60.758V113H57.086V107.4H60.71ZM66.3477 109.12C66.3477 109.547 66.2304 109.907 65.9957 110.2C65.7664 110.493 65.4597 110.688 65.0757 110.784L66.2597 113H65.2117L64.1317 110.84H63.0837V113H62.1557V107.4H64.5637C64.9104 107.4 65.2171 107.472 65.4837 107.616C65.7557 107.755 65.9664 107.955 66.1157 108.216C66.2704 108.477 66.3477 108.779 66.3477 109.12ZM63.0837 110.008H64.4677C64.7611 110.008 64.9931 109.928 65.1637 109.768C65.3344 109.608 65.4197 109.392 65.4197 109.12C65.4197 108.848 65.3344 108.635 65.1637 108.48C64.9931 108.32 64.7611 108.24 64.4677 108.24H63.0837V110.008ZM70.3103 107.4L71.9583 113H71.0143L70.6383 111.696H68.5583L68.1823 113H67.2303L68.8783 107.4H70.3103ZM70.4063 110.856L69.6383 108.176H69.5583L68.7823 110.856H70.4063ZM76.6781 107.4V108.24H74.9261V113H74.0061V108.24H72.2541V107.4H76.6781ZM77.5865 109.536C77.5865 108.821 77.7891 108.269 78.1945 107.88C78.5998 107.485 79.1545 107.288 79.8585 107.288C80.5571 107.288 81.1091 107.485 81.5145 107.88C81.9198 108.269 82.1225 108.821 82.1225 109.536V110.864C82.1225 111.579 81.9198 112.133 81.5145 112.528C81.1091 112.917 80.5571 113.112 79.8585 113.112C79.1545 113.112 78.5998 112.917 78.1945 112.528C77.7891 112.133 77.5865 111.579 77.5865 110.864V109.536ZM78.5145 110.896C78.5145 111.323 78.6318 111.661 78.8665 111.912C79.1065 112.163 79.4371 112.288 79.8585 112.288C80.2745 112.288 80.5998 112.163 80.8345 111.912C81.0745 111.661 81.1945 111.323 81.1945 110.896V109.504C81.1945 109.077 81.0745 108.739 80.8345 108.488C80.5998 108.237 80.2745 108.112 79.8585 108.112C79.4371 108.112 79.1065 108.237 78.8665 108.488C78.6318 108.739 78.5145 109.077 78.5145 109.504V110.896ZM87.7515 109.12C87.7515 109.547 87.6341 109.907 87.3995 110.2C87.1701 110.493 86.8635 110.688 86.4795 110.784L87.6635 113H86.6155L85.5355 110.84H84.4875V113H83.5595V107.4H85.9675C86.3141 107.4 86.6208 107.472 86.8875 107.616C87.1595 107.755 87.3701 107.955 87.5195 108.216C87.6741 108.477 87.7515 108.779 87.7515 109.12ZM84.4875 110.008H85.8715C86.1648 110.008 86.3968 109.928 86.5675 109.768C86.7381 109.608 86.8235 109.392 86.8235 109.12C86.8235 108.848 86.7381 108.635 86.5675 108.48C86.3968 108.32 86.1648 108.24 85.8715 108.24H84.4875V110.008Z" fill="#101A3E"/>
</g>
<defs>
<clipPath id="clip0">
<rect width="114" height="124" fill="white"/>
</clipPath>
</defs>
</svg>
