<svg width="211" height="14" viewBox="0 0 211 14" fill="none" xmlns="http://www.w3.org/2000/svg">
<path d="M4.82272 1.15471L7.68252 10.7325H7.85173V1.15471H10.0854V13H6.24416L3.38437 3.42224H3.21515V13H0.981468V1.15471H4.82272ZM13.3843 5.65592C13.3843 4.15552 13.8187 2.99355 14.6873 2.17002C15.556 1.33521 16.7461 0.917806 18.2578 0.917806C19.7695 0.917806 20.9597 1.33521 21.8283 2.17002C22.697 2.99355 23.1313 4.15552 23.1313 5.65592V8.49879C23.1313 9.99919 22.697 11.1668 21.8283 12.0016C20.9597 12.8251 19.7695 13.2369 18.2578 13.2369C16.7461 13.2369 15.556 12.8251 14.6873 12.0016C13.8187 11.1668 13.3843 9.99919 13.3843 8.49879V5.65592ZM15.618 8.56648C15.618 9.39001 15.8493 10.0443 16.3118 10.5294C16.7856 11.0032 17.4343 11.2401 18.2578 11.2401C19.0814 11.2401 19.7244 11.0032 20.1869 10.5294C20.6607 10.0443 20.8976 9.39001 20.8976 8.56648V5.58823C20.8976 4.7647 20.6607 4.11603 20.1869 3.64222C19.7244 3.15713 19.0814 2.91458 18.2578 2.91458C17.4343 2.91458 16.7856 3.15713 16.3118 3.64222C15.8493 4.11603 15.618 4.7647 15.618 5.58823V8.56648ZM34.7354 1.15471V3.18533H31.148V13H28.9143V3.18533H25.3269V1.15471H34.7354ZM39.8952 1.15471V6.04512H44.3626V1.15471H46.5963V13H44.3626V8.07574H39.8952V13H37.6615V1.15471H39.8952ZM52.5901 1.15471V13H50.3564V1.15471H52.5901ZM60.1999 1.15471L63.0597 10.7325H63.2289V1.15471H65.4626V13H61.6213L58.7615 3.42224H58.5923V13H56.3586V1.15471H60.1999ZM68.7615 5.65592C68.7615 4.15552 69.2014 2.99355 70.0814 2.17002C70.9613 1.33521 72.1571 0.917806 73.6688 0.917806C75.1354 0.917806 76.2691 1.30137 77.0701 2.06849C77.8711 2.82433 78.2715 3.83964 78.2715 5.11442V5.31748H76.0379V5.08058C76.0379 4.43755 75.8348 3.91861 75.4287 3.52377C75.0338 3.11765 74.4472 2.91458 73.6688 2.91458C72.8566 2.91458 72.2079 3.16277 71.7228 3.65914C71.2377 4.14424 70.9952 4.79855 70.9952 5.62208V8.53263C70.9952 9.35616 71.2377 10.0161 71.7228 10.5125C72.2079 10.9976 72.8566 11.2401 73.6688 11.2401C74.4698 11.2401 75.079 11.0427 75.4964 10.6479C75.925 10.2417 76.1394 9.6946 76.1394 9.00645V8.90491H73.2627V7.00967H78.3392V8.7357C78.3392 10.1458 77.9275 11.2514 77.1039 12.0524C76.2917 12.8421 75.1466 13.2369 73.6688 13.2369C72.1571 13.2369 70.9613 12.8251 70.0814 12.0016C69.2014 11.1668 68.7615 9.99919 68.7615 8.49879V5.65592ZM90.2321 1.15471V6.04512H94.6995V1.15471H96.9332V13H94.6995V8.07574H90.2321V13H87.9985V1.15471H90.2321ZM108.477 1.15471V3.18533H102.927V6.01128H108.004V8.0419H102.927V10.9694H108.579V13H100.693V1.15471H108.477ZM114.069 1.15471V10.9694H119.551V13H111.835V1.15471H114.069ZM126.608 1.15471C128.199 1.15471 129.406 1.56084 130.229 2.37308C131.064 3.17405 131.482 4.36986 131.482 5.96051V8.1942C131.482 9.78485 131.064 10.9863 130.229 11.7985C129.406 12.5995 128.199 13 126.608 13H122.547V1.15471H126.608ZM126.642 10.9694C128.379 10.9694 129.248 10.0669 129.248 8.26189V5.89283C129.248 4.08783 128.379 3.18533 126.642 3.18533H124.78V10.9694H126.642ZM146.492 1.15471C147.53 1.15471 148.37 1.44238 149.013 2.01773C149.656 2.58179 149.978 3.34327 149.978 4.30217C149.978 5.08058 149.786 5.67848 149.403 6.09589C149.03 6.50201 148.579 6.78404 148.049 6.94198V7.1112C148.59 7.25786 149.058 7.54553 149.453 7.97421C149.848 8.39162 150.046 8.99516 150.046 9.78485C150.046 10.7663 149.718 11.5504 149.064 12.137C148.421 12.7123 147.586 13 146.56 13H141.145V1.15471H146.492ZM146.255 6.0282C146.729 6.0282 147.112 5.90411 147.406 5.65592C147.699 5.39645 147.846 5.04674 147.846 4.60677C147.846 4.1668 147.699 3.82272 147.406 3.57454C147.112 3.31507 146.729 3.18533 146.255 3.18533H143.378V6.0282H146.255ZM146.289 10.9694C146.785 10.9694 147.18 10.8396 147.473 10.5802C147.767 10.3207 147.913 9.96535 147.913 9.5141C147.913 9.06285 147.767 8.70749 147.473 8.44802C147.18 8.18856 146.785 8.05882 146.289 8.05882H143.378V10.9694H146.289ZM159.199 1.15471L162.515 13H160.231L159.52 10.3602H155.391L154.681 13H152.396L155.713 1.15471H159.199ZM158.979 8.32957L157.54 2.98227H157.371L155.933 8.32957H158.979ZM164.606 5.65592C164.606 4.15552 165.041 2.99355 165.909 2.17002C166.778 1.33521 167.968 0.917806 169.48 0.917806C170.461 0.917806 171.302 1.09267 172.001 1.44238C172.712 1.7921 173.254 2.28848 173.626 2.93151C173.998 3.57454 174.184 4.32474 174.184 5.18211V5.4867H171.951V5.14827C171.951 4.51652 171.731 3.9863 171.291 3.55761C170.862 3.12893 170.258 2.91458 169.48 2.91458C168.668 2.91458 168.025 3.15713 167.551 3.64222C167.077 4.12732 166.84 4.78727 166.84 5.62208V8.53263C166.84 9.36745 167.077 10.0274 167.551 10.5125C168.025 10.9976 168.668 11.2401 169.48 11.2401C170.258 11.2401 170.862 11.0258 171.291 10.5971C171.731 10.1684 171.951 9.63819 171.951 9.00645V8.53263H174.184V8.9726C174.184 9.82998 173.998 10.5802 173.626 11.2232C173.254 11.8662 172.712 12.3626 172.001 12.7123C171.302 13.062 170.461 13.2369 169.48 13.2369C167.968 13.2369 166.778 12.8251 165.909 12.0016C165.041 11.1668 164.606 9.99919 164.606 8.49879V5.65592ZM187.717 1.15471L182.488 6.11281L187.463 13H184.705L180.931 7.58501L179.645 8.80338V13H177.412V1.15471H179.645V5.89283H179.815L184.57 1.15471H187.717Z" fill="white"/>
<path d="M196.271 6.00078H202.193V0.0468755H204.09V6.00078H210.011V7.83275H204.09V13.7867H202.193V7.83275H196.271V6.00078Z" fill="#FFCB13"/>
</svg>
