<svg width="214" height="30" viewBox="0 0 214 30" fill="none" xmlns="http://www.w3.org/2000/svg">
<path d="M1.81313 20V8.15471H6.06051L8.41265 18.477H8.71724V8.15471H10.9171V20H6.6697L4.31756 9.67768H4.01297V20H1.81313ZM19.557 20.2369C18.0678 20.2369 16.8833 19.8308 16.0034 19.0185C15.1234 18.195 14.6835 17.0218 14.6835 15.4988V12.6559C14.6835 11.133 15.1234 9.96535 16.0034 9.1531C16.8833 8.32957 18.0678 7.91781 19.557 7.91781C21.0461 7.91781 22.2306 8.32957 23.1105 9.1531C23.9905 9.96535 24.4304 11.133 24.4304 12.6559V15.4988C24.4304 17.0218 23.9905 18.195 23.1105 19.0185C22.2306 19.8308 21.0461 20.2369 19.557 20.2369ZM19.557 18.2401C20.3918 18.2401 21.0404 17.9976 21.503 17.5125C21.9655 17.0274 22.1968 16.3787 22.1968 15.5665V12.5882C22.1968 11.776 21.9655 11.1273 21.503 10.6422C21.0404 10.1571 20.3918 9.91458 19.557 9.91458C18.7334 9.91458 18.0848 10.1571 17.6109 10.6422C17.1484 11.1273 16.9171 11.776 16.9171 12.5882V15.5665C16.9171 16.3787 17.1484 17.0274 17.6109 17.5125C18.0848 17.9976 18.7334 18.2401 19.557 18.2401ZM30.4566 20V10.1853H27.0045V8.15471H36.1423V10.1853H32.6902V20H30.4566ZM39.4682 20V8.15471H41.7019V13.0451H46.1015V8.15471H48.3352V20H46.1015V15.0757H41.7019V20H39.4682ZM52.3779 20V8.15471H54.6116V20H52.3779ZM58.6445 20V8.15471H62.8919L65.244 18.477H65.5486V8.15471H67.7484V20H63.5011L61.1489 9.67768H60.8443V20H58.6445ZM75.8807 20.2369C75.0684 20.2369 74.3295 20.0564 73.6639 19.6954C73.0096 19.3231 72.485 18.7873 72.0902 18.0878C71.7066 17.3771 71.5148 16.5141 71.5148 15.4988V12.6559C71.5148 11.133 71.9435 9.96535 72.8009 9.1531C73.6583 8.32957 74.8202 7.91781 76.2868 7.91781C77.7421 7.91781 78.8645 8.30701 79.6542 9.08541C80.4552 9.85254 80.8557 10.8961 80.8557 12.216V12.2836H78.6558V12.1483C78.6558 11.7309 78.5656 11.3529 78.3851 11.0145C78.2159 10.6761 77.9564 10.411 77.6067 10.2192C77.257 10.0161 76.817 9.91458 76.2868 9.91458C75.4971 9.91458 74.8766 10.1571 74.4254 10.6422C73.9741 11.1273 73.7485 11.7873 73.7485 12.6221V15.5326C73.7485 16.3562 73.9741 17.0218 74.4254 17.5294C74.8766 18.0258 75.5084 18.274 76.3206 18.274C77.1329 18.274 77.7251 18.0596 78.0974 17.6309C78.4697 17.2023 78.6558 16.6608 78.6558 16.0064V15.8372H75.8468V13.942H80.8557V20H78.7912V18.8662H78.4866C78.4077 19.058 78.2779 19.2611 78.0974 19.4754C77.9282 19.6898 77.6687 19.8703 77.319 20.0169C76.9693 20.1636 76.4898 20.2369 75.8807 20.2369ZM90.8958 20V8.15471H93.1295V13.0451H97.5291V8.15471H99.7628V20H97.5291V15.0757H93.1295V20H90.8958ZM103.806 20V8.15471H111.42V10.1853H106.039V13.0113H110.947V15.0419H106.039V17.9694H111.522V20H103.806ZM114.98 20V8.15471H117.214V17.9694H122.629V20H114.98ZM125.618 20V18.0371H127.175V10.1176H125.618V8.15471H130.491C132.082 8.15471 133.289 8.56084 134.113 9.37308C134.948 10.1741 135.365 11.3699 135.365 12.9605V15.1942C135.365 16.7849 134.948 17.9863 134.113 18.7985C133.289 19.5995 132.082 20 130.491 20H125.618ZM129.408 17.9694H130.525C131.428 17.9694 132.088 17.7325 132.505 17.2587C132.923 16.7849 133.131 16.1193 133.131 15.2619V12.8928C133.131 12.0242 132.923 11.3586 132.505 10.896C132.088 10.4222 131.428 10.1853 130.525 10.1853H129.408V17.9694ZM144.794 20V18.0371H146.351V10.1176H144.794V8.15471H150.886C151.608 8.15471 152.234 8.27881 152.764 8.52699C153.306 8.7639 153.723 9.10798 154.017 9.55922C154.321 9.99919 154.474 10.5294 154.474 11.1499V11.3191C154.474 11.8606 154.372 12.3062 154.169 12.6559C153.966 12.9944 153.723 13.2595 153.441 13.4512C153.171 13.6317 152.911 13.7615 152.663 13.8405V14.145C152.911 14.2127 153.182 14.3425 153.475 14.5342C153.768 14.7147 154.017 14.9799 154.22 15.3296C154.434 15.6793 154.541 16.1362 154.541 16.7002V16.8695C154.541 17.5238 154.389 18.0878 154.084 18.5616C153.78 19.0242 153.357 19.3795 152.815 19.6277C152.285 19.8759 151.665 20 150.954 20H144.794ZM148.585 17.9694H150.683C151.168 17.9694 151.557 17.8509 151.851 17.614C152.155 17.3771 152.308 17.0387 152.308 16.5987V16.4295C152.308 15.9895 152.161 15.6511 151.868 15.4142C151.574 15.1773 151.179 15.0588 150.683 15.0588H148.585V17.9694ZM148.585 13.0282H150.649C151.112 13.0282 151.49 12.9097 151.783 12.6728C152.088 12.4359 152.24 12.1088 152.24 11.6914V11.5222C152.24 11.0935 152.093 10.7663 151.8 10.5407C151.507 10.3038 151.123 10.1853 150.649 10.1853H148.585V13.0282ZM157.263 20L160.377 8.15471H164.269L167.382 20H165.081L164.438 17.394H160.208L159.565 20H157.263ZM160.732 15.3296H163.913L162.475 9.55922H162.171L160.732 15.3296ZM175.007 20.2369C173.541 20.2369 172.379 19.8308 171.521 19.0185C170.664 18.195 170.235 17.0218 170.235 15.4988V12.6559C170.235 11.133 170.664 9.96535 171.521 9.1531C172.379 8.32957 173.541 7.91781 175.007 7.91781C176.462 7.91781 177.585 8.31829 178.375 9.11926C179.176 9.90894 179.576 10.9976 179.576 12.3852V12.4867H177.376V12.3175C177.376 11.618 177.179 11.0427 176.784 10.5915C176.4 10.1402 175.808 9.91458 175.007 9.91458C174.217 9.91458 173.597 10.1571 173.146 10.6422C172.695 11.1273 172.469 11.7873 172.469 12.6221V15.5326C172.469 16.3562 172.695 17.0161 173.146 17.5125C173.597 17.9976 174.217 18.2401 175.007 18.2401C175.808 18.2401 176.4 18.0145 176.784 17.5633C177.179 17.1007 177.376 16.5254 177.376 15.8372V15.5326H179.576V15.7695C179.576 17.1571 179.176 18.2514 178.375 19.0524C177.585 19.8421 176.462 20.2369 175.007 20.2369ZM183.201 20V8.15471H185.435V12.859H185.739L189.58 8.15471H192.44L187.499 13.9927L192.609 20H189.665L185.739 15.1942H185.435V20H183.201Z" fill="#10183D"/>
<path d="M196.968 12.0014H202.889V6.04749H204.786V12.0014H210.707V13.8334H204.786V19.7873H202.889V13.8334H196.968V12.0014Z" fill="#FFCB13"/>
</svg>
