<svg width="163" height="128" viewBox="0 0 163 128" fill="none" xmlns="http://www.w3.org/2000/svg">
<path d="M86.5892 76.1688L86.258 75.5063C86.1812 75.3535 86.0633 75.2251 85.9175 75.1357C85.7718 75.0462 85.604 74.9993 85.433 75H76.5705C76.3995 74.9993 76.2316 75.0462 76.0859 75.1357C75.9401 75.2251 75.8222 75.3535 75.7455 75.5063L75.4142 76.1688C75.3437 76.3091 75.3103 76.4653 75.3173 76.6222C75.3243 76.7792 75.3715 76.9317 75.4542 77.0652C75.537 77.1988 75.6526 77.3089 75.79 77.385C75.9275 77.4611 76.0821 77.5007 76.2392 77.5H85.7642C85.9213 77.5007 86.076 77.4611 86.2134 77.385C86.3508 77.3089 86.4665 77.1988 86.5492 77.0652C86.632 76.9317 86.6791 76.7792 86.6861 76.6222C86.6931 76.4653 86.6598 76.3091 86.5892 76.1688Z" fill="#5F6EA1"/>
<path d="M69.126 66.4812L65.9573 69.6749C64.617 71.0164 63.864 72.8349 63.8635 74.7312V76.2499C63.8588 76.4981 63.9198 76.7432 64.0404 76.9601C64.161 77.1771 64.3369 77.3583 64.5503 77.4852C64.7636 77.6122 65.0067 77.6805 65.2549 77.683C65.5031 77.6856 65.7476 77.6224 65.9635 77.4999L72.501 73.7499C72.7806 73.587 72.9954 73.3327 73.1092 73.0298C73.2231 72.727 73.229 72.3942 73.126 72.0874L72.976 71.6437C72.1208 70.1929 71.4331 68.6497 70.926 67.0437C70.8813 66.8592 70.7895 66.6894 70.6597 66.5509C70.5298 66.4124 70.3664 66.3098 70.1852 66.2532C70.004 66.1966 69.8112 66.1878 69.6256 66.2278C69.44 66.2677 69.2679 66.355 69.126 66.4812Z" fill="#5F6EA1"/>
<path d="M92.877 66.4998C92.7376 66.3764 92.5692 66.2905 92.3875 66.25C92.2058 66.2095 92.0168 66.2158 91.8382 66.2682C91.6596 66.3207 91.4972 66.4176 91.3662 66.5499C91.2353 66.6822 91.1401 66.8456 91.0895 67.0248C90.5825 68.6308 89.8947 70.174 89.0395 71.6248L88.8895 72.0685C88.7866 72.3752 88.7925 72.7081 88.9064 73.0109C89.0202 73.3138 89.235 73.5681 89.5145 73.731L96.052 77.481C96.2679 77.6035 96.5124 77.6667 96.7606 77.6641C97.0089 77.6616 97.252 77.5933 97.4653 77.4663C97.6786 77.3394 97.8545 77.1582 97.9751 76.9412C98.0957 76.7243 98.1568 76.4792 98.152 76.231V74.731C98.1516 72.8348 97.3985 71.0162 96.0583 69.6748L92.877 66.4998Z" fill="#5F6EA1"/>
<path fill-rule="evenodd" clip-rule="evenodd" d="M81.0023 42.7109C81.3153 42.7109 81.623 42.7911 81.8961 42.9438C86.5023 45.5251 89.7523 51.8313 89.7523 59.2001C89.8115 63.3209 88.6996 67.3738 86.5461 70.8876C86.2278 71.3825 85.7903 71.7895 85.2738 72.0712C84.7572 72.353 84.1782 72.5004 83.5898 72.5001H78.4148C77.827 72.5011 77.2484 72.3546 76.7319 72.074C76.2154 71.7933 75.7776 71.3876 75.4586 70.8938C73.3039 67.3783 72.192 63.323 72.2523 59.2001C72.2523 51.8313 75.5023 45.5251 80.1086 42.9438C80.3817 42.7911 80.6894 42.7109 81.0023 42.7109ZM82 62.0001V60.8031C83.139 60.3701 84 59.2501 84 58.0001C84 56.22 82.2758 55.7886 81.2446 55.5305L81.243 55.5301C80.562 55.3601 80 55.2031 80 55.0001C80 54.5051 80.505 54.0001 81 54.0001C81.494 54.0001 81.997 54.5051 81.997 55.0001H83.997C83.997 53.7511 83.137 52.6311 82 52.1981V51.0001H80V52.1971C78.862 52.6301 78 53.7501 78 55.0001C78 56.7785 79.721 57.2109 80.7525 57.47L80.757 57.4711C81.438 57.6401 82 57.7981 82 58.0001C82 58.4951 81.495 59.0001 81 59.0001C80.505 59.0001 80 58.4951 80 58.0001H78C78 59.2501 78.862 60.3701 80 60.8031V62.0001H82Z" fill="#5F6EA1"/>
<path d="M71.5 19.6395C77.3786 16.2455 84.6214 16.2455 90.5 19.6395L114.667 33.5925C120.546 36.9865 124.167 43.259 124.167 50.047V77.953C124.167 84.741 120.546 91.0135 114.667 94.4075L90.5 108.36C84.6214 111.755 77.3786 111.755 71.5 108.36L47.3327 94.4075C41.4541 91.0135 37.8327 84.741 37.8327 77.953V50.047C37.8327 43.259 41.4541 36.9865 47.3327 33.5925L71.5 19.6395Z" stroke="#5F6EA1" stroke-width="2"/>
<path d="M71.25 6.20652C77.2833 2.72318 84.7167 2.72318 90.75 6.20651L126.176 26.6595C132.209 30.1428 135.926 36.5803 135.926 43.547V84.453C135.926 91.4197 132.209 97.8571 126.176 101.34L90.75 121.793C84.7167 125.277 77.2833 125.277 71.25 121.793L35.8244 101.34C29.7911 97.8571 26.0744 91.4197 26.0744 84.453V43.547C26.0744 36.5803 29.7911 30.1429 35.8244 26.6595L71.25 6.20652Z" stroke="#5F6EA1" stroke-opacity="0.2"/>
<path d="M124 54H160.84L154.302 61.706C153.668 62.4524 153.668 63.5476 154.302 64.294L160.84 72H124V54Z" stroke="#5F6EA1" stroke-width="2"/>
<path d="M38 54H2.12511L8.51592 61.7252C9.12788 62.4649 9.12788 63.5351 8.51592 64.2748L2.12511 72H38V54Z" stroke="#5F6EA1" stroke-width="2"/>
<path d="M17.4916 59.4L18.8436 63.928H18.9236V59.4H19.9796V65H18.1636L16.8116 60.472H16.7316V65H15.6756V59.4H17.4916ZM22.6059 59.4V61.712H24.7179V59.4H25.7739V65H24.7179V62.672H22.6059V65H21.5499V59.4H22.6059ZM29.8664 59.4C30.357 59.4 30.7544 59.536 31.0584 59.808C31.3624 60.0747 31.5144 60.4347 31.5144 60.888C31.5144 61.256 31.4237 61.5387 31.2424 61.736C31.0664 61.928 30.853 62.0613 30.6024 62.136V62.216C30.8584 62.2853 31.0797 62.4213 31.2664 62.624C31.453 62.8213 31.5464 63.1067 31.5464 63.48C31.5464 63.944 31.3917 64.3147 31.0824 64.592C30.7784 64.864 30.3837 65 29.8984 65H27.3384V59.4H29.8664ZM29.7544 61.704C29.9784 61.704 30.1597 61.6453 30.2984 61.528C30.437 61.4053 30.5064 61.24 30.5064 61.032C30.5064 60.824 30.437 60.6613 30.2984 60.544C30.1597 60.4213 29.9784 60.36 29.7544 60.36H28.3944V61.704H29.7544ZM29.7704 64.04C30.005 64.04 30.1917 63.9787 30.3304 63.856C30.469 63.7333 30.5384 63.5653 30.5384 63.352C30.5384 63.1387 30.469 62.9707 30.3304 62.848C30.1917 62.7253 30.005 62.664 29.7704 62.664H28.3944V64.04H29.7704Z" fill="#5F6EA1"/>
<path d="M136.483 59.4L138.051 65H136.971L136.635 63.752H134.683L134.347 65H133.267L134.835 59.4H136.483ZM136.379 62.792L135.699 60.264H135.619L134.939 62.792H136.379ZM142.735 59.4V60.36H140.223V61.712H142.575V62.672H140.223V65H139.167V59.4H142.735ZM145.058 59.4V64.04H147.65V65H144.002V59.4H145.058Z" fill="#5F6EA1"/>
</svg>
