<svg width="166" height="89" viewBox="0 0 166 89" fill="none" xmlns="http://www.w3.org/2000/svg">
<path d="M12.5812 3.69648C12.6488 3.18437 12.7902 2.93746 13.0055 2.95576C13.2326 2.97508 13.4661 3.13343 13.7057 3.43081C13.9454 3.72819 14.0561 3.98449 14.0378 4.19971C13.9544 5.18017 13.6805 6.55992 13.2161 8.33897C12.7636 10.119 12.2147 11.7584 11.5694 13.2571C10.9361 14.7569 10.3922 15.4874 9.93786 15.4488C9.78242 15.4355 9.60967 15.3426 9.41962 15.1698C9.24153 14.9981 9.10834 14.7941 9.02005 14.5578C8.73252 13.6903 7.90007 10.9459 6.5227 6.32457C6.04605 7.68106 5.51178 9.21932 4.91991 10.9394C4.34101 12.6485 3.95948 13.736 3.77533 14.2021C3.59117 14.6682 3.44529 14.8966 3.33768 14.8875C3.18224 14.8743 3.00211 14.7265 2.7973 14.4441C2.60547 14.1508 2.52175 13.8607 2.54615 13.5737C2.57056 13.2867 3.10202 11.6398 4.14053 8.63302C5.18006 5.61425 5.74432 3.72326 5.83331 2.96006C5.86585 2.57744 5.98375 2.39477 6.18701 2.41206C6.31854 2.42324 6.48823 2.55208 6.69609 2.79858C6.91693 3.03414 7.06997 3.28802 7.15521 3.56022C8.65524 8.72189 9.61453 11.8866 10.0331 13.0542C10.9852 11.0637 11.7143 8.65084 12.2203 5.81552C12.4517 4.51044 12.572 3.80409 12.5812 3.69648ZM20.0948 10.4595C20.1294 10.0529 20.0961 9.66471 19.9951 9.29482C19.8951 8.91297 19.7267 8.62768 19.4898 8.43893C18.6455 8.59595 17.8796 9.17514 17.1923 10.1765C16.518 11.1669 16.1417 12.1225 16.0634 13.0431C15.9851 13.9638 16.1634 14.5571 16.5985 14.8229C17.4736 14.7287 18.2528 14.2048 18.9361 13.2513C19.6323 12.2868 20.0185 11.3562 20.0948 10.4595ZM15.3641 10.2197C15.8619 9.3227 16.471 8.60372 17.1914 8.06282C17.9248 7.51098 18.6442 7.26506 19.3497 7.32505C20.0671 7.38606 20.639 7.7418 21.0654 8.39227C21.4929 9.03078 21.6695 9.78646 21.5952 10.6593C21.522 11.5202 21.2376 12.3872 20.7418 13.2604C20.247 14.1215 19.6036 14.8195 18.8114 15.3543C18.0322 15.8782 17.2301 16.105 16.4051 16.0349C15.7953 15.983 15.311 15.6588 14.9523 15.0623C14.5935 14.4657 14.4508 13.737 14.524 12.8761C14.5982 12.0033 14.8782 11.1178 15.3641 10.2197ZM24.4693 14.9141C24.45 15.1413 24.5719 15.2661 24.8349 15.2885C25.2893 15.3271 25.85 15.2483 26.517 15.0521C27.197 14.845 27.5728 14.7445 27.6446 14.7506C27.8598 14.7689 27.9578 14.8917 27.9384 15.1188C27.909 15.4656 27.5162 15.8356 26.7601 16.229C26.016 16.6234 25.3511 16.7956 24.7652 16.7458C24.1912 16.697 23.7262 16.5009 23.37 16.1575C23.0148 15.8021 22.8515 15.457 22.88 15.1222C22.9084 14.7874 23.0163 14.3691 23.2035 13.8671C23.3917 13.3532 23.6534 12.683 23.9887 11.8564C24.3369 11.0189 24.6126 10.3258 24.8158 9.77703C24.2427 9.86077 23.8604 9.8945 23.6691 9.87823C23.4778 9.86196 23.2947 9.75004 23.1196 9.54246C22.9575 9.32394 22.8841 9.12501 22.8994 8.94566C22.9238 8.65869 23.7244 8.44978 25.3011 8.31891C25.6008 7.3448 25.7831 6.47512 25.8482 5.70988C25.8787 5.35118 26.0135 5.18199 26.2526 5.20233C26.4559 5.21961 26.6958 5.37249 26.9724 5.66096C27.2499 5.93748 27.375 6.23715 27.3475 6.55998C27.3201 6.88282 27.1702 7.44213 26.8977 8.23791C27.5844 8.23608 28.1309 8.25245 28.5375 8.28702C29.2549 8.34803 29.6004 8.53397 29.5739 8.84485C29.5587 9.02421 29.3487 9.15689 28.9439 9.2429C28.5512 9.32993 27.7223 9.44612 26.4575 9.59147C26.126 10.5147 25.7172 11.5699 25.2308 12.7569C24.7455 13.932 24.4917 14.6511 24.4693 14.9141ZM42.3286 9.27916C42.7351 9.31373 43.0984 9.57345 43.4185 10.0583C43.7395 10.5312 43.8858 10.9351 43.8574 11.2699C43.8401 11.4731 43.7358 11.5666 43.5445 11.5504C43.413 11.5392 43.2183 11.4203 42.9606 11.1936C42.7039 10.955 42.4321 10.8235 42.1451 10.7991C41.8581 10.7747 41.3895 10.9034 40.7393 11.1854C40.1011 11.4683 39.7662 11.7951 39.7346 12.1658C39.7112 12.4408 40.2211 12.9598 41.2642 13.723C41.6603 14.0216 42.008 14.3944 42.3072 14.8414C42.6194 15.2774 42.7551 15.7345 42.7144 16.2128C42.6748 16.6791 42.3068 17.1115 41.6105 17.5099C40.9273 17.8974 40.1492 18.0541 39.2763 17.9798C38.4154 17.9066 37.668 17.6323 37.034 17.1569C36.412 16.6825 36.1167 16.2599 36.1482 15.8893C36.1614 15.7338 36.2075 15.6173 36.2863 15.5397C36.3782 15.4512 36.4839 15.412 36.6034 15.4221C36.723 15.4323 36.8838 15.5243 37.0858 15.698C37.6918 16.2192 38.3416 16.5093 39.0351 16.5683C39.7405 16.6283 40.2553 16.5938 40.5794 16.4648C40.9045 16.3238 41.0783 16.1218 41.1006 15.8588C41.124 15.5838 40.975 15.2821 40.6537 14.9537C40.3334 14.6133 39.9742 14.3057 39.576 14.031C39.1898 13.7573 38.8381 13.4323 38.5208 13.0561C38.2036 12.6799 38.0602 12.3124 38.0907 11.9537C38.1446 11.32 38.6967 10.7045 39.7471 10.1074C40.8104 9.49932 41.6709 9.22324 42.3286 9.27916ZM51.1419 10.5345C51.206 10.3472 51.2651 10.2198 51.319 10.1521C51.3729 10.0844 51.4776 10.0572 51.633 10.0704C51.8004 10.0846 51.9845 10.2569 52.1852 10.5871C52.3979 10.9183 52.4921 11.2274 52.4677 11.5143C52.4545 11.6698 52.1131 12.5681 51.4437 14.2092C50.7742 15.8504 50.2538 17.155 49.8824 18.123C49.6962 18.613 49.4716 18.8468 49.2086 18.8245C49.0531 18.8112 48.9272 18.7343 48.8308 18.5936C48.7343 18.4529 48.7009 18.2092 48.7303 17.8625C48.7598 17.5157 48.9507 16.8997 49.303 16.0144C48.7317 16.7847 48.1307 17.408 47.5001 17.8843C46.8694 18.3606 46.309 18.5779 45.8188 18.5362C45.3405 18.4955 44.9055 18.2297 44.5137 17.7387C44.1219 17.2478 43.9463 16.7632 43.987 16.2849C44.0836 15.149 44.5329 13.7601 45.3349 12.1181C46.1499 10.4652 46.7786 9.65759 47.221 9.69521C47.4362 9.71351 47.6129 9.83091 47.751 10.0474C47.9022 10.2529 47.967 10.4813 47.9457 10.7323C47.9365 10.84 47.7421 11.2148 47.3623 11.857C46.9835 12.4871 46.5946 13.2369 46.1955 14.1062C45.7974 14.9635 45.5699 15.727 45.513 16.3966C45.4967 16.5879 45.5428 16.7544 45.6512 16.8961C45.7606 17.0258 45.899 17.0978 46.0664 17.112C46.5207 17.1507 47.0928 16.7959 47.7827 16.0477C48.4846 15.3004 49.1378 14.4166 49.7424 13.3962C50.3471 12.3757 50.8136 11.4218 51.1419 10.5345ZM54.3605 12.5063L54.421 11.1566C54.4688 10.5946 54.6243 10.3248 54.8873 10.3472C55.1145 10.3665 55.317 10.5342 55.4948 10.8504C55.6857 11.1557 55.7638 11.5116 55.7292 11.9181C55.6957 12.3127 55.6583 12.6106 55.6171 12.8119C56.7915 11.322 57.8451 10.6167 58.7777 10.6961C59.3636 10.7459 59.6444 10.9143 59.62 11.2012C59.6078 11.3447 59.5308 11.4707 59.3891 11.579C59.2474 11.6874 59.0265 11.8071 58.7263 11.9382C58.0692 12.1593 57.495 12.538 57.0038 13.0743C56.5256 13.5997 56.1185 14.2094 55.7825 14.9034C55.4464 15.5974 55.1739 16.1824 54.9648 16.6584C54.7677 17.1354 54.6156 17.5079 54.5085 17.7758C54.4014 18.0437 54.2829 18.3046 54.1529 18.5585C53.9209 19.0205 53.6794 19.2408 53.4283 19.2194C53.225 19.2021 53.0673 19.0743 52.9551 18.836C52.8558 18.5867 52.8154 18.3544 52.8337 18.1392C52.853 17.912 52.9922 17.4782 53.2514 16.8379C53.8698 15.373 54.2395 13.9291 54.3605 12.5063ZM66.311 14.3174C66.2571 14.9511 65.8661 15.4417 65.138 15.7893C64.4229 16.1259 63.629 16.2571 62.7561 16.1829C61.8952 16.1097 61.1202 15.9474 60.431 15.6961C60.2189 16.208 60.095 16.6732 60.0594 17.0917C60.0248 17.4982 60.1234 17.8257 60.3552 18.0743C60.5989 18.3238 61.0137 18.4735 61.5996 18.5233C62.1975 18.5742 62.8159 18.5244 63.455 18.374C64.107 18.2127 64.4629 18.1345 64.5227 18.1396C64.8335 18.1661 64.9788 18.2988 64.9585 18.538C64.931 18.8608 64.5363 19.1825 63.7744 19.5031C63.0135 19.8118 62.2863 19.9366 61.5929 19.8776C60.6602 19.7983 59.9243 19.4587 59.3852 18.8589C58.8471 18.2471 58.6142 17.5167 58.6864 16.6678C58.7586 15.8189 59.061 14.9534 59.5937 14.0713C60.1273 13.1773 60.7798 12.444 61.5511 11.8713C62.3224 11.2986 63.0608 11.0422 63.7662 11.1022C64.4717 11.1622 65.0829 11.5514 65.5999 12.2698C66.1288 12.9892 66.3659 13.6717 66.311 14.3174ZM63.7354 12.5267C63.293 12.4891 62.8129 12.6831 62.2949 13.1088C61.778 13.5224 61.3232 14.0558 60.9304 14.7089C61.3996 14.8572 61.939 14.9573 62.5488 15.0091C63.1586 15.061 63.6988 15.0106 64.1695 14.8579C64.6411 14.6933 64.8907 14.4495 64.9181 14.1267C64.9456 13.8039 64.8241 13.4623 64.5536 13.1021C64.2951 12.7429 64.0224 12.5511 63.7354 12.5267ZM77.1933 9.67882C77.2136 9.43968 77.3286 9.22063 77.5382 9.02168C77.7478 8.82273 77.9483 8.73138 78.1396 8.74765C78.3428 8.76494 78.5611 9.03039 78.7944 9.54401C79.0288 10.0457 79.1322 10.4579 79.1048 10.7807C79.0946 10.9003 79.0316 11.0034 78.9159 11.0899C78.8002 11.1764 78.6825 11.2145 78.5629 11.2044C78.276 11.18 77.9679 10.9791 77.6387 10.6019C77.3214 10.2256 77.1729 9.91795 77.1933 9.67882ZM76.887 12.218C77.1142 12.2373 77.3177 12.3931 77.4976 12.6854C77.6775 12.9777 77.7562 13.2554 77.7339 13.5184C77.7115 13.7815 77.471 14.5559 77.0124 15.8417C76.5548 17.1155 75.9939 18.5431 75.3295 20.1245C75.0754 20.705 74.7929 20.9821 74.482 20.9556C74.3146 20.9414 74.1767 20.8634 74.0683 20.7217C73.961 20.5681 73.9144 20.4076 73.9286 20.2402C73.9439 20.0608 74.0091 19.7894 74.1243 19.4258C74.2525 19.0513 74.4268 18.5603 74.647 17.9528C74.8803 17.3344 75.0615 16.8319 75.1907 16.4455C75.3319 16.06 75.4771 15.6268 75.6264 15.1457C75.7767 14.6527 75.8945 14.2592 75.9797 13.9654C76.0779 13.6606 76.182 13.3564 76.2922 13.0526C76.5094 12.4809 76.7077 12.2027 76.887 12.218ZM79.4864 21.4354C79.331 21.4222 79.1732 21.2944 79.0132 21.0519C78.8532 20.8095 78.7792 20.6165 78.7914 20.4731C78.8036 20.3296 78.8873 20.0537 79.0425 19.6454C79.8233 17.544 80.3605 16.0421 80.6541 15.1397C80.1297 15.2155 79.7719 15.2453 79.5806 15.2291C79.3893 15.2128 79.2051 15.1128 79.028 14.9292C78.851 14.7455 78.7711 14.552 78.7884 14.3488C78.8056 14.1455 79.0899 13.989 79.6412 13.8793C80.3489 13.7709 80.8364 13.704 81.1035 13.6785C81.2719 13.1148 81.3992 12.68 81.4854 12.3742C81.9127 10.7486 82.4024 9.5919 82.9547 8.90422C83.5069 8.21654 84.2016 7.90829 85.0385 7.97946C85.6364 8.0303 86.1063 8.31113 86.4482 8.82194C86.7912 9.3208 86.9352 9.89306 86.8803 10.5387C86.8264 11.1724 86.6321 11.4751 86.2973 11.4466C86.0103 11.4222 85.8046 11.0795 85.6802 10.4186C85.6407 10.1744 85.5579 9.94454 85.4317 9.72907C85.3055 9.5136 85.1408 9.39723 84.9375 9.37994C84.7342 9.36266 84.5408 9.44255 84.3571 9.61962C84.1745 9.78474 84.0026 10.0351 83.8416 10.3706C83.4125 11.3097 83.0981 12.1741 82.8985 12.9641L82.7016 13.5796C83.1491 13.5574 83.5881 13.5646 84.0185 13.6013C84.4609 13.6389 84.7737 13.7136 84.9569 13.8256C85.152 13.9385 85.2435 14.0667 85.2313 14.2102C85.212 14.4374 84.9999 14.594 84.5952 14.68C84.1904 14.766 83.406 14.8559 82.2419 14.9496C81.1001 18.3209 80.3458 20.3222 79.979 20.9534C79.7821 21.2859 79.6179 21.4466 79.4864 21.4354ZM97.6673 13.9851C98.2053 14.0309 98.6781 14.3481 99.0857 14.9368C99.4943 15.5135 99.6798 16.023 99.6422 16.4654C99.6056 16.8959 99.4185 17.3255 99.0809 17.7545C99.2092 17.946 99.2677 18.1076 99.2565 18.2391C99.228 18.5739 99.1015 19.1412 98.8769 19.9411C98.6643 20.7419 98.5294 21.2664 98.4722 21.5144C98.4269 21.7635 98.3857 21.9647 98.3486 22.1181C98.3125 22.2596 98.2704 22.4005 98.2223 22.5409C98.149 22.8358 98.0287 22.9761 97.8613 22.9619C97.6461 22.9436 97.4825 22.743 97.3705 22.3601C97.2716 21.9663 97.2355 21.4695 97.2625 20.8696C96.0834 22.1302 95.0395 22.7219 94.1308 22.6446C93.5808 22.5979 93.0566 22.3184 92.5582 21.8064C92.0727 21.2833 91.8514 20.7707 91.8941 20.2686C91.9551 19.5511 92.2934 18.6887 92.909 17.6812C93.5256 16.6618 94.2874 15.7752 95.1946 15.0213C96.1017 14.2675 96.9259 13.9221 97.6673 13.9851ZM98.2238 17.2119C98.3184 16.0999 98.1445 15.5251 97.7021 15.4875C97.2358 15.4478 96.6633 15.7364 95.9846 16.3531C95.3069 16.9578 94.7172 17.6604 94.2156 18.4608C93.714 19.2611 93.4423 19.9064 93.4006 20.3967C93.3834 20.5999 93.4528 20.7745 93.609 20.9202C93.7663 21.054 93.9585 21.1306 94.1856 21.1499C94.7476 21.1977 95.4134 20.8749 96.1829 20.1816C96.9534 19.4764 97.5224 18.5914 97.89 17.5268C97.9411 17.3504 98.0519 17.2515 98.2223 17.2298L98.2238 17.2119ZM107.491 14.8206C107.695 14.8379 107.885 14.9324 108.063 15.1041C108.242 15.2638 108.324 15.4334 108.309 15.6127C108.282 15.9356 107.75 17.0164 106.715 18.8553C105.691 20.6952 104.965 21.9341 104.538 22.5722C104.123 23.1993 103.778 23.5012 103.503 23.4778C103.348 23.4646 103.166 23.3347 102.958 23.0882C102.751 22.8417 102.604 22.5824 102.519 22.3102C102.26 21.5294 102.016 20.2863 101.788 18.5809C101.56 16.8754 101.479 15.634 101.545 14.8568C101.575 14.4981 101.698 14.3279 101.913 14.3462C102.176 14.3686 102.436 14.5051 102.692 14.7556C102.948 14.9942 103.116 15.2855 103.195 15.6295C103.215 15.8238 103.222 16.3062 103.217 17.0765C103.224 18.9799 103.387 20.4571 103.707 21.508C104.089 20.8419 104.585 19.8965 105.195 18.6718C105.806 17.4352 106.296 16.4833 106.666 15.8162C107.049 15.1382 107.324 14.8063 107.491 14.8206ZM113.641 15.3435C114.179 15.3893 114.652 15.7065 115.059 16.2951C115.468 16.8718 115.653 17.3814 115.616 17.8238C115.579 18.2542 115.392 18.6839 115.055 19.1129C115.183 19.3044 115.241 19.466 115.23 19.5975C115.202 19.9323 115.075 20.4996 114.851 21.2995C114.638 22.1003 114.503 22.6248 114.446 22.8728C114.4 23.1219 114.359 23.3231 114.322 23.4765C114.286 23.618 114.244 23.7589 114.196 23.8993C114.123 24.1942 114.002 24.3345 113.835 24.3203C113.62 24.302 113.456 24.1014 113.344 23.7185C113.245 23.3247 113.209 22.8279 113.236 22.228C112.057 23.4886 111.013 24.0803 110.104 24.003C109.554 23.9562 109.03 23.6768 108.532 23.1647C108.046 22.6417 107.825 22.1291 107.868 21.6269C107.929 20.9095 108.267 20.0471 108.883 19.0396C109.499 18.0202 110.261 17.1336 111.168 16.3797C112.075 15.6259 112.9 15.2805 113.641 15.3435ZM114.197 18.5703C114.292 17.4583 114.118 16.8835 113.676 16.8459C113.209 16.8062 112.637 17.0948 111.958 17.7115C111.28 18.3162 110.691 19.0188 110.189 19.8192C109.688 20.6195 109.416 21.2648 109.374 21.7551C109.357 21.9583 109.426 22.1328 109.583 22.2786C109.74 22.4124 109.932 22.489 110.159 22.5083C110.721 22.5561 111.387 22.2333 112.156 21.54C112.927 20.8348 113.496 19.9498 113.864 18.8851C113.915 18.7088 114.025 18.6099 114.196 18.5882L114.197 18.5703ZM119.79 13.3012C119.81 13.062 119.925 12.843 120.134 12.644C120.344 12.4451 120.545 12.3538 120.736 12.37C120.939 12.3873 121.157 12.6528 121.391 13.1664C121.625 13.668 121.728 14.0803 121.701 14.4031C121.691 14.5227 121.628 14.6257 121.512 14.7122C121.396 14.7987 121.279 14.8369 121.159 14.8267C120.872 14.8023 120.564 14.6015 120.235 14.2242C119.918 13.848 119.769 13.5403 119.79 13.3012ZM119.483 15.8404C119.71 15.8597 119.914 16.0155 120.094 16.3078C120.274 16.6001 120.352 16.8778 120.33 17.1408C120.308 17.4039 120.067 18.1783 119.609 19.464C119.151 20.7378 118.59 22.1654 117.926 23.7468C117.672 24.3274 117.389 24.6044 117.078 24.578C116.911 24.5638 116.773 24.4858 116.665 24.3441C116.557 24.1905 116.511 24.0299 116.525 23.8625C116.54 23.6832 116.605 23.4117 116.721 23.0482C116.849 22.6737 117.023 22.1827 117.243 21.5752C117.477 20.9567 117.658 20.4543 117.787 20.0678C117.928 19.6824 118.073 19.2492 118.223 18.7681C118.373 18.275 118.491 17.8816 118.576 17.5878C118.674 17.283 118.778 16.9787 118.888 16.675C119.106 16.1033 119.304 15.8251 119.483 15.8404ZM125.383 12.8013C125.192 15.0492 124.477 17.9271 123.24 21.4348C122.435 23.8231 121.912 25.0072 121.673 24.9868C121.506 24.9726 121.32 24.8243 121.115 24.5419C120.922 24.2606 120.832 24.0481 120.844 23.9047C120.856 23.7612 121.093 23.0346 121.553 21.7249C122.014 20.4152 122.5 18.8007 123.013 16.8812C123.526 14.9497 123.85 13.2009 123.983 11.6345C123.997 11.4671 124.031 11.3496 124.085 11.2819C124.139 11.2142 124.244 11.187 124.399 11.2002C124.555 11.2134 124.761 11.4056 125.019 11.7768C125.289 12.137 125.411 12.4785 125.383 12.8013ZM130.718 16.7958C131.256 16.8415 131.729 17.1587 132.136 17.7474C132.545 18.3241 132.73 18.8336 132.693 19.276C132.656 19.7065 132.469 20.1362 132.132 20.5651C132.26 20.7567 132.318 20.9182 132.307 21.0497C132.279 21.3845 132.152 21.9518 131.928 22.7517C131.715 23.5525 131.58 24.077 131.523 24.325C131.478 24.5741 131.436 24.7753 131.399 24.9287C131.363 25.0702 131.321 25.2111 131.273 25.3516C131.2 25.6464 131.079 25.7867 130.912 25.7725C130.697 25.7542 130.533 25.5536 130.421 25.1707C130.322 24.7769 130.286 24.2801 130.313 23.6802C129.134 24.9408 128.09 25.5325 127.181 25.4552C126.631 25.4085 126.107 25.129 125.609 24.617C125.123 24.094 124.902 23.5814 124.945 23.0792C125.006 22.3618 125.344 21.4993 125.96 20.4919C126.576 19.4724 127.338 18.5858 128.245 17.832C129.152 17.0781 129.977 16.7327 130.718 16.7958ZM131.274 20.0225C131.369 18.9105 131.195 18.3357 130.753 18.2981C130.286 18.2585 129.714 18.547 129.035 19.1637C128.358 19.7684 127.768 20.471 127.266 21.2714C126.765 22.0718 126.493 22.7171 126.451 23.2073C126.434 23.4106 126.503 23.5851 126.66 23.7308C126.817 23.8646 127.009 23.9412 127.236 23.9605C127.798 24.0083 128.464 23.6856 129.233 22.9923C130.004 22.287 130.573 21.402 130.941 20.3374C130.992 20.1611 131.103 20.0621 131.273 20.0405L131.274 20.0225ZM134.369 26.0665C134.202 26.0522 134.015 25.9099 133.809 25.6395C133.604 25.3571 133.512 25.1023 133.531 24.8752C133.55 24.648 133.802 23.8866 134.285 22.5909C134.781 21.2962 135.293 19.732 135.822 17.8982C136.365 16.0536 136.702 14.354 136.834 12.7996C136.864 12.4409 137.011 12.2728 137.274 12.2951C137.466 12.3114 137.684 12.5106 137.928 12.8927C138.174 13.2628 138.282 13.6153 138.254 13.9501C138.129 15.4207 137.627 17.4917 136.75 20.163C138.336 18.3589 139.71 17.5062 140.869 17.6048C141.431 17.6526 141.88 17.9678 142.216 18.5503C142.564 19.1339 142.705 19.8083 142.64 20.5736C142.576 21.3268 142.281 22.1749 141.755 23.1177C141.242 24.0616 140.584 24.8547 139.783 25.4971C138.982 26.1276 138.176 26.4083 137.363 26.3391C136.55 26.27 135.784 25.7893 135.065 24.8972L135.045 24.9136C134.714 25.6923 134.489 26.0766 134.369 26.0665ZM137.338 24.928C138.115 24.9941 138.919 24.5325 139.75 23.5434C140.594 22.5433 141.066 21.4573 141.165 20.2856C141.225 19.5801 141.04 19.2091 140.61 19.1725C139.916 19.1135 139.098 19.5316 138.154 20.4269C137.223 21.3233 136.39 22.4146 135.654 23.7008C136.155 24.466 136.716 24.8751 137.338 24.928ZM147.609 14.6915C147.418 16.9394 146.704 19.8172 145.466 23.3249C144.661 25.7133 144.139 26.8973 143.9 26.8769C143.732 26.8627 143.546 26.7144 143.341 26.432C143.148 26.1507 143.058 25.9383 143.07 25.7948C143.083 25.6513 143.319 24.9247 143.78 23.615C144.24 22.3054 144.727 20.6908 145.239 18.7713C145.753 16.8399 146.076 15.091 146.209 13.5246C146.224 13.3572 146.258 13.2397 146.312 13.172C146.365 13.1044 146.47 13.0771 146.626 13.0904C146.781 13.1036 146.987 13.2958 147.245 13.6669C147.515 14.0271 147.637 14.3686 147.609 14.6915ZM155.077 21.866C155.023 22.4997 154.632 22.9903 153.904 23.3379C153.188 23.6745 152.395 23.8057 151.522 23.7315C150.661 23.6583 149.886 23.496 149.197 23.2447C148.984 23.7566 148.861 24.2218 148.825 24.6402C148.79 25.0468 148.889 25.3743 149.121 25.6228C149.364 25.8724 149.779 26.0221 150.365 26.0719C150.963 26.1227 151.581 26.073 152.221 25.9226C152.873 25.7612 153.228 25.6831 153.288 25.6882C153.599 25.7146 153.744 25.8474 153.724 26.0866C153.697 26.4094 153.302 26.7311 152.54 27.0517C151.779 27.3603 151.052 27.4852 150.358 27.4262C149.426 27.3469 148.69 27.0073 148.151 26.4075C147.613 25.7957 147.38 25.0653 147.452 24.2164C147.524 23.3674 147.827 22.502 148.359 21.6199C148.893 20.7259 149.545 19.9926 150.317 19.4199C151.088 18.8472 151.826 18.5908 152.532 18.6508C153.237 18.7108 153.848 19.1 154.365 19.8184C154.894 20.5378 155.131 21.2203 155.077 21.866ZM152.501 20.0753C152.059 20.0377 151.578 20.2317 151.06 20.6573C150.544 21.071 150.089 21.6044 149.696 22.2575C150.165 22.4058 150.705 22.5058 151.314 22.5577C151.924 22.6096 152.464 22.5591 152.935 22.4065C153.407 22.2418 153.656 21.9981 153.684 21.6753C153.711 21.3524 153.59 21.0109 153.319 20.6507C153.061 20.2915 152.788 20.0997 152.501 20.0753ZM158.89 28.4769C158.603 28.4525 158.284 28.2387 157.932 27.8355C157.594 27.4213 157.436 27.0887 157.457 26.8376C157.479 26.5865 157.601 26.35 157.825 26.1282C158.049 25.8944 158.263 25.7861 158.467 25.8034C158.67 25.8207 158.89 26.1345 159.127 26.7448C159.365 27.3431 159.472 27.7857 159.448 28.0727C159.441 28.1564 159.373 28.247 159.244 28.3444C159.115 28.4419 158.997 28.486 158.89 28.4769ZM160.507 17.107L160.503 17.5764C160.491 17.7199 160.404 17.8209 160.242 17.8794C160.094 17.927 159.96 17.9457 159.84 17.9355C159.733 17.9263 159.577 17.7746 159.373 17.4803C159.169 17.186 159.076 16.9431 159.092 16.7518C159.148 16.0942 159.49 15.5332 160.12 15.0689C160.75 14.6046 161.453 14.4055 162.23 14.4716C163.008 14.5377 163.644 14.8387 164.141 15.3747C164.649 15.9117 164.868 16.5987 164.796 17.4357C164.755 17.9259 164.544 18.4258 164.163 18.9354C163.794 19.446 163.39 19.8813 162.95 20.2413C161.654 21.3233 160.826 22.2044 160.467 22.8844C160.12 23.5655 159.889 23.9492 159.773 24.0357C159.657 24.1223 159.558 24.1619 159.474 24.1548C159.175 24.1294 159.058 23.7341 159.123 22.9688C159.165 22.4786 159.395 21.9683 159.813 21.4378C160.244 20.9084 160.698 20.4532 161.176 20.0724C161.667 19.6806 162.12 19.2433 162.534 18.7607C162.961 18.2672 163.192 17.8231 163.225 17.4285C163.259 17.0339 163.154 16.7119 162.91 16.4623C162.679 16.2018 162.379 16.0558 162.008 16.0243C161.637 15.9928 161.299 16.0784 160.993 16.2812C160.698 16.485 160.536 16.7603 160.507 17.107ZM19.0779 31.5853L19.1385 30.2355C19.1862 29.6736 19.3417 29.4038 19.6047 29.4261C19.8319 29.4455 20.0344 29.6132 20.2123 29.9294C20.4031 30.2347 20.4812 30.5906 20.4466 30.9971C20.4131 31.3917 20.3757 31.6896 20.3345 31.8908C21.509 30.401 22.5625 29.6957 23.4951 29.775C24.081 29.8249 24.3618 29.9933 24.3374 30.2802C24.3252 30.4237 24.2482 30.5496 24.1065 30.658C23.9648 30.7664 23.7439 30.8861 23.4437 31.0172C22.7866 31.2383 22.2125 31.617 21.7212 32.1533C21.243 32.6787 20.8359 33.2884 20.4999 33.9824C20.1639 34.6764 19.8913 35.2614 19.6822 35.7374C19.4851 36.2144 19.333 36.5869 19.2259 36.8548C19.1188 37.1226 19.0003 37.3835 18.8703 37.6374C18.6383 38.0994 18.3968 38.3198 18.1457 38.2984C17.9424 38.2811 17.7847 38.1533 17.6725 37.9149C17.5732 37.6656 17.5328 37.4334 17.5511 37.2182C17.5704 36.991 17.7097 36.5572 17.9689 35.9169C18.5872 34.452 18.9569 33.0081 19.0779 31.5853ZM31.0284 33.3964C30.9745 34.0301 30.5835 34.5207 29.8554 34.8683C29.1403 35.2049 28.3464 35.3361 27.4735 35.2619C26.6126 35.1887 25.8376 35.0264 25.1484 34.7751C24.9363 35.287 24.8124 35.7522 24.7768 36.1706C24.7422 36.5772 24.8408 36.9047 25.0726 37.1532C25.3164 37.4028 25.7312 37.5525 26.317 37.6023C26.9149 37.6531 27.5333 37.6034 28.1724 37.453C28.8244 37.2916 29.1803 37.2135 29.2401 37.2186C29.5509 37.245 29.6962 37.3778 29.6759 37.617C29.6484 37.9398 29.2537 38.2615 28.4918 38.5821C27.731 38.8907 27.0038 39.0156 26.3103 38.9566C25.3776 38.8773 24.6418 38.5377 24.1026 37.9379C23.5646 37.3261 23.3316 36.5957 23.4038 35.7468C23.476 34.8978 23.7784 34.0324 24.3111 33.1503C24.8447 32.2563 25.4972 31.523 26.2685 30.9503C27.0398 30.3776 27.7782 30.1212 28.4837 30.1812C29.1891 30.2412 29.8003 30.6304 30.3173 31.3488C30.8463 32.0682 31.0833 32.7507 31.0284 33.3964ZM28.4528 31.6057C28.0104 31.5681 27.5303 31.7621 27.0123 32.1877C26.4954 32.6014 26.0406 33.1348 25.6478 33.7879C26.117 33.9362 26.6564 34.0362 27.2662 34.0881C27.876 34.14 28.4162 34.0895 28.8869 33.9369C29.3585 33.7722 29.6081 33.5285 29.6355 33.2057C29.663 32.8828 29.5415 32.5413 29.271 32.1811C29.0125 31.8219 28.7398 31.6301 28.4528 31.6057ZM43.8039 31.484C44.1626 31.5145 44.4581 31.7926 44.6904 32.3181C44.9357 32.8328 45.0314 33.407 44.9775 34.0407C44.9246 34.6624 44.7419 35.4658 44.4293 36.4509C44.1286 37.437 43.7574 38.3327 43.3156 39.1382C42.8737 39.9436 42.4734 40.3311 42.1147 40.3006C41.8636 40.2793 41.7518 40.1072 41.7793 39.7843C41.8077 39.4495 42.0796 38.6597 42.595 37.4149C43.1233 36.1592 43.4195 35.1547 43.4835 34.4014C43.5486 33.6361 43.4616 33.2434 43.2224 33.223C42.9235 33.1976 42.5544 33.4312 42.1151 33.9237C41.6877 34.4173 41.2213 35.0159 40.7159 35.7196C40.2104 36.4233 39.9372 36.8035 39.8963 36.8603C39.8563 36.905 39.8024 36.9727 39.7345 37.0633C39.6785 37.1549 39.6101 37.2514 39.5292 37.3529C39.4603 37.4555 39.2654 37.7641 38.9447 38.2787C38.6359 38.7944 38.3666 39.1991 38.1369 39.4926C37.9082 39.7743 37.7161 39.9085 37.5607 39.8953C37.4172 39.8831 37.2639 39.7737 37.1009 39.5671C36.9378 39.3606 36.8633 39.1736 36.8776 39.0062C36.8918 38.8388 37.0289 38.5012 37.2889 37.9934C38.0428 36.4919 38.4767 35.0715 38.5906 33.7324C38.612 33.4813 38.576 33.2675 38.4826 33.0909C38.3902 32.9024 38.2783 32.8026 38.1468 32.7914C38.0152 32.7802 37.8726 32.8283 37.719 32.9357C37.5664 33.0311 37.3697 33.2191 37.1291 33.4997C36.8894 33.7684 36.6748 34.0271 36.485 34.2759C36.2952 34.5247 36.0031 34.9154 35.6085 35.4479C35.227 35.9694 34.9348 36.3601 34.7321 36.6198C34.5423 36.8686 34.3186 37.1627 34.0609 37.5021C33.8042 37.8295 33.602 38.0833 33.4542 38.2634C33.3184 38.4446 33.1631 38.6421 32.9883 38.8561C32.6279 39.271 32.3699 39.4719 32.2145 39.4587C32.071 39.4465 31.8909 39.2987 31.6741 39.0153C31.4583 38.72 31.3561 38.5065 31.3672 38.375C31.3795 38.2315 31.4181 38.0602 31.4832 37.861C31.5483 37.6618 31.6129 37.4686 31.677 37.2813C31.7531 37.0951 31.8607 36.8212 31.9998 36.4597C32.1519 36.0873 32.3211 35.6561 32.5073 35.1661C32.7064 34.6651 32.8795 33.9753 33.0265 33.0966C33.1864 32.207 33.3016 31.5604 33.3721 31.1569C33.4435 30.7415 33.563 30.5409 33.7304 30.5551C33.9934 30.5775 34.2388 30.7369 34.4665 31.0332C34.7062 31.3306 34.8143 31.6168 34.7909 31.8918C34.7014 32.944 34.1594 34.6442 33.1649 36.9924C34.7176 34.5953 35.6871 33.1784 36.0735 32.7415C36.4599 32.3047 36.7909 31.9535 37.0664 31.6879C37.5764 31.2134 38.0706 30.9965 38.5488 31.0371C38.8358 31.0615 39.1552 31.3416 39.5071 31.8774C39.8719 32.4022 40.033 32.9157 39.9903 33.4178C39.9476 33.92 39.823 34.5357 39.6165 35.2648C41.2602 32.6467 42.656 31.3864 43.8039 31.484ZM48.9867 29.3595C49.007 29.1204 49.122 28.9014 49.3316 28.7024C49.5412 28.5035 49.7417 28.4121 49.933 28.4284C50.1363 28.4457 50.3546 28.7111 50.5879 29.2247C50.8222 29.7264 50.9257 30.1386 50.8982 30.4615C50.888 30.581 50.8251 30.6841 50.7093 30.7706C50.5936 30.8571 50.4759 30.8953 50.3564 30.8851C50.0694 30.8607 49.7613 30.6599 49.4321 30.2826C49.1148 29.9064 48.9664 29.5987 48.9867 29.3595ZM48.6804 31.8987C48.9076 31.918 49.1112 32.0739 49.291 32.3661C49.4709 32.6584 49.5497 32.9361 49.5273 33.1992C49.5049 33.4622 49.2644 34.2366 48.8059 35.5224C48.3483 36.7962 47.7873 38.2238 47.1229 39.8052C46.8688 40.3857 46.5863 40.6628 46.2754 40.6364C46.108 40.6221 45.9701 40.5442 45.8618 40.4025C45.7544 40.2488 45.7078 40.0883 45.7221 39.9209C45.7373 39.7416 45.8025 39.4701 45.9178 39.1066C46.046 38.7321 46.2202 38.2411 46.4405 37.6336C46.6737 37.0151 46.8549 36.5126 46.9841 36.1262C47.1253 35.7408 47.2705 35.3075 47.4198 34.8264C47.5702 34.3334 47.6879 33.94 47.7731 33.6461C47.8713 33.3414 47.9755 33.0371 48.0856 32.7333C48.3028 32.1617 48.5011 31.8835 48.6804 31.8987ZM52.0146 37.9992C53.3282 36.1478 54.3838 34.7804 55.1816 33.8968C55.9923 33.0023 56.6248 32.5743 57.0792 32.613C57.5455 32.6526 57.9611 32.9348 58.3259 33.4596C58.7027 33.9855 58.8677 34.5234 58.821 35.0734C58.7478 35.9343 58.461 36.9697 57.9607 38.1797C57.048 40.4144 56.3048 41.5073 55.7308 41.4585C55.4678 41.4361 55.3515 41.2456 55.382 40.8869C55.4034 40.6358 55.5721 40.1383 55.8883 39.3944C56.2174 38.6396 56.5211 37.9007 56.7994 37.1777C57.0906 36.4437 57.252 35.8914 57.2835 35.5207C57.3161 35.1381 57.2802 34.852 57.1759 34.6625C57.0835 34.474 56.9776 34.3747 56.858 34.3645C56.7504 34.3554 56.6337 34.3816 56.5081 34.4431C56.3824 34.5047 56.2347 34.6126 56.065 34.7668C55.9073 34.922 55.7556 35.0777 55.6098 35.2339C55.4651 35.3781 55.2784 35.5911 55.0497 35.8727C54.833 36.1554 54.6497 36.3987 54.4998 36.6027C54.351 36.7948 54.1343 37.0775 53.8497 37.4507C53.565 37.8239 53.3483 38.1066 53.1995 38.2987C53.0507 38.4907 52.8539 38.751 52.6092 39.0795C52.3645 39.4079 52.1682 39.6622 52.0204 39.8423C51.8846 40.0234 51.7293 40.221 51.5545 40.435C51.218 40.8519 50.96 41.0528 50.7807 41.0376C50.6133 41.0233 50.4272 40.875 50.2224 40.5927C50.0186 40.2983 49.9253 40.0495 49.9426 39.8463C49.9477 39.7865 50.0033 39.6286 50.1094 39.3727C50.3955 38.6985 50.7193 37.8649 51.0807 36.872C51.4432 35.8671 51.6918 34.714 51.8265 33.4128C51.9366 32.543 52.0993 32.1172 52.3145 32.1355C52.5776 32.1579 52.8289 32.3178 53.0686 32.6151C53.3083 32.9125 53.4138 33.2286 53.3854 33.5634C53.3579 33.8862 53.2024 34.5113 52.9188 35.4386C52.6482 36.355 52.3468 37.2085 52.0146 37.9992ZM68.4145 28.5187C68.6058 28.535 68.8238 28.7342 69.0683 29.1163C69.3257 29.4874 69.4413 29.8284 69.4148 30.1393C69.3884 30.4502 69.1637 31.3223 68.7407 32.7556C68.3187 34.177 67.8444 35.648 67.3176 37.1689C66.1598 40.5871 65.4434 42.2845 65.1684 42.2611C65.001 42.2469 64.8243 42.1295 64.6384 41.9089C64.4653 41.6774 64.3855 41.4839 64.3987 41.3285C64.4119 41.1731 64.4802 40.8657 64.6035 40.4066C63.3301 41.5026 62.2569 42.0135 61.3841 41.9393C60.858 41.8945 60.4 41.6147 60.0103 41.0998C59.6324 40.586 59.4654 40.072 59.5091 39.5578C59.5722 38.8165 59.8442 37.9545 60.3252 36.9717C60.8192 35.978 61.4784 35.0946 62.3028 34.3217C63.1273 33.5488 63.964 33.1984 64.8129 33.2706C65.6619 33.3428 66.2105 33.9013 66.4589 34.9461C67.2842 32.4631 67.7894 30.4888 67.9742 29.0232C68.0047 28.6645 68.1515 28.4963 68.4145 28.5187ZM65.6928 37.1572C65.7477 36.5115 65.6804 35.9578 65.4908 35.4961C65.3132 35.0354 65.069 34.7918 64.7581 34.7654C64.2439 34.7216 63.6909 34.9938 63.0989 35.5817C62.507 36.1697 62.0145 36.8624 61.6215 37.66C61.2415 38.4466 61.0261 39.1389 60.9752 39.7367C60.9569 39.9519 61.0199 40.1319 61.1642 40.2767C61.3084 40.4214 61.4882 40.5029 61.7034 40.5212C62.1697 40.5609 62.8259 40.2795 63.672 39.677C64.53 39.0755 65.1771 38.3357 65.613 37.4575L65.6852 37.2468L65.6928 37.1572ZM88.064 35.2479C88.4228 35.2784 88.7183 35.5564 88.9506 36.082C89.1958 36.5966 89.2915 37.1708 89.2376 37.8045C89.1848 38.4263 89.002 39.2297 88.6894 40.2148C88.3888 41.2008 88.0176 42.0966 87.5757 42.902C87.1339 43.7075 86.7336 44.095 86.3749 44.0645C86.1238 44.0431 86.012 43.871 86.0394 43.5482C86.0679 43.2134 86.3398 42.4236 86.8552 41.1788C87.3835 39.923 87.6796 38.9185 87.7437 38.1652C87.8088 37.4 87.7217 37.0072 87.4826 36.9869C87.1837 36.9615 86.8146 37.195 86.3753 37.6876C85.9479 38.1811 85.4815 38.7798 84.976 39.4835C84.4706 40.1872 84.1974 40.5674 84.1564 40.6241C84.1165 40.6689 84.0626 40.7366 83.9947 40.8271C83.9387 40.9187 83.8703 41.0153 83.7894 41.1168C83.7204 41.2193 83.5256 41.5279 83.2048 42.0426C82.896 42.5583 82.6268 42.9629 82.3971 43.2565C82.1684 43.5381 81.9763 43.6724 81.8209 43.6591C81.6774 43.6469 81.5241 43.5376 81.361 43.331C81.1979 43.1244 81.1235 42.9375 81.1378 42.7701C81.152 42.6027 81.2891 42.2651 81.5491 41.7573C82.303 40.2558 82.7369 38.8354 82.8508 37.4962C82.8721 37.2451 82.8361 37.0313 82.7428 36.8548C82.6504 36.6663 82.5384 36.5664 82.4069 36.5552C82.2754 36.5441 82.1328 36.5922 81.9792 36.6995C81.8265 36.7949 81.6299 36.9829 81.3892 37.2636C81.1496 37.5322 80.9349 37.791 80.7452 38.0398C80.5554 38.2886 80.2632 38.6792 79.8687 39.2117C79.4871 39.7333 79.195 40.1239 78.9922 40.3837C78.8025 40.6325 78.5788 40.9266 78.3211 41.266C78.0644 41.5934 77.8622 41.8472 77.7144 42.0273C77.5785 42.2085 77.4232 42.406 77.2485 42.62C76.888 43.0349 76.6301 43.2358 76.4746 43.2226C76.3312 43.2104 76.151 43.0626 75.9343 42.7792C75.7185 42.4838 75.6162 42.2704 75.6274 42.1389C75.6396 41.9954 75.6783 41.8241 75.7434 41.6249C75.8085 41.4257 75.8731 41.2324 75.9372 41.0452C76.0133 40.859 76.1209 40.5851 76.26 40.2236C76.4121 39.8511 76.5812 39.4199 76.7674 38.9299C76.9666 38.429 77.1397 37.7392 77.2866 36.8605C77.4466 35.9708 77.5618 35.3243 77.6322 34.9208C77.7037 34.5054 77.8231 34.3048 77.9905 34.319C78.2536 34.3414 78.499 34.5007 78.7267 34.7971C78.9663 35.0945 79.0745 35.3807 79.0511 35.6557C78.9616 36.7079 78.4196 38.408 77.425 40.7562C78.9777 38.3592 79.9473 36.9422 80.3337 36.5054C80.7201 36.0686 81.051 35.7173 81.3265 35.4517C81.8366 34.9772 82.3307 34.7603 82.809 34.801C83.096 34.8254 83.4154 35.1055 83.7673 35.6412C84.1321 36.166 84.2932 36.6795 84.2505 37.1817C84.2078 37.6839 84.0832 38.2996 83.8766 39.0287C85.5204 36.4105 86.9162 35.1503 88.064 35.2479ZM97.6376 39.0608C97.5837 39.6945 97.1927 40.1852 96.4646 40.5327C95.7495 40.8693 94.9556 41.0005 94.0827 40.9263C93.2218 40.8531 92.4468 40.6908 91.7576 40.4395C91.5455 40.9514 91.4216 41.4166 91.386 41.8351C91.3514 42.2416 91.45 42.5691 91.6818 42.8177C91.9255 43.0672 92.3404 43.2169 92.9262 43.2667C93.5241 43.3176 94.1425 43.2678 94.7816 43.1174C95.4336 42.9561 95.7895 42.8779 95.8493 42.883C96.1601 42.9095 96.3054 43.0422 96.2851 43.2814C96.2576 43.6042 95.8629 43.9259 95.101 44.2465C94.3401 44.5552 93.613 44.68 92.9195 44.621C91.9868 44.5417 91.251 44.2021 90.7118 43.6023C90.1737 42.9905 89.9408 42.2601 90.013 41.4112C90.0852 40.5623 90.3876 39.6968 90.9203 38.8147C91.4539 37.9207 92.1064 37.1874 92.8777 36.6147C93.649 36.042 94.3874 35.7856 95.0928 35.8456C95.7983 35.9056 96.4095 36.2948 96.9265 37.0132C97.4555 37.7326 97.6925 38.4151 97.6376 39.0608ZM95.062 37.2701C94.6196 37.2325 94.1395 37.4265 93.6215 37.8522C93.1046 38.2659 92.6498 38.7992 92.257 39.4523C92.7262 39.6006 93.2656 39.7007 93.8754 39.7525C94.4852 39.8044 95.0254 39.754 95.4961 39.6013C95.9677 39.4367 96.2173 39.1929 96.2447 38.8701C96.2722 38.5473 96.1507 38.2057 95.8802 37.8455C95.6217 37.4863 95.349 37.2945 95.062 37.2701ZM109.84 33.559C109.649 35.8068 108.934 38.6847 107.697 42.1924C106.891 44.5808 106.369 45.7648 106.13 45.7444C105.963 45.7302 105.776 45.5819 105.572 45.2995C105.379 45.0182 105.288 44.8058 105.301 44.6623C105.313 44.5188 105.549 43.7922 106.01 42.4825C106.47 41.1729 106.957 39.5583 107.47 37.6388C107.983 35.7074 108.306 33.9585 108.44 32.3921C108.454 32.2247 108.488 32.1072 108.542 32.0395C108.596 31.9718 108.7 31.9446 108.856 31.9578C109.011 31.9711 109.218 32.1632 109.475 32.5344C109.746 32.8946 109.867 33.2361 109.84 33.559ZM115.175 37.5534C115.713 37.5991 116.185 37.9163 116.593 38.505C117.002 39.0817 117.187 39.5912 117.15 40.0336C117.113 40.4641 116.926 40.8938 116.588 41.3227C116.717 41.5143 116.775 41.6758 116.764 41.8073C116.735 42.1421 116.609 42.7094 116.384 43.5093C116.172 44.3102 116.037 44.8346 115.98 45.0826C115.934 45.3317 115.893 45.5329 115.856 45.6863C115.82 45.8278 115.778 45.9687 115.73 46.1092C115.656 46.404 115.536 46.5443 115.369 46.5301C115.153 46.5118 114.99 46.3112 114.878 45.9283C114.779 45.5345 114.743 45.0377 114.77 44.4378C113.591 45.6985 112.547 46.2901 111.638 46.2129C111.088 46.1661 110.564 45.8867 110.066 45.3746C109.58 44.8516 109.359 44.339 109.401 43.8368C109.462 43.1194 109.801 42.2569 110.416 41.2495C111.033 40.2301 111.795 39.3434 112.702 38.5896C113.609 37.8357 114.433 37.4903 115.175 37.5534ZM115.731 40.7801C115.826 39.6681 115.652 39.0933 115.209 39.0557C114.743 39.0161 114.171 39.3046 113.492 39.9213C112.814 40.5261 112.225 41.2286 111.723 42.029C111.221 42.8294 110.95 43.4747 110.908 43.9649C110.891 44.1682 110.96 44.3427 111.116 44.4884C111.274 44.6222 111.466 44.6988 111.693 44.7181C112.255 44.7659 112.921 44.4432 113.69 43.7499C114.461 43.0446 115.03 42.1597 115.397 41.095C115.448 40.9187 115.559 40.8197 115.73 40.7981L115.731 40.7801ZM120.216 45.1358C120.196 45.363 120.318 45.4877 120.581 45.5101C121.036 45.5488 121.596 45.47 122.263 45.2738C122.943 45.0667 123.319 44.9662 123.391 44.9723C123.606 44.9906 123.704 45.1133 123.685 45.3405C123.655 45.6872 123.263 46.0573 122.507 46.4506C121.762 46.845 121.097 47.0173 120.512 46.9674C119.938 46.9186 119.473 46.7225 119.116 46.3791C118.761 46.0237 118.598 45.6787 118.626 45.3439C118.655 45.0091 118.763 44.5907 118.95 44.0888C119.138 43.5749 119.4 42.9046 119.735 42.0781C120.083 41.2406 120.359 40.5474 120.562 39.9987C119.989 40.0824 119.607 40.1161 119.416 40.0999C119.224 40.0836 119.041 39.9717 118.866 39.7641C118.704 39.5456 118.631 39.3467 118.646 39.1673C118.67 38.8803 119.471 38.6714 121.048 38.5406C121.347 37.5664 121.53 36.6968 121.595 35.9315C121.625 35.5728 121.76 35.4036 121.999 35.424C122.202 35.4413 122.442 35.5941 122.719 35.8826C122.996 36.1591 123.121 36.4588 123.094 36.7816C123.067 37.1045 122.917 37.6638 122.644 38.4596C123.331 38.4577 123.877 38.4741 124.284 38.5087C125.001 38.5697 125.347 38.7556 125.32 39.0665C125.305 39.2459 125.095 39.3785 124.69 39.4645C124.298 39.5516 123.469 39.6678 122.204 39.8131C121.872 40.7364 121.464 41.7915 120.977 42.9786C120.492 44.1537 120.238 44.8727 120.216 45.1358ZM132.65 42.0382C132.596 42.672 132.205 43.1626 131.477 43.5101C130.762 43.8468 129.968 43.978 129.095 43.9037C128.234 43.8305 127.459 43.6683 126.77 43.417C126.558 43.9288 126.434 44.394 126.398 44.8125C126.364 45.219 126.462 45.5466 126.694 45.7951C126.938 46.0446 127.353 46.1943 127.939 46.2442C128.536 46.295 129.155 46.2452 129.794 46.0948C130.446 45.9335 130.802 45.8554 130.862 45.8605C131.172 45.8869 131.318 46.0197 131.297 46.2588C131.27 46.5817 130.875 46.9034 130.113 47.224C129.352 47.5326 128.625 47.6574 127.932 47.5985C126.999 47.5191 126.263 47.1796 125.724 46.5797C125.186 45.9679 124.953 45.2376 125.025 44.3886C125.097 43.5397 125.4 42.6742 125.933 41.7922C126.466 40.8982 127.119 40.1648 127.89 39.5921C128.661 39.0194 129.4 38.7631 130.105 38.8231C130.811 38.883 131.422 39.2722 131.939 39.9906C132.468 40.71 132.705 41.3926 132.65 42.0382ZM130.074 40.2476C129.632 40.2099 129.152 40.404 128.634 40.8296C128.117 41.2433 127.662 41.7767 127.269 42.4297C127.738 42.578 128.278 42.6781 128.888 42.7299C129.498 42.7818 130.038 42.7314 130.508 42.5787C130.98 42.4141 131.23 42.1704 131.257 41.8475C131.284 41.5247 131.163 41.1832 130.893 40.823C130.634 40.4638 130.361 40.272 130.074 40.2476ZM134.711 41.4187L134.772 40.069C134.82 39.507 134.975 39.2372 135.238 39.2596C135.465 39.2789 135.668 39.4466 135.846 39.7629C136.036 40.0681 136.115 40.424 136.08 40.8305C136.046 41.2251 136.009 41.523 135.968 41.7243C137.142 40.2344 138.196 39.5292 139.129 39.6085C139.714 39.6583 139.995 39.8267 139.971 40.1136C139.959 40.2571 139.882 40.3831 139.74 40.4914C139.598 40.5998 139.377 40.7195 139.077 40.8506C138.42 41.0717 137.846 41.4504 137.355 41.9867C136.876 42.5121 136.469 43.1218 136.133 43.8158C135.797 44.5098 135.525 45.0948 135.316 45.5708C135.119 46.0478 134.966 46.4203 134.859 46.6882C134.752 46.9561 134.634 47.217 134.504 47.4709C134.272 47.9329 134.03 48.1532 133.779 48.1318C133.576 48.1146 133.418 47.9867 133.306 47.7484C133.207 47.4991 133.166 47.2668 133.185 47.0516C133.204 46.8244 133.343 46.3906 133.602 45.7503C134.221 44.2854 134.59 42.8415 134.711 41.4187ZM140.134 46.7032C140.359 46.4694 140.573 46.3611 140.776 46.3784C140.979 46.3957 141.199 46.7095 141.436 47.3198C141.675 47.9181 141.781 48.3607 141.757 48.6477C141.75 48.7314 141.682 48.822 141.553 48.9194C141.425 49.0169 141.306 49.061 141.199 49.0519C140.9 49.0264 140.581 48.8126 140.242 48.4104C139.904 47.9963 139.745 47.6697 139.765 47.4305C139.786 47.1794 139.909 46.937 140.134 46.7032ZM143.497 34.5605C143.724 34.5798 144.023 34.7497 144.393 35.0702C144.763 35.3907 144.941 35.6347 144.927 35.8021C144.841 36.8184 144.425 38.5836 143.682 41.0976C142.95 43.6127 142.429 44.857 142.118 44.8305C141.927 44.8143 141.755 44.7034 141.604 44.4978C141.454 44.2803 141.388 44.064 141.406 43.8487C141.401 43.776 141.509 43.3516 141.731 42.5757C141.966 41.8008 142.233 40.7095 142.534 39.3019C142.835 37.8823 143.047 36.4492 143.17 35.0024C143.197 34.6915 143.306 34.5442 143.497 34.5605Z" fill="#555D80"/>
<path d="M56.1602 56.9141C57.7505 75.6154 41.0416 77.8585 30.472 77.9352" stroke="#555D80"/>
<path d="M28.5311 81.6931L24.5903 78.3002L27.9795 74.7949" stroke="#555D80" stroke-linecap="round" stroke-linejoin="round"/>
</svg>
