<svg width="22" height="22" viewBox="0 0 22 22" fill="none" xmlns="http://www.w3.org/2000/svg">
<path d="M13.7429 0.971193C13.8414 0.971017 13.939 0.990268 14.0302 1.02785C14.1213 1.06542 14.2041 1.12059 14.2739 1.19019L21.6989 8.61519C21.8395 8.75584 21.9185 8.94657 21.9185 9.14544C21.9185 9.34432 21.8395 9.53505 21.6989 9.67569C20.9789 10.3957 20.0909 10.5577 19.4444 10.5577C19.1789 10.5577 18.9419 10.5307 18.7544 10.4992L14.0534 15.2002C14.1771 15.6988 14.2574 16.2072 14.2934 16.7197C14.3624 17.7727 14.2454 19.2502 13.2134 20.2822C13.0727 20.4228 12.882 20.5018 12.6831 20.5018C12.4842 20.5018 12.2935 20.4228 12.1529 20.2822L7.90936 16.0402L3.13636 20.8132C2.84386 21.1057 1.30786 22.1662 1.01536 21.8737C0.722861 21.5812 1.78336 20.0437 2.07586 19.7527L6.84886 14.9797L2.60686 10.7362C2.46626 10.5955 2.38727 10.4048 2.38727 10.2059C2.38727 10.0071 2.46626 9.81634 2.60686 9.67569C3.63886 8.64369 5.11636 8.52519 6.16936 8.59569C6.68185 8.6316 7.19025 8.7119 7.68886 8.83569L12.3899 4.13619C12.3506 3.90777 12.3306 3.67646 12.3299 3.44469C12.3299 2.79969 12.4919 1.91169 13.2134 1.19019C13.3539 1.04999 13.5443 0.971235 13.7429 0.971193Z" fill="#586795"/>
</svg>
