<svg width="66" height="67" viewBox="0 0 66 67" fill="none" xmlns="http://www.w3.org/2000/svg">
<circle cx="33" cy="33.5923" r="29" fill="white"/>
<circle cx="33" cy="33.5923" r="29" fill="#1254FF" fill-opacity="0.1"/>
<circle cx="33" cy="33.5923" r="29" stroke="white" stroke-width="8"/>
<path d="M34.3701 23.6861C31.9774 23.357 29.5463 23.9047 27.5259 25.2281C25.5055 26.5515 24.0321 28.5612 23.3779 30.8862C22.7236 33.2111 22.9327 35.6943 23.9665 37.8772C25.0002 40.06 26.7889 41.7951 29.0021 42.7621C28.9422 41.9939 28.9972 41.2211 29.1651 40.4691C29.3501 39.6301 30.4611 35.0061 30.4611 35.0061C30.2399 34.5102 30.1293 33.9721 30.1371 33.4291C30.1371 31.9441 30.9941 30.8361 32.0601 30.8361C32.2516 30.8333 32.4415 30.8718 32.6168 30.9489C32.7921 31.0261 32.9487 31.1401 33.076 31.2831C33.2034 31.4262 33.2984 31.595 33.3547 31.7781C33.4109 31.9612 33.4271 32.1542 33.4021 32.3441C33.4021 33.2441 32.8241 34.6061 32.5221 35.8841C32.4624 36.1185 32.4586 36.3636 32.511 36.5997C32.5635 36.8358 32.6706 37.0563 32.8239 37.2435C32.9771 37.4306 33.1722 37.5791 33.3933 37.677C33.6145 37.7749 33.8555 37.8195 34.0971 37.8071C35.9951 37.8071 37.2671 35.3761 37.2671 32.5061C37.2671 30.3061 35.8101 28.6581 33.1241 28.6581C32.4815 28.6331 31.8405 28.739 31.24 28.9694C30.6396 29.1997 30.0922 29.5497 29.6311 29.998C29.1701 30.4463 28.805 30.9837 28.5579 31.5775C28.3109 32.1713 28.1871 32.809 28.1941 33.4521C28.1655 34.1654 28.3956 34.8651 28.8421 35.4221C28.9255 35.4844 28.9864 35.5721 29.0157 35.672C29.0449 35.772 29.0408 35.8787 29.0041 35.9761C28.9581 36.1601 28.8421 36.5991 28.7961 36.7601C28.7865 36.8147 28.7643 36.8663 28.7311 36.9107C28.698 36.9552 28.6548 36.9912 28.6052 37.0159C28.5556 37.0406 28.5009 37.0533 28.4455 37.053C28.39 37.0527 28.3354 37.0394 28.2861 37.0141C26.9021 36.4601 26.2501 34.9371 26.2501 33.1981C26.2501 30.3511 28.6341 26.9431 33.4041 26.9431C37.2001 26.9431 39.7241 29.7201 39.7241 32.6901C39.7241 36.5991 37.5471 39.5381 34.3301 39.5381C33.8493 39.5535 33.3724 39.4474 32.9434 39.2296C32.5145 39.0118 32.1474 38.6894 31.8761 38.2921C31.8761 38.2921 31.2981 40.6081 31.1841 41.0461C30.9514 41.8028 30.608 42.5209 30.1651 43.1771C31.0881 43.4571 32.0471 43.5971 33.0111 43.5931C34.3247 43.5942 35.6256 43.3361 36.8393 42.8337C38.053 42.3313 39.1556 41.5944 40.0842 40.6652C41.0127 39.7361 41.7488 38.6329 42.2504 37.4188C42.7519 36.2048 43.0091 34.9037 43.0071 33.5901C43.0059 31.1751 42.1309 28.8421 40.5437 27.0219C38.9566 25.2017 36.7644 24.0172 34.3721 23.6871L34.3701 23.6861Z" fill="#1254FF"/>
</svg>
