<svg width="13" height="16" viewBox="0 0 13 16" fill="none" xmlns="http://www.w3.org/2000/svg">
<path d="M11.876 8.41534L1.277 15.4813C1.20171 15.5314 1.11423 15.5602 1.02389 15.5645C0.933553 15.5688 0.843733 15.5486 0.763999 15.5059C0.684265 15.4632 0.617604 15.3997 0.571114 15.3221C0.524624 15.2445 0.500047 15.1558 0.5 15.0653V0.933336C0.500047 0.842894 0.524624 0.754158 0.571114 0.676579C0.617604 0.599 0.684265 0.535484 0.763999 0.492795C0.843733 0.450106 0.933553 0.429843 1.02389 0.434165C1.11423 0.438487 1.20171 0.467231 1.277 0.517336L11.876 7.58334C11.9445 7.629 12.0006 7.69086 12.0395 7.76343C12.0783 7.836 12.0986 7.91703 12.0986 7.99934C12.0986 8.08164 12.0783 8.16267 12.0395 8.23524C12.0006 8.30781 11.9445 8.36967 11.876 8.41534Z" fill="#1254FF"/>
</svg>
