<svg width="20" height="20" viewBox="0 0 20 20" fill="none" xmlns="http://www.w3.org/2000/svg">
<path d="M6.45968 4.5325L15.2163 9.64083C15.2791 9.67757 15.3311 9.73009 15.3673 9.79317C15.4035 9.85625 15.4225 9.9277 15.4225 10.0004C15.4225 10.0731 15.4035 10.1446 15.3673 10.2077C15.3311 10.2707 15.2791 10.3233 15.2163 10.36L6.45968 15.4683C6.39623 15.5054 6.32413 15.5249 6.25067 15.5251C6.17722 15.5253 6.10502 15.5061 6.0414 15.4693C5.97778 15.4326 5.925 15.3797 5.8884 15.316C5.8518 15.2524 5.8327 15.1801 5.83301 15.1067V4.8925C5.83299 4.81918 5.85231 4.74716 5.88903 4.6837C5.92575 4.62025 5.97856 4.5676 6.04213 4.53108C6.1057 4.49456 6.17778 4.47546 6.25109 4.47571C6.32441 4.47596 6.39636 4.49555 6.45968 4.5325Z" fill="#1254FF"/>
</svg>
