<svg width="33" height="32" viewBox="0 0 33 32" fill="none" xmlns="http://www.w3.org/2000/svg">
<path d="M10.6101 7.33607L24.4839 15.4296C24.5833 15.4878 24.6658 15.571 24.7231 15.6709C24.7804 15.7709 24.8106 15.8841 24.8106 15.9993C24.8106 16.1145 24.7804 16.2277 24.7231 16.3277C24.6658 16.4276 24.5833 16.5108 24.4839 16.569L10.6101 24.6625C10.5095 24.7212 10.3953 24.7522 10.2789 24.7525C10.1625 24.7528 10.0482 24.7223 9.94736 24.6641C9.84656 24.606 9.76293 24.5222 9.70495 24.4213C9.64697 24.3203 9.61669 24.2059 9.61719 24.0895V7.90645C9.61716 7.79029 9.64777 7.67618 9.70595 7.57564C9.76412 7.4751 9.84779 7.39169 9.94851 7.33382C10.0492 7.27596 10.1634 7.2457 10.2796 7.2461C10.3957 7.24649 10.5097 7.27753 10.6101 7.33607Z" fill="white"/>
</svg>
