<svg width="18" height="18" viewBox="0 0 18 18" fill="none" xmlns="http://www.w3.org/2000/svg">
<path d="M3.82552 2.89453H15.1589C15.3467 2.89453 15.5269 2.96916 15.6597 3.102C15.7926 3.23484 15.8672 3.415 15.8672 3.60286V14.9362C15.8672 15.1241 15.7926 15.3042 15.6597 15.4371C15.5269 15.5699 15.3467 15.6445 15.1589 15.6445H3.82552C3.63766 15.6445 3.45749 15.5699 3.32465 15.4371C3.19182 15.3042 3.11719 15.1241 3.11719 14.9362V3.60286C3.11719 3.415 3.19182 3.23484 3.32465 3.102C3.45749 2.96916 3.63766 2.89453 3.82552 2.89453ZM8.78385 8.5612H5.95052V9.97786H8.78385V12.8112H10.2005V9.97786H13.0339V8.5612H10.2005V5.72786H8.78385V8.5612Z" fill="white"/>
</svg>
