<svg width="170" height="170" viewBox="0 0 170 170" fill="none" xmlns="http://www.w3.org/2000/svg">
<circle cx="85" cy="85" r="37" fill="#1254FF"/>
<g opacity="0.5">
<circle cx="85" cy="85" r="59.5" stroke="#1254FF" stroke-opacity="0.5"/>
<circle cx="85" cy="85" r="84.5" stroke="#1254FF" stroke-opacity="0.2"/>
</g>
<path d="M74.5002 72.5H95.5002C95.8096 72.5 96.1063 72.6229 96.3251 72.8417C96.5439 73.0605 96.6668 73.3572 96.6668 73.6667V92.3333C96.6668 92.6428 96.5439 92.9395 96.3251 93.1583C96.1063 93.3771 95.8096 93.5 95.5002 93.5H74.5002C74.1907 93.5 73.894 93.3771 73.6752 93.1583C73.4564 92.9395 73.3335 92.6428 73.3335 92.3333V73.6667C73.3335 73.3572 73.4564 73.0605 73.6752 72.8417C73.894 72.6229 74.1907 72.5 74.5002 72.5ZM94.3335 81.8333H75.6668V91.1667H94.3335V81.8333ZM94.3335 79.5V74.8333H75.6668V79.5H94.3335ZM81.5002 76H83.8335V78.3333H81.5002V76ZM76.8335 76H79.1668V78.3333H76.8335V76Z" fill="white"/>
</svg>
