<svg width="14" height="15" viewBox="0 0 14 15" fill="none" xmlns="http://www.w3.org/2000/svg">
<path d="M5.71648 8.39998C4.83234 8.39998 4.38317 9.46315 4.99949 10.0971L7.44178 12.6091C7.77653 12.9534 7.77653 13.5015 7.44178 13.8458C7.09344 14.2041 6.51806 14.2041 6.16972 13.8458L0.677744 8.19709C0.300392 7.80897 0.300391 7.19104 0.677744 6.80291L6.16972 1.15419C6.51806 0.795906 7.09344 0.795905 7.44178 1.15418C7.77653 1.49848 7.77653 2.04664 7.44178 2.39095L4.99949 4.90294C4.38317 5.53685 4.83234 6.60003 5.71648 6.60003L13.1 6.60003C13.5971 6.60003 14 7.00296 14 7.5C14 7.99704 13.5971 8.39997 13.1 8.39997L5.71648 8.39998Z" fill="white"/>
</svg>
