<svg width="16" height="16" viewBox="0 0 16 16" fill="none" xmlns="http://www.w3.org/2000/svg">
<path d="M5.66664 13.3333H10.336C9.89493 14.3882 9.05618 15.227 8.0013 15.668C6.94642 15.227 6.10768 14.3882 5.66664 13.3333V13.3333ZM12.0013 9.87L13.3346 11.382V12.6667H2.66797V11.382L4.0013 9.87V6C4.0013 3.678 5.67064 1.702 8.0013 0.970001C10.332 1.702 12.0013 3.678 12.0013 6V9.87ZM8.0013 7.33333C8.35492 7.33333 8.69406 7.19286 8.94411 6.94281C9.19416 6.69276 9.33464 6.35362 9.33464 6C9.33464 5.64638 9.19416 5.30724 8.94411 5.05719C8.69406 4.80714 8.35492 4.66667 8.0013 4.66667C7.64768 4.66667 7.30854 4.80714 7.05849 5.05719C6.80844 5.30724 6.66797 5.64638 6.66797 6C6.66797 6.35362 6.80844 6.69276 7.05849 6.94281C7.30854 7.19286 7.64768 7.33333 8.0013 7.33333Z" fill="#1254FF"/>
</svg>
