<svg width="23" height="23" viewBox="0 0 23 23" fill="none" xmlns="http://www.w3.org/2000/svg">
<path fill-rule="evenodd" clip-rule="evenodd" d="M9.92801 0.285889C15.2509 0.285889 19.5709 4.60589 19.5709 9.92875C19.5709 15.2516 15.2509 19.5716 9.92801 19.5716C4.60516 19.5716 0.285156 15.2516 0.285156 9.92875C0.285156 4.60589 4.60516 0.285889 9.92801 0.285889ZM17.428 9.92875C17.428 14.072 14.0712 17.4287 9.92801 17.4287C5.78373 17.4287 2.42801 14.072 2.42801 9.92875C2.42801 5.78446 5.78373 2.42875 9.92801 2.42875C14.0712 2.42875 17.428 5.78446 17.428 9.92875Z" fill="#1254FF"/>
<path d="M19.0191 17.5048L22.0502 20.5348L20.5341 22.0509L17.5041 19.0198L19.0191 17.5048Z" fill="#1254FF"/>
</svg>
