<svg width="16" height="16" viewBox="0 0 16 16" fill="none" xmlns="http://www.w3.org/2000/svg">
<path d="M2 8.66771H6V7.33438H2V1.23171C2.00001 1.17379 2.01511 1.11687 2.04382 1.06656C2.07253 1.01625 2.11385 0.974293 2.16372 0.944818C2.21358 0.915344 2.27027 0.899372 2.32818 0.898477C2.3861 0.897582 2.44325 0.911795 2.494 0.939714L14.802 7.70905C14.8543 7.73782 14.8978 7.7801 14.9282 7.83146C14.9586 7.88282 14.9746 7.94139 14.9746 8.00105C14.9746 8.06071 14.9586 8.11927 14.9282 8.17064C14.8978 8.222 14.8543 8.26427 14.802 8.29305L2.494 15.0624C2.44325 15.0903 2.3861 15.1045 2.32818 15.1036C2.27027 15.1027 2.21358 15.0867 2.16372 15.0573C2.11385 15.0278 2.07253 14.9858 2.04382 14.9355C2.01511 14.8852 2.00001 14.8283 2 14.7704V8.66771Z" fill="white"/>
</svg>
