<svg width="17" height="17" viewBox="0 0 17 17" fill="none" xmlns="http://www.w3.org/2000/svg">
<path d="M2.5 9.16661H6.5V7.83328H2.5V1.73062C2.50001 1.67269 2.51511 1.61577 2.54382 1.56546C2.57253 1.51515 2.61385 1.47319 2.66372 1.44372C2.71358 1.41425 2.77027 1.39827 2.82818 1.39738C2.8861 1.39648 2.94325 1.4107 2.994 1.43862L15.302 8.20795C15.3543 8.23672 15.3978 8.279 15.4282 8.33036C15.4586 8.38172 15.4746 8.44029 15.4746 8.49995C15.4746 8.55961 15.4586 8.61818 15.4282 8.66954C15.3978 8.7209 15.3543 8.76317 15.302 8.79195L2.994 15.5613C2.94325 15.5892 2.8861 15.6034 2.82818 15.6025C2.77027 15.6016 2.71358 15.5856 2.66372 15.5562C2.61385 15.5267 2.57253 15.4847 2.54382 15.4344C2.51511 15.3841 2.50001 15.3272 2.5 15.2693V9.16661Z" fill="white"/>
</svg>
