<svg width="17" height="17" viewBox="0 0 17 17" fill="none" xmlns="http://www.w3.org/2000/svg">
<path d="M4.85118 10.1758C4.84995 10.5232 4.71138 10.856 4.4657 11.1015C4.22003 11.3471 3.8872 11.4855 3.53985 11.4865C3.19239 11.4855 2.85946 11.347 2.61376 11.1013C2.36807 10.8556 2.22957 10.5226 2.22852 10.1752C2.22852 9.45318 2.81785 8.86318 3.53985 8.86318H4.85185V10.1752L4.85118 10.1758ZM5.51252 10.1758C5.51252 9.45385 6.10185 8.86385 6.82385 8.86385C7.54585 8.86385 8.13585 9.45385 8.13585 10.1758V13.4605C8.13479 13.8081 7.9962 14.1411 7.75037 14.3868C7.50453 14.6325 7.17143 14.771 6.82385 14.7718C6.47639 14.7708 6.14346 14.6323 5.89776 14.3866C5.65207 14.1409 5.51357 13.808 5.51252 13.4605V10.1758ZM6.82385 4.85118C6.4765 4.84995 6.14374 4.71138 5.89819 4.4657C5.65264 4.22003 5.51424 3.8872 5.51318 3.53985C5.51318 2.81785 6.10252 2.22852 6.82452 2.22852C7.54652 2.22852 8.13652 2.81785 8.13652 3.53985V4.85185H6.82385V4.85118ZM6.82385 5.51252C7.54585 5.51252 8.13585 6.10185 8.13585 6.82385C8.13497 7.17154 7.99646 7.50474 7.7506 7.7506C7.50474 7.99646 7.17154 8.13497 6.82385 8.13585H3.53985C3.19227 8.13479 2.85924 7.9962 2.61353 7.75037C2.36781 7.50453 2.22939 7.17143 2.22852 6.82385C2.22852 6.10185 2.81785 5.51252 3.53985 5.51252H6.82452H6.82385ZM12.1485 6.82385C12.1485 6.10185 12.7385 5.51252 13.4605 5.51252C14.1825 5.51252 14.7718 6.10185 14.7718 6.82385C14.771 7.17143 14.6325 7.50453 14.3868 7.75037C14.1411 7.9962 13.8081 8.13479 13.4605 8.13585H12.1485V6.82385ZM11.4872 6.82385C11.4863 7.17143 11.3479 7.50453 11.1022 7.75037C10.8565 7.9962 10.5234 8.13479 10.1758 8.13585C9.82815 8.13497 9.49495 7.99646 9.2491 7.7506C9.00324 7.50474 8.86473 7.17154 8.86385 6.82385V3.53985C8.86385 2.81785 9.45385 2.22852 10.1758 2.22852C10.8978 2.22852 11.4872 2.81785 11.4872 3.53985V6.82452V6.82385ZM10.1758 12.1485C10.8978 12.1485 11.4872 12.7385 11.4872 13.4605C11.4861 13.808 11.3476 14.1409 11.1019 14.3866C10.8562 14.6323 10.5233 14.7708 10.1758 14.7718C9.82827 14.771 9.49517 14.6325 9.24933 14.3868C9.00349 14.1411 8.8649 13.8081 8.86385 13.4605V12.1485H10.1758ZM10.1758 11.4872C9.82827 11.4863 9.49517 11.3479 9.24933 11.1022C9.00349 10.8565 8.8649 10.5234 8.86385 10.1758C8.86385 9.45385 9.45385 8.86385 10.1758 8.86385H13.4605C14.1825 8.86385 14.7718 9.45385 14.7718 10.1758C14.7708 10.5233 14.6323 10.8562 14.3866 11.1019C14.1409 11.3476 13.808 11.4861 13.4605 11.4872H10.1758Z" fill="white"/>
</svg>
