<svg width="97" height="98" viewBox="0 0 97 98" fill="none" xmlns="http://www.w3.org/2000/svg">
<g clip-path="url(#clip0_3180:21125)">
<path fill-rule="evenodd" clip-rule="evenodd" d="M35.4791 26.5391H9.67611C4.33203 26.5391 0 30.8711 0 36.2152C0 41.5592 4.33203 45.8913 9.67611 45.8913H35.4791C40.8231 45.8913 45.1552 41.5592 45.1552 36.2152C45.1552 30.8711 40.8231 26.5391 35.4791 26.5391Z" fill="#36C5F0"/>
<path fill-rule="evenodd" clip-rule="evenodd" d="M70.9577 36.2173V10.4144C70.9577 5.07031 66.6257 0.738281 61.2816 0.738281C55.9375 0.738281 51.6055 5.07031 51.6055 10.4144V36.2173C51.6055 41.5614 55.9375 45.8935 61.2816 45.8935C66.6257 45.8935 70.9577 41.5614 70.9577 36.2173Z" fill="#2EB67D"/>
<path fill-rule="evenodd" clip-rule="evenodd" d="M61.2816 71.696H87.0845C92.4286 71.696 96.7606 67.3639 96.7606 62.0199C96.7606 56.6758 92.4286 52.3438 87.0845 52.3438H61.2816C55.9375 52.3438 51.6055 56.6758 51.6055 62.0199C51.6055 67.3639 55.9375 71.696 61.2816 71.696Z" fill="#ECB22E"/>
<path fill-rule="evenodd" clip-rule="evenodd" d="M25.8008 62.0199V87.8228C25.8008 93.1669 30.1328 97.4989 35.4769 97.4989C40.821 97.4989 45.153 93.1669 45.153 87.8228V62.0199C45.153 56.6753 40.821 52.3438 35.4769 52.3438C30.1328 52.3438 25.8008 56.6758 25.8008 62.0199Z" fill="#E01E5A"/>
<path fill-rule="evenodd" clip-rule="evenodd" d="M35.4769 0.738281C30.1328 0.738281 25.8008 5.07031 25.8008 10.4144C25.8008 15.7585 30.1328 20.0905 35.4769 20.0905H45.153V10.4144C45.153 5.07031 40.821 0.738281 35.4769 0.738281Z" fill="#36C5F0"/>
<path fill-rule="evenodd" clip-rule="evenodd" d="M96.7624 36.2152C96.7624 30.8711 92.4303 26.5391 87.0863 26.5391C81.7422 26.5391 77.4102 30.8711 77.4102 36.2152V45.8913H87.0863C92.4303 45.8913 96.7624 41.5592 96.7624 36.2152Z" fill="#2EB67D"/>
<path fill-rule="evenodd" clip-rule="evenodd" d="M61.2816 97.5007C66.6257 97.5007 70.9577 93.1686 70.9577 87.8245C70.9577 82.4805 66.6257 78.1484 61.2816 78.1484H51.6055V87.8245C51.6055 93.1686 55.9375 97.5007 61.2816 97.5007Z" fill="#ECB22E"/>
<path fill-rule="evenodd" clip-rule="evenodd" d="M0 62.0199C0 67.3639 4.33203 71.696 9.67611 71.696C15.0202 71.696 19.3522 67.3639 19.3522 62.0199V52.3438H9.67611C4.33203 52.3438 0 56.6758 0 62.0199Z" fill="#E01E5A"/>
</g>
<defs>
<clipPath id="clip0_3180:21125">
<rect width="97" height="97" fill="white" transform="translate(0 0.5)"/>
</clipPath>
</defs>
</svg>
