<svg width="24" height="24" viewBox="0 0 24 24" fill="none" xmlns="http://www.w3.org/2000/svg">
<path d="M5.32905 3.27096C5.99609 3.03294 6.71964 3.00288 7.40412 3.18476C8.08859 3.36664 8.70179 3.75189 9.1627 4.28961C9.62361 4.82734 9.91054 5.49225 9.9856 6.19649C10.0606 6.90073 9.92028 7.61117 9.58305 8.23396L20.292 18.944L18.8781 20.358L8.16805 9.64796C7.54512 9.98386 6.83504 10.1231 6.13138 10.0475C5.42772 9.97177 4.7635 9.68466 4.22626 9.22397C3.68902 8.76327 3.30397 8.15061 3.12185 7.46673C2.93972 6.78284 2.96908 6.05982 3.20605 5.39296L5.44305 7.62996C5.58142 7.77322 5.74694 7.8875 5.92994 7.96611C6.11295 8.04472 6.30978 8.0861 6.50895 8.08783C6.70812 8.08956 6.90564 8.05161 7.08998 7.97619C7.27433 7.90077 7.4418 7.78939 7.58264 7.64855C7.72348 7.50771 7.83486 7.34023 7.91028 7.15589C7.9857 6.97154 8.02366 6.77402 8.02193 6.57485C8.0202 6.37569 7.97882 6.17886 7.9002 5.99585C7.82159 5.81284 7.70732 5.64733 7.56405 5.50896L5.32805 3.26996L5.32905 3.27096ZM15.6961 5.15496L18.8781 3.38696L20.292 4.80096L18.5241 7.98296L16.7561 8.33696L14.6361 10.458L13.2211 9.04396L15.3421 6.92296L15.6961 5.15496ZM8.97805 13.287L10.3921 14.701L5.08905 20.004C4.90875 20.1848 4.66611 20.2898 4.41088 20.2974C4.15565 20.305 3.90716 20.2148 3.71637 20.0451C3.52557 19.8754 3.40691 19.6391 3.38473 19.3847C3.36254 19.1304 3.43851 18.8771 3.59705 18.677L3.67505 18.59L8.97805 13.287Z" fill="#1254FF"/>
</svg>
