<svg width="18" height="18" viewBox="0 0 18 18" fill="none" xmlns="http://www.w3.org/2000/svg">
<path d="M2.32905 0.270956C2.99609 0.0329399 3.71964 0.00288478 4.40412 0.184761C5.08859 0.366637 5.70179 0.751886 6.1627 1.28961C6.62361 1.82734 6.91054 2.49225 6.9856 3.19649C7.06065 3.90073 6.92028 4.61117 6.58305 5.23396L17.292 15.944L15.8781 17.358L5.16805 6.64796C4.54512 6.98386 3.83504 7.12314 3.13138 7.04746C2.42772 6.97177 1.7635 6.68466 1.22626 6.22397C0.68902 5.76327 0.303967 5.15061 0.121846 4.46673C-0.0602751 3.78284 -0.0309172 3.05982 0.206051 2.39296L2.44305 4.62996C2.58142 4.77322 2.74694 4.8875 2.92994 4.96611C3.11295 5.04472 3.30978 5.0861 3.50895 5.08783C3.70812 5.08956 3.90564 5.05161 4.08998 4.97619C4.27433 4.90077 4.4418 4.78939 4.58264 4.64855C4.72348 4.50771 4.83486 4.34023 4.91028 4.15589C4.9857 3.97154 5.02366 3.77402 5.02193 3.57485C5.0202 3.37569 4.97882 3.17886 4.9002 2.99585C4.82159 2.81284 4.70732 2.64733 4.56405 2.50896L2.32805 0.269956L2.32905 0.270956ZM12.6961 2.15496L15.8781 0.386956L17.292 1.80096L15.5241 4.98296L13.7561 5.33696L11.6361 7.45796L10.2211 6.04396L12.3421 3.92296L12.6961 2.15496ZM5.97805 10.287L7.39205 11.701L2.08905 17.004C1.90875 17.1848 1.66611 17.2898 1.41088 17.2974C1.15565 17.305 0.907164 17.2148 0.716367 17.0451C0.525569 16.8754 0.406914 16.6391 0.384729 16.3847C0.362544 16.1304 0.43851 15.8771 0.597051 15.677L0.675051 15.59L5.97805 10.287Z" fill="#1254FF"/>
</svg>
