<svg width="13" height="15" viewBox="0 0 13 15" fill="none" xmlns="http://www.w3.org/2000/svg">
<path d="M11.6071 7.50001H4.41071V4.47951C4.41071 3.31936 5.33058 2.35549 6.47969 2.34377C7.6404 2.33206 8.58929 3.2842 8.58929 4.45315V4.92189C8.58929 5.31154 8.89978 5.62502 9.28571 5.62502H10.2143C10.6002 5.62502 10.9107 5.31154 10.9107 4.92189V4.45315C10.9107 1.99221 8.92299 -0.0087602 6.48549 2.88433e-05C4.04799 0.00881789 2.08929 2.03616 2.08929 4.49709V7.50001H1.39286C0.623884 7.50001 0 8.1299 0 8.90626V13.5938C0 14.3701 0.623884 15 1.39286 15H11.6071C12.3761 15 13 14.3701 13 13.5938V8.90626C13 8.1299 12.3761 7.50001 11.6071 7.50001ZM7.66071 11.9531C7.66071 12.6006 7.14129 13.125 6.5 13.125C5.85871 13.125 5.33929 12.6006 5.33929 11.9531V10.5469C5.33929 9.89942 5.85871 9.37501 6.5 9.37501C7.14129 9.37501 7.66071 9.89942 7.66071 10.5469V11.9531Z" fill="#1254FF"/>
</svg>
