<svg width="14" height="16" viewBox="0 0 14 16" fill="none" xmlns="http://www.w3.org/2000/svg">
<path d="M12.1071 8.00001H4.91071V4.97951C4.91071 3.81936 5.83058 2.85549 6.97969 2.84377C8.1404 2.83206 9.08929 3.7842 9.08929 4.95315V5.42189C9.08929 5.81154 9.39978 6.12502 9.78571 6.12502H10.7143C11.1002 6.12502 11.4107 5.81154 11.4107 5.42189V4.95315C11.4107 2.49221 9.42299 0.49124 6.98549 0.500029C4.54799 0.508818 2.58929 2.53616 2.58929 4.99709V8.00001H1.89286C1.12388 8.00001 0.5 8.6299 0.5 9.40626V14.0938C0.5 14.8701 1.12388 15.5 1.89286 15.5H12.1071C12.8761 15.5 13.5 14.8701 13.5 14.0938V9.40626C13.5 8.6299 12.8761 8.00001 12.1071 8.00001ZM8.16071 12.4531C8.16071 13.1006 7.64129 13.625 7 13.625C6.35871 13.625 5.83929 13.1006 5.83929 12.4531V11.0469C5.83929 10.3994 6.35871 9.87501 7 9.87501C7.64129 9.87501 8.16071 10.3994 8.16071 11.0469V12.4531Z" fill="#1254FF"/>
</svg>
