<svg width="10" height="9" viewBox="0 0 10 9" fill="none" xmlns="http://www.w3.org/2000/svg">
<path d="M7.35243 1.62784e-05C5.8941 0.0049766 4.72222 1.14916 4.72222 2.53805V3.70372H0.833333C0.373264 3.70372 0 4.05921 0 4.49737V7.67197C0 8.11014 0.373264 8.46563 0.833333 8.46563H6.94444C7.40451 8.46563 7.77778 8.11014 7.77778 7.67197V4.49737C7.77778 4.05921 7.40451 3.70372 6.94444 3.70372H6.11111V2.52813C6.11111 1.87336 6.66146 1.32938 7.34896 1.32277C8.0434 1.31615 8.61111 1.85352 8.61111 2.51324V3.836C8.61111 4.0559 8.79688 4.23282 9.02778 4.23282H9.58333C9.81424 4.23282 10 4.0559 10 3.836V2.51324C10 1.12436 8.81076 -0.00494404 7.35243 1.62784e-05Z" fill="white"/>
</svg>
