<svg width="25" height="26" viewBox="0 0 25 26" fill="none" xmlns="http://www.w3.org/2000/svg">
<g opacity="0.3">
<path d="M3.05664 5.02508C3.05664 4.46677 3.51001 4.0134 4.06833 4.0134H20.3837C20.942 4.0134 21.3953 4.46677 21.3953 5.02508V21.3404C21.3951 21.6087 21.2884 21.8658 21.0987 22.0555C20.9091 22.2452 20.6519 22.3518 20.3837 22.3521H4.06833C3.80009 22.3518 3.54292 22.2452 3.35325 22.0555C3.16358 21.8658 3.05691 21.6087 3.05664 21.3404V5.02508ZM10.8221 9.53029C10.7607 9.48938 10.6895 9.46587 10.6159 9.46226C10.5422 9.45864 10.469 9.47507 10.404 9.50977C10.339 9.54448 10.2846 9.59618 10.2466 9.65936C10.2086 9.72254 10.1885 9.79483 10.1884 9.86854V16.497C10.1885 16.5707 10.2086 16.643 10.2466 16.7061C10.2846 16.7693 10.339 16.821 10.404 16.8557C10.469 16.8904 10.5422 16.9069 10.6159 16.9032C10.6895 16.8996 10.7607 16.8761 10.8221 16.8352L15.7929 13.522C15.8488 13.4848 15.8946 13.4344 15.9263 13.3752C15.958 13.316 15.9746 13.2499 15.9746 13.1828C15.9746 13.1156 15.958 13.0495 15.9263 12.9903C15.8946 12.9311 15.8488 12.8807 15.7929 12.8435L10.821 9.53029H10.8221Z" fill="white"/>
</g>
</svg>
