<svg width="19" height="19" viewBox="0 0 19 19" fill="none" xmlns="http://www.w3.org/2000/svg">
<path d="M0.0546875 1.12179C0.0546875 0.563481 0.508061 0.110107 1.06637 0.110107H17.3817C17.94 0.110107 18.3934 0.563481 18.3934 1.12179V17.4371C18.3931 17.7054 18.2865 17.9625 18.0968 18.1522C17.9071 18.3419 17.6499 18.4485 17.3817 18.4488H1.06637C0.79814 18.4485 0.540971 18.3419 0.351301 18.1522C0.161632 17.9625 0.0549572 17.7054 0.0546875 17.4371V1.12179ZM7.82011 5.627C7.7588 5.58609 7.68753 5.56258 7.61391 5.55897C7.54029 5.55535 7.46706 5.57178 7.40204 5.60648C7.33701 5.64119 7.28261 5.69289 7.24464 5.75607C7.20667 5.81925 7.18654 5.89154 7.18641 5.96525V12.5937C7.18654 12.6674 7.20667 12.7397 7.24464 12.8029C7.28261 12.866 7.33701 12.9177 7.40204 12.9524C7.46706 12.9871 7.54029 13.0036 7.61391 13C7.68753 12.9963 7.7588 12.9728 7.82011 12.9319L12.7909 9.61873C12.8468 9.58153 12.8927 9.53109 12.9244 9.4719C12.9561 9.41271 12.9727 9.34661 12.9727 9.27946C12.9727 9.21232 12.9561 9.14621 12.9244 9.08702C12.8927 9.02783 12.8468 8.9774 12.7909 8.9402L7.81909 5.627H7.82011Z" fill="#FFC700"/>
</svg>
