<svg width="25" height="25" viewBox="0 0 25 25" fill="none" xmlns="http://www.w3.org/2000/svg">
<path d="M3.05664 4.06808C3.05664 3.50977 3.51001 3.0564 4.06833 3.0564H20.3837C20.942 3.0564 21.3953 3.50977 21.3953 4.06808V20.3834C21.3951 20.6517 21.2884 20.9088 21.0987 21.0985C20.9091 21.2882 20.6519 21.3948 20.3837 21.3951H4.06833C3.80009 21.3948 3.54292 21.2882 3.35325 21.0985C3.16358 20.9088 3.05691 20.6517 3.05664 20.3834V4.06808ZM10.8221 8.57329C10.7607 8.53238 10.6895 8.50887 10.6159 8.50526C10.5422 8.50164 10.469 8.51806 10.404 8.55277C10.339 8.58748 10.2846 8.63918 10.2466 8.70236C10.2086 8.76553 10.1885 8.83783 10.1884 8.91154V15.54C10.1885 15.6137 10.2086 15.686 10.2466 15.7491C10.2846 15.8123 10.339 15.864 10.404 15.8987C10.469 15.9334 10.5422 15.9499 10.6159 15.9462C10.6895 15.9426 10.7607 15.9191 10.8221 15.8782L15.7929 12.565C15.8488 12.5278 15.8946 12.4774 15.9263 12.4182C15.958 12.359 15.9746 12.2929 15.9746 12.2258C15.9746 12.1586 15.958 12.0925 15.9263 12.0333C15.8946 11.9741 15.8488 11.9237 15.7929 11.8865L10.821 8.57329H10.8221Z" fill="#CAD4DF"/>
</svg>
