<svg width="19" height="19" viewBox="0 0 19 19" fill="none" xmlns="http://www.w3.org/2000/svg">
<path d="M0.0546875 1.57345C0.0546875 1.01514 0.508061 0.561768 1.06637 0.561768H17.3817C17.94 0.561768 18.3934 1.01514 18.3934 1.57345V17.8888C18.3931 18.157 18.2865 18.4142 18.0968 18.6039C17.9071 18.7935 17.6499 18.9002 17.3817 18.9005H1.06637C0.79814 18.9002 0.540971 18.7935 0.351301 18.6039C0.161632 18.4142 0.0549572 18.157 0.0546875 17.8888V1.57345ZM7.82011 6.07866C7.7588 6.03775 7.68753 6.01424 7.61391 6.01063C7.54029 6.00701 7.46706 6.02344 7.40204 6.05815C7.33701 6.09285 7.28261 6.14455 7.24464 6.20773C7.20667 6.27091 7.18654 6.3432 7.18641 6.41691V13.0453C7.18654 13.119 7.20667 13.1913 7.24464 13.2545C7.28261 13.3177 7.33701 13.3694 7.40204 13.4041C7.46706 13.4388 7.54029 13.4552 7.61391 13.4516C7.68753 13.448 7.7588 13.4245 7.82011 13.3836L12.7909 10.0704C12.8468 10.0332 12.8927 9.98275 12.9244 9.92356C12.9561 9.86438 12.9727 9.79827 12.9727 9.73112C12.9727 9.66398 12.9561 9.59787 12.9244 9.53868C12.8927 9.47949 12.8468 9.42906 12.7909 9.39186L7.81909 6.07866H7.82011Z" fill="white"/>
</svg>
