<svg width="66" height="66" viewBox="0 0 66 66" fill="none" xmlns="http://www.w3.org/2000/svg">
<circle cx="33" cy="33" r="29" fill="white"/>
<circle cx="33" cy="33" r="29" fill="#1254FF" fill-opacity="0.1"/>
<circle cx="33" cy="33" r="29" stroke="white" stroke-width="8"/>
<path d="M40.25 35.5L35.7477 40H27.5C27.3011 40 27.1103 39.921 26.9697 39.7803C26.829 39.6397 26.75 39.4489 26.75 39.25V25.75C26.75 25.5511 26.829 25.3603 26.9697 25.2197C27.1103 25.079 27.3011 25 27.5 25H39.5C39.6989 25 39.8897 25.079 40.0303 25.2197C40.171 25.3603 40.25 25.5511 40.25 25.75V35.5ZM38.75 34.75V26.5H28.25V38.5H35V34.75H38.75Z" fill="#1254FF"/>
</svg>
