<svg width="66" height="66" viewBox="0 0 66 66" fill="none" xmlns="http://www.w3.org/2000/svg">
<circle cx="33" cy="33" r="29" fill="white"/>
<circle cx="33" cy="33" r="29" fill="#1254FF" fill-opacity="0.1"/>
<circle cx="33" cy="33" r="29" stroke="white" stroke-width="8"/>
<path d="M42.6467 27.2272C43.0846 28.9349 43.0846 32.4999 43.0846 32.4999C43.0846 32.4999 43.0846 36.0649 42.6467 37.7727C42.4033 38.7166 41.6912 39.4593 40.7894 39.7104C39.1516 40.1666 33.5013 40.1666 33.5013 40.1666C33.5013 40.1666 27.8538 40.1666 26.2132 39.7104C25.3076 39.4555 24.5965 38.7138 24.3559 37.7727C23.918 36.0649 23.918 32.4999 23.918 32.4999C23.918 32.4999 23.918 28.9349 24.3559 27.2272C24.5993 26.2832 25.3114 25.5405 26.2132 25.2894C27.8538 24.8333 33.5013 24.8333 33.5013 24.8333C33.5013 24.8333 39.1516 24.8333 40.7894 25.2894C41.6951 25.5443 42.4061 26.2861 42.6467 27.2272ZM31.5846 35.8541L37.3346 32.4999L31.5846 29.1458V35.8541Z" fill="#1254FF"/>
</svg>
