<svg width="18" height="12" viewBox="0 0 18 12" fill="none" xmlns="http://www.w3.org/2000/svg">
<path d="M8.58178 12H8.56465C8.51155 12 3.19925 11.9897 1.85897 11.6257C1.12196 11.4272 0.54639 10.8513 0.348261 10.1142C0.107249 8.75452 -0.00913466 7.37569 0.000559075 5.99486C-0.00566775 4.61177 0.113865 3.23098 0.357682 1.86954C0.561256 1.13175 1.1343 0.553197 1.8701 0.342564C3.17355 0 8.33941 0 8.55865 0H8.57664C8.63059 0 13.9566 0.0102769 15.2832 0.374251C16.0186 0.573802 16.593 1.14853 16.7922 1.8841C17.0409 3.24882 17.1576 4.63432 17.1407 6.02141C17.1467 7.40282 17.0269 8.78191 16.7827 10.1416C16.5821 10.8778 16.0061 11.4524 15.2695 11.6514C13.9677 11.9966 8.80102 12 8.58178 12ZM6.86896 3.42992L6.86468 8.56837L11.3283 5.99914L6.86896 3.42992Z" fill="#FF0000" fill-opacity="0.8"/>
</svg>
