<svg width="24" height="25" viewBox="0 0 24 25" fill="none" xmlns="http://www.w3.org/2000/svg">
<path d="M21.543 6.873C22 8.655 22 12.375 22 12.375C22 12.375 22 16.095 21.543 17.877C21.289 18.862 20.546 19.637 19.605 19.899C17.896 20.375 12 20.375 12 20.375C12 20.375 6.107 20.375 4.395 19.899C3.45 19.633 2.708 18.859 2.457 17.877C2 16.095 2 12.375 2 12.375C2 12.375 2 8.655 2.457 6.873C2.711 5.888 3.454 5.113 4.395 4.851C6.107 4.375 12 4.375 12 4.375C12 4.375 17.896 4.375 19.605 4.851C20.55 5.117 21.292 5.891 21.543 6.873ZM10 15.875L16 12.375L10 8.875V15.875Z" fill="#717899"/>
</svg>
