<svg width="66" height="66" viewBox="0 0 66 66" fill="none" xmlns="http://www.w3.org/2000/svg">
<circle cx="33" cy="33" r="29" fill="white"/>
<circle cx="33" cy="33" r="29" fill="#1254FF" fill-opacity="0.1"/>
<circle cx="33" cy="33" r="29" stroke="white" stroke-width="8"/>
<path d="M42.6467 27.2274C43.0846 28.9352 43.0846 32.5002 43.0846 32.5002C43.0846 32.5002 43.0846 36.0652 42.6467 37.7729C42.4033 38.7169 41.6912 39.4596 40.7894 39.7107C39.1516 40.1668 33.5013 40.1668 33.5013 40.1668C33.5013 40.1668 27.8538 40.1668 26.2132 39.7107C25.3076 39.4557 24.5965 38.714 24.3559 37.7729C23.918 36.0652 23.918 32.5002 23.918 32.5002C23.918 32.5002 23.918 28.9352 24.3559 27.2274C24.5993 26.2835 25.3114 25.5407 26.2132 25.2897C27.8538 24.8335 33.5013 24.8335 33.5013 24.8335C33.5013 24.8335 39.1516 24.8335 40.7894 25.2897C41.6951 25.5446 42.4061 26.2863 42.6467 27.2274ZM31.5846 35.8543L37.3346 32.5002L31.5846 29.146V35.8543Z" fill="#1254FF"/>
</svg>
