<svg width="21" height="21" viewBox="0 0 21 21" fill="none" xmlns="http://www.w3.org/2000/svg">
<path d="M11.3701 0.686118C8.97736 0.356973 6.54634 0.90467 4.52592 2.22808C2.5055 3.55148 1.03214 5.56122 0.377895 7.88618C-0.276351 10.2111 -0.067296 12.6943 0.966459 14.8772C2.00021 17.06 3.78885 18.7951 6.0021 19.7621C5.94224 18.9939 5.99718 18.2211 6.1651 17.4691C6.3501 16.6301 7.4611 12.0061 7.4611 12.0061C7.23986 11.5102 7.1293 10.9721 7.1371 10.4291C7.1371 8.94412 7.9941 7.83612 9.0601 7.83612C9.2516 7.83333 9.44146 7.87181 9.61677 7.94895C9.79208 8.02608 9.94872 8.14007 10.076 8.28314C10.2034 8.42622 10.2984 8.59503 10.3547 8.77811C10.4109 8.96119 10.4271 9.15423 10.4021 9.34412C10.4021 10.2441 9.8241 11.6061 9.5221 12.8841C9.46241 13.1185 9.45862 13.3636 9.51104 13.5997C9.56345 13.8358 9.6706 14.0563 9.82385 14.2435C9.97711 14.4306 10.1722 14.5791 10.3933 14.677C10.6145 14.7749 10.8555 14.8195 11.0971 14.8071C12.9951 14.8071 14.2671 12.3761 14.2671 9.50612C14.2671 7.30612 12.8101 5.65812 10.1241 5.65812C9.48147 5.63315 8.84048 5.73904 8.24003 5.96937C7.63958 6.1997 7.09221 6.54966 6.63115 6.99801C6.17008 7.44635 5.80495 7.98372 5.55792 8.57749C5.31089 9.17126 5.18711 9.80905 5.1941 10.4521C5.16546 11.1654 5.3956 11.8651 5.8421 12.4221C5.92553 12.4844 5.98645 12.5721 6.01567 12.672C6.04489 12.772 6.04083 12.8787 6.0041 12.9761C5.9581 13.1601 5.8421 13.5991 5.7961 13.7601C5.78653 13.8147 5.76427 13.8663 5.73112 13.9107C5.69797 13.9552 5.65484 13.9912 5.60523 14.0159C5.55561 14.0406 5.50088 14.0533 5.44545 14.053C5.39002 14.0527 5.33544 14.0394 5.2861 14.0141C3.9021 13.4601 3.2501 11.9371 3.2501 10.1981C3.2501 7.35112 5.6341 3.94312 10.4041 3.94312C14.2001 3.94312 16.7241 6.72012 16.7241 9.69012C16.7241 13.5991 14.5471 16.5381 11.3301 16.5381C10.8493 16.5535 10.3724 16.4474 9.94343 16.2296C9.51449 16.0118 9.1474 15.6894 8.8761 15.2921C8.8761 15.2921 8.2981 17.6081 8.1841 18.0461C7.95139 18.8028 7.608 19.5209 7.1651 20.1771C8.0881 20.4571 9.0471 20.5971 10.0111 20.5931C11.3247 20.5942 12.6256 20.3361 13.8393 19.8337C15.053 19.3313 16.1556 18.5944 17.0842 17.6652C18.0127 16.7361 18.7488 15.6329 19.2504 14.4188C19.7519 13.2048 20.0091 11.9037 20.0071 10.5901C20.0059 8.17512 19.1309 5.84211 17.5437 4.0219C15.9566 2.20168 13.7644 1.01718 11.3721 0.687118L11.3701 0.686118Z" fill="#1254FF"/>
</svg>
