<svg width="21" height="17" viewBox="0 0 21 17" fill="none" xmlns="http://www.w3.org/2000/svg">
<path d="M19.6467 3.22741C20.0846 4.93516 20.0846 8.50016 20.0846 8.50016C20.0846 8.50016 20.0846 12.0652 19.6467 13.7729C19.4033 14.7169 18.6912 15.4596 17.7894 15.7107C16.1516 16.1668 10.5013 16.1668 10.5013 16.1668C10.5013 16.1668 4.85384 16.1668 3.21318 15.7107C2.30755 15.4557 1.59647 14.714 1.35593 13.7729C0.917969 12.0652 0.917969 8.50016 0.917969 8.50016C0.917969 8.50016 0.917969 4.93516 1.35593 3.22741C1.59934 2.28345 2.31139 1.54075 3.21318 1.28966C4.85384 0.833496 10.5013 0.833496 10.5013 0.833496C10.5013 0.833496 16.1516 0.833496 17.7894 1.28966C18.6951 1.54458 19.4061 2.28633 19.6467 3.22741ZM8.58464 11.8543L14.3346 8.50016L8.58464 5.146V11.8543Z" fill="#1254FF"/>
</svg>
