<svg width="19" height="19" viewBox="0 0 19 19" fill="none" xmlns="http://www.w3.org/2000/svg">
<path d="M7.21054 3.62692V5.66922H2.1048V16.9018H13.3374V11.7961H15.3797V17.923C15.3797 18.1938 15.2721 18.4536 15.0806 18.6451C14.8891 18.8366 14.6294 18.9441 14.3586 18.9441H1.08365C0.812823 18.9441 0.55309 18.8366 0.361587 18.6451C0.170085 18.4536 0.0625 18.1938 0.0625 17.923V4.64807C0.0625 4.37724 0.170085 4.11751 0.361587 3.92601C0.55309 3.73451 0.812823 3.62692 1.08365 3.62692H7.21054ZM18.4432 0.563477V8.73266H16.4009V4.04866L8.44306 12.0075L6.99916 10.5636L14.9559 2.60577H10.274V0.563477H18.4432Z" fill="#1254FF"/>
</svg>
