<svg width="22" height="21" viewBox="0 0 22 21" fill="none" xmlns="http://www.w3.org/2000/svg">
<path d="M20.1782 11.3784L20.1912 11.3924L10.9992 20.5844L1.80724 11.3924L1.82024 11.3784C0.752801 10.1339 0.195078 8.53205 0.258826 6.89376C0.322573 5.25546 1.00308 3.70177 2.16399 2.54403C3.32489 1.38629 4.88043 0.710017 6.5189 0.650738C8.15736 0.591459 9.7577 1.15355 10.9992 2.22437C12.2408 1.15355 13.8411 0.591459 15.4796 0.650738C17.118 0.710017 18.6736 1.38629 19.8345 2.54403C20.9954 3.70177 21.6759 5.25546 21.7396 6.89376C21.8034 8.53205 21.2457 10.1339 20.1782 11.3784Z" fill="#586795"/>
</svg>
