<svg width="22" height="19" viewBox="0 0 22 19" fill="none" xmlns="http://www.w3.org/2000/svg">
<path d="M0.179688 9.5918C1.11969 4.4718 5.60669 0.591797 10.9987 0.591797C16.3907 0.591797 20.8767 4.4718 21.8177 9.5918C20.8777 14.7118 16.3907 18.5918 10.9987 18.5918C5.60669 18.5918 1.12069 14.7118 0.179688 9.5918ZM10.9987 14.5918C12.3248 14.5918 13.5965 14.065 14.5342 13.1273C15.4719 12.1896 15.9987 10.9179 15.9987 9.5918C15.9987 8.26571 15.4719 6.99395 14.5342 6.05626C13.5965 5.11858 12.3248 4.5918 10.9987 4.5918C9.67261 4.5918 8.40084 5.11858 7.46315 6.05626C6.52547 6.99395 5.99869 8.26571 5.99869 9.5918C5.99869 10.9179 6.52547 12.1896 7.46315 13.1273C8.40084 14.065 9.67261 14.5918 10.9987 14.5918ZM10.9987 12.5918C10.203 12.5918 9.43998 12.2757 8.87737 11.7131C8.31476 11.1505 7.99869 10.3874 7.99869 9.5918C7.99869 8.79615 8.31476 8.03309 8.87737 7.47048C9.43998 6.90787 10.203 6.5918 10.9987 6.5918C11.7943 6.5918 12.5574 6.90787 13.12 7.47048C13.6826 8.03309 13.9987 8.79615 13.9987 9.5918C13.9987 10.3874 13.6826 11.1505 13.12 11.7131C12.5574 12.2757 11.7943 12.5918 10.9987 12.5918Z" fill="#586795"/>
</svg>
