<svg width="16" height="17" viewBox="0 0 16 17" fill="none" xmlns="http://www.w3.org/2000/svg">
<path d="M0.832031 15.6665C0.832031 15.2063 1.20513 14.8332 1.66536 14.8332H14.9987C15.4589 14.8332 15.832 15.2063 15.832 15.6665C15.832 16.1267 15.4589 16.4998 14.9987 16.4998H1.66536C1.20513 16.4998 0.832031 16.1267 0.832031 15.6665ZM9.16536 7.56201C9.16536 8.45295 10.2426 8.8991 10.8725 8.26906L13.6354 5.50576C13.9607 5.18033 14.4883 5.18031 14.8137 5.50571C15.1391 5.83108 15.1391 6.35861 14.8138 6.684L9.03914 12.4593C8.64862 12.8499 8.01542 12.8499 7.62488 12.4594L1.85039 6.68486C1.52495 6.35943 1.52486 5.83182 1.85018 5.50627C2.17564 5.18058 2.70353 5.18046 3.02914 5.50601L5.79165 8.26807C6.42164 8.89796 7.4987 8.45177 7.4987 7.5609V1.49984C7.4987 1.0396 7.87179 0.666504 8.33203 0.666504C8.79227 0.666504 9.16536 1.0396 9.16536 1.49984V7.56201Z" fill="white"/>
</svg>
