<svg width="13" height="14" viewBox="0 0 13 14" fill="none" xmlns="http://www.w3.org/2000/svg">
<path d="M0.833333 0.90625H12.1667C12.3545 0.90625 12.5347 0.980878 12.6675 1.11372C12.8004 1.24655 12.875 1.42672 12.875 1.61458V12.9479C12.875 13.1358 12.8004 13.3159 12.6675 13.4488C12.5347 13.5816 12.3545 13.6562 12.1667 13.6562H0.833333C0.645472 13.6562 0.465304 13.5816 0.332466 13.4488C0.199628 13.3159 0.125 13.1358 0.125 12.9479V1.61458C0.125 1.42672 0.199628 1.24655 0.332466 1.11372C0.465304 0.980878 0.645472 0.90625 0.833333 0.90625ZM5.79167 6.57292H2.95833V7.98958H5.79167V10.8229H7.20833V7.98958H10.0417V6.57292H7.20833V3.73958H5.79167V6.57292Z" fill="white"/>
</svg>
