<svg width="24" height="27" viewBox="0 0 24 27" fill="none" xmlns="http://www.w3.org/2000/svg">
<path d="M5.33333 10.8341H22.6667C23.0203 10.8341 23.3594 10.9746 23.6095 11.2246C23.8595 11.4747 24 11.8138 24 12.1674V25.5008C24 25.8544 23.8595 26.1935 23.6095 26.4436C23.3594 26.6936 23.0203 26.8341 22.6667 26.8341H1.33333C0.979711 26.8341 0.640573 26.6936 0.390524 26.4436C0.140476 26.1935 0 25.8544 0 25.5008V12.1674C0 11.8138 0.140476 11.4747 0.390524 11.2246C0.640573 10.9746 0.979711 10.8341 1.33333 10.8341H2.66667V9.50077C2.66591 7.39771 3.37544 5.35603 4.68025 3.70668C5.98507 2.05734 7.80867 0.897011 9.85547 0.413787C11.9023 -0.0694363 14.0523 0.15277 15.957 1.04439C17.8617 1.936 19.4094 3.44477 20.3493 5.32611L17.964 6.51811C17.2927 5.17413 16.1871 4.0963 14.8264 3.45937C13.4658 2.82243 11.9299 2.66374 10.4678 3.00901C9.00573 3.35428 7.7031 4.18327 6.77114 5.36158C5.83918 6.5399 5.33253 7.99845 5.33333 9.50077V10.8341ZM9.33333 17.5008V20.1674H14.6667V17.5008H9.33333Z" fill="#586795"/>
</svg>
