<svg width="27" height="28" viewBox="0 0 27 28" fill="none" xmlns="http://www.w3.org/2000/svg">
<path d="M13.5013 27.3346C6.1373 27.3346 0.167969 21.3653 0.167969 14.0013C0.167969 6.6373 6.1373 0.667969 13.5013 0.667969C20.8653 0.667969 26.8346 6.6373 26.8346 14.0013C26.8346 21.3653 20.8653 27.3346 13.5013 27.3346Z" fill="#07080A"/>
<path d="M12.168 20.6667V12.9949C12.168 12.2585 12.7649 11.6615 13.5013 11.6615C14.2377 11.6615 14.8346 12.2585 14.8346 12.9949V20.6667C14.8346 21.403 14.2377 22 13.5013 22C12.7649 22 12.168 21.403 12.168 20.6667Z" fill="white"/>
<path d="M12.168 8.11282V7.33333C12.168 6.59695 12.7649 6 13.5013 6C14.2377 6 14.8346 6.59695 14.8346 7.33333V8.11282C14.8346 8.8492 14.2377 9.44615 13.5013 9.44615C12.7649 9.44615 12.168 8.8492 12.168 8.11282Z" fill="white"/>
</svg>
