<svg width="20" height="19" viewBox="0 0 20 19" fill="none" xmlns="http://www.w3.org/2000/svg">
<path d="M9.04894 1.2083C9.3483 0.286991 10.6517 0.28699 10.9511 1.2083L12.4697 5.88206C12.6035 6.29409 12.9875 6.57305 13.4207 6.57305H18.335C19.3037 6.57305 19.7065 7.81266 18.9228 8.38206L14.947 11.2706C14.5966 11.5253 14.4499 11.9766 14.5838 12.3886L16.1024 17.0624C16.4017 17.9837 15.3472 18.7498 14.5635 18.1804L10.5878 15.2919C10.2373 15.0372 9.7627 15.0372 9.41221 15.2919L5.43648 18.1804C4.65276 18.7498 3.59828 17.9837 3.89763 17.0624L5.41623 12.3886C5.55011 11.9766 5.40345 11.5253 5.05296 11.2706L1.07722 8.38206C0.293507 7.81266 0.696283 6.57305 1.66501 6.57305H6.57929C7.01252 6.57305 7.39647 6.29409 7.53035 5.88206L9.04894 1.2083Z" fill="#FFC700"/>
</svg>
