<svg width="15" height="13" viewBox="0 0 15 13" fill="none" xmlns="http://www.w3.org/2000/svg">
<path d="M9.5013 0.113285C9.96949 0.11323 10.4294 0.23644 10.8349 0.470528C11.2404 0.704616 11.5771 1.04133 11.8111 1.44681C12.0452 1.8523 12.1684 2.31226 12.1683 2.78045C12.1682 3.24864 12.0448 3.70856 11.8106 4.11395L14.8346 4.11329V5.44662H13.5013V12.1133C13.5013 12.2901 13.4311 12.4597 13.306 12.5847C13.181 12.7097 13.0114 12.78 12.8346 12.78H2.16797C1.99116 12.78 1.82159 12.7097 1.69656 12.5847C1.57154 12.4597 1.5013 12.2901 1.5013 12.1133V5.44662H0.167969V4.11329L3.19197 4.11395C2.86121 3.54121 2.75509 2.86599 2.89422 2.2194C3.03335 1.57281 3.4078 1.001 3.94486 0.614987C4.48192 0.228977 5.14326 0.0563185 5.80047 0.130538C6.45768 0.204757 7.06386 0.520557 7.5013 1.01662C7.75103 0.732206 8.05868 0.504468 8.40361 0.348671C8.74855 0.192874 9.12281 0.112618 9.5013 0.113285ZM8.16797 5.44662H6.83463V12.1133H8.16797V5.44662ZM5.5013 1.44662C5.15531 1.44507 4.82227 1.57808 4.57253 1.81754C4.3228 2.057 4.17592 2.38416 4.16294 2.72991C4.14996 3.07566 4.27189 3.41292 4.50296 3.67043C4.73404 3.92795 5.05617 4.08555 5.4013 4.10995L5.5013 4.11329H6.83463V2.77995C6.83465 2.46133 6.72056 2.15323 6.51303 1.91146C6.3055 1.66969 6.01825 1.51022 5.7033 1.46195L5.60064 1.44995L5.5013 1.44662ZM9.5013 1.44662C9.16492 1.44651 8.84092 1.57356 8.59427 1.80228C8.34762 2.03101 8.19653 2.34452 8.1713 2.67995L8.16797 2.77995V4.11329H9.5013C9.83769 4.11339 10.1617 3.98635 10.4083 3.75762C10.655 3.52889 10.8061 3.21539 10.8313 2.87995L10.8346 2.77995C10.8346 2.42633 10.6942 2.08719 10.4441 1.83714C10.1941 1.58709 9.85492 1.44662 9.5013 1.44662Z" fill="#1254FF"/>
</svg>
