<svg width="22" height="17" viewBox="0 0 22 17" fill="none" xmlns="http://www.w3.org/2000/svg">
<path d="M11.9131 4.01401V2.18474H4.59604V0.355469H13.7424V4.01401H14.657C14.8996 4.01401 15.1322 4.11037 15.3038 4.2819C15.4753 4.45342 15.5716 4.68606 15.5716 4.92864V6.94083L20.3396 3.60242C20.4082 3.55436 20.4886 3.52605 20.5722 3.52056C20.6557 3.51508 20.7392 3.53263 20.8134 3.57132C20.8877 3.61 20.9499 3.66833 20.9933 3.73994C21.0367 3.81155 21.0595 3.89369 21.0595 3.97742V15.0262C21.0595 15.1099 21.0367 15.1921 20.9933 15.2637C20.9499 15.3353 20.8877 15.3936 20.8134 15.4323C20.7392 15.471 20.6557 15.4885 20.5722 15.4831C20.4886 15.4776 20.4082 15.4493 20.3396 15.4012L15.5716 12.0628V15.9042C15.5716 16.1468 15.4753 16.3795 15.3038 16.551C15.1322 16.7225 14.8996 16.8189 14.657 16.8189H1.85213C1.60956 16.8189 1.37692 16.7225 1.20539 16.551C1.03386 16.3795 0.9375 16.1468 0.9375 15.9042V4.92864C0.9375 4.68606 1.03386 4.45342 1.20539 4.2819C1.37692 4.11037 1.60956 4.01401 1.85213 4.01401H11.9131ZM4.59604 7.67254V9.50181H6.4253V7.67254H4.59604Z" fill="#586795"/>
</svg>
