<svg width="28" height="28" viewBox="0 0 28 28" fill="none" xmlns="http://www.w3.org/2000/svg">
<path d="M10.5299 11.8312C11.3694 11.8312 12.0499 11.1507 12.0499 10.3112V2.05976C12.0499 0.980434 12.9249 0.105469 14.0042 0.105469C15.0835 0.105469 15.9585 0.980432 15.9585 2.05975V10.3112C15.9585 11.1507 16.639 11.8312 17.4785 11.8312H25.7299C26.8093 11.8312 27.6842 12.7061 27.6842 13.7855C27.6842 14.8648 26.8093 15.7398 25.7299 15.7398H17.4785C16.639 15.7398 15.9585 16.4203 15.9585 17.2598V25.5112C15.9585 26.5905 15.0835 27.4655 14.0042 27.4655C12.9249 27.4655 12.0499 26.5905 12.0499 25.5112V17.2598C12.0499 16.4203 11.3694 15.7398 10.5299 15.7398H2.27851C1.19918 15.7398 0.324219 14.8648 0.324219 13.7855C0.324219 12.7061 1.19918 11.8312 2.2785 11.8312H10.5299Z" fill="#586795"/>
</svg>
