<svg width="20" height="20" viewBox="0 0 20 20" fill="none" xmlns="http://www.w3.org/2000/svg">
<path d="M2.51783 18.1928L7.87667 12.8339C8.2665 12.9384 8.67992 12.9114 9.0528 12.7569C9.42568 12.6025 9.73718 12.3294 9.939 11.9798C10.1408 11.6303 10.2216 11.224 10.169 10.8238C10.1163 10.4237 9.93307 10.0521 9.64768 9.76674C9.3623 9.48136 8.99072 9.29812 8.59058 9.24545C8.19044 9.19278 7.7841 9.27362 7.43459 9.47543C7.08507 9.67724 6.81192 9.98875 6.6575 10.3616C6.50307 10.7345 6.47601 11.1479 6.5805 11.5378L1.22167 16.8966L0.25 15.9249C2.84142 12.8999 3.814 9.55043 5.11017 3.93309L10.9438 3.28501L16.1294 8.47059L15.4813 14.3043C9.864 15.6004 6.5145 16.573 3.49042 19.1653L2.51783 18.1937V18.1928ZM13.2126 0.368177L19.0307 6.18534C19.0906 6.2452 19.1328 6.32049 19.1526 6.40287C19.1723 6.48525 19.1688 6.57149 19.1425 6.65202C19.1162 6.73255 19.0681 6.80421 19.0035 6.85905C18.939 6.91389 18.8605 6.94976 18.7767 6.96268L17.4256 7.17351L12.2409 1.98884L12.4352 0.627593C12.4473 0.543416 12.4826 0.464261 12.5371 0.39898C12.5916 0.333699 12.6632 0.284867 12.7438 0.257946C12.8245 0.231026 12.9111 0.227079 12.9939 0.246546C13.0766 0.266013 13.1524 0.308127 13.2126 0.368177Z" fill="#586795"/>
</svg>
