<svg width="15" height="15" viewBox="0 0 15 15" fill="none" xmlns="http://www.w3.org/2000/svg">
<path d="M8.20488 4.90812L9.14822 5.85146C9.58161 6.2848 9.9254 6.79927 10.1599 7.36549C10.3945 7.93171 10.5152 8.53858 10.5152 9.15146C10.5152 9.76433 10.3945 10.3712 10.1599 10.9374C9.9254 11.5036 9.58161 12.0181 9.14822 12.4515L8.91222 12.6868C8.037 13.562 6.84996 14.0537 5.61222 14.0537C4.37448 14.0537 3.18743 13.562 2.31222 12.6868C1.437 11.8116 0.945313 10.6245 0.945312 9.38679C0.945312 8.14905 1.437 6.96201 2.31222 6.08679L3.25555 7.03012C2.9438 7.33916 2.69615 7.70673 2.52684 8.11173C2.35752 8.51673 2.26986 8.95118 2.2689 9.39015C2.26794 9.82911 2.35369 10.2639 2.52123 10.6697C2.68878 11.0754 2.93481 11.4441 3.24521 11.7545C3.5556 12.0649 3.92425 12.3109 4.32999 12.4784C4.73573 12.646 5.17056 12.7317 5.60953 12.7308C6.04849 12.7298 6.48295 12.6422 6.88795 12.4728C7.29295 12.3035 7.66052 12.0559 7.96955 11.7441L8.20555 11.5081C8.83045 10.883 9.18151 10.0353 9.18151 9.15146C9.18151 8.26758 8.83045 7.41988 8.20555 6.79479L7.26222 5.85146L8.20555 4.90879L8.20488 4.90812ZM12.6836 8.91546L11.7409 7.97279C12.0526 7.66375 12.3003 7.29619 12.4696 6.89119C12.6389 6.48619 12.7266 6.05173 12.7275 5.61277C12.7285 5.1738 12.6427 4.73897 12.4752 4.33323C12.3077 3.92749 12.0616 3.55884 11.7512 3.24845C11.4408 2.93805 11.0722 2.69202 10.6664 2.52447C10.2607 2.35693 9.82587 2.27118 9.38691 2.27214C8.94794 2.2731 8.51349 2.36076 8.10849 2.53008C7.70349 2.69939 7.33592 2.94704 7.02688 3.25879L6.79088 3.49479C6.16598 4.11988 5.81493 4.96758 5.81493 5.85146C5.81493 6.73534 6.16598 7.58303 6.79088 8.20812L7.73422 9.15146L6.79088 10.0941L5.84822 9.15146C5.41483 8.71811 5.07104 8.20364 4.83649 7.63742C4.60194 7.07121 4.48121 6.46433 4.48121 5.85146C4.48121 5.23858 4.60194 4.63171 4.83649 4.06549C5.07104 3.49927 5.41483 2.9848 5.84822 2.55146L6.08422 2.31612C6.95943 1.44091 8.14648 0.949219 9.38422 0.949219C10.622 0.949219 11.809 1.44091 12.6842 2.31612C13.5594 3.19134 14.0511 4.37838 14.0511 5.61612C14.0511 6.85386 13.5594 8.04091 12.6842 8.91612L12.6836 8.91546Z" fill="white"/>
</svg>
