<svg width="30" height="30" viewBox="0 0 30 30" fill="none" xmlns="http://www.w3.org/2000/svg">
<rect width="29.6364" height="29.6364" rx="6.81818" fill="#F4F3F5"/>
<g clip-path="url(#clip0_3180:20675)">
<path d="M16.151 16.3151V21.4805H9.48438C9.48417 20.6664 9.67032 19.8631 10.0286 19.1321C10.3868 18.4011 10.9077 17.7618 11.5512 17.2632C12.1947 16.7646 12.9438 16.4199 13.7411 16.2556C14.5385 16.0912 15.3628 16.1116 16.151 16.3151ZM14.8177 15.4805C12.6077 15.4805 10.8177 13.6905 10.8177 11.4805C10.8177 9.27047 12.6077 7.48047 14.8177 7.48047C17.0277 7.48047 18.8177 9.27047 18.8177 11.4805C18.8177 13.6905 17.0277 15.4805 14.8177 15.4805Z" fill="#586795"/>
<path d="M17.4043 20.1177L18.6229 18.8984L18.6229 21.2891L19.9563 21.2891L19.9563 18.8984L21.1749 20.1177L22.1183 19.1744L19.2896 16.3464L16.4609 19.1744L17.4043 20.1177Z" fill="#586795"/>
</g>
<defs>
<clipPath id="clip0_3180:20675">
<rect width="16" height="16" fill="white" transform="translate(6.81641 6.81641)"/>
</clipPath>
</defs>
</svg>
