<svg width="14" height="14" viewBox="0 0 14 14" fill="none" xmlns="http://www.w3.org/2000/svg">
<path d="M3.21719 11.5536L0.179688 13.94V1.32635C0.179688 1.14552 0.251522 0.972097 0.379387 0.844231C0.507253 0.716365 0.680676 0.644531 0.861506 0.644531H13.1342C13.3151 0.644531 13.4885 0.716365 13.6164 0.844231C13.7442 0.972097 13.8161 1.14552 13.8161 1.32635V10.8718C13.8161 11.0526 13.7442 11.2261 13.6164 11.3539C13.4885 11.4818 13.3151 11.5536 13.1342 11.5536H3.21719ZM6.31605 8.14453V9.50817H7.67969V8.14453H6.31605ZM4.65719 4.60794L5.99492 4.8759C6.03288 4.68596 6.124 4.51071 6.25766 4.37054C6.39133 4.23037 6.56206 4.13104 6.74998 4.0841C6.93789 4.03717 7.13528 4.04456 7.31916 4.10542C7.50304 4.16628 7.66585 4.2781 7.78866 4.42788C7.91148 4.57766 7.98923 4.75923 8.01288 4.95147C8.03653 5.14371 8.0051 5.33871 7.92226 5.51379C7.83941 5.68887 7.70856 5.83682 7.54491 5.94044C7.38126 6.04405 7.19156 6.09906 6.99787 6.09908H6.31605V7.46271H6.99787C7.44976 7.46257 7.89232 7.33413 8.27407 7.09233C8.65582 6.85052 8.96107 6.50529 9.1543 6.09681C9.34754 5.68832 9.42082 5.23336 9.36562 4.78486C9.31042 4.33635 9.12902 3.91274 8.8425 3.56329C8.55598 3.21385 8.17614 2.95294 7.74715 2.81091C7.31816 2.66889 6.85766 2.65158 6.41923 2.76102C5.98079 2.87045 5.58244 3.10212 5.2705 3.42908C4.95857 3.75604 4.74589 4.16484 4.65719 4.60794Z" fill="#27C089"/>
</svg>
