<svg width="30" height="31" viewBox="0 0 30 31" fill="none" xmlns="http://www.w3.org/2000/svg">
<rect y="0.910156" width="29.6364" height="29.6364" rx="6.81818" fill="#F4F3F5"/>
<g clip-path="url(#clip0_3180:20691)">
<path d="M7.60547 15.7266C8.23214 12.3132 11.2235 9.72656 14.8181 9.72656C18.4128 9.72656 21.4035 12.3132 22.0308 15.7266C21.4041 19.1399 18.4128 21.7266 14.8181 21.7266C11.2235 21.7266 8.2328 19.1399 7.60547 15.7266V15.7266ZM14.8181 19.0599C15.7022 19.0599 16.55 18.7087 17.1752 18.0836C17.8003 17.4585 18.1515 16.6106 18.1515 15.7266C18.1515 14.8425 17.8003 13.9947 17.1752 13.3695C16.55 12.7444 15.7022 12.3932 14.8181 12.3932C13.9341 12.3932 13.0862 12.7444 12.4611 13.3695C11.836 13.9947 11.4848 14.8425 11.4848 15.7266C11.4848 16.6106 11.836 17.4585 12.4611 18.0836C13.0862 18.7087 13.9341 19.0599 14.8181 19.0599ZM14.8181 17.7266C14.2877 17.7266 13.779 17.5158 13.4039 17.1408C13.0288 16.7657 12.8181 16.257 12.8181 15.7266C12.8181 15.1961 13.0288 14.6874 13.4039 14.3123C13.779 13.9373 14.2877 13.7266 14.8181 13.7266C15.3486 13.7266 15.8573 13.9373 16.2323 14.3123C16.6074 14.6874 16.8181 15.1961 16.8181 15.7266C16.8181 16.257 16.6074 16.7657 16.2323 17.1408C15.8573 17.5158 15.3486 17.7266 14.8181 17.7266Z" fill="#586795"/>
</g>
<defs>
<clipPath id="clip0_3180:20691">
<rect width="16" height="16" fill="white" transform="translate(6.81641 7.72656)"/>
</clipPath>
</defs>
</svg>
