<svg width="30" height="31" viewBox="0 0 30 31" fill="none" xmlns="http://www.w3.org/2000/svg">
<rect y="0.636719" width="29.6364" height="29.6364" rx="6.81818" fill="#F4F3F5"/>
<path d="M18.1484 9.45443H20.8151C20.9919 9.45443 21.1615 9.52466 21.2865 9.64969C21.4115 9.77471 21.4818 9.94428 21.4818 10.1211V20.7878C21.4818 20.9646 21.4115 21.1341 21.2865 21.2592C21.1615 21.3842 20.9919 21.4544 20.8151 21.4544H8.8151C8.63829 21.4544 8.46872 21.3842 8.3437 21.2592C8.21868 21.1341 8.14844 20.9646 8.14844 20.7878V10.1211C8.14844 9.94428 8.21868 9.77471 8.3437 9.64969C8.46872 9.52466 8.63829 9.45443 8.8151 9.45443H11.4818V8.12109H12.8151V9.45443H16.8151V8.12109H18.1484V9.45443ZM9.48177 13.4544V20.1211H20.1484V13.4544H9.48177ZM10.8151 16.1211H14.1484V18.7878H10.8151V16.1211Z" fill="#586795"/>
</svg>
