<svg width="14" height="13" viewBox="0 0 14 13" fill="none" xmlns="http://www.w3.org/2000/svg">
<path d="M3.48437 6.26562C3.09041 6.26562 2.7003 6.18803 2.33632 6.03726C1.97235 5.8865 1.64163 5.66552 1.36305 5.38694C1.08448 5.10837 0.8635 4.77765 0.712736 4.41367C0.561972 4.0497 0.484375 3.65959 0.484375 3.26562C0.484375 2.87166 0.561972 2.48155 0.712736 2.11757C0.8635 1.7536 1.08448 1.42288 1.36305 1.1443C1.64163 0.865729 1.97235 0.644751 2.33632 0.493986C2.7003 0.343222 3.09041 0.265625 3.48437 0.265625C4.28002 0.265625 5.04309 0.581695 5.60569 1.1443C6.1683 1.70691 6.48437 2.46998 6.48437 3.26562C6.48437 4.06127 6.1683 4.82434 5.60569 5.38694C5.04309 5.94955 4.28002 6.26562 3.48437 6.26562ZM3.48437 12.9323C2.68873 12.9323 1.92566 12.6162 1.36305 12.0536C0.800445 11.491 0.484375 10.7279 0.484375 9.93229C0.484375 9.13664 0.800445 8.37358 1.36305 7.81097C1.92566 7.24836 2.68873 6.93229 3.48437 6.93229C4.28002 6.93229 5.04309 7.24836 5.60569 7.81097C6.1683 8.37358 6.48437 9.13664 6.48437 9.93229C6.48437 10.7279 6.1683 11.491 5.60569 12.0536C5.04309 12.6162 4.28002 12.9323 3.48437 12.9323ZM10.151 6.26562C9.75708 6.26562 9.36697 6.18803 9.00299 6.03726C8.63901 5.8865 8.3083 5.66552 8.02972 5.38694C7.75115 5.10837 7.53017 4.77765 7.3794 4.41367C7.22864 4.0497 7.15104 3.65959 7.15104 3.26562C7.15104 2.87166 7.22864 2.48155 7.3794 2.11757C7.53017 1.7536 7.75115 1.42288 8.02972 1.1443C8.3083 0.865729 8.63901 0.644751 9.00299 0.493986C9.36697 0.343222 9.75708 0.265625 10.151 0.265625C10.9467 0.265625 11.7098 0.581695 12.2724 1.1443C12.835 1.70691 13.151 2.46998 13.151 3.26562C13.151 4.06127 12.835 4.82434 12.2724 5.38694C11.7098 5.94955 10.9467 6.26562 10.151 6.26562ZM10.151 12.9323C9.35539 12.9323 8.59233 12.6162 8.02972 12.0536C7.46711 11.491 7.15104 10.7279 7.15104 9.93229C7.15104 9.13664 7.46711 8.37358 8.02972 7.81097C8.59233 7.24836 9.35539 6.93229 10.151 6.93229C10.9467 6.93229 11.7098 7.24836 12.2724 7.81097C12.835 8.37358 13.151 9.13664 13.151 9.93229C13.151 10.7279 12.835 11.491 12.2724 12.0536C11.7098 12.6162 10.9467 12.9323 10.151 12.9323Z" fill="#7C8DBF"/>
</svg>
