<svg width="30" height="30" viewBox="0 0 30 30" fill="none" xmlns="http://www.w3.org/2000/svg">
<rect y="0.273438" width="29.6364" height="29.6364" rx="6.81818" fill="#F4F3F5"/>
<path d="M15.5213 12.498L16.4646 13.4413C16.898 13.8746 17.2418 14.3891 17.4764 14.9553C17.7109 15.5216 17.8316 16.1284 17.8316 16.7413C17.8316 17.3542 17.7109 17.9611 17.4764 18.5273C17.2418 19.0935 16.898 19.608 16.4646 20.0413L16.2286 20.2766C15.3534 21.1518 14.1664 21.6435 12.9286 21.6435C11.6909 21.6435 10.5038 21.1518 9.62862 20.2766C8.75341 19.4014 8.26172 18.2144 8.26172 16.9766C8.26172 15.7389 8.75341 14.5518 9.62862 13.6766L10.572 14.62C10.2602 14.929 10.0126 15.2966 9.84324 15.7016C9.67393 16.1066 9.58627 16.541 9.58531 16.98C9.58435 17.419 9.6701 17.8538 9.83764 18.2595C10.0052 18.6653 10.2512 19.0339 10.5616 19.3443C10.872 19.6547 11.2407 19.9007 11.6464 20.0683C12.0521 20.2358 12.487 20.3216 12.9259 20.3206C13.3649 20.3197 13.7994 20.232 14.2044 20.0627C14.6094 19.8934 14.9769 19.6457 15.286 19.334L15.522 19.098C16.1469 18.4729 16.4979 17.6252 16.4979 16.7413C16.4979 15.8574 16.1469 15.0097 15.522 14.3846L14.5786 13.4413L15.522 12.4986L15.5213 12.498ZM20 16.5053L19.0573 15.5626C19.369 15.2536 19.6167 14.886 19.786 14.481C19.9553 14.076 20.043 13.6416 20.0439 13.2026C20.0449 12.7636 19.9591 12.3288 19.7916 11.9231C19.6241 11.5173 19.378 11.1487 19.0676 10.8383C18.7572 10.5279 18.3886 10.2819 17.9829 10.1143C17.5771 9.94678 17.1423 9.86102 16.7033 9.86199C16.2643 9.86295 15.8299 9.9506 15.4249 10.1199C15.0199 10.2892 14.6523 10.5369 14.3433 10.8486L14.1073 11.0846C13.4824 11.7097 13.1313 12.5574 13.1313 13.4413C13.1313 14.3252 13.4824 15.1729 14.1073 15.798L15.0506 16.7413L14.1073 17.684L13.1646 16.7413C12.7312 16.308 12.3874 15.7935 12.1529 15.2273C11.9183 14.6611 11.7976 14.0542 11.7976 13.4413C11.7976 12.8284 11.9183 12.2216 12.1529 11.6553C12.3874 11.0891 12.7312 10.5746 13.1646 10.1413L13.4006 9.90597C14.2758 9.03075 15.4629 8.53906 16.7006 8.53906C17.9384 8.53906 19.1254 9.03075 20.0006 9.90597C20.8758 10.7812 21.3675 11.9682 21.3675 13.206C21.3675 14.4437 20.8758 15.6308 20.0006 16.506L20 16.5053Z" fill="#586795"/>
</svg>
