<svg width="16" height="16" viewBox="0 0 16 16" fill="none" xmlns="http://www.w3.org/2000/svg">
<path d="M9.75779 7.00066C10.6487 7.00066 11.0949 5.92351 10.4649 5.29355L7.515 2.34366C7.12453 1.95319 7.12453 1.32012 7.515 0.929656V0.929656C7.90547 0.539191 8.53853 0.539191 8.929 0.929656L15.2929 7.29355C15.6834 7.68407 15.6834 8.31724 15.2929 8.70776L8.929 15.0717C8.53853 15.4621 7.90547 15.4621 7.515 15.0717V15.0717C7.12453 14.6812 7.12453 14.0481 7.515 13.6577L10.4649 10.7078C11.0949 10.0778 10.6487 9.00066 9.75779 9.00066H1C0.447715 9.00066 0 8.55294 0 8.00066V8.00066C0 7.44837 0.447715 7.00066 1 7.00066H9.75779Z" fill="#1254FF"/>
</svg>
