<svg width="170" height="170" viewBox="0 0 170 170" fill="none" xmlns="http://www.w3.org/2000/svg">
<circle cx="85" cy="85" r="37" fill="#1254FF"/>
<g opacity="0.5">
<circle cx="85" cy="85" r="59.5" stroke="#1254FF" stroke-opacity="0.5"/>
<circle cx="85" cy="85" r="84.5" stroke="#1254FF" stroke-opacity="0.2"/>
</g>
<path d="M93.1667 80.6667H94.3333C94.6428 80.6667 94.9395 80.7896 95.1583 81.0084C95.3771 81.2272 95.5 81.524 95.5 81.8334V93.5C95.5 93.8095 95.3771 94.1062 95.1583 94.325C94.9395 94.5438 94.6428 94.6667 94.3333 94.6667H75.6667C75.3572 94.6667 75.0605 94.5438 74.8417 94.325C74.6229 94.1062 74.5 93.8095 74.5 93.5V81.8334C74.5 81.524 74.6229 81.2272 74.8417 81.0084C75.0605 80.7896 75.3572 80.6667 75.6667 80.6667H76.8333V79.5C76.8333 78.4276 77.0446 77.3656 77.455 76.3748C77.8654 75.384 78.4669 74.4837 79.2253 73.7253C79.9836 72.967 80.8839 72.3654 81.8748 71.955C82.8656 71.5446 83.9275 71.3334 85 71.3334C86.0725 71.3334 87.1344 71.5446 88.1252 71.955C89.1161 72.3654 90.0164 72.967 90.7747 73.7253C91.533 74.4837 92.1346 75.384 92.545 76.3748C92.9554 77.3656 93.1667 78.4276 93.1667 79.5V80.6667ZM76.8333 83V92.3334H93.1667V83H76.8333ZM83.8333 85.3334H86.1667V90H83.8333V85.3334ZM90.8333 80.6667V79.5C90.8333 77.9529 90.2188 76.4692 89.1248 75.3753C88.0308 74.2813 86.5471 73.6667 85 73.6667C83.4529 73.6667 81.9692 74.2813 80.8752 75.3753C79.7812 76.4692 79.1667 77.9529 79.1667 79.5V80.6667H90.8333Z" fill="white"/>
</svg>
