<svg width="21" height="20" viewBox="0 0 21 20" fill="none" xmlns="http://www.w3.org/2000/svg">
<path d="M1.67346 18.3334C1.67346 16.5653 2.37584 14.8696 3.62608 13.6193C4.87633 12.3691 6.57202 11.6667 8.34013 11.6667C10.1082 11.6667 11.8039 12.3691 13.0542 13.6193C14.3044 14.8696 15.0068 16.5653 15.0068 18.3334H13.3401C13.3401 17.0073 12.8133 15.7355 11.8757 14.7978C10.938 13.8602 9.66621 13.3334 8.34013 13.3334C7.01405 13.3334 5.74228 13.8602 4.80459 14.7978C3.86691 15.7355 3.34013 17.0073 3.34013 18.3334H1.67346ZM8.34013 10.8334C5.57763 10.8334 3.34013 8.59587 3.34013 5.83337C3.34013 3.07087 5.57763 0.833374 8.34013 0.833374C11.1026 0.833374 13.3401 3.07087 13.3401 5.83337C13.3401 8.59587 11.1026 10.8334 8.34013 10.8334ZM8.34013 9.16671C10.1818 9.16671 11.6735 7.67504 11.6735 5.83337C11.6735 3.99171 10.1818 2.50004 8.34013 2.50004C6.49846 2.50004 5.0068 3.99171 5.0068 5.83337C5.0068 7.67504 6.49846 9.16671 8.34013 9.16671ZM15.2435 12.2525C16.4146 12.78 17.4084 13.6344 18.1056 14.7131C18.8028 15.7919 19.1736 17.049 19.1735 18.3334H17.5068C17.507 17.37 17.2289 16.4271 16.706 15.618C16.1831 14.8089 15.4377 14.1681 14.5593 13.7725L15.2426 12.2525H15.2435ZM14.6701 2.84421C15.5097 3.19029 16.2276 3.77799 16.7326 4.53273C17.2377 5.28748 17.5071 6.17524 17.5068 7.08337C17.5071 8.22698 17.0799 9.3294 16.3089 10.1741C15.538 11.0187 14.479 11.5446 13.3401 11.6484V9.97087C13.9576 9.88244 14.5304 9.59839 14.9745 9.16042C15.4187 8.72246 15.7107 8.15364 15.8078 7.53749C15.9048 6.92133 15.8018 6.29029 15.5138 5.737C15.2258 5.18372 14.768 4.73733 14.2076 4.46337L14.6701 2.84421Z" fill="#5F76C1"/>
</svg>
