<svg width="16" height="18" viewBox="0 0 16 18" fill="none" xmlns="http://www.w3.org/2000/svg">
<path d="M11.8783 12.4463L12.0277 12.5966L12.1788 12.4463C12.3562 12.2689 12.5668 12.1282 12.7986 12.0322C13.0304 11.9362 13.2788 11.8868 13.5297 11.8868C13.7805 11.8868 14.029 11.9362 14.2607 12.0322C14.4925 12.1282 14.7031 12.2689 14.8805 12.4463C15.0579 12.6237 15.1986 12.8343 15.2946 13.0661C15.3906 13.2979 15.4401 13.5463 15.4401 13.7972C15.4401 14.048 15.3906 14.2965 15.2946 14.5282C15.1986 14.76 15.0579 14.9706 14.8805 15.148L12.0277 18L9.17656 15.148C8.81829 14.7898 8.61702 14.3038 8.61702 13.7972C8.61702 13.2905 8.81829 12.8046 9.17656 12.4463C9.53483 12.0881 10.0207 11.8868 10.5274 11.8868C11.0341 11.8868 11.52 12.0881 11.8783 12.4463ZM6.91892 11.0377V12.7358C5.56781 12.7358 4.27205 13.2726 3.31668 14.2279C2.3613 15.1833 1.82458 16.4791 1.82458 17.8302H0.126465C0.126485 16.0655 0.813298 14.3701 2.04149 13.1029C3.26967 11.8357 4.94281 11.0963 6.70665 11.0411L6.91892 11.0377ZM6.91892 0C9.73354 0 12.0133 2.27972 12.0133 5.09434C12.0137 6.41252 11.5031 7.67954 10.5886 8.62897C9.67418 9.5784 8.42723 10.1363 7.10996 10.1853L6.91892 10.1887C4.1043 10.1887 1.82458 7.90896 1.82458 5.09434C1.82411 3.77615 2.33478 2.50914 3.24921 1.55971C4.16365 0.610277 5.41061 0.052405 6.72788 0.00339618L6.91892 0ZM6.91892 1.69811C5.0425 1.69811 3.52269 3.21792 3.52269 5.09434C3.52269 6.97075 5.0425 8.49057 6.91892 8.49057C8.79533 8.49057 10.3151 6.97075 10.3151 5.09434C10.3151 3.21792 8.79533 1.69811 6.91892 1.69811Z" fill="#FFCB13"/>
</svg>