<svg width="20" height="20" viewBox="0 0 20 20" fill="none" xmlns="http://www.w3.org/2000/svg">
<path d="M11.0621 9.16664C11.953 9.16664 12.3992 8.0895 11.7692 7.45954L9.59551 5.28581C9.27012 4.96042 9.27012 4.43286 9.59551 4.10748V4.10748C9.9209 3.78209 10.4485 3.78209 10.7738 4.10748L15.9592 9.29287C16.3498 9.6834 16.3498 10.3166 15.9592 10.7071L10.7738 15.8925C10.4485 16.2179 9.9209 16.2179 9.59551 15.8925V15.8925C9.27012 15.5671 9.27012 15.0395 9.59551 14.7141L11.7692 12.5404C12.3992 11.9105 11.953 10.8333 11.0621 10.8333H4.16634C3.7061 10.8333 3.33301 10.4602 3.33301 9.99998V9.99998C3.33301 9.53974 3.7061 9.16664 4.16634 9.16664H11.0621Z" fill="white"/>
</svg>
