<svg width="15" height="13" viewBox="0 0 15 13" fill="none" xmlns="http://www.w3.org/2000/svg">
<path d="M1.4987 0.5H13.4987C13.6755 0.5 13.8451 0.570238 13.9701 0.695262C14.0951 0.820286 14.1654 0.989856 14.1654 1.16667V11.8333C14.1654 12.0101 14.0951 12.1797 13.9701 12.3047C13.8451 12.4298 13.6755 12.5 13.4987 12.5H1.4987C1.32189 12.5 1.15232 12.4298 1.02729 12.3047C0.902269 12.1797 0.832031 12.0101 0.832031 11.8333V1.16667C0.832031 0.989856 0.902269 0.820286 1.02729 0.695262C1.15232 0.570238 1.32189 0.5 1.4987 0.5ZM4.16536 7.16667V9.83333H5.4987V7.16667H4.16536ZM6.83203 3.16667V9.83333H8.16536V3.16667H6.83203ZM9.4987 5.16667V9.83333H10.832V5.16667H9.4987Z" fill="white"/>
</svg>
