<svg width="16" height="16" viewBox="0 0 16 16" fill="none" xmlns="http://www.w3.org/2000/svg">
<path d="M3.33464 1.33334H12.668C12.8448 1.33334 13.0143 1.40358 13.1394 1.52861C13.2644 1.65363 13.3346 1.8232 13.3346 2.00001V14.762C13.3347 14.8216 13.3188 14.8801 13.2886 14.9315C13.2583 14.9829 13.2149 15.0252 13.1627 15.0541C13.1106 15.0829 13.0516 15.0973 12.9921 15.0956C12.9325 15.094 12.8744 15.0764 12.824 15.0447L8.0013 12.02L3.17864 15.044C3.12821 15.0757 3.07023 15.0933 3.0107 15.095C2.95118 15.0966 2.89229 15.0823 2.84017 15.0536C2.78804 15.0248 2.74457 14.9826 2.71429 14.9313C2.68401 14.88 2.66801 14.8216 2.66797 14.762V2.00001C2.66797 1.8232 2.73821 1.65363 2.86323 1.52861C2.98826 1.40358 3.15782 1.33334 3.33464 1.33334Z" fill="white"/>
</svg>
