<svg width="109" height="96" viewBox="0 0 109 96" fill="none" xmlns="http://www.w3.org/2000/svg">
<path d="M44.3574 6.44494L58.2381 27.5816C58.3472 27.7477 58.3224 27.9681 58.1791 28.1059L37.4392 48.0395C37.2838 48.1888 37.2694 48.4325 37.4062 48.5991L55.591 70.7498C55.8526 71.0683 56.3681 70.8491 56.3202 70.4398L54.1172 51.6219C54.101 51.4837 54.1555 51.3467 54.2622 51.2574L78.0396 31.3421C78.1639 31.238 78.2158 31.0708 78.1722 30.9146L70.5966 3.76627C80.0971 0.778622 90.9261 2.98276 98.4664 10.3787C109.208 20.9145 109.208 37.9964 98.4664 48.5322L54.5018 91.6552L10.5372 48.5322C-0.204274 37.9964 -0.204274 20.9145 10.5372 10.3787C19.7138 1.37771 33.7615 0.0664646 44.3574 6.44494Z" fill="#DD0000"/>
<path d="M44.3574 6.44494L58.2381 27.5816C58.3472 27.7477 58.3224 27.9681 58.1791 28.1059L37.4392 48.0395C37.2838 48.1888 37.2694 48.4325 37.4062 48.5991L55.591 70.7498C55.8526 71.0683 56.3681 70.8491 56.3202 70.4398L54.1172 51.6219C54.101 51.4837 54.1555 51.3467 54.2622 51.2574L78.0396 31.3421C78.1639 31.238 78.2158 31.0708 78.1722 30.9146L70.5966 3.76627C80.0971 0.778622 90.9261 2.98276 98.4664 10.3787C109.208 20.9145 109.208 37.9964 98.4664 48.5322L54.5018 91.6552L10.5372 48.5322C-0.204274 37.9964 -0.204274 20.9145 10.5372 10.3787C19.7138 1.37771 33.7615 0.0664646 44.3574 6.44494Z" fill="url(#paint0_linear)" fill-opacity="0.2"/>
<path fill-rule="evenodd" clip-rule="evenodd" d="M42.6042 8.28806C33.0062 2.79547 20.4829 4.09324 12.2718 12.1472C2.52042 21.7119 2.52042 37.1991 12.2718 46.7638L54.5018 88.1853L96.7318 46.7638C106.483 37.1991 106.483 21.7119 96.7318 12.1472C90.4801 6.0151 81.7263 3.7952 73.6575 5.51894L80.5582 30.2488C80.8633 31.342 80.5002 32.5125 79.6302 33.2412L56.7072 52.4408L58.7806 70.1517C59.116 73.0173 55.5071 74.5515 53.6764 72.3216L35.4916 50.171C34.5343 49.005 34.6349 47.2988 35.7226 46.2535L55.2262 27.5081L42.6042 8.28806ZM56.5776 51.3339C56.5778 51.3353 56.5779 51.3367 56.5781 51.3381L56.5776 51.3339ZM8.80255 8.61021C18.8084 -1.20409 34.0998 -2.6213 45.635 4.32264L46.1183 4.6136L60.3087 26.2218C61.0725 27.385 60.8991 28.9275 59.8957 29.8919M59.8957 29.8919L40.532 48.5027L53.0418 63.7407L51.6568 51.91C51.5436 50.9427 51.9251 49.9836 52.6716 49.3583L75.4283 30.298L67.5661 2.12251L69.8535 1.40319C80.1836 -1.84535 91.9765 0.543154 100.201 8.61021C111.933 20.1172 111.933 38.7938 100.201 50.3007L54.5018 95.1251L8.80255 50.3007C-2.92898 38.7938 -2.92898 20.1172 8.80255 8.61021" fill="#DD0000"/>
<path fill-rule="evenodd" clip-rule="evenodd" d="M42.6042 8.28806C33.0062 2.79547 20.4829 4.09324 12.2718 12.1472C2.52042 21.7119 2.52042 37.1991 12.2718 46.7638L54.5018 88.1853L96.7318 46.7638C106.483 37.1991 106.483 21.7119 96.7318 12.1472C90.4801 6.0151 81.7263 3.7952 73.6575 5.51894L80.5582 30.2488C80.8633 31.342 80.5002 32.5125 79.6302 33.2412L56.7072 52.4408L58.7806 70.1517C59.116 73.0173 55.5071 74.5515 53.6764 72.3216L35.4916 50.171C34.5343 49.005 34.6349 47.2988 35.7226 46.2535L55.2262 27.5081L42.6042 8.28806ZM56.5776 51.3339C56.5778 51.3353 56.5779 51.3367 56.5781 51.3381L56.5776 51.3339ZM8.80255 8.61021C18.8084 -1.20409 34.0998 -2.6213 45.635 4.32264L46.1183 4.6136L60.3087 26.2218C61.0725 27.385 60.8991 28.9275 59.8957 29.8919M59.8957 29.8919L40.532 48.5027L53.0418 63.7407L51.6568 51.91C51.5436 50.9427 51.9251 49.9836 52.6716 49.3583L75.4283 30.298L67.5661 2.12251L69.8535 1.40319C80.1836 -1.84535 91.9765 0.543154 100.201 8.61021C111.933 20.1172 111.933 38.7938 100.201 50.3007L54.5018 95.1251L8.80255 50.3007C-2.92898 38.7938 -2.92898 20.1172 8.80255 8.61021" fill="url(#paint1_linear)" fill-opacity="0.2"/>
<defs>
<linearGradient id="paint0_linear" x1="55.1309" y1="164.857" x2="50.0763" y2="47.9684" gradientUnits="userSpaceOnUse">
<stop offset="0.546711" stop-color="#10183D"/>
<stop offset="1" stop-color="#10183D" stop-opacity="0"/>
</linearGradient>
<linearGradient id="paint1_linear" x1="55.1309" y1="164.857" x2="50.0763" y2="47.9684" gradientUnits="userSpaceOnUse">
<stop offset="0.546711" stop-color="#10183D"/>
<stop offset="1" stop-color="#10183D" stop-opacity="0"/>
</linearGradient>
</defs>
</svg>
