<svg width="21" height="20" viewBox="0 0 21 20" fill="none" xmlns="http://www.w3.org/2000/svg">
<path d="M14.1735 2.50004H17.5069C17.7279 2.50004 17.9398 2.58784 18.0961 2.74412C18.2524 2.9004 18.3402 3.11236 18.3402 3.33337V16.6667C18.3402 16.8877 18.2524 17.0997 18.0961 17.256C17.9398 17.4122 17.7279 17.5 17.5069 17.5H2.50686C2.28584 17.5 2.07388 17.4122 1.9176 17.256C1.76132 17.0997 1.67352 16.8877 1.67352 16.6667V3.33337C1.67352 3.11236 1.76132 2.9004 1.9176 2.74412C2.07388 2.58784 2.28584 2.50004 2.50686 2.50004H5.84019V0.833374H7.50686V2.50004H12.5069V0.833374H14.1735V2.50004ZM3.34019 7.50004V15.8334H16.6735V7.50004H3.34019ZM5.00686 10.8334H9.17352V14.1667H5.00686V10.8334Z" fill="#FFCB13"/>
</svg>
