<svg width="16" height="16" viewBox="0 0 16 16" fill="none" xmlns="http://www.w3.org/2000/svg">
<path d="M11.333 2.00002H13.9997C14.1765 2.00002 14.3461 2.07026 14.4711 2.19528C14.5961 2.32031 14.6663 2.48988 14.6663 2.66669V13.3334C14.6663 13.5102 14.5961 13.6797 14.4711 13.8048C14.3461 13.9298 14.1765 14 13.9997 14H1.99967C1.82286 14 1.65329 13.9298 1.52827 13.8048C1.40325 13.6797 1.33301 13.5102 1.33301 13.3334V2.66669C1.33301 2.48988 1.40325 2.32031 1.52827 2.19528C1.65329 2.07026 1.82286 2.00002 1.99967 2.00002H4.66634V0.666687H5.99967V2.00002H9.99967V0.666687H11.333V2.00002ZM2.66634 6.00002V12.6667H13.333V6.00002H2.66634ZM3.99967 8.66669H7.33301V11.3334H3.99967V8.66669Z" fill="white"/>
</svg>
