<svg width="20" height="20" viewBox="0 0 20 20" fill="none" xmlns="http://www.w3.org/2000/svg">
<path d="M2.5 16.6665C2.5 16.2063 2.8731 15.8332 3.33333 15.8332H16.6667C17.1269 15.8332 17.5 16.2063 17.5 16.6665V16.6665C17.5 17.1267 17.1269 17.4998 16.6667 17.4998H3.33333C2.8731 17.4998 2.5 17.1267 2.5 16.6665V16.6665ZM10.8333 8.56201C10.8333 9.45295 11.9106 9.8991 12.5405 9.26906L15.3033 6.50576C15.6287 6.18033 16.1563 6.18031 16.4817 6.50571V6.50571C16.8071 6.83108 16.8071 7.35861 16.4817 7.684L10.7071 13.4593C10.3166 13.8499 9.68339 13.8499 9.29285 13.4594L3.51836 7.68486C3.19292 7.35943 3.19283 6.83182 3.51815 6.50627V6.50627C3.84361 6.18058 4.3715 6.18046 4.69711 6.50601L7.45962 9.26807C8.08961 9.89796 9.16667 9.45177 9.16667 8.5609V2.49984C9.16667 2.0396 9.53976 1.6665 10 1.6665V1.6665C10.4602 1.6665 10.8333 2.0396 10.8333 2.49984V8.56201Z" fill="#1254FF"/>
</svg>
