<svg width="17" height="17" viewBox="0 0 17 17" fill="none" xmlns="http://www.w3.org/2000/svg">
<path d="M10.4998 1.83333C10.968 1.83328 11.428 1.95649 11.8334 2.19058C12.2389 2.42466 12.5756 2.76138 12.8097 3.16686C13.0437 3.57235 13.1669 4.03231 13.1668 4.5005C13.1667 4.96869 13.0434 5.4286 12.8092 5.834L15.8332 5.83333V7.16667H14.4998V13.8333C14.4998 14.0101 14.4296 14.1797 14.3046 14.3047C14.1796 14.4298 14.01 14.5 13.8332 14.5H3.1665C2.98969 14.5 2.82012 14.4298 2.6951 14.3047C2.57008 14.1797 2.49984 14.0101 2.49984 13.8333V7.16667H1.1665V5.83333L4.1905 5.834C3.85975 5.26126 3.75363 4.58604 3.89276 3.93945C4.03189 3.29286 4.40634 2.72104 4.94339 2.33503C5.48045 1.94902 6.14179 1.77637 6.799 1.85058C7.45621 1.9248 8.06239 2.2406 8.49984 2.73667C8.74957 2.45225 9.05721 2.22451 9.40215 2.06872C9.74709 1.91292 10.1213 1.83267 10.4998 1.83333ZM9.1665 7.16667H7.83317V13.8333H9.1665V7.16667ZM6.49984 3.16667C6.15385 3.16512 5.82081 3.29812 5.57107 3.53759C5.32133 3.77705 5.17446 4.10421 5.16148 4.44996C5.14849 4.79571 5.27042 5.13296 5.5015 5.39048C5.73258 5.64799 6.05471 5.8056 6.39984 5.83L6.49984 5.83333H7.83317V4.5C7.83318 4.18137 7.71909 3.87328 7.51156 3.6315C7.30403 3.38973 7.01679 3.23027 6.70184 3.182L6.59917 3.17L6.49984 3.16667ZM10.4998 3.16667C10.1635 3.16656 9.83946 3.2936 9.5928 3.52233C9.34615 3.75106 9.19507 4.06456 9.16984 4.4L9.1665 4.5V5.83333H10.4998C10.8362 5.83344 11.1602 5.70639 11.4069 5.47767C11.6535 5.24894 11.8046 4.93544 11.8298 4.6L11.8332 4.5C11.8332 4.14638 11.6927 3.80724 11.4426 3.55719C11.1926 3.30714 10.8535 3.16667 10.4998 3.16667Z" fill="white"/>
</svg>
