<svg width="21" height="20" viewBox="0 0 21 20" fill="none" xmlns="http://www.w3.org/2000/svg">
<g clip-path="url(#clip0)">
<path d="M17.5068 6.66667C17.9488 6.66667 18.3728 6.84226 18.6853 7.15482C18.9979 7.46738 19.1735 7.8913 19.1735 8.33333V11.6667C19.1735 12.1087 18.9979 12.5326 18.6853 12.8452C18.3728 13.1577 17.9488 13.3333 17.5068 13.3333H16.6218C16.4187 14.9444 15.6345 16.426 14.4166 17.5C13.1987 18.574 11.6307 19.1666 10.0068 19.1667V17.5C11.3329 17.5 12.6047 16.9732 13.5423 16.0355C14.48 15.0979 15.0068 13.8261 15.0068 12.5V7.5C15.0068 6.17392 14.48 4.90215 13.5423 3.96446C12.6047 3.02678 11.3329 2.5 10.0068 2.5C8.68073 2.5 7.40896 3.02678 6.47128 3.96446C5.5336 4.90215 5.00682 6.17392 5.00681 7.5V13.3333H2.50682C2.06479 13.3333 1.64086 13.1577 1.3283 12.8452C1.01574 12.5326 0.840149 12.1087 0.840149 11.6667V8.33333C0.840149 7.8913 1.01574 7.46738 1.3283 7.15482C1.64086 6.84226 2.06479 6.66667 2.50682 6.66667H3.39182C3.59517 5.05574 4.37938 3.57439 5.59729 2.50056C6.8152 1.42673 8.38311 0.834229 10.0068 0.834229C11.6305 0.834229 13.1984 1.42673 14.4163 2.50056C15.6342 3.57439 16.4185 5.05574 16.6218 6.66667H17.5068ZM6.47348 13.1542L7.35681 11.7408C8.15104 12.2384 9.06962 12.5015 10.0068 12.5C10.944 12.5015 11.8626 12.2384 12.6568 11.7408L13.5401 13.1542C12.4812 13.8176 11.2564 14.1686 10.0068 14.1667C8.7572 14.1686 7.53243 13.8176 6.47348 13.1542Z" fill="#5F76C1"/>
</g>
<defs>
<clipPath id="clip0">
<rect width="20" height="20" fill="white" transform="translate(0.00683594)"/>
</clipPath>
</defs>
</svg>
