<svg width="19" height="18" viewBox="0 0 19 18" fill="none" xmlns="http://www.w3.org/2000/svg">
<g clip-path="url(#clip0)">
<path d="M9.11823 6.18604C10.3609 6.18604 11.3682 5.17868 11.3682 3.93604C11.3682 2.69339 10.3609 1.68604 9.11823 1.68604C7.87558 1.68604 6.86823 2.69339 6.86823 3.93604C6.86823 5.17868 7.87558 6.18604 9.11823 6.18604Z" stroke="#FFCB13" stroke-width="1.5" stroke-linecap="round" stroke-linejoin="round"/>
<path d="M2.93073 16.311C4.17337 16.311 5.18073 15.3037 5.18073 14.061C5.18073 12.8184 4.17337 11.811 2.93073 11.811C1.68808 11.811 0.680725 12.8184 0.680725 14.061C0.680725 15.3037 1.68808 16.311 2.93073 16.311Z" stroke="#FFCB13" stroke-width="1.5" stroke-linecap="round" stroke-linejoin="round"/>
<path d="M15.3057 16.311C16.5484 16.311 17.5557 15.3037 17.5557 14.061C17.5557 12.8184 16.5484 11.811 15.3057 11.811C14.0631 11.811 13.0557 12.8184 13.0557 14.061C13.0557 15.3037 14.0631 16.311 15.3057 16.311Z" stroke="#FFCB13" stroke-width="1.5" stroke-linecap="round" stroke-linejoin="round"/>
<path d="M5.18073 14.061H13.0557" stroke="#FFCB13" stroke-width="1.5" stroke-linecap="round" stroke-linejoin="round"/>
<path d="M10.3625 5.81104L14.324 12.036" stroke="#FFCB13" stroke-width="1.5" stroke-linecap="round" stroke-linejoin="round"/>
<path d="M7.87398 5.81104L3.91248 12.036" stroke="#FFCB13" stroke-width="1.5" stroke-linecap="round" stroke-linejoin="round"/>
</g>
<defs>
<clipPath id="clip0">
<rect width="18" height="18" fill="white" transform="translate(0.118225)"/>
</clipPath>
</defs>
</svg>
