<svg width="20" height="20" viewBox="0 0 20 20" fill="none" xmlns="http://www.w3.org/2000/svg">
<path d="M11.0612 6.11023L12.4762 7.52523C13.1263 8.17525 13.642 8.94696 13.9938 9.79628C14.3457 10.6456 14.5267 11.5559 14.5267 12.4752C14.5267 13.3945 14.3457 14.3049 13.9938 15.1542C13.642 16.0035 13.1263 16.7752 12.4762 17.4252L12.1222 17.7782C10.8094 19.0911 9.02884 19.8286 7.17223 19.8286C5.31562 19.8286 3.53505 19.0911 2.22223 17.7782C0.909411 16.4654 0.171875 14.6848 0.171875 12.8282C0.171875 10.9716 0.909411 9.19105 2.22223 7.87823L3.63723 9.29323C3.1696 9.75678 2.79814 10.3081 2.54416 10.9156C2.29018 11.5231 2.1587 12.1748 2.15726 12.8333C2.15582 13.4917 2.28445 14.144 2.53576 14.7526C2.78707 15.3612 3.15612 15.9142 3.62171 16.3798C4.08731 16.8453 4.64028 17.2144 5.24889 17.4657C5.8575 17.717 6.50975 17.8456 7.1682 17.8442C7.82665 17.8428 8.47833 17.7113 9.08583 17.4573C9.69333 17.2033 10.2447 16.8319 10.7082 16.3642L11.0622 16.0102C11.9996 15.0726 12.5262 13.8011 12.5262 12.4752C12.5262 11.1494 11.9996 9.87787 11.0622 8.94023L9.64723 7.52523L11.0622 6.11123L11.0612 6.11023ZM17.7792 12.1212L16.3652 10.7072C16.8329 10.2437 17.2043 9.69233 17.4583 9.08483C17.7123 8.47733 17.8438 7.82565 17.8452 7.1672C17.8466 6.50875 17.718 5.8565 17.4667 5.24789C17.2154 4.63928 16.8463 4.08631 16.3808 3.62071C15.9152 3.15512 15.3622 2.78607 14.7536 2.53476C14.145 2.28345 13.4927 2.15482 12.8343 2.15626C12.1758 2.1577 11.5241 2.28919 10.9166 2.54316C10.3091 2.79714 9.75778 3.1686 9.29423 3.63623L8.94023 3.99023C8.00288 4.92787 7.4763 6.19941 7.4763 7.52523C7.4763 8.85105 8.00288 10.1226 8.94023 11.0602L10.3552 12.4752L8.94023 13.8892L7.52623 12.4752C6.87615 11.8252 6.36047 11.0535 6.00864 10.2042C5.65681 9.35486 5.47573 8.44454 5.47573 7.52523C5.47573 6.60592 5.65681 5.69561 6.00864 4.84628C6.36047 3.99696 6.87615 3.22525 7.52623 2.57523L7.88023 2.22223C9.19305 0.909411 10.9736 0.171875 12.8302 0.171875C14.6868 0.171875 16.4674 0.909411 17.7802 2.22223C19.0931 3.53505 19.8306 5.31562 19.8306 7.17223C19.8306 9.02884 19.0931 10.8094 17.7802 12.1222L17.7792 12.1212Z" fill="#1254FF"/>
</svg>
