<svg xmlns="http://www.w3.org/2000/svg" viewBox="0 0 12 12.67"><defs><style>.cls-1{fill:#fff;}</style></defs><title>network-node-icon</title><g id="Layer_2" data-name="Layer 2"><g id="Layer_1-2" data-name="Layer 1"><path class="cls-1" d="M7.38,9.85,4,8a2.41,2.41,0,0,1-1.2.63,2.36,2.36,0,0,1-1.34-.13,2.39,2.39,0,0,1-1-.86A2.41,2.41,0,0,1,0,6.33,2.36,2.36,0,0,1,.39,5a2.39,2.39,0,0,1,1-.86A2.31,2.31,0,0,1,4,4.68l3.4-1.86a2.37,2.37,0,0,1,.24-1.61A2.31,2.31,0,0,1,8.86.15a2.26,2.26,0,0,1,1.62,0,2.23,2.23,0,0,1,1.23,1.07A2.37,2.37,0,0,1,12,2.83a2.33,2.33,0,0,1-.88,1.37,2.3,2.3,0,0,1-1.56.46A2.38,2.38,0,0,1,8,4L4.62,5.85a2.64,2.64,0,0,1,0,1L8,8.68a2.35,2.35,0,0,1,3.05-.21A2.33,2.33,0,0,1,12,9.84a2.37,2.37,0,0,1-.24,1.61,2.31,2.31,0,0,1-1.23,1.07,2.26,2.26,0,0,1-1.62,0,2.31,2.31,0,0,1-1.24-1.06A2.37,2.37,0,0,1,7.38,9.85Z"/></g></g></svg>