<svg width="19" height="18" viewBox="0 0 19 18" fill="none" xmlns="http://www.w3.org/2000/svg">
<g clip-path="url(#clip0)">
<path d="M16.4307 7.3125V14.0625C16.4307 14.6592 16.1936 15.2315 15.7717 15.6535C15.3497 16.0754 14.7774 16.3125 14.1807 16.3125H4.05566C3.45893 16.3125 2.88663 16.0754 2.46467 15.6535C2.04272 15.2315 1.80566 14.6592 1.80566 14.0625V7.3125" stroke="#FFCB13" stroke-width="1.5" stroke-linecap="round" stroke-linejoin="round"/>
<path d="M16.4307 1.6875H1.80566C1.5073 1.6875 1.22115 1.80603 1.01017 2.017C0.799191 2.22798 0.680664 2.51413 0.680664 2.8125V5.0625H17.5557V2.8125C17.5557 2.51413 17.4371 2.22798 17.2262 2.017C17.0152 1.80603 16.729 1.6875 16.4307 1.6875Z" stroke="#FFCB13" stroke-width="1.5" stroke-linecap="round" stroke-linejoin="round"/>
<path d="M11.3682 8.4375C11.3682 8.73587 11.2496 9.02202 11.0387 9.233C10.8277 9.44397 10.5415 9.5625 10.2432 9.5625H7.99316C7.6948 9.5625 7.40865 9.44397 7.19767 9.233C6.98669 9.02202 6.86816 8.73587 6.86816 8.4375C6.86816 8.13913 6.98669 7.85298 7.19767 7.642C7.40865 7.43103 7.6948 7.3125 7.99316 7.3125H10.2432C10.5415 7.3125 10.8277 7.43103 11.0387 7.642C11.2496 7.85298 11.3682 8.13913 11.3682 8.4375Z" stroke="#FFCB13" stroke-width="1.5" stroke-linecap="round" stroke-linejoin="round"/>
</g>
<defs>
<clipPath id="clip0">
<rect width="18" height="18" fill="white" transform="translate(0.118164)"/>
</clipPath>
</defs>
</svg>
