<svg width="11" height="15" viewBox="0 0 11 15" fill="none" xmlns="http://www.w3.org/2000/svg">
<path d="M3.16664 12.5948H7.83597C7.39493 13.6497 6.55618 14.4884 5.5013 14.9294C4.44642 14.4884 3.60768 13.6497 3.16664 12.5948ZM9.5013 9.13144L10.8346 10.6434V11.9281H0.167969V10.6434L1.5013 9.13144V5.26145C1.5013 2.93945 3.17064 0.963445 5.5013 0.231445C7.83197 0.963445 9.5013 2.93945 9.5013 5.26145V9.13144ZM5.5013 6.59478C5.85492 6.59478 6.19406 6.4543 6.44411 6.20425C6.69416 5.95421 6.83463 5.61507 6.83463 5.26145C6.83463 4.90782 6.69416 4.56868 6.44411 4.31864C6.19406 4.06859 5.85492 3.92811 5.5013 3.92811C5.14768 3.92811 4.80854 4.06859 4.55849 4.31864C4.30844 4.56868 4.16797 4.90782 4.16797 5.26145C4.16797 5.61507 4.30844 5.95421 4.55849 6.20425C4.80854 6.4543 5.14768 6.59478 5.5013 6.59478Z" fill="white"/>
</svg>
