<svg width="19" height="20" viewBox="0 0 19 20" fill="none" xmlns="http://www.w3.org/2000/svg">
<path d="M7.66699 3.9375H2.04199C1.74362 3.9375 1.45748 4.05603 1.2465 4.267C1.03552 4.47798 0.916992 4.76413 0.916992 5.0625V17.1875C0.916992 17.4859 1.03552 17.772 1.2465 17.983C1.45748 18.194 1.74362 18.3125 2.04199 18.3125H16.667C16.9654 18.3125 17.2515 18.194 17.4625 17.983C17.6735 17.772 17.792 17.4859 17.792 17.1875V5.0625C17.792 4.76413 17.6735 4.47798 17.4625 4.267C17.2515 4.05603 16.9654 3.9375 16.667 3.9375H11.042" stroke="#FFCB13" stroke-width="1.5" stroke-linecap="round" stroke-linejoin="round"/>
<path d="M11.042 3.375C11.042 2.92745 10.8642 2.49822 10.5477 2.18176C10.2313 1.86529 9.80205 1.6875 9.35449 1.6875C8.90694 1.6875 8.47772 1.86529 8.16125 2.18176C7.84478 2.49822 7.66699 2.92745 7.66699 3.375V5.625C7.66699 5.77418 7.72626 5.91726 7.83174 6.02275C7.93723 6.12824 8.08031 6.1875 8.22949 6.1875H10.4795C10.6287 6.1875 10.7718 6.12824 10.8772 6.02275C10.9827 5.91726 11.042 5.77418 11.042 5.625V3.375Z" stroke="#FFCB13" stroke-width="1.5" stroke-linecap="round" stroke-linejoin="round"/>
<path d="M9.54199 14.375C10.6293 14.375 11.5107 13.4936 11.5107 12.4062C11.5107 11.3189 10.6293 10.4375 9.54199 10.4375C8.45468 10.4375 7.57324 11.3189 7.57324 12.4062C7.57324 13.4936 8.45468 14.375 9.54199 14.375Z" stroke="#FFCB13" stroke-width="1.5" stroke-linecap="round" stroke-linejoin="round"/>
<path d="M6.16699 18.3125C6.16699 17.4174 6.52257 16.559 7.15551 15.926C7.78844 15.2931 8.64689 14.9375 9.54199 14.9375C10.4371 14.9375 11.2955 15.2931 11.9285 15.926C12.5614 16.559 12.917 17.4174 12.917 18.3125H6.16699Z" stroke="#FFCB13" stroke-width="1.5" stroke-linecap="round" stroke-linejoin="round"/>
</svg>
