<svg width="21" height="20" viewBox="0 0 21 20" fill="none" xmlns="http://www.w3.org/2000/svg">
<path d="M11.3202 14.3926L7.06182 12.0701C6.65306 12.4758 6.13333 12.7514 5.56814 12.8622C5.00296 12.973 4.41762 12.914 3.88592 12.6926C3.35423 12.4712 2.89998 12.0974 2.58044 11.6182C2.26091 11.139 2.09039 10.576 2.09039 10.0001C2.09039 9.42411 2.26091 8.86105 2.58044 8.38188C2.89998 7.9027 3.35423 7.52886 3.88592 7.30747C4.41762 7.08608 5.00296 7.02707 5.56814 7.13786C6.13333 7.24866 6.65306 7.5243 7.06182 7.93005L11.3202 5.60755C11.1741 4.92233 11.2796 4.20744 11.6173 3.5936C11.955 2.97976 12.5024 2.50799 13.1594 2.26458C13.8164 2.02116 14.539 2.02236 15.1952 2.26796C15.8513 2.51355 16.3971 2.98713 16.7328 3.60208C17.0685 4.21704 17.1716 4.93228 17.0233 5.61701C16.875 6.30174 16.4851 6.91021 15.9251 7.33114C15.365 7.75206 14.6721 7.95732 13.9732 7.90938C13.2742 7.86144 12.6158 7.5635 12.1185 7.07005L7.86015 9.39255C7.9451 9.7931 7.9451 10.207 7.86015 10.6076L12.1185 12.9301C12.6158 12.4366 13.2742 12.1387 13.9732 12.0907C14.6721 12.0428 15.365 12.248 15.9251 12.669C16.4851 13.0899 16.875 13.6984 17.0233 14.3831C17.1716 15.0678 17.0685 15.7831 16.7328 16.398C16.3971 17.013 15.8513 17.4866 15.1952 17.7321C14.539 17.9777 13.8164 17.9789 13.1594 17.7355C12.5024 17.4921 11.955 17.0203 11.6173 16.4065C11.2796 15.7927 11.1741 15.0778 11.3202 14.3926Z" fill="#FFCB13"/>
</svg>
