<svg width="13" height="14" viewBox="0 0 13 14" fill="none" xmlns="http://www.w3.org/2000/svg">
<path d="M0.825521 0.894775H12.1589C12.3467 0.894775 12.5269 0.969403 12.6597 1.10224C12.7926 1.23508 12.8672 1.41525 12.8672 1.60311V12.9364C12.8672 13.1243 12.7926 13.3045 12.6597 13.4373C12.5269 13.5701 12.3467 13.6448 12.1589 13.6448H0.825521C0.637659 13.6448 0.457492 13.5701 0.324653 13.4373C0.191815 13.3045 0.117188 13.1243 0.117188 12.9364V1.60311C0.117188 1.41525 0.191815 1.23508 0.324653 1.10224C0.457492 0.969403 0.637659 0.894775 0.825521 0.894775ZM5.78385 6.56144H2.95052V7.97811H5.78385V10.8114H7.20052V7.97811H10.0339V6.56144H7.20052V3.72811H5.78385V6.56144Z" fill="white"/>
</svg>
