<svg width="167" height="104" viewBox="0 0 167 104" fill="none" xmlns="http://www.w3.org/2000/svg">
<path d="M13.3161 4.624L10.2381 4.768C10.0461 4.768 9.8481 4.642 9.6441 4.39C9.4401 4.138 9.3381 3.892 9.3381 3.652C9.3381 3.436 9.6801 3.298 10.3641 3.238C11.0601 3.178 12.5781 3.148 14.9181 3.148C16.1301 3.148 17.1261 3.28 17.9061 3.544C18.6981 3.808 19.0941 4.102 19.0941 4.426C19.0941 4.654 18.8961 4.768 18.5001 4.768C18.1041 4.768 17.5521 4.744 16.8441 4.696C16.1361 4.648 15.4581 4.618 14.8101 4.606C14.8461 4.726 14.8641 4.858 14.8641 5.002C14.8641 5.446 14.3961 7.51 13.4601 11.194C13.3641 11.578 13.2201 12.178 13.0281 12.994C12.8361 13.81 12.6921 14.38 12.5961 14.704C12.4281 15.34 12.2781 15.658 12.1461 15.658C11.9661 15.658 11.7621 15.526 11.5341 15.262C11.3181 14.986 11.2101 14.71 11.2101 14.434C11.2101 14.158 11.5341 12.742 12.1821 10.186C12.8301 7.618 13.2081 5.764 13.3161 4.624ZM20.6989 4.246C20.6989 4.006 20.7949 3.778 20.9869 3.562C21.1789 3.346 21.3709 3.238 21.5629 3.238C21.7669 3.238 22.0069 3.484 22.2829 3.976C22.5589 4.456 22.6969 4.858 22.6969 5.182C22.6969 5.302 22.6429 5.41 22.5349 5.506C22.4269 5.602 22.3129 5.65 22.1929 5.65C21.9049 5.65 21.5809 5.476 21.2209 5.128C20.8729 4.78 20.6989 4.486 20.6989 4.246ZM20.6089 6.802C20.8369 6.802 21.0529 6.94 21.2569 7.216C21.4609 7.492 21.5629 7.762 21.5629 8.026C21.5629 8.29 21.3889 9.082 21.0409 10.402C20.6929 11.71 20.2549 13.18 19.7269 14.812C19.5229 15.412 19.2649 15.712 18.9529 15.712C18.7849 15.712 18.6409 15.646 18.5209 15.514C18.4009 15.37 18.3409 15.214 18.3409 15.046C18.3409 14.866 18.3829 14.59 18.4669 14.218C18.5629 13.834 18.6949 13.33 18.8629 12.706C19.0429 12.07 19.1809 11.554 19.2769 11.158C19.3849 10.762 19.4929 10.318 19.6009 9.826C19.7089 9.322 19.7929 8.92 19.8529 8.62C19.9249 8.308 20.0029 7.996 20.0869 7.684C20.2549 7.096 20.4289 6.802 20.6089 6.802ZM34.33 6.802C34.69 6.802 35.008 7.054 35.284 7.558C35.572 8.05 35.716 8.614 35.716 9.25C35.716 9.874 35.602 10.69 35.374 11.698C35.158 12.706 34.864 13.63 34.492 14.47C34.12 15.31 33.754 15.73 33.394 15.73C33.142 15.73 33.016 15.568 33.016 15.244C33.016 14.908 33.22 14.098 33.628 12.814C34.048 11.518 34.258 10.492 34.258 9.736C34.258 8.968 34.138 8.584 33.898 8.584C33.598 8.584 33.25 8.848 32.854 9.376C32.47 9.904 32.056 10.54 31.612 11.284C31.168 12.028 30.928 12.43 30.892 12.49C30.856 12.538 30.808 12.61 30.748 12.706C30.7 12.802 30.64 12.904 30.568 13.012C30.508 13.12 30.34 13.444 30.064 13.984C29.8 14.524 29.566 14.95 29.362 15.262C29.158 15.562 28.978 15.712 28.822 15.712C28.678 15.712 28.516 15.616 28.336 15.424C28.156 15.232 28.066 15.052 28.066 14.884C28.066 14.716 28.174 14.368 28.39 13.84C29.014 12.28 29.326 10.828 29.326 9.484C29.326 9.232 29.272 9.022 29.164 8.854C29.056 8.674 28.936 8.584 28.804 8.584C28.672 8.584 28.534 8.644 28.39 8.764C28.246 8.872 28.066 9.076 27.85 9.376C27.634 9.664 27.442 9.94 27.274 10.204C27.106 10.468 26.848 10.882 26.5 11.446C26.164 11.998 25.906 12.412 25.726 12.688C25.558 12.952 25.36 13.264 25.132 13.624C24.904 13.972 24.724 14.242 24.592 14.434C24.472 14.626 24.334 14.836 24.178 15.064C23.854 15.508 23.614 15.73 23.458 15.73C23.314 15.73 23.122 15.598 22.882 15.334C22.642 15.058 22.522 14.854 22.522 14.722C22.522 14.578 22.546 14.404 22.594 14.2C22.642 13.996 22.69 13.798 22.738 13.606C22.798 13.414 22.882 13.132 22.99 12.76C23.11 12.376 23.242 11.932 23.386 11.428C23.542 10.912 23.656 10.21 23.728 9.322C23.812 8.422 23.872 7.768 23.908 7.36C23.944 6.94 24.046 6.73 24.214 6.73C24.478 6.73 24.736 6.868 24.988 7.144C25.252 7.42 25.384 7.696 25.384 7.972C25.384 9.028 24.988 10.768 24.196 13.192C25.54 10.672 26.386 9.178 26.734 8.71C27.082 8.242 27.382 7.864 27.634 7.576C28.102 7.06 28.576 6.802 29.056 6.802C29.344 6.802 29.686 7.054 30.082 7.558C30.49 8.05 30.694 8.548 30.694 9.052C30.694 9.556 30.622 10.18 30.478 10.924C31.894 8.176 33.178 6.802 34.33 6.802ZM44.1921 9.79C44.1921 10.426 43.8441 10.948 43.1481 11.356C42.4641 11.752 41.6841 11.95 40.8081 11.95C39.9441 11.95 39.1581 11.854 38.4501 11.662C38.2821 12.19 38.1981 12.664 38.1981 13.084C38.1981 13.492 38.3241 13.81 38.5761 14.038C38.8401 14.266 39.2661 14.38 39.8541 14.38C40.4541 14.38 41.0661 14.278 41.6901 14.074C42.3261 13.858 42.6741 13.75 42.7341 13.75C43.0461 13.75 43.2021 13.87 43.2021 14.11C43.2021 14.434 42.8361 14.788 42.1041 15.172C41.3721 15.544 40.6581 15.73 39.9621 15.73C39.0261 15.73 38.2641 15.454 37.6761 14.902C37.0881 14.338 36.7941 13.63 36.7941 12.778C36.7941 11.926 37.0221 11.038 37.4781 10.114C37.9341 9.178 38.5221 8.392 39.2421 7.756C39.9621 7.12 40.6761 6.802 41.3841 6.802C42.0921 6.802 42.7341 7.138 43.3101 7.81C43.8981 8.482 44.1921 9.142 44.1921 9.79ZM41.4741 8.224C41.0301 8.224 40.5681 8.458 40.0881 8.926C39.6081 9.382 39.2001 9.952 38.8641 10.636C39.3441 10.744 39.8901 10.798 40.5021 10.798C41.1141 10.798 41.6481 10.702 42.1041 10.51C42.5601 10.306 42.7881 10.042 42.7881 9.718C42.7881 9.394 42.6381 9.064 42.3381 8.728C42.0501 8.392 41.7621 8.224 41.4741 8.224ZM54.3183 15.208C54.1383 15.58 53.9823 15.766 53.8503 15.766C53.7183 15.766 53.5563 15.658 53.3643 15.442C53.1723 15.214 53.0763 15.022 53.0763 14.866C53.0763 14.71 53.1423 14.404 53.2743 13.948C53.8503 12.016 54.2703 10.444 54.5343 9.232C53.9343 9.34 53.5503 9.394 53.3823 9.394C53.2143 9.394 53.0343 9.304 52.8423 9.124C52.6503 8.944 52.5543 8.758 52.5543 8.566C52.5543 8.362 52.7643 8.2 53.1843 8.08C53.6163 7.96 54.1803 7.84 54.8763 7.72C54.9243 7.48 54.9963 7.096 55.0923 6.568C55.3803 4.876 55.7643 3.676 56.2443 2.968C56.7243 2.248 57.3903 1.888 58.2423 1.888C58.8783 1.888 59.5443 2.182 60.2403 2.77C60.9363 3.346 61.2843 3.934 61.2843 4.534C61.2843 5.122 61.1343 5.416 60.8343 5.416C60.6183 5.416 60.3603 5.242 60.0603 4.894C59.7723 4.534 59.4663 4.18 59.1423 3.832C58.8303 3.472 58.5423 3.292 58.2783 3.292C57.6663 3.292 57.0843 4.54 56.5323 7.036L56.4243 7.504C57.9243 7.312 59.0583 7.216 59.8263 7.216C60.6063 7.216 60.9963 7.51 60.9963 8.098C60.9963 8.422 60.7263 9.442 60.1863 11.158C59.6463 12.862 59.2803 14.05 59.0883 14.722C58.8963 15.382 58.6443 15.712 58.3323 15.712C58.1523 15.712 58.0023 15.634 57.8823 15.478C57.7743 15.31 57.7203 15.124 57.7203 14.92C57.7203 14.704 57.8223 14.206 58.0263 13.426C58.2303 12.634 58.4703 11.734 58.7463 10.726C59.0223 9.706 59.2143 8.962 59.3223 8.494C58.7943 8.518 57.7083 8.674 56.0643 8.962C55.2363 12.418 54.6543 14.5 54.3183 15.208ZM65.394 3.274C65.394 5.53 64.926 8.458 63.99 12.058C63.39 14.506 62.97 15.73 62.73 15.73C62.562 15.73 62.364 15.598 62.136 15.334C61.92 15.07 61.812 14.866 61.812 14.722C61.812 14.578 61.986 13.834 62.334 12.49C62.682 11.146 63.03 9.496 63.378 7.54C63.726 5.572 63.9 3.802 63.9 2.23C63.9 2.062 63.924 1.942 63.972 1.87C64.02 1.798 64.122 1.762 64.278 1.762C64.434 1.762 64.656 1.936 64.944 2.284C65.244 2.62 65.394 2.95 65.394 3.274ZM69.8061 3.274C69.8061 5.53 69.3381 8.458 68.4021 12.058C67.8021 14.506 67.3821 15.73 67.1421 15.73C66.9741 15.73 66.7761 15.598 66.5481 15.334C66.3321 15.07 66.2241 14.866 66.2241 14.722C66.2241 14.578 66.3981 13.834 66.7461 12.49C67.0941 11.146 67.4421 9.496 67.7901 7.54C68.1381 5.572 68.3121 3.802 68.3121 2.23C68.3121 2.062 68.3361 1.942 68.3841 1.87C68.4321 1.798 68.5341 1.762 68.6901 1.762C68.8461 1.762 69.0681 1.936 69.3561 2.284C69.6561 2.62 69.8061 2.95 69.8061 3.274ZM84.2689 7.306C84.3169 7.114 84.3649 6.982 84.4129 6.91C84.4609 6.838 84.5629 6.802 84.7189 6.802C84.8869 6.802 85.0849 6.958 85.3129 7.27C85.5529 7.582 85.6729 7.882 85.6729 8.17C85.6729 8.326 85.4089 9.25 84.8809 10.942C84.3529 12.634 83.9449 13.978 83.6569 14.974C83.5129 15.478 83.3089 15.73 83.0449 15.73C82.8889 15.73 82.7569 15.664 82.6489 15.532C82.5409 15.4 82.4869 15.16 82.4869 14.812C82.4869 14.464 82.6249 13.834 82.9009 12.922C82.3969 13.738 81.8509 14.41 81.2629 14.938C80.6749 15.466 80.1349 15.73 79.6429 15.73C79.1629 15.73 78.7069 15.502 78.2749 15.046C77.8429 14.59 77.6269 14.122 77.6269 13.642C77.6269 12.502 77.9569 11.08 78.6169 9.376C79.2889 7.66 79.8469 6.802 80.2909 6.802C80.5069 6.802 80.6929 6.904 80.8489 7.108C81.0169 7.3 81.1009 7.522 81.1009 7.774C81.1009 7.882 80.9389 8.272 80.6149 8.944C80.2909 9.604 79.9669 10.384 79.6429 11.284C79.3189 12.172 79.1569 12.952 79.1569 13.624C79.1569 13.816 79.2169 13.978 79.3369 14.11C79.4569 14.23 79.6009 14.29 79.7689 14.29C80.2249 14.29 80.7649 13.888 81.3889 13.084C82.0249 12.28 82.6009 11.344 83.1169 10.276C83.6329 9.208 84.0169 8.218 84.2689 7.306ZM92.4489 6.748C92.9649 6.748 93.4089 7.078 93.7809 7.738C94.1649 8.398 94.3569 9.082 94.3569 9.79C94.3569 10.486 94.1529 11.188 93.7449 11.896C93.3369 12.592 92.8329 13.216 92.2329 13.768C91.6329 14.32 90.9669 14.782 90.2349 15.154C89.5149 15.514 88.8489 15.694 88.2369 15.694C87.9969 15.694 87.7689 15.664 87.5529 15.604C87.5049 15.808 87.4209 16.174 87.3009 16.702C87.1809 17.23 87.0789 17.668 86.9949 18.016C86.9109 18.364 86.8149 18.736 86.7069 19.132C86.4909 19.948 86.2989 20.356 86.1309 20.356C85.9629 20.356 85.7889 20.224 85.6089 19.96C85.4169 19.708 85.3209 19.48 85.3209 19.276C85.3209 19.072 85.5129 18.196 85.8969 16.648C87.0489 11.98 87.6249 8.836 87.6249 7.216C87.6249 6.856 87.7569 6.676 88.0209 6.676C88.2369 6.676 88.4949 6.838 88.7949 7.162C89.1069 7.474 89.2629 7.822 89.2629 8.206C89.2629 8.398 89.2389 8.608 89.1909 8.836C90.2589 7.444 91.3449 6.748 92.4489 6.748ZM88.0569 14.29C88.6929 14.29 89.3769 14.074 90.1089 13.642C90.8529 13.21 91.4829 12.64 91.9989 11.932C92.5269 11.212 92.7909 10.498 92.7909 9.79C92.7909 8.794 92.5569 8.296 92.0889 8.296C91.6209 8.296 90.9849 8.698 90.1809 9.502C89.3889 10.306 88.7589 11.35 88.2909 12.634L87.8769 14.29H88.0569ZM103.679 15.766C103.523 15.766 103.355 15.652 103.175 15.424C102.995 15.196 102.905 15.01 102.905 14.866C102.905 14.722 102.965 14.44 103.085 14.02C103.685 11.86 104.093 10.318 104.309 9.394C103.793 9.514 103.439 9.574 103.247 9.574C103.055 9.574 102.863 9.49 102.671 9.322C102.479 9.154 102.383 8.968 102.383 8.764C102.383 8.56 102.653 8.38 103.193 8.224C103.889 8.056 104.369 7.948 104.633 7.9C104.753 7.324 104.843 6.88 104.903 6.568C105.191 4.912 105.581 3.718 106.073 2.986C106.565 2.254 107.231 1.888 108.071 1.888C108.671 1.888 109.163 2.128 109.547 2.608C109.931 3.076 110.123 3.634 110.123 4.282C110.123 4.918 109.955 5.236 109.619 5.236C109.331 5.236 109.097 4.912 108.917 4.264C108.857 4.024 108.755 3.802 108.611 3.598C108.467 3.394 108.293 3.292 108.089 3.292C107.885 3.292 107.699 3.388 107.531 3.58C107.363 3.76 107.213 4.024 107.081 4.372C106.733 5.344 106.493 6.232 106.361 7.036L106.217 7.666C106.661 7.606 107.099 7.576 107.531 7.576C107.975 7.576 108.293 7.624 108.485 7.72C108.689 7.816 108.791 7.936 108.791 8.08C108.791 8.308 108.593 8.482 108.197 8.602C107.801 8.722 107.027 8.878 105.875 9.07C105.023 12.526 104.441 14.584 104.129 15.244C103.961 15.592 103.811 15.766 103.679 15.766ZM113.939 6.802C114.479 6.802 114.977 7.078 115.433 7.63C115.889 8.17 116.117 8.662 116.117 9.106C116.117 9.538 115.967 9.982 115.667 10.438C115.811 10.618 115.883 10.774 115.883 10.906C115.883 11.242 115.805 11.818 115.649 12.634C115.505 13.45 115.415 13.984 115.379 14.236C115.355 14.488 115.331 14.692 115.307 14.848C115.283 14.992 115.253 15.136 115.217 15.28C115.169 15.58 115.061 15.73 114.893 15.73C114.677 15.73 114.497 15.544 114.353 15.172C114.221 14.788 114.143 14.296 114.119 13.696C113.051 15.052 112.061 15.73 111.149 15.73C110.597 15.73 110.051 15.496 109.511 15.028C108.983 14.548 108.719 14.056 108.719 13.552C108.719 12.832 108.983 11.944 109.511 10.888C110.039 9.82 110.723 8.872 111.563 8.044C112.403 7.216 113.195 6.802 113.939 6.802ZM114.767 9.97C114.767 8.854 114.545 8.296 114.101 8.296C113.633 8.296 113.087 8.632 112.463 9.304C111.839 9.964 111.311 10.714 110.879 11.554C110.447 12.394 110.231 13.06 110.231 13.552C110.231 13.756 110.315 13.924 110.483 14.056C110.651 14.176 110.849 14.236 111.077 14.236C111.641 14.236 112.277 13.858 112.985 13.102C113.693 12.334 114.185 11.404 114.461 10.312C114.497 10.132 114.599 10.024 114.767 9.988V9.97ZM122.736 6.802C123.144 6.802 123.528 7.03 123.888 7.486C124.248 7.93 124.428 8.32 124.428 8.656C124.428 8.86 124.332 8.962 124.14 8.962C124.008 8.962 123.804 8.86 123.528 8.656C123.252 8.44 122.97 8.332 122.682 8.332C122.394 8.332 121.938 8.5 121.314 8.836C120.702 9.172 120.396 9.526 120.396 9.898C120.396 10.174 120.948 10.648 122.052 11.32C122.472 11.584 122.85 11.926 123.186 12.346C123.534 12.754 123.708 13.198 123.708 13.678C123.708 14.146 123.378 14.608 122.718 15.064C122.07 15.508 121.308 15.73 120.432 15.73C119.568 15.73 118.8 15.52 118.128 15.1C117.468 14.68 117.138 14.284 117.138 13.912C117.138 13.756 117.174 13.636 117.246 13.552C117.33 13.456 117.432 13.408 117.552 13.408C117.672 13.408 117.84 13.486 118.056 13.642C118.704 14.11 119.376 14.344 120.072 14.344C120.78 14.344 121.29 14.266 121.602 14.11C121.914 13.942 122.07 13.726 122.07 13.462C122.07 13.186 121.896 12.898 121.548 12.598C121.2 12.286 120.816 12.01 120.396 11.77C119.988 11.53 119.61 11.236 119.262 10.888C118.914 10.54 118.74 10.186 118.74 9.826C118.74 9.19 119.238 8.53 120.234 7.846C121.242 7.15 122.076 6.802 122.736 6.802ZM127.268 13.93C127.268 14.158 127.4 14.272 127.664 14.272C128.12 14.272 128.672 14.146 129.32 13.894C129.98 13.63 130.346 13.498 130.418 13.498C130.634 13.498 130.742 13.612 130.742 13.84C130.742 14.188 130.382 14.59 129.662 15.046C128.954 15.502 128.306 15.73 127.718 15.73C127.142 15.73 126.662 15.574 126.278 15.262C125.894 14.938 125.702 14.608 125.702 14.272C125.702 13.936 125.774 13.51 125.918 12.994C126.062 12.466 126.266 11.776 126.53 10.924C126.806 10.06 127.022 9.346 127.178 8.782C126.614 8.914 126.236 8.98 126.044 8.98C125.852 8.98 125.66 8.884 125.468 8.692C125.288 8.488 125.198 8.296 125.198 8.116C125.198 7.828 125.978 7.552 127.538 7.288C127.754 6.292 127.862 5.41 127.862 4.642C127.862 4.282 127.982 4.102 128.222 4.102C128.426 4.102 128.678 4.234 128.978 4.498C129.278 4.75 129.428 5.038 129.428 5.362C129.428 5.686 129.326 6.256 129.122 7.072C129.806 7.012 130.352 6.982 130.76 6.982C131.48 6.982 131.84 7.138 131.84 7.45C131.84 7.63 131.642 7.78 131.246 7.9C130.862 8.02 130.046 8.206 128.798 8.458C128.546 9.406 128.228 10.492 127.844 11.716C127.46 12.928 127.268 13.666 127.268 13.93ZM134.787 15.532C134.787 16.288 134.463 17.08 133.815 17.908C133.167 18.748 132.609 19.168 132.141 19.168C131.901 19.168 131.781 19.084 131.781 18.916C131.781 18.784 131.907 18.568 132.159 18.268C132.915 17.368 133.293 16.618 133.293 16.018C133.293 15.826 133.215 15.67 133.059 15.55C132.915 15.418 132.765 15.298 132.609 15.19C132.453 15.082 132.375 14.95 132.375 14.794C132.375 14.626 132.477 14.422 132.681 14.182C132.885 13.93 133.101 13.804 133.329 13.804C133.713 13.804 134.049 13.984 134.337 14.344C134.637 14.692 134.787 15.088 134.787 15.532ZM148.682 6.802C149.09 6.802 149.474 7.03 149.834 7.486C150.194 7.93 150.374 8.32 150.374 8.656C150.374 8.86 150.278 8.962 150.086 8.962C149.954 8.962 149.75 8.86 149.474 8.656C149.198 8.44 148.916 8.332 148.628 8.332C148.34 8.332 147.884 8.5 147.26 8.836C146.648 9.172 146.342 9.526 146.342 9.898C146.342 10.174 146.894 10.648 147.998 11.32C148.418 11.584 148.796 11.926 149.132 12.346C149.48 12.754 149.654 13.198 149.654 13.678C149.654 14.146 149.324 14.608 148.664 15.064C148.016 15.508 147.254 15.73 146.378 15.73C145.514 15.73 144.746 15.52 144.074 15.1C143.414 14.68 143.084 14.284 143.084 13.912C143.084 13.756 143.12 13.636 143.192 13.552C143.276 13.456 143.378 13.408 143.498 13.408C143.618 13.408 143.786 13.486 144.002 13.642C144.65 14.11 145.322 14.344 146.018 14.344C146.726 14.344 147.236 14.266 147.548 14.11C147.86 13.942 148.016 13.726 148.016 13.462C148.016 13.186 147.842 12.898 147.494 12.598C147.146 12.286 146.762 12.01 146.342 11.77C145.934 11.53 145.556 11.236 145.208 10.888C144.86 10.54 144.686 10.186 144.686 9.826C144.686 9.19 145.184 8.53 146.18 7.846C147.188 7.15 148.022 6.802 148.682 6.802ZM156.634 9.862C156.634 9.454 156.568 9.07 156.436 8.71C156.304 8.338 156.112 8.068 155.86 7.9C155.032 8.128 154.318 8.77 153.718 9.826C153.13 10.87 152.836 11.854 152.836 12.778C152.836 13.702 153.064 14.278 153.52 14.506C154.384 14.338 155.116 13.75 155.716 12.742C156.328 11.722 156.634 10.762 156.634 9.862ZM151.9 10.024C152.32 9.088 152.866 8.32 153.538 7.72C154.222 7.108 154.918 6.802 155.626 6.802C156.346 6.802 156.946 7.108 157.426 7.72C157.906 8.32 158.146 9.058 158.146 9.934C158.146 10.798 157.936 11.686 157.516 12.598C157.096 13.498 156.514 14.248 155.77 14.848C155.038 15.436 154.258 15.73 153.43 15.73C152.818 15.73 152.308 15.448 151.9 14.884C151.492 14.32 151.288 13.606 151.288 12.742C151.288 11.866 151.492 10.96 151.9 10.024ZM46.639 23.762C46.831 23.762 47.065 23.942 47.341 24.302C47.629 24.65 47.773 24.98 47.773 25.292C47.773 25.604 47.623 26.492 47.323 27.956C47.023 29.408 46.675 30.914 46.279 32.474C45.415 35.978 44.845 37.73 44.569 37.73C44.401 37.73 44.215 37.628 44.011 37.424C43.819 37.208 43.723 37.022 43.723 36.866C43.723 36.71 43.765 36.398 43.849 35.93C42.673 37.13 41.647 37.73 40.771 37.73C40.243 37.73 39.763 37.49 39.331 37.01C38.911 36.53 38.701 36.032 38.701 35.516C38.701 34.772 38.899 33.89 39.295 32.87C39.703 31.838 40.285 30.902 41.041 30.062C41.797 29.222 42.601 28.802 43.453 28.802C44.305 28.802 44.899 29.312 45.235 30.332C45.847 27.788 46.183 25.778 46.243 24.302C46.243 23.942 46.375 23.762 46.639 23.762ZM44.659 32.6C44.659 31.952 44.545 31.406 44.317 30.962C44.101 30.518 43.837 30.296 43.525 30.296C43.009 30.296 42.481 30.614 41.941 31.25C41.401 31.886 40.969 32.618 40.645 33.446C40.333 34.262 40.177 34.97 40.177 35.57C40.177 35.786 40.255 35.96 40.411 36.092C40.567 36.224 40.753 36.29 40.969 36.29C41.437 36.29 42.067 35.954 42.859 35.282C43.663 34.61 44.245 33.818 44.605 32.906L44.659 32.69V32.6ZM53.3534 31.862C53.3534 31.454 53.2874 31.07 53.1554 30.71C53.0234 30.338 52.8314 30.068 52.5794 29.9C51.7514 30.128 51.0374 30.77 50.4374 31.826C49.8494 32.87 49.5554 33.854 49.5554 34.778C49.5554 35.702 49.7834 36.278 50.2394 36.506C51.1034 36.338 51.8354 35.75 52.4354 34.742C53.0474 33.722 53.3534 32.762 53.3534 31.862ZM48.6194 32.024C49.0394 31.088 49.5854 30.32 50.2574 29.72C50.9414 29.108 51.6374 28.802 52.3454 28.802C53.0654 28.802 53.6654 29.108 54.1454 29.72C54.6254 30.32 54.8654 31.058 54.8654 31.934C54.8654 32.798 54.6554 33.686 54.2354 34.598C53.8154 35.498 53.2334 36.248 52.4894 36.848C51.7574 37.436 50.9774 37.73 50.1494 37.73C49.5374 37.73 49.0274 37.448 48.6194 36.884C48.2114 36.32 48.0074 35.606 48.0074 34.742C48.0074 33.866 48.2114 32.96 48.6194 32.024ZM65.3142 35.93C65.3142 36.158 65.4462 36.272 65.7102 36.272C66.1662 36.272 66.7182 36.146 67.3662 35.894C68.0262 35.63 68.3922 35.498 68.4642 35.498C68.6802 35.498 68.7882 35.612 68.7882 35.84C68.7882 36.188 68.4282 36.59 67.7082 37.046C67.0002 37.502 66.3522 37.73 65.7642 37.73C65.1882 37.73 64.7082 37.574 64.3242 37.262C63.9402 36.938 63.7482 36.608 63.7482 36.272C63.7482 35.936 63.8202 35.51 63.9642 34.994C64.1082 34.466 64.3122 33.776 64.5762 32.924C64.8522 32.06 65.0682 31.346 65.2242 30.782C64.6602 30.914 64.2822 30.98 64.0902 30.98C63.8982 30.98 63.7062 30.884 63.5142 30.692C63.3342 30.488 63.2442 30.296 63.2442 30.116C63.2442 29.828 64.0242 29.552 65.5842 29.288C65.8002 28.292 65.9082 27.41 65.9082 26.642C65.9082 26.282 66.0282 26.102 66.2682 26.102C66.4722 26.102 66.7242 26.234 67.0242 26.498C67.3242 26.75 67.4742 27.038 67.4742 27.362C67.4742 27.686 67.3722 28.256 67.1682 29.072C67.8522 29.012 68.3982 28.982 68.8062 28.982C69.5262 28.982 69.8862 29.138 69.8862 29.45C69.8862 29.63 69.6882 29.78 69.2922 29.9C68.9082 30.02 68.0922 30.206 66.8442 30.458C66.5922 31.406 66.2742 32.492 65.8902 33.716C65.5062 34.928 65.3142 35.666 65.3142 35.93ZM72.3832 24.464C72.3832 23.996 72.5272 23.762 72.8152 23.762C73.0432 23.762 73.2832 23.942 73.5352 24.302C73.7992 24.662 73.9312 25.01 73.9312 25.346C73.9312 26.126 73.7332 27.458 73.3372 29.342C72.9532 31.214 72.4492 33.086 71.8252 34.958C73.0252 32.786 74.0272 31.22 74.8312 30.26C75.6472 29.288 76.3432 28.802 76.9192 28.802C77.2312 28.802 77.5912 29.072 77.9992 29.612C78.4192 30.152 78.6292 30.692 78.6292 31.232C78.6292 31.772 78.4792 32.582 78.1792 33.662C77.4352 36.374 76.7332 37.73 76.0732 37.73C75.8092 37.73 75.6772 37.55 75.6772 37.19C75.6772 36.83 75.8212 36.224 76.1092 35.372C76.7452 33.512 77.0632 32.258 77.0632 31.61C77.0632 31.394 77.0092 31.214 76.9012 31.07C76.7932 30.926 76.6612 30.854 76.5052 30.854C76.3492 30.854 76.1572 30.938 75.9292 31.106C75.7012 31.274 75.4252 31.568 75.1012 31.988C74.6932 32.528 74.2672 33.134 73.8232 33.806C73.3912 34.478 73.1272 34.886 73.0312 35.03C72.9472 35.162 72.7912 35.408 72.5632 35.768C72.3472 36.128 72.1852 36.398 72.0772 36.578C71.9692 36.746 71.8372 36.932 71.6812 37.136C71.4052 37.532 71.1952 37.73 71.0512 37.73C70.9072 37.73 70.7152 37.598 70.4752 37.334C70.2352 37.058 70.1152 36.83 70.1152 36.65C70.1152 36.458 70.1812 36.104 70.3132 35.588C70.9132 33.284 71.2912 31.706 71.4472 30.854C72.0712 27.734 72.3832 25.604 72.3832 24.464ZM82.2136 26.246C82.2136 26.006 82.3096 25.778 82.5016 25.562C82.6936 25.346 82.8856 25.238 83.0776 25.238C83.2816 25.238 83.5216 25.484 83.7976 25.976C84.0736 26.456 84.2116 26.858 84.2116 27.182C84.2116 27.302 84.1576 27.41 84.0496 27.506C83.9416 27.602 83.8276 27.65 83.7076 27.65C83.4196 27.65 83.0956 27.476 82.7356 27.128C82.3876 26.78 82.2136 26.486 82.2136 26.246ZM82.1236 28.802C82.3516 28.802 82.5676 28.94 82.7716 29.216C82.9756 29.492 83.0776 29.762 83.0776 30.026C83.0776 30.29 82.9036 31.082 82.5556 32.402C82.2076 33.71 81.7696 35.18 81.2416 36.812C81.0376 37.412 80.7796 37.712 80.4676 37.712C80.2996 37.712 80.1556 37.646 80.0356 37.514C79.9156 37.37 79.8556 37.214 79.8556 37.046C79.8556 36.866 79.8976 36.59 79.9816 36.218C80.0776 35.834 80.2096 35.33 80.3776 34.706C80.5576 34.07 80.6956 33.554 80.7916 33.158C80.8996 32.762 81.0076 32.318 81.1156 31.826C81.2236 31.322 81.3076 30.92 81.3676 30.62C81.4396 30.308 81.5176 29.996 81.6016 29.684C81.7696 29.096 81.9436 28.802 82.1236 28.802ZM89.3466 28.802C89.7546 28.802 90.1386 29.03 90.4986 29.486C90.8586 29.93 91.0386 30.32 91.0386 30.656C91.0386 30.86 90.9426 30.962 90.7506 30.962C90.6186 30.962 90.4146 30.86 90.1386 30.656C89.8626 30.44 89.5806 30.332 89.2926 30.332C89.0046 30.332 88.5486 30.5 87.9246 30.836C87.3126 31.172 87.0066 31.526 87.0066 31.898C87.0066 32.174 87.5586 32.648 88.6626 33.32C89.0826 33.584 89.4606 33.926 89.7966 34.346C90.1446 34.754 90.3186 35.198 90.3186 35.678C90.3186 36.146 89.9886 36.608 89.3286 37.064C88.6806 37.508 87.9186 37.73 87.0426 37.73C86.1786 37.73 85.4106 37.52 84.7386 37.1C84.0786 36.68 83.7486 36.284 83.7486 35.912C83.7486 35.756 83.7846 35.636 83.8566 35.552C83.9406 35.456 84.0426 35.408 84.1626 35.408C84.2826 35.408 84.4506 35.486 84.6666 35.642C85.3146 36.11 85.9866 36.344 86.6826 36.344C87.3906 36.344 87.9006 36.266 88.2126 36.11C88.5246 35.942 88.6806 35.726 88.6806 35.462C88.6806 35.186 88.5066 34.898 88.1586 34.598C87.8106 34.286 87.4266 34.01 87.0066 33.77C86.5986 33.53 86.2206 33.236 85.8726 32.888C85.5246 32.54 85.3506 32.186 85.3506 31.826C85.3506 31.19 85.8486 30.53 86.8446 29.846C87.8526 29.15 88.6866 28.802 89.3466 28.802ZM101.067 37.208C100.887 37.58 100.731 37.766 100.599 37.766C100.467 37.766 100.305 37.658 100.113 37.442C99.9213 37.214 99.8253 37.022 99.8253 36.866C99.8253 36.71 99.8913 36.404 100.023 35.948C100.599 34.016 101.019 32.444 101.283 31.232C100.683 31.34 100.299 31.394 100.131 31.394C99.9633 31.394 99.7833 31.304 99.5913 31.124C99.3993 30.944 99.3033 30.758 99.3033 30.566C99.3033 30.362 99.5133 30.2 99.9333 30.08C100.365 29.96 100.929 29.84 101.625 29.72C101.673 29.48 101.745 29.096 101.841 28.568C102.129 26.876 102.513 25.676 102.993 24.968C103.473 24.248 104.139 23.888 104.991 23.888C105.627 23.888 106.293 24.182 106.989 24.77C107.685 25.346 108.033 25.934 108.033 26.534C108.033 27.122 107.883 27.416 107.583 27.416C107.367 27.416 107.109 27.242 106.809 26.894C106.521 26.534 106.215 26.18 105.891 25.832C105.579 25.472 105.291 25.292 105.027 25.292C104.415 25.292 103.833 26.54 103.281 29.036L103.173 29.504C104.673 29.312 105.807 29.216 106.575 29.216C107.355 29.216 107.745 29.51 107.745 30.098C107.745 30.422 107.475 31.442 106.935 33.158C106.395 34.862 106.029 36.05 105.837 36.722C105.645 37.382 105.393 37.712 105.081 37.712C104.901 37.712 104.751 37.634 104.631 37.478C104.523 37.31 104.469 37.124 104.469 36.92C104.469 36.704 104.571 36.206 104.775 35.426C104.979 34.634 105.219 33.734 105.495 32.726C105.771 31.706 105.963 30.962 106.071 30.494C105.543 30.518 104.457 30.674 102.813 30.962C101.985 34.418 101.403 36.5 101.067 37.208ZM109.677 30.998L109.623 29.648C109.623 29.084 109.755 28.802 110.019 28.802C110.247 28.802 110.463 28.952 110.667 29.252C110.883 29.54 110.991 29.888 110.991 30.296C110.991 30.692 110.979 30.992 110.955 31.196C111.999 29.612 112.989 28.82 113.925 28.82C114.513 28.82 114.807 28.964 114.807 29.252C114.807 29.396 114.741 29.528 114.609 29.648C114.477 29.768 114.267 29.906 113.979 30.062C113.343 30.338 112.803 30.764 112.359 31.34C111.927 31.904 111.573 32.546 111.297 33.266C111.021 33.986 110.799 34.592 110.631 35.084C110.475 35.576 110.355 35.96 110.271 36.236C110.187 36.512 110.091 36.782 109.983 37.046C109.791 37.526 109.569 37.766 109.317 37.766C109.113 37.766 108.945 37.652 108.813 37.424C108.693 37.184 108.633 36.956 108.633 36.74C108.633 36.512 108.735 36.068 108.939 35.408C109.431 33.896 109.677 32.426 109.677 30.998ZM119.704 28.802C120.112 28.802 120.496 29.03 120.856 29.486C121.216 29.93 121.396 30.32 121.396 30.656C121.396 30.86 121.3 30.962 121.108 30.962C120.976 30.962 120.772 30.86 120.496 30.656C120.22 30.44 119.938 30.332 119.65 30.332C119.362 30.332 118.906 30.5 118.282 30.836C117.67 31.172 117.364 31.526 117.364 31.898C117.364 32.174 117.916 32.648 119.02 33.32C119.44 33.584 119.818 33.926 120.154 34.346C120.502 34.754 120.676 35.198 120.676 35.678C120.676 36.146 120.346 36.608 119.686 37.064C119.038 37.508 118.276 37.73 117.4 37.73C116.536 37.73 115.768 37.52 115.096 37.1C114.436 36.68 114.106 36.284 114.106 35.912C114.106 35.756 114.142 35.636 114.214 35.552C114.298 35.456 114.4 35.408 114.52 35.408C114.64 35.408 114.808 35.486 115.024 35.642C115.672 36.11 116.344 36.344 117.04 36.344C117.748 36.344 118.258 36.266 118.57 36.11C118.882 35.942 119.038 35.726 119.038 35.462C119.038 35.186 118.864 34.898 118.516 34.598C118.168 34.286 117.784 34.01 117.364 33.77C116.956 33.53 116.578 33.236 116.23 32.888C115.882 32.54 115.708 32.186 115.708 31.826C115.708 31.19 116.206 30.53 117.202 29.846C118.21 29.15 119.044 28.802 119.704 28.802ZM124.236 35.93C124.236 36.158 124.368 36.272 124.632 36.272C125.088 36.272 125.64 36.146 126.288 35.894C126.948 35.63 127.314 35.498 127.386 35.498C127.602 35.498 127.71 35.612 127.71 35.84C127.71 36.188 127.35 36.59 126.63 37.046C125.922 37.502 125.274 37.73 124.686 37.73C124.11 37.73 123.63 37.574 123.246 37.262C122.862 36.938 122.67 36.608 122.67 36.272C122.67 35.936 122.742 35.51 122.886 34.994C123.03 34.466 123.234 33.776 123.498 32.924C123.774 32.06 123.99 31.346 124.146 30.782C123.582 30.914 123.204 30.98 123.012 30.98C122.82 30.98 122.628 30.884 122.436 30.692C122.256 30.488 122.166 30.296 122.166 30.116C122.166 29.828 122.946 29.552 124.506 29.288C124.722 28.292 124.83 27.41 124.83 26.642C124.83 26.282 124.95 26.102 125.19 26.102C125.394 26.102 125.646 26.234 125.946 26.498C126.246 26.75 126.396 27.038 126.396 27.362C126.396 27.686 126.294 28.256 126.09 29.072C126.774 29.012 127.32 28.982 127.728 28.982C128.448 28.982 128.808 29.138 128.808 29.45C128.808 29.63 128.61 29.78 128.214 29.9C127.83 30.02 127.014 30.206 125.766 30.458C125.514 31.406 125.196 32.492 124.812 33.716C124.428 34.928 124.236 35.666 124.236 35.93Z" fill="#555D80"/>
<path d="M74.5 62.0001C74.5 89.3082 99 90.5001 114.333 89.3082" stroke="#555D80"/>
<path d="M117.61 94.515L122.905 89.1104L117.559 84.4465" stroke="#555D80" stroke-linecap="round" stroke-linejoin="round"/>
</svg>
