<svg width="18" height="18" viewBox="0 0 18 18" fill="none" xmlns="http://www.w3.org/2000/svg">
<path d="M3.14889 7.70742C3.1149 6.90504 3.2436 6.10407 3.52722 5.35272C3.81085 4.60137 4.24355 3.91516 4.79928 3.33539C5.35502 2.75562 6.0223 2.29427 6.76098 1.97911C7.49965 1.66394 8.29445 1.50146 9.09756 1.50146C9.90066 1.50146 10.6955 1.66394 11.4341 1.97911C12.1728 2.29427 12.8401 2.75562 13.3958 3.33539C13.9516 3.91516 14.3843 4.60137 14.6679 5.35272C14.9515 6.10407 15.0802 6.90504 15.0462 7.70742" stroke="#FFCB13" stroke-width="1.5" stroke-linecap="round" stroke-linejoin="round"/>
<path d="M14.1776 13.182C13.7218 13.8227 13.1435 14.3665 12.4761 14.7822C11.8087 15.1978 11.0655 15.4769 10.2896 15.6033" stroke="#FFCB13" stroke-width="1.5" stroke-linecap="round" stroke-linejoin="round"/>
<path d="M4.96818 11.5667C5.02796 11.9612 4.92922 12.3634 4.69351 12.6853C4.51912 12.9231 4.27788 13.1035 4.00054 13.2037C3.72321 13.3038 3.42234 13.3191 3.13629 13.2476C2.85024 13.176 2.59196 13.021 2.39437 12.8021C2.19679 12.5833 2.06884 12.3105 2.02684 12.0187L1.63551 9.43268C1.57536 9.03813 1.67413 8.63583 1.91018 8.31401C2.0844 8.07595 2.32562 7.89521 2.60303 7.79488C2.88045 7.69455 3.18147 7.67918 3.46766 7.75073C3.75386 7.82228 4.01223 7.9775 4.2098 8.19658C4.40736 8.41565 4.53515 8.68864 4.57684 8.98068L4.96818 11.5667Z" stroke="#FFCB13" stroke-width="1.5" stroke-linecap="round" stroke-linejoin="round"/>
<path d="M13.2682 11.5667C13.2084 11.9612 13.3071 12.3634 13.5428 12.6853C13.7172 12.9231 13.9585 13.1035 14.2358 13.2037C14.5131 13.3038 14.814 13.3191 15.1 13.2476C15.3861 13.176 15.6444 13.021 15.842 12.8021C16.0395 12.5833 16.1675 12.3105 16.2095 12.0187L16.6002 9.43268C16.6603 9.03813 16.5615 8.63583 16.3255 8.31401C16.1513 8.07595 15.91 7.89521 15.6326 7.79488C15.3552 7.69455 15.0542 7.67918 14.768 7.75073C14.4818 7.82228 14.2234 7.9775 14.0259 8.19658C13.8283 8.41565 13.7005 8.68864 13.6588 8.98068L13.2682 11.5667Z" stroke="#FFCB13" stroke-width="1.5" stroke-linecap="round" stroke-linejoin="round"/>
<path d="M9.09754 16.5072C9.78238 16.5072 10.3375 15.9476 10.3375 15.2572C10.3375 14.5668 9.78238 14.0072 9.09754 14.0072C8.41271 14.0072 7.85754 14.5668 7.85754 15.2572C7.85754 15.9476 8.41271 16.5072 9.09754 16.5072Z" stroke="#FFCB13" stroke-width="1.5" stroke-linecap="round" stroke-linejoin="round"/>
</svg>
