<svg width="25" height="25" viewBox="0 0 25 25" fill="none" xmlns="http://www.w3.org/2000/svg">
<path d="M3.05664 4.12179C3.05664 3.56348 3.51001 3.11011 4.06833 3.11011H20.3837C20.942 3.11011 21.3953 3.56348 21.3953 4.12179V20.4371C21.3951 20.7054 21.2884 20.9625 21.0987 21.1522C20.9091 21.3419 20.6519 21.4485 20.3837 21.4488H4.06833C3.80009 21.4485 3.54292 21.3419 3.35325 21.1522C3.16358 20.9625 3.05691 20.7054 3.05664 20.4371V4.12179ZM10.8221 8.627C10.7607 8.58609 10.6895 8.56258 10.6159 8.55897C10.5422 8.55535 10.469 8.57178 10.404 8.60648C10.339 8.64119 10.2846 8.69289 10.2466 8.75607C10.2086 8.81925 10.1885 8.89154 10.1884 8.96525V15.5937C10.1885 15.6674 10.2086 15.7397 10.2466 15.8029C10.2846 15.866 10.339 15.9177 10.404 15.9524C10.469 15.9871 10.5422 16.0036 10.6159 16C10.6895 15.9963 10.7607 15.9728 10.8221 15.9319L15.7929 12.6187C15.8488 12.5815 15.8946 12.5311 15.9263 12.4719C15.958 12.4127 15.9746 12.3466 15.9746 12.2795C15.9746 12.2123 15.958 12.1462 15.9263 12.087C15.8946 12.0278 15.8488 11.9774 15.7929 11.9402L10.821 8.627H10.8221Z" fill="#0F131A"/>
</svg>
