<svg width="25" height="25" viewBox="0 0 25 25" fill="none" xmlns="http://www.w3.org/2000/svg">
<g opacity="0.3">
<path d="M3 4.57341C3 4.0151 3.45337 3.56172 4.01169 3.56172H20.327C20.8853 3.56172 21.3387 4.0151 21.3387 4.57341V20.8887C21.3384 21.157 21.2318 21.4141 21.0421 21.6038C20.8524 21.7935 20.5953 21.9002 20.327 21.9004H4.01169C3.74345 21.9002 3.48628 21.7935 3.29661 21.6038C3.10694 21.4141 3.00027 21.157 3 20.8887V4.57341ZM10.7654 9.07862C10.7041 9.03771 10.6328 9.01419 10.5592 9.01058C10.4856 9.00697 10.4124 9.02339 10.3473 9.0581C10.2823 9.09281 10.2279 9.1445 10.19 9.20768C10.152 9.27086 10.1319 9.34315 10.1317 9.41686V16.0453C10.1319 16.119 10.152 16.1913 10.19 16.2545C10.2279 16.3176 10.2823 16.3693 10.3473 16.4041C10.4124 16.4388 10.4856 16.4552 10.5592 16.4516C10.6328 16.448 10.7041 16.4244 10.7654 16.3835L15.7362 13.0703C15.7921 13.0331 15.838 12.9827 15.8697 12.9235C15.9014 12.8643 15.918 12.7982 15.918 12.7311C15.918 12.6639 15.9014 12.5978 15.8697 12.5386C15.838 12.4794 15.7921 12.429 15.7362 12.3918L10.7644 9.07862H10.7654Z" fill="white"/>
</g>
</svg>
