<svg width="25" height="25" viewBox="0 0 25 25" fill="none" xmlns="http://www.w3.org/2000/svg">
<path d="M3.05664 4.12185C3.05664 3.56353 3.51001 3.11016 4.06833 3.11016H20.3837C20.942 3.11016 21.3953 3.56353 21.3953 4.12185V20.4372C21.3951 20.7054 21.2884 20.9626 21.0987 21.1523C20.9091 21.3419 20.6519 21.4486 20.3837 21.4489H4.06833C3.80009 21.4486 3.54292 21.3419 3.35325 21.1523C3.16358 20.9626 3.05691 20.7054 3.05664 20.4372V4.12185ZM10.8221 8.62706C10.7607 8.58615 10.6895 8.56263 10.6159 8.55902C10.5422 8.55541 10.469 8.57183 10.404 8.60654C10.339 8.64125 10.2846 8.69294 10.2466 8.75612C10.2086 8.8193 10.1885 8.89159 10.1884 8.9653V15.5937C10.1885 15.6674 10.2086 15.7397 10.2466 15.8029C10.2846 15.8661 10.339 15.9178 10.404 15.9525C10.469 15.9872 10.5422 16.0036 10.6159 16C10.6895 15.9964 10.7607 15.9729 10.8221 15.932L15.7929 12.6188C15.8488 12.5816 15.8946 12.5311 15.9263 12.472C15.958 12.4128 15.9746 12.3467 15.9746 12.2795C15.9746 12.2124 15.958 12.1463 15.9263 12.0871C15.8946 12.0279 15.8488 11.9775 15.7929 11.9402L10.821 8.62706H10.8221Z" fill="#FFC700"/>
</svg>
