<svg width="25" height="25" viewBox="0 0 25 25" fill="none" xmlns="http://www.w3.org/2000/svg">
<path d="M3 4.01169C3 3.45337 3.45337 3 4.01169 3H20.327C20.8853 3 21.3387 3.45337 21.3387 4.01169V20.327C21.3384 20.5953 21.2318 20.8524 21.0421 21.0421C20.8524 21.2318 20.5953 21.3384 20.327 21.3387H4.01169C3.74345 21.3384 3.48628 21.2318 3.29661 21.0421C3.10694 20.8524 3.00027 20.5953 3 20.327V4.01169ZM10.7654 8.5169C10.7041 8.47599 10.6328 8.45247 10.5592 8.44886C10.4856 8.44525 10.4124 8.46167 10.3473 8.49638C10.2823 8.53109 10.2279 8.58278 10.19 8.64596C10.152 8.70914 10.1319 8.78143 10.1317 8.85514V15.4836C10.1319 15.5573 10.152 15.6296 10.19 15.6927C10.2279 15.7559 10.2823 15.8076 10.3473 15.8423C10.4124 15.877 10.4856 15.8935 10.5592 15.8899C10.6328 15.8862 10.7041 15.8627 10.7654 15.8218L15.7362 12.5086C15.7921 12.4714 15.838 12.421 15.8697 12.3618C15.9014 12.3026 15.918 12.2365 15.918 12.1694C15.918 12.1022 15.9014 12.0361 15.8697 11.9769C15.838 11.9177 15.7921 11.8673 15.7362 11.8301L10.7644 8.5169H10.7654Z" fill="#FFC700"/>
</svg>
